<svg width="28" height="24" viewBox="0 0 28 24" fill="none" xmlns="http://www.w3.org/2000/svg">
<path d="M10.2608 22.7391C10.4786 22.9582 10.7744 23.082 11.0833 23.0833C11.3143 23.0812 11.5394 23.0106 11.7302 22.8804C11.921 22.7502 12.0689 22.5664 12.1551 22.3521C12.2413 22.1378 12.262 21.9028 12.2145 21.6768C12.167 21.4507 12.0535 21.2439 11.8883 21.0825L3.97247 13.1666H26.25C26.5594 13.1666 26.8561 13.0436 27.075 12.8249C27.2938 12.6061 27.4166 12.3093 27.4166 11.9999C27.4166 11.6905 27.2938 11.3937 27.075 11.175C26.8561 10.9562 26.5594 10.8333 26.25 10.8333H3.97253L11.9117 2.8941C12.1306 2.67517 12.2535 2.3783 12.2535 2.06866C12.2535 1.75909 12.1306 1.46216 11.9117 1.24329C11.6927 1.02435 11.3958 0.901367 11.0862 0.901367C10.7767 0.901367 10.4797 1.02435 10.2608 1.24329L0.344177 11.1599C0.124573 11.3845 0.00109863 11.6859 0 11.9999C0.00128174 12.3088 0.125061 12.6046 0.344177 12.8224L10.2608 22.7391Z" fill="white"/>
</svg>
