<svg width="12" height="12" viewBox="0 0 12 12" fill="none" xmlns="http://www.w3.org/2000/svg">
<path fill-rule="evenodd" clip-rule="evenodd" d="M0.351469 0.351469C0.820106 -0.117156 1.5799 -0.117156 2.04854 0.351469L6.00002 4.30297L9.95151 0.351469C10.4201 -0.117156 11.1799 -0.117156 11.6485 0.351469C12.1172 0.820106 12.1172 1.5799 11.6485 2.04854L7.69706 6.00002L11.6485 9.95151C12.1172 10.4201 12.1172 11.1799 11.6485 11.6485C11.1799 12.1172 10.4201 12.1172 9.95151 11.6485L6.00002 7.69706L2.04854 11.6485C1.5799 12.1172 0.820106 12.1172 0.351469 11.6485C-0.117156 11.1799 -0.117156 10.4201 0.351469 9.95151L4.30297 6.00002L0.351469 2.04854C-0.117156 1.5799 -0.117156 0.820106 0.351469 0.351469Z" fill="#2C2C2C"/>
</svg>
