<svg version="1.1" id="Layer_1" xmlns="http://www.w3.org/2000/svg" xmlns:xlink="http://www.w3.org/1999/xlink" x="0px" y="0px"
	 viewBox="0 0 24 24" style="enable-background:new 0 0 24 24;" xml:space="preserve">
<style type="text/css">
	.st0{fill:#DEDEDE;}
</style>
<path class="st0" d="M18.3,9.8c-0.2-1.3-1-2.3-2.1-2.7C15,6.7,13.7,7,12.7,7.8c0,0-0.5,0.5-0.7,0.7c-0.3-0.3-0.7-0.7-0.7-0.7
	C10.3,7,9,6.7,7.9,7.1c-1.2,0.4-2,1.4-2.1,2.7c-0.2,1.5,0.4,4.6,6.1,8.5l0.2,0.1l0.2-0.1C17.9,14.4,18.5,11.3,18.3,9.8z M16.2,12.3
	c-0.7,1.4-2.1,2.9-4.2,4.4c-2.1-1.5-3.5-3-4.2-4.4C7.1,10.9,7.3,10,7.6,9.4C7.8,9,8.1,8.7,8.6,8.6c0.1,0,0.2,0,0.3,0
	c0.8,0,1.7,0.4,2.3,1.1l0.7,0.8l0.7-0.8c0.7-0.8,1.8-1.2,2.6-1.1c0.5,0.1,0.9,0.3,1.1,0.8C16.7,10,16.9,10.9,16.2,12.3z"/>
</svg>
