<svg width="34" height="34" viewBox="0 0 34 34" fill="none" xmlns="http://www.w3.org/2000/svg">
<g filter="url(#filter0_i)">
<path d="M29.0208 29.0208C22.3819 35.6597 11.6181 35.6597 4.97918 29.0208C-1.65973 22.3819 -1.65973 11.6181 4.97918 4.97918C11.6181 -1.65973 22.3819 -1.65973 29.0208 4.97918C35.6597 11.6181 35.6597 22.3819 29.0208 29.0208Z" fill="url(#paint0_linear)"/>
</g>
<g filter="url(#filter1_i)">
<path d="M23.1615 14.1166C23.6034 14.0769 24.0052 14.2584 24.3019 14.6259C25.3652 15.9443 24.988 19.9815 23.9688 22.9249C23.121 25.3738 20.7924 27 18.211 27C18.064 27 17.9161 26.9948 17.7678 26.9841C16.7831 26.913 15.6701 26.8322 14.6175 26.7545C13.7403 26.6897 12.2878 26.4065 11 26.1259V14.8322C13.5696 12.3409 15.0729 10.2137 15.3298 9.47128C15.7748 8.18463 16.8335 6.92644 18.0149 7.00336C18.5205 7.03772 19.4222 7.36263 19.78 9.15328C20.1747 11.1262 19.1913 13.0741 18.3748 14.2822C19.6675 14.2085 21.5758 14.1179 23.1615 14.1166Z" fill="#DE4C2C"/>
</g>
<defs>
<filter id="filter0_i" x="0" y="-2" width="34" height="36" filterUnits="userSpaceOnUse" color-interpolation-filters="sRGB">
<feFlood flood-opacity="0" result="BackgroundImageFix"/>
<feBlend mode="normal" in="SourceGraphic" in2="BackgroundImageFix" result="shape"/>
<feColorMatrix in="SourceAlpha" type="matrix" values="0 0 0 0 0 0 0 0 0 0 0 0 0 0 0 0 0 0 127 0" result="hardAlpha"/>
<feOffset dy="-2"/>
<feGaussianBlur stdDeviation="2"/>
<feComposite in2="hardAlpha" operator="arithmetic" k2="-1" k3="1"/>
<feColorMatrix type="matrix" values="0 0 0 0 0.283333 0 0 0 0 0.283333 0 0 0 0 0.283333 0 0 0 0.25 0"/>
<feBlend mode="normal" in2="shape" result="effect1_innerShadow"/>
</filter>
<filter id="filter1_i" x="11" y="5" width="13.9385" height="22" filterUnits="userSpaceOnUse" color-interpolation-filters="sRGB">
<feFlood flood-opacity="0" result="BackgroundImageFix"/>
<feBlend mode="normal" in="SourceGraphic" in2="BackgroundImageFix" result="shape"/>
<feColorMatrix in="SourceAlpha" type="matrix" values="0 0 0 0 0 0 0 0 0 0 0 0 0 0 0 0 0 0 127 0" result="hardAlpha"/>
<feOffset dy="-2"/>
<feGaussianBlur stdDeviation="2"/>
<feComposite in2="hardAlpha" operator="arithmetic" k2="-1" k3="1"/>
<feColorMatrix type="matrix" values="0 0 0 0 0 0 0 0 0 0 0 0 0 0 0 0 0 0 0.5 0"/>
<feBlend mode="normal" in2="shape" result="effect1_innerShadow"/>
</filter>
<linearGradient id="paint0_linear" x1="29.0208" y1="4.97931" x2="4.97919" y2="29.0209" gradientUnits="userSpaceOnUse">
<stop/>
<stop offset="1" stop-color="#1A1A1A"/>
</linearGradient>
</defs>
</svg>
