<svg width="25" height="22" viewBox="0 0 25 22" fill="none" xmlns="http://www.w3.org/2000/svg">
<path d="M5 14.5H19" stroke="black" stroke-width="1.5" stroke-linecap="round"/>
<path d="M5 17.5H15" stroke="black" stroke-width="1.5" stroke-linecap="round"/>
<path d="M5 20.5H19" stroke="black" stroke-width="1.5" stroke-linecap="round"/>
<path d="M6.70329 1.73916L7.49169 3.10201C10.2796 1.76811 13.6153 1.6828 16.5576 3.09851L17.3433 1.74029C13.8913 0.0363839 9.96269 0.137896 6.70329 1.73916Z" fill="black"/>
<path d="M18.7016 2.52293L17.9158 3.88119C20.6154 5.71641 22.2093 8.64216 22.4458 11.7187L24.0226 11.7187C23.7823 8.10092 21.9061 4.6546 18.7016 2.52293Z" fill="black"/>
<path d="M6.13198 3.88194L5.34456 2.52079C3.85571 3.51159 2.56611 4.84984 1.61078 6.50124C0.655459 8.15264 0.139012 9.93639 0.0236816 11.7186L1.59848 11.7186C1.7104 10.2018 2.15732 8.68689 2.96897 7.28384C3.78062 5.8808 4.87175 4.73704 6.13198 3.88194Z" fill="black"/>
<path d="M6.91873 5.2423C5.88859 5.96151 4.99602 6.91014 4.32706 8.06653C3.6581 9.22291 3.28126 10.4687 3.17225 11.7187L10.6653 11.7187L6.91873 5.2423ZM6.49813 10.2212C6.1231 10.0051 5.99455 9.52645 6.2111 9.15213C6.42764 8.7778 6.90723 8.64955 7.2823 8.86567C7.65733 9.08176 7.78587 9.56043 7.56933 9.93475C7.35278 10.3091 6.87315 10.4373 6.49813 10.2212Z" fill="black"/>
<path d="M17.129 5.24168L13.382 11.7188L20.8728 11.7188C20.6441 9.18394 19.3307 6.78151 17.129 5.24168ZM17.5492 10.2213C17.1741 10.4374 16.6945 10.3092 16.478 9.93485C16.2615 9.56052 16.3899 9.0819 16.765 8.86582C17.14 8.64969 17.6196 8.77794 17.8362 9.15226C18.0527 9.52657 17.9243 10.0052 17.5492 10.2213Z" fill="black"/>
<path d="M8.27819 4.4617L12.0236 10.9362L15.7706 4.45899C13.3336 3.32588 10.5921 3.39191 8.27819 4.4617ZM12.0236 7.3682C11.5905 7.36819 11.2395 7.0178 11.2395 6.5856C11.2395 6.15341 11.5905 5.80302 12.0236 5.80302C12.4567 5.80303 12.8077 6.15342 12.8077 6.58561C12.8078 7.01784 12.4567 7.36823 12.0236 7.3682Z" fill="black"/>
</svg>
