<svg width="12" height="12" viewBox="0 0 12 12" fill="none" xmlns="http://www.w3.org/2000/svg">
<path fill-rule="evenodd" clip-rule="evenodd" d="M6 0C6.49779 6.36301e-06 6.90133 0.403541 6.90133 0.901331L6.90132 5.09869L11.0987 5.09868C11.5965 5.09867 12 5.50223 12 6C12 6.49778 11.5964 6.90131 11.0987 6.90133L6.90132 6.90132V11.0987C6.90132 11.5964 6.49776 12 6 12C5.50224 12 5.09868 11.5964 5.09868 11.0987V6.90132L0.901331 6.90133C0.403554 6.90131 1.91083e-05 6.49778 3.01876e-10 6C-1.27447e-05 5.50223 0.403547 5.09867 0.901318 5.09868L5.09868 5.09869L5.09867 0.901331C5.09868 0.403541 5.50221 6.36301e-06 6 0Z" fill="#C4C4C4"/>
</svg>
