<svg width="10" height="10" viewBox="0 0 10 10" fill="none" xmlns="http://www.w3.org/2000/svg">
<path fill-rule="evenodd" clip-rule="evenodd" d="M0.763602 0.763602C1.11508 0.412133 1.68493 0.412133 2.0364 0.763602L5.00001 3.72723L7.96363 0.763602C8.31508 0.412133 8.88496 0.412133 9.23641 0.763602C9.58786 1.11508 9.58786 1.68493 9.23641 2.0364L6.27279 5.00001L9.23641 7.96363C9.58786 8.31508 9.58786 8.88496 9.23641 9.23641C8.88496 9.58786 8.31508 9.58786 7.96363 9.23641L5.00001 6.27279L2.0364 9.23641C1.68493 9.58786 1.11508 9.58786 0.763602 9.23641C0.412133 8.88496 0.412133 8.31508 0.763602 7.96363L3.72723 5.00001L0.763602 2.0364C0.412133 1.68493 0.412133 1.11508 0.763602 0.763602Z" fill="#DEDEDE"/>
</svg>
