<svg width="34" height="34" viewBox="0 0 34 34" fill="none" xmlns="http://www.w3.org/2000/svg">
<g filter="url(#filter0_i)">
<path d="M29.0208 29.0208C22.3819 35.6597 11.6181 35.6597 4.97918 29.0208C-1.65973 22.3819 -1.65973 11.6181 4.97918 4.97918C11.6181 -1.65973 22.3819 -1.65973 29.0208 4.97918C35.6597 11.6181 35.6597 22.3819 29.0208 29.0208Z" fill="url(#paint0_linear)"/>
</g>
<g filter="url(#filter1_i)">
<path d="M14.1791 13.5872C21.7352 10.5386 19.9721 6 19.9721 6C19.9721 6 25.9008 13.8238 23.3725 21.6042C21.4579 27.4931 15.0092 27.2201 12.2595 26.8139C12.6731 18.4742 16.8218 15.8197 17.8525 15.2864C17.9986 15.2108 18.082 15.1778 18.0834 15.1773C12.334 16.6519 10.9969 23.1139 10.6851 26.0448C10.4498 25.635 10.2415 25.2342 10.0588 24.8425C7.31777 18.9674 10.33 15.1398 14.1791 13.5872Z" fill="#49A010"/>
</g>
<defs>
<filter id="filter0_i" x="0" y="-2" width="34" height="36" filterUnits="userSpaceOnUse" color-interpolation-filters="sRGB">
<feFlood flood-opacity="0" result="BackgroundImageFix"/>
<feBlend mode="normal" in="SourceGraphic" in2="BackgroundImageFix" result="shape"/>
<feColorMatrix in="SourceAlpha" type="matrix" values="0 0 0 0 0 0 0 0 0 0 0 0 0 0 0 0 0 0 127 0" result="hardAlpha"/>
<feOffset dy="-2"/>
<feGaussianBlur stdDeviation="2"/>
<feComposite in2="hardAlpha" operator="arithmetic" k2="-1" k3="1"/>
<feColorMatrix type="matrix" values="0 0 0 0 0.283333 0 0 0 0 0.283333 0 0 0 0 0.283333 0 0 0 0.25 0"/>
<feBlend mode="normal" in2="shape" result="effect1_innerShadow"/>
</filter>
<filter id="filter1_i" x="9" y="4" width="15" height="23" filterUnits="userSpaceOnUse" color-interpolation-filters="sRGB">
<feFlood flood-opacity="0" result="BackgroundImageFix"/>
<feBlend mode="normal" in="SourceGraphic" in2="BackgroundImageFix" result="shape"/>
<feColorMatrix in="SourceAlpha" type="matrix" values="0 0 0 0 0 0 0 0 0 0 0 0 0 0 0 0 0 0 127 0" result="hardAlpha"/>
<feOffset dy="-2"/>
<feGaussianBlur stdDeviation="2"/>
<feComposite in2="hardAlpha" operator="arithmetic" k2="-1" k3="1"/>
<feColorMatrix type="matrix" values="0 0 0 0 0 0 0 0 0 0 0 0 0 0 0 0 0 0 0.75 0"/>
<feBlend mode="normal" in2="shape" result="effect1_innerShadow"/>
</filter>
<linearGradient id="paint0_linear" x1="29.0208" y1="4.97931" x2="4.97919" y2="29.0209" gradientUnits="userSpaceOnUse">
<stop/>
<stop offset="1" stop-color="#1A1A1A"/>
</linearGradient>
</defs>
</svg>
