<svg width="12" height="13" viewBox="0 0 12 13" fill="none" xmlns="http://www.w3.org/2000/svg">
<path fill-rule="evenodd" clip-rule="evenodd" d="M6 11.3936C7.39239 11.3936 8.72774 10.8404 9.71231 9.85587C10.6969 8.8713 11.25 7.53594 11.25 6.14355C11.25 4.75117 10.6969 3.41581 9.71231 2.43124C8.72774 1.44668 7.39239 0.893555 6 0.893555C4.60761 0.893555 3.27226 1.44668 2.28769 2.43124C1.30312 3.41581 0.75 4.75117 0.75 6.14355C0.75 7.53594 1.30312 8.8713 2.28769 9.85587C3.27226 10.8404 4.60761 11.3936 6 11.3936ZM12 6.14355C12 7.73485 11.3679 9.26098 10.2426 10.3862C9.11742 11.5114 7.5913 12.1436 6 12.1436C4.4087 12.1436 2.88258 11.5114 1.75736 10.3862C0.632141 9.26098 0 7.73485 0 6.14355C0 4.55226 0.632141 3.02613 1.75736 1.90091C2.88258 0.775696 4.4087 0.143555 6 0.143555C7.5913 0.143555 9.11742 0.775696 10.2426 1.90091C11.3679 3.02613 12 4.55226 12 6.14355Z" fill="#C0C0C0"/>
<path fill-rule="evenodd" clip-rule="evenodd" d="M5.625 2.39355C5.72446 2.39355 5.81984 2.43306 5.89017 2.50339C5.96049 2.57372 6 2.6691 6 2.76855V6.67605L8.436 8.06805C8.51984 8.11863 8.58058 8.2 8.60522 8.29477C8.62987 8.38954 8.61647 8.49019 8.56789 8.5752C8.5193 8.66022 8.4394 8.72286 8.34524 8.74974C8.25108 8.77663 8.15014 8.76561 8.064 8.71905L5.439 7.21905C5.3816 7.18627 5.33389 7.1389 5.3007 7.08173C5.26751 7.02457 5.25002 6.95965 5.25 6.89355V2.76855C5.25 2.6691 5.28951 2.57372 5.35984 2.50339C5.43016 2.43306 5.52554 2.39355 5.625 2.39355Z" fill="#C0C0C0"/>
</svg>
