<svg width="24" height="18" viewBox="0 0 24 18" fill="none" xmlns="http://www.w3.org/2000/svg">
<rect y="2.81055" width="24" height="5.33333" fill="#696969"/>
<path d="M22.7867 0.143555H1.21333C0.543242 0.143555 0 0.787398 0 1.58158V3.21854H24V1.58158C24 0.787398 23.4568 0.143555 22.7867 0.143555Z" fill="black"/>
<path d="M0 16.4832C0 17.2774 0.543242 17.9212 1.21333 17.9212H22.7866C23.4567 17.9212 23.9999 17.2774 23.9999 16.4832V7.42383H0V16.4832Z" fill="black"/>
<path d="M5.34289 13.4766H2.90711C2.54421 13.4766 2.25 13.8745 2.25 14.3655C2.25 14.8564 2.54421 15.2543 2.90711 15.2543H5.34289C5.70584 15.2543 6 14.8564 6 14.3655C6 13.8745 5.70579 13.4766 5.34289 13.4766Z" fill="#696969"/>
<path d="M13.5929 9.9209H2.90711C2.54421 9.9209 2.25 10.3189 2.25 10.8098C2.25 11.3007 2.54421 11.6987 2.90711 11.6987H13.5929C13.9558 11.6987 14.25 11.3007 14.25 10.8098C14.25 10.3189 13.9558 9.9209 13.5929 9.9209Z" fill="#696969"/>
<path d="M10.5929 13.4766H8.15711C7.79421 13.4766 7.5 13.8745 7.5 14.3655C7.5 14.8564 7.79421 15.2543 8.15711 15.2543H10.5929C10.9558 15.2543 11.25 14.8564 11.25 14.3655C11.25 13.8745 10.9558 13.4766 10.5929 13.4766Z" fill="#696969"/>
<path d="M15.8429 13.4766H13.4071C13.0442 13.4766 12.75 13.8745 12.75 14.3655C12.75 14.8564 13.0442 15.2543 13.4071 15.2543H15.8429C16.2058 15.2543 16.5 14.8564 16.5 14.3655C16.5 13.8745 16.2058 13.4766 15.8429 13.4766Z" fill="#696969"/>
<path d="M21.0929 13.4766H18.6571C18.2942 13.4766 18 13.8745 18 14.3655C18 14.8564 18.2942 15.2543 18.6571 15.2543H21.0929C21.4558 15.2543 21.75 14.8564 21.75 14.3655C21.75 13.8745 21.4558 13.4766 21.0929 13.4766Z" fill="#696969"/>
</svg>
