<svg width="12" height="13" viewBox="0 0 12 13" fill="none" xmlns="http://www.w3.org/2000/svg">
<path d="M5.03056 5.21317V5.88341H0.906819C0.518464 5.88341 0.304688 5.75803 0.304688 5.47365C0.304688 5.18926 0.304688 4.95853 0.304688 4.95853C0.304688 4.07479 0.920163 3.65947 1.8039 3.65947H3.47325C3.65366 3.851 3.85549 4.00473 4.02339 4.12927C4.1307 4.20906 4.24162 4.29134 4.30139 4.35139C4.36143 4.41144 4.44372 4.52236 4.5235 4.62938C4.65611 4.80785 4.82151 5.02441 5.03056 5.21317ZM10.2032 3.65947H8.68894C8.50853 3.851 8.3067 4.00446 8.1388 4.12927C8.03177 4.20906 7.92085 4.29134 7.8608 4.35139C7.80076 4.41116 7.71847 4.52208 7.63869 4.62938C7.53305 4.77172 7.40684 4.93907 7.2545 5.09669V5.88341H11.1003C11.4883 5.88341 11.7024 5.75803 11.7024 5.47365V4.95853C11.7024 4.07479 11.0869 3.65947 10.2032 3.65947ZM7.2545 12.5552H9.69444C10.4709 12.5552 11.1464 12.0376 11.1464 11.2612V6.99538H7.2545V12.5552ZM0.860673 11.2612C0.860673 12.0376 1.53619 12.5552 2.31291 12.5552H5.03056V6.99538H0.860673V11.2612ZM7.27118 3.76205C7.07297 3.96026 6.89395 4.26382 6.68017 4.49344C6.51115 4.67525 6.32017 4.81091 6.0811 4.81091C5.84174 4.81091 5.65104 4.67525 5.48202 4.49344C5.26825 4.26355 5.08922 3.95998 4.89101 3.76205C4.85626 3.7273 4.81762 3.69338 4.77731 3.65947C4.40619 3.34728 3.84214 3.06067 3.84214 2.57196C3.84214 2.03043 4.53629 1.73687 4.89101 1.38187C5.24573 1.02716 5.53957 0.333008 6.0811 0.333008C6.62262 0.333008 6.91618 1.02716 7.27118 1.38187C7.62618 1.73687 8.32005 2.03043 8.32005 2.57196C8.32005 3.06067 7.75572 3.34728 7.3846 3.65947C7.34457 3.69338 7.30593 3.7273 7.27118 3.76205ZM5.49954 2.57196C5.49954 2.89304 5.76001 3.15352 6.0811 3.15352C6.40218 3.15352 6.66266 2.89304 6.66266 2.57196C6.66266 2.25088 6.40218 1.9904 6.0811 1.9904C5.76001 1.9904 5.49954 2.25088 5.49954 2.57196Z" fill="#010002"/>
</svg>
