<svg width="25" height="25" viewBox="0 0 25 25" fill="none" xmlns="http://www.w3.org/2000/svg">
<path d="M6.70329 1.73916L7.49169 3.10201C10.2796 1.76811 13.6153 1.6828 16.5576 3.09851L17.3433 1.74029C13.8913 0.0363839 9.96269 0.137896 6.70329 1.73916Z" fill="black"/>
<path d="M1.60148 13.2839L0.02469 13.2839C0.264909 16.9017 2.14113 20.3481 5.34569 22.4797L6.13144 21.1215C3.43183 19.2863 1.83793 16.3605 1.60148 13.2839Z" fill="black"/>
<path d="M18.7016 2.52293L17.9158 3.88119C20.6154 5.71641 22.2093 8.64216 22.4458 11.7187L24.0226 11.7187C23.7823 8.10092 21.9061 4.6546 18.7016 2.52293Z" fill="black"/>
<path d="M6.13198 3.88194L5.34456 2.52079C3.85571 3.51159 2.56611 4.84984 1.61078 6.50124C0.655459 8.15264 0.139012 9.93639 0.0236816 11.7186L1.59848 11.7186C1.7104 10.2018 2.15732 8.68689 2.96897 7.28384C3.78062 5.8808 4.87175 4.73704 6.13198 3.88194Z" fill="black"/>
<path d="M12.0238 14.0665L8.27684 20.5437C10.7139 21.6768 13.4553 21.6108 15.7692 20.541L12.0238 14.0665ZM12.0238 19.1997C11.5908 19.1997 11.2397 18.8493 11.2397 18.4171C11.2397 17.9849 11.5908 17.6345 12.0239 17.6345C12.4569 17.6345 12.808 17.9849 12.808 18.4171C12.808 18.8492 12.4569 19.1996 12.0238 19.1997Z" fill="black"/>
<path d="M3.17469 13.2839C3.40336 15.8187 4.7168 18.2212 6.91853 19.761L10.6655 13.2838L3.17469 13.2839ZM7.28244 16.1369C6.90745 16.353 6.42786 16.2248 6.21129 15.8505C5.99476 15.4762 6.12322 14.9975 6.49829 14.7814C6.87335 14.5653 7.35294 14.6935 7.56944 15.0679C7.78595 15.4422 7.65751 15.9208 7.28244 16.1369Z" fill="black"/>
<path d="M6.91873 5.2423C5.88859 5.96151 4.99602 6.91014 4.32706 8.06653C3.6581 9.22291 3.28126 10.4687 3.17225 11.7187L10.6653 11.7187L6.91873 5.2423ZM6.49813 10.2212C6.1231 10.0051 5.99455 9.52645 6.2111 9.15213C6.42764 8.7778 6.90723 8.64955 7.2823 8.86567C7.65733 9.08176 7.78587 9.56043 7.56933 9.93475C7.35278 10.3091 6.87315 10.4373 6.49813 10.2212Z" fill="black"/>
<path d="M24.0237 13.2838L22.4488 13.2838C22.337 14.8006 21.89 16.3156 21.0784 17.7186C20.2667 19.1217 19.1757 20.2654 17.9154 21.1205L18.7028 22.4817C20.1917 21.4909 21.4813 20.1526 22.4366 18.5012C23.3919 16.8498 23.9083 15.0661 24.0237 13.2838Z" fill="black"/>
<path d="M17.129 5.24168L13.382 11.7188L20.8728 11.7188C20.6441 9.18394 19.3307 6.78151 17.129 5.24168ZM17.5492 10.2213C17.1741 10.4374 16.6945 10.3092 16.478 9.93485C16.2615 9.56052 16.3899 9.0819 16.765 8.86582C17.14 8.64969 17.6196 8.77794 17.8362 9.15226C18.0527 9.52657 17.9243 10.0052 17.5492 10.2213Z" fill="black"/>
<path d="M8.27819 4.4617L12.0236 10.9362L15.7706 4.45899C13.3336 3.32588 10.5921 3.39191 8.27819 4.4617ZM12.0236 7.3682C11.5905 7.36819 11.2395 7.0178 11.2395 6.5856C11.2395 6.15341 11.5905 5.80302 12.0236 5.80302C12.4567 5.80303 12.8077 6.15342 12.8077 6.58561C12.8078 7.01784 12.4567 7.36823 12.0236 7.3682Z" fill="black"/>
<path d="M16.5556 21.9005C13.7677 23.2344 10.4319 23.3197 7.48964 21.904L6.70389 23.2623C10.1559 24.9662 14.0845 24.8647 17.344 23.2634L16.5556 21.9005Z" fill="black"/>
<path d="M20.8749 13.284L13.3818 13.2839L17.1284 19.7603C18.1585 19.0411 19.0511 18.0925 19.7201 16.9361C20.389 15.7797 20.7659 14.5339 20.8749 13.284ZM16.7648 16.137C16.3898 15.9209 16.2613 15.4422 16.4778 15.0679C16.6943 14.6936 17.1739 14.5653 17.549 14.7814C17.9241 14.9975 18.0526 15.4762 17.836 15.8505C17.6195 16.2248 17.1399 16.3531 16.7648 16.137Z" fill="black"/>
</svg>
