<svg width="34" height="34" viewBox="0 0 34 34" fill="none" xmlns="http://www.w3.org/2000/svg">
<g filter="url(#filter0_i)">
<path d="M29.0208 29.0208C22.3819 35.6597 11.6181 35.6597 4.97918 29.0208C-1.65973 22.3819 -1.65973 11.6181 4.97918 4.97918C11.6181 -1.65973 22.3819 -1.65973 29.0208 4.97918C35.6597 11.6181 35.6597 22.3819 29.0208 29.0208Z" fill="url(#paint0_linear)"/>
</g>
<g filter="url(#filter1_i)">
<path d="M16.0489 8.92705C16.3483 8.00574 17.6517 8.00574 17.9511 8.92705L19.2451 12.9098C19.379 13.3219 19.763 13.6008 20.1962 13.6008H24.3839C25.3527 13.6008 25.7554 14.8404 24.9717 15.4098L21.5838 17.8713C21.2333 18.126 21.0866 18.5773 21.2205 18.9894L22.5146 22.9721C22.8139 23.8934 21.7595 24.6596 20.9757 24.0902L17.5878 21.6287C17.2373 21.374 16.7627 21.374 16.4122 21.6287L13.0243 24.0902C12.2405 24.6596 11.1861 23.8934 11.4854 22.9721L12.7795 18.9894C12.9134 18.5773 12.7667 18.126 12.4162 17.8713L9.02827 15.4098C8.24456 14.8404 8.64734 13.6008 9.61606 13.6008H13.8038C14.237 13.6008 14.621 13.3219 14.7549 12.9098L16.0489 8.92705Z" fill="#FCC500"/>
</g>
<defs>
<filter id="filter0_i" x="0" y="-2" width="34" height="36" filterUnits="userSpaceOnUse" color-interpolation-filters="sRGB">
<feFlood flood-opacity="0" result="BackgroundImageFix"/>
<feBlend mode="normal" in="SourceGraphic" in2="BackgroundImageFix" result="shape"/>
<feColorMatrix in="SourceAlpha" type="matrix" values="0 0 0 0 0 0 0 0 0 0 0 0 0 0 0 0 0 0 127 0" result="hardAlpha"/>
<feOffset dy="-2"/>
<feGaussianBlur stdDeviation="2"/>
<feComposite in2="hardAlpha" operator="arithmetic" k2="-1" k3="1"/>
<feColorMatrix type="matrix" values="0 0 0 0 0.283333 0 0 0 0 0.283333 0 0 0 0 0.283333 0 0 0 0.25 0"/>
<feBlend mode="normal" in2="shape" result="effect1_innerShadow"/>
</filter>
<filter id="filter1_i" x="8.61426" y="7.23633" width="16.7717" height="17.0496" filterUnits="userSpaceOnUse" color-interpolation-filters="sRGB">
<feFlood flood-opacity="0" result="BackgroundImageFix"/>
<feBlend mode="normal" in="SourceGraphic" in2="BackgroundImageFix" result="shape"/>
<feColorMatrix in="SourceAlpha" type="matrix" values="0 0 0 0 0 0 0 0 0 0 0 0 0 0 0 0 0 0 127 0" result="hardAlpha"/>
<feOffset dy="-1"/>
<feGaussianBlur stdDeviation="1"/>
<feComposite in2="hardAlpha" operator="arithmetic" k2="-1" k3="1"/>
<feColorMatrix type="matrix" values="0 0 0 0 0 0 0 0 0 0 0 0 0 0 0 0 0 0 0.75 0"/>
<feBlend mode="normal" in2="shape" result="effect1_innerShadow"/>
</filter>
<linearGradient id="paint0_linear" x1="29.0208" y1="4.97931" x2="4.97919" y2="29.0209" gradientUnits="userSpaceOnUse">
<stop/>
<stop offset="1" stop-color="#1A1A1A"/>
</linearGradient>
</defs>
</svg>
