<svg width="80" height="47" viewBox="0 0 80 47" fill="none" xmlns="http://www.w3.org/2000/svg">
<path d="M23.1613 46.5703C35.9439 46.5703 46.3121 36.2616 46.3121 23.5651C46.3121 10.8685 35.944 0.570312 23.1613 0.570312C10.368 0.570312 0 10.8685 0 23.5651C0 36.2616 10.368 46.5703 23.1613 46.5703Z" fill="#E2001A"/>
<path d="M56.8499 46.5703C69.6325 46.5703 80.0005 36.2616 80.0005 23.5651C80.0005 10.8685 69.6327 0.570312 56.8499 0.570312C44.0565 0.570312 33.6992 10.8685 33.6992 23.5651C33.6992 36.2616 44.0565 46.5703 56.8499 46.5703Z" fill="#F6A800"/>
<path d="M39.9899 39.3444C36.0927 35.2209 33.6992 29.6668 33.6992 23.5657C33.6992 17.5278 36.0503 12.0263 39.8734 7.92383L40.3606 8.17629C44.0567 12.2577 46.3126 17.654 46.3126 23.5657C46.3126 29.509 44.0356 34.9158 40.3184 39.0078L39.9899 39.3444Z" fill="#EB690A"/>
<path d="M4.54297 17.8008H6.56574L9.16039 24.2279L11.4797 17.8008H13.619V26.3633H11.9563V20.0098L9.73228 26.3633H8.47202L6.24803 20.0939V26.3633H4.54297V17.8008Z" fill="white"/>
<path d="M22.134 26.3639V19.8105H20.7148V26.3639H22.134Z" fill="white"/>
<path d="M31.6226 26.3648V17.918H30.1294V26.3648H31.6226Z" fill="white"/>
<path d="M29.2715 19.8113V21.3786H32.5969V19.8113H29.2715Z" fill="white"/>
<path d="M62.9815 26.3639V19.8105H61.5625V26.3639H62.9815Z" fill="white"/>
<path d="M75.7961 26.3623V18.168H74.377V26.3623H75.7961Z" fill="white"/>
<path d="M43.6537 19.8098H42.1816V26.3632H43.6747V22.0292C44.0242 21.3244 45.0727 21.1771 45.2421 21.1771V19.7676C44.8926 19.7676 43.6959 20.0306 43.6536 20.6722V19.8098H43.6537Z" fill="white"/>
<path d="M66.2219 19.8098H64.7393V26.3632H66.2432V22.0292C66.5821 21.3244 67.6412 21.1771 67.8 21.1771V19.7676C67.461 19.7676 66.2644 20.0306 66.2219 20.6722V19.8098Z" fill="white"/>
<path d="M26.5815 21.6834H28.0324C28.0324 20.5368 27.291 19.832 26.0731 19.832C24.8552 19.832 23.8915 20.4632 23.8915 21.8727C23.8915 23.2821 25.3847 23.4822 25.6283 23.5453C25.9249 23.6293 26.7403 23.7241 26.7403 24.6182C26.7403 24.9548 26.3379 25.039 25.9884 25.039C25.6495 25.039 25.3 24.776 25.3 24.3868H23.6797C23.6797 25.8595 24.834 26.4485 25.9884 26.4485C27.1428 26.4485 28.2442 25.5227 28.2442 24.4077C28.2442 23.3139 27.1639 22.672 26.3167 22.5458C25.0353 22.367 25.1623 21.2625 25.9037 21.2625C26.6026 21.2626 26.5603 21.5677 26.5815 21.6834Z" fill="white"/>
<path d="M53.1747 24.0176C52.6451 24.6803 51.8297 25.101 50.9189 25.101C49.3303 25.101 48.0489 23.8282 48.0489 22.2714C48.0489 20.6935 49.3303 19.4207 50.9189 19.4207C51.8191 19.4207 52.6345 19.831 53.1535 20.4832H55.0174C54.329 18.8632 52.7299 17.8008 50.9189 17.8008C48.4301 17.8008 46.418 19.7994 46.418 22.2714C46.418 24.7223 48.4301 26.7315 50.9189 26.7315C52.7616 26.7315 54.3502 25.5956 55.0492 24.0176H53.1747Z" fill="white"/>
<path d="M72.3852 26.5204C74.2809 26.5204 75.8271 24.9845 75.8271 23.1121C75.8271 21.2186 74.2808 19.6934 72.3852 19.6934V21.145C73.4761 21.145 74.3657 22.0286 74.3657 23.1121C74.3657 24.185 73.4761 25.0686 72.3852 25.0686V26.5204ZM72.3852 26.5204V25.0686C71.2944 25.0686 70.4048 24.185 70.4048 23.1121C70.4048 22.0286 71.2944 21.145 72.3852 21.145V19.6934C70.4896 19.6934 68.9434 21.2186 68.9434 23.1121C68.9434 24.9845 70.4896 26.5204 72.3852 26.5204Z" fill="white"/>
<path d="M59.5708 26.5204C61.4771 26.5204 63.0127 24.9845 63.0127 23.1121C63.0127 21.2186 61.4771 19.6934 59.5708 19.6934V21.145C60.6616 21.145 61.5512 22.0286 61.5512 23.1121C61.5512 24.185 60.6616 25.0686 59.5708 25.0686V26.5204ZM59.5708 19.6935C57.6751 19.6935 56.1289 21.2188 56.1289 23.1122C56.1289 24.9846 57.6753 26.5205 59.5708 26.5205V25.0688C58.48 25.0688 57.5904 24.1852 57.5904 23.1122C57.5904 22.0287 58.48 21.1451 59.5708 21.1451V19.6935Z" fill="white"/>
<path d="M37.1618 23.7863H40.519C40.5296 23.6918 40.5403 23.5865 40.5403 23.4918V23.2078C40.4874 21.6825 39.5237 19.8101 37.162 19.7891V21.3774C37.9669 21.3774 38.7612 21.7456 38.7612 22.4714H37.162V23.7863H37.1618ZM37.1618 26.5425C38.4962 26.5214 40.3707 25.6589 40.3707 24.5544H38.581C38.581 24.8175 37.8926 25.0593 37.1618 25.0489V26.5425ZM35.5203 23.7863H37.1618V22.4714H35.5627C35.5627 21.7456 36.357 21.3774 37.1618 21.3774V19.7892C37.1513 19.7892 37.1301 19.7892 37.1195 19.7892C34.9802 19.7892 33.8153 21.5564 33.8047 23.2815V23.3447C33.8365 24.9753 34.8849 26.5426 37.0983 26.5426C37.1195 26.5426 37.1407 26.5426 37.1618 26.5426V25.0488C36.357 25.0382 35.5203 24.712 35.5203 23.7863Z" fill="white"/>
<path d="M18.7349 26.5204C20.6305 26.5204 22.1767 24.9845 22.1767 23.1121C22.1767 21.2186 20.6305 19.6934 18.7349 19.6934V21.145C19.8257 21.145 20.7153 22.0286 20.7153 23.1121C20.7153 24.185 19.8257 25.0686 18.7349 25.0686V26.5204ZM18.7349 26.5204V25.0686C17.644 25.0686 16.7544 24.185 16.7544 23.1121C16.7544 22.0286 17.644 21.145 18.7349 21.145V19.6934C16.8286 19.6934 15.293 21.2186 15.293 23.1121C15.293 24.9845 16.8286 26.5204 18.7349 26.5204Z" fill="white"/>
</svg>
