<svg width="81" height="28" viewBox="0 0 81 28" fill="none" xmlns="http://www.w3.org/2000/svg">
<g clip-path="url(#clip0)">
<path d="M35.0999 27.1809H28.5383L32.6424 1.04419H39.2036L35.0999 27.1809Z" fill="#00579F"/>
<path d="M58.886 1.68306C57.5918 1.15422 55.5391 0.570312 53.0008 0.570312C46.5211 0.570312 41.9581 4.12917 41.9301 9.21726C41.8763 12.9712 45.1971 15.0563 47.6807 16.308C50.2193 17.587 51.0823 18.4219 51.0823 19.562C51.0564 21.3129 49.0309 22.1201 47.1418 22.1201C44.5221 22.1201 43.1185 21.7039 40.9853 20.7298L40.1213 20.3122L39.2031 26.1793C40.7421 26.9014 43.5774 27.5422 46.5211 27.5703C53.4059 27.5703 57.8882 24.0665 57.9413 18.6444C57.9675 15.669 56.214 13.3892 52.4335 11.5263C50.1386 10.3304 48.7331 9.524 48.7331 8.30039C48.76 7.18801 49.9219 6.04866 52.5125 6.04866C54.6456 5.99286 56.2129 6.52096 57.4002 7.04943L57.9937 7.32697L58.886 1.68306Z" fill="#00579F"/>
<path d="M67.6071 17.9216C68.1475 16.4201 70.2268 10.6088 70.2268 10.6088C70.1995 10.6646 70.7661 9.07952 71.0901 8.10647L71.5487 10.3586C71.5487 10.3586 72.7912 16.6148 73.0611 17.9216C72.0356 17.9216 68.9032 17.9216 67.6071 17.9216ZM75.7066 1.04419H70.6312C69.0661 1.04419 67.877 1.51649 67.2017 3.21276L57.4553 27.1805H64.3402C64.3402 27.1805 65.4737 23.9547 65.7173 23.2599C66.4726 23.2599 73.1701 23.2599 74.1418 23.2599C74.3302 24.1775 74.9247 27.1805 74.9247 27.1805H81.0001L75.7066 1.04419Z" fill="#00579F"/>
<path d="M23.0578 1.04419L16.6319 18.8669L15.9297 15.2523C14.7417 11.0814 11.0158 6.54988 6.85791 4.29668L12.7438 27.1532H19.6825L29.9962 1.04419H23.0578Z" fill="#00579F"/>
<path d="M10.6649 1.04419H0.108001L0 1.57229C8.23506 3.74123 13.689 8.96939 15.9297 15.2534L13.6348 3.24122C13.257 1.57192 12.0959 1.09925 10.6649 1.04419Z" fill="#FAA61A"/>
</g>
<defs>
<clipPath id="clip0">
<rect width="81" height="27" fill="white" transform="translate(0 0.570312)"/>
</clipPath>
</defs>
</svg>
