<svg width="47" height="46" viewBox="0 0 47 46" fill="none" xmlns="http://www.w3.org/2000/svg">
<style>
	.g-container { display: none }
 	.g-container:target { display: inline }

	<!-- .g-container { 
		height: 0;
		overflow: hidden;
		opacity: 0;
	}
 	.g-container:target { 
		height: auto;
		opacity: 1;
		transition: opacity 0.15s ease-in-out;
	} -->
</style>
	
	<g class="g-container" id="additional-default">
		<path d="M16.7313 28.1382C16.2996 28.1382 15.9495 28.4882 15.9495 28.92V28.9303C15.9495 29.3621 16.2996 29.7121 16.7313 29.7121C17.163 29.7121 17.5131 29.3621 17.5131 28.9303V28.92C17.5131 28.4882 17.163 28.1382 16.7313 28.1382Z" fill="DEDEDE"/>
		<path d="M4.3772 15.6392V33.9338C4.3772 34.3656 4.72729 34.7156 5.15902 34.7156H16.7297C17.1614 34.7156 17.5115 34.3656 17.5115 33.9338V31.3856C17.5115 30.9538 17.1614 30.6038 16.7297 30.6038C16.298 30.6038 15.9479 30.9538 15.9479 31.3856V33.152H5.94084V16.4211H15.948V26.3821C15.948 26.8139 16.2981 27.1639 16.7298 27.1639C17.1615 27.1639 17.5116 26.8139 17.5116 26.3821V15.6392C17.5116 15.2074 17.1615 14.8574 16.7298 14.8574H5.15902C4.72729 14.8574 4.3772 15.2074 4.3772 15.6392Z" fill="#DEDEDE"/>
		<path d="M21.5547 12.9488L16.575 9.49953V6.5917C16.575 6.33873 16.4471 6.09368 16.2391 5.9495L11.7277 2.81728V1.41212C11.7278 0.980391 11.3777 0.630371 10.946 0.630371C10.5142 0.630371 10.1641 0.980391 10.1641 1.41219V2.81736L5.6528 5.94958C5.44487 6.09376 5.31685 6.33865 5.31685 6.59178V9.60406L0.346393 12.9426C0.130231 13.0878 0.000488281 13.3312 0.000488281 13.5916V38.1577C0.000488281 38.5895 0.350583 38.9396 0.782309 38.9396H21.1096C21.5413 38.9396 21.8914 38.5895 21.8914 38.1577V13.5916C21.8914 13.3351 21.7656 13.0949 21.5547 12.9488ZM6.88049 7.37352H15.0114V9.16911H6.88049V7.37352ZM10.946 4.17808L13.2964 5.80988H8.59572L10.946 4.17808ZM20.3278 37.3758H1.56413V14.0083L6.44061 10.7328H15.6094L20.3277 14.0011V37.3758H20.3278Z" fill="#DEDEDE"/>
		<path d="M12.4119 20.2661C11.8614 20.1599 11.3362 20.2262 10.8748 20.4632C10.1715 20.8246 9.64341 21.5616 9.30514 22.6538C9.0342 23.5285 8.87678 24.6016 8.72451 25.6391C8.54299 26.8759 8.31703 28.4153 7.92892 28.8501C7.16528 29.7052 7.25095 30.556 7.67453 31.0198C7.90154 31.2684 8.24752 31.4427 8.69496 31.4427C9.16342 31.4427 9.74315 31.2514 10.4135 30.7541C11.7479 29.7639 12.8582 28.2673 13.8072 26.1789C14.5945 24.4468 14.7548 22.8668 14.2586 21.7299C14.1437 21.4667 13.9958 21.2349 13.819 21.0364C14.3926 20.2573 14.4173 19.2884 14.3099 18.7635C14.2234 18.3404 13.8098 18.0675 13.3872 18.1543C12.9641 18.2409 12.6914 18.6539 12.778 19.077C12.7797 19.0853 12.9221 19.8218 12.4119 20.2661ZM12.3838 25.5319C11.5472 27.3728 10.5978 28.6703 9.48179 29.4983C9.4161 29.5471 9.35459 29.5895 9.29721 29.6265C9.84177 28.7946 10.0427 27.4257 10.2716 25.8662C10.4152 24.8875 10.5638 23.8755 10.7989 23.1165C11.0052 22.4504 11.2787 22.0138 11.5896 21.8541C11.6335 21.8314 11.7341 21.7797 11.9094 21.7797C12.0136 21.7797 12.1444 21.7981 12.3053 21.8516C12.5417 21.9302 12.712 22.095 12.8255 22.3553C13.1329 23.0596 12.9677 24.2471 12.3838 25.5319Z" fill="#DEDEDE"/>
		<path fill-rule="evenodd" clip-rule="evenodd" d="M23.99 20.8705C23.6364 20.9246 23.3655 21.23 23.3655 21.5987V38.254C23.3655 38.6608 23.6953 38.9907 24.1022 38.9907H31.5222C31.7854 38.9907 32.0287 38.8502 32.1603 38.6223C32.2919 38.3944 32.2919 38.1135 32.1603 37.8856C31.7647 37.2005 31.5321 36.4337 31.4804 35.6444C31.4287 34.855 31.5592 34.0644 31.8619 33.3336C32.1646 32.6028 32.6314 31.9514 33.2261 31.4298C33.8208 30.9083 34.5276 30.5305 35.2916 30.3258C36.0557 30.1211 36.8566 30.0949 37.6324 30.2492C38.4083 30.4035 39.1382 30.7342 39.7657 31.2158C40.3933 31.6973 40.9017 32.3168 41.2515 33.0262C41.6014 33.7357 41.7834 34.5161 41.7834 35.3071V38.9907C41.7834 39.1424 41.7272 39.3978 41.5698 39.5982C41.4384 39.7654 41.1931 39.9541 40.6654 39.9541C40.1377 39.9541 39.8924 39.7654 39.761 39.5982C39.6852 39.5016 39.6329 39.3923 39.599 39.2879V37.0072C39.599 36.6003 39.2691 36.2705 38.8623 36.2705L38.8487 36.2706L38.8365 36.2709C38.8279 36.2706 38.8194 36.2705 38.8107 36.2705C38.4039 36.2705 38.074 36.6003 38.074 37.0072V38.9907C38.074 39.1333 38.0893 39.2972 38.1255 39.4714V43.1843C38.1255 43.336 38.0694 43.5914 37.912 43.7918C37.7806 43.959 37.5352 44.1477 37.0076 44.1477C36.4799 44.1477 36.2346 43.959 36.1032 43.7918C35.9458 43.5914 35.8896 43.336 35.8896 43.1843V35.3071C35.8896 34.9002 35.5598 34.5704 35.1529 34.5704C34.746 34.5704 34.4162 34.9002 34.4162 35.3071V43.1843C34.4162 43.5993 34.5455 44.1939 34.9445 44.7019C35.3695 45.2431 36.0515 45.6211 37.0076 45.6211C37.9637 45.6211 38.6456 45.2431 39.0707 44.7019C39.4697 44.1939 39.599 43.5993 39.599 43.1843V41.2412C39.9064 41.36 40.2614 41.4275 40.6654 41.4275C41.6215 41.4275 42.3034 41.0495 42.7285 40.5083C43.1275 40.0003 43.2568 39.4057 43.2568 38.9907H45.0575C45.3809 38.9907 45.6665 38.7797 45.7616 38.4706C46.0641 37.4877 46.215 36.4561 46.203 35.4131C46.179 33.3278 45.5054 31.3032 44.2778 29.6349C44.1193 29.4195 43.9527 29.2116 43.7784 29.0114L43.8405 28.9636C40.0532 24.0401 35.9159 21.8695 32.2828 21.013C28.6676 20.1607 25.6012 20.6226 23.99 20.8705ZM31.9447 22.4471C29.023 21.7583 26.4841 21.9998 24.8389 22.2335V31.8085C25.9039 32.167 26.7127 32.7211 27.3002 33.2991C27.5619 32.1531 28.0249 31.0571 28.6744 30.0672C29.8119 28.3334 31.4626 27.0146 33.388 26.3069C35.204 25.6394 37.1723 25.5495 39.035 26.0447C36.5905 24.0206 34.1477 22.9665 31.9447 22.4471ZM26.9166 35.1757C26.6187 34.6577 25.9708 34.2848 24.8389 33.7819V35.1757H26.9166ZM44.4955 37.5172H43.2568V35.3071C43.2568 34.2901 43.0228 33.2867 42.573 32.3745C42.1232 31.4624 41.4696 30.6659 40.6627 30.0468C39.8558 29.4277 38.9174 29.0025 37.9199 28.8041C36.9224 28.6056 35.8926 28.6394 34.9103 28.9026C33.9279 29.1658 33.0192 29.6515 32.2546 30.3221C31.49 30.9926 30.8898 31.8301 30.5006 32.7697C30.1114 33.7093 29.9436 34.7259 30.0101 35.7407C30.05 36.3487 30.1733 36.9464 30.3751 37.5172H24.8389V36.6491H27.7937C27.9944 36.6491 28.1864 36.5673 28.3253 36.4225C28.4643 36.2777 28.5381 36.0824 28.5298 35.8819C28.4562 34.1037 28.9393 32.3494 29.9063 30.8755C30.8732 29.4018 32.2721 28.2869 33.8963 27.6899C35.5203 27.0929 37.2871 27.0439 38.9399 27.5497C40.5928 28.0555 42.0481 29.0909 43.091 30.5081C44.1341 31.9257 44.7092 33.6502 44.7297 35.43C44.7378 36.1375 44.6581 36.8386 44.4955 37.5172Z" fill="#DEDEDE"/>
		<path d="M32.3327 39.7171C32.3327 39.2853 32.6828 38.9353 33.1145 38.9353C33.5463 38.9353 33.8963 39.2853 33.8963 39.7171V39.7274C33.8963 40.1592 33.5463 40.5092 33.1145 40.5092C32.6828 40.5092 32.3327 40.1592 32.3327 39.7274V39.7171Z" fill="#DEDEDE"/>
	</g>
	<g class="g-container" id="additional-press">
		<path d="M16.7313 28.1382C16.2996 28.1382 15.9495 28.4882 15.9495 28.92V28.9303C15.9495 29.3621 16.2996 29.7121 16.7313 29.7121C17.163 29.7121 17.5131 29.3621 17.5131 28.9303V28.92C17.5131 28.4882 17.163 28.1382 16.7313 28.1382Z" fill="#F9451D"/>
		<path d="M4.3772 15.6392V33.9338C4.3772 34.3656 4.72729 34.7156 5.15902 34.7156H16.7297C17.1614 34.7156 17.5115 34.3656 17.5115 33.9338V31.3856C17.5115 30.9538 17.1614 30.6038 16.7297 30.6038C16.298 30.6038 15.9479 30.9538 15.9479 31.3856V33.152H5.94084V16.4211H15.948V26.3821C15.948 26.8139 16.2981 27.1639 16.7298 27.1639C17.1615 27.1639 17.5116 26.8139 17.5116 26.3821V15.6392C17.5116 15.2074 17.1615 14.8574 16.7298 14.8574H5.15902C4.72729 14.8574 4.3772 15.2074 4.3772 15.6392Z" fill="#F9451D"/>
		<path d="M21.5547 12.9488L16.575 9.49953V6.5917C16.575 6.33873 16.4471 6.09368 16.2391 5.9495L11.7277 2.81728V1.41212C11.7278 0.980391 11.3777 0.630371 10.946 0.630371C10.5142 0.630371 10.1641 0.980391 10.1641 1.41219V2.81736L5.6528 5.94958C5.44487 6.09376 5.31685 6.33865 5.31685 6.59178V9.60406L0.346393 12.9426C0.130231 13.0878 0.000488281 13.3312 0.000488281 13.5916V38.1577C0.000488281 38.5895 0.350583 38.9396 0.782309 38.9396H21.1096C21.5413 38.9396 21.8914 38.5895 21.8914 38.1577V13.5916C21.8914 13.3351 21.7656 13.0949 21.5547 12.9488ZM6.88049 7.37352H15.0114V9.16911H6.88049V7.37352ZM10.946 4.17808L13.2964 5.80988H8.59572L10.946 4.17808ZM20.3278 37.3758H1.56413V14.0083L6.44061 10.7328H15.6094L20.3277 14.0011V37.3758H20.3278Z" fill="#F9451D"/>
		<path d="M12.4119 20.2661C11.8614 20.1599 11.3362 20.2262 10.8748 20.4632C10.1715 20.8246 9.64341 21.5616 9.30514 22.6538C9.0342 23.5285 8.87678 24.6016 8.72451 25.6391C8.54299 26.8759 8.31703 28.4153 7.92892 28.8501C7.16528 29.7052 7.25095 30.556 7.67453 31.0198C7.90154 31.2684 8.24752 31.4427 8.69496 31.4427C9.16342 31.4427 9.74315 31.2514 10.4135 30.7541C11.7479 29.7639 12.8582 28.2673 13.8072 26.1789C14.5945 24.4468 14.7548 22.8668 14.2586 21.7299C14.1437 21.4667 13.9958 21.2349 13.819 21.0364C14.3926 20.2573 14.4173 19.2884 14.3099 18.7635C14.2234 18.3404 13.8098 18.0675 13.3872 18.1543C12.9641 18.2409 12.6914 18.6539 12.778 19.077C12.7797 19.0853 12.9221 19.8218 12.4119 20.2661ZM12.3838 25.5319C11.5472 27.3728 10.5978 28.6703 9.48179 29.4983C9.4161 29.5471 9.35459 29.5895 9.29721 29.6265C9.84177 28.7946 10.0427 27.4257 10.2716 25.8662C10.4152 24.8875 10.5638 23.8755 10.7989 23.1165C11.0052 22.4504 11.2787 22.0138 11.5896 21.8541C11.6335 21.8314 11.7341 21.7797 11.9094 21.7797C12.0136 21.7797 12.1444 21.7981 12.3053 21.8516C12.5417 21.9302 12.712 22.095 12.8255 22.3553C13.1329 23.0596 12.9677 24.2471 12.3838 25.5319Z" fill="#F9451D"/>
		<path fill-rule="evenodd" clip-rule="evenodd" d="M23.99 20.8705C23.6364 20.9246 23.3655 21.23 23.3655 21.5987V38.254C23.3655 38.6608 23.6953 38.9907 24.1022 38.9907H31.5222C31.7854 38.9907 32.0287 38.8502 32.1603 38.6223C32.2919 38.3944 32.2919 38.1135 32.1603 37.8856C31.7647 37.2005 31.5321 36.4337 31.4804 35.6444C31.4287 34.855 31.5592 34.0644 31.8619 33.3336C32.1646 32.6028 32.6314 31.9514 33.2261 31.4298C33.8208 30.9083 34.5276 30.5305 35.2916 30.3258C36.0557 30.1211 36.8566 30.0949 37.6324 30.2492C38.4083 30.4035 39.1382 30.7342 39.7657 31.2158C40.3933 31.6973 40.9017 32.3168 41.2515 33.0262C41.6014 33.7357 41.7834 34.5161 41.7834 35.3071V38.9907C41.7834 39.1424 41.7272 39.3978 41.5698 39.5982C41.4384 39.7654 41.1931 39.9541 40.6654 39.9541C40.1377 39.9541 39.8924 39.7654 39.761 39.5982C39.6852 39.5016 39.6329 39.3923 39.599 39.2879V37.0072C39.599 36.6003 39.2691 36.2705 38.8623 36.2705L38.8487 36.2706L38.8365 36.2709C38.8279 36.2706 38.8194 36.2705 38.8107 36.2705C38.4039 36.2705 38.074 36.6003 38.074 37.0072V38.9907C38.074 39.1333 38.0893 39.2972 38.1255 39.4714V43.1843C38.1255 43.336 38.0694 43.5914 37.912 43.7918C37.7806 43.959 37.5352 44.1477 37.0076 44.1477C36.4799 44.1477 36.2346 43.959 36.1032 43.7918C35.9458 43.5914 35.8896 43.336 35.8896 43.1843V35.3071C35.8896 34.9002 35.5598 34.5704 35.1529 34.5704C34.746 34.5704 34.4162 34.9002 34.4162 35.3071V43.1843C34.4162 43.5993 34.5455 44.1939 34.9445 44.7019C35.3695 45.2431 36.0515 45.6211 37.0076 45.6211C37.9637 45.6211 38.6456 45.2431 39.0707 44.7019C39.4697 44.1939 39.599 43.5993 39.599 43.1843V41.2412C39.9064 41.36 40.2614 41.4275 40.6654 41.4275C41.6215 41.4275 42.3034 41.0495 42.7285 40.5083C43.1275 40.0003 43.2568 39.4057 43.2568 38.9907H45.0575C45.3809 38.9907 45.6665 38.7797 45.7616 38.4706C46.0641 37.4877 46.215 36.4561 46.203 35.4131C46.179 33.3278 45.5054 31.3032 44.2778 29.6349C44.1193 29.4195 43.9527 29.2116 43.7784 29.0114L43.8405 28.9636C40.0532 24.0401 35.9159 21.8695 32.2828 21.013C28.6676 20.1607 25.6012 20.6226 23.99 20.8705ZM31.9447 22.4471C29.023 21.7583 26.4841 21.9998 24.8389 22.2335V31.8085C25.9039 32.167 26.7127 32.7211 27.3002 33.2991C27.5619 32.1531 28.0249 31.0571 28.6744 30.0672C29.8119 28.3334 31.4626 27.0146 33.388 26.3069C35.204 25.6394 37.1723 25.5495 39.035 26.0447C36.5905 24.0206 34.1477 22.9665 31.9447 22.4471ZM26.9166 35.1757C26.6187 34.6577 25.9708 34.2848 24.8389 33.7819V35.1757H26.9166ZM44.4955 37.5172H43.2568V35.3071C43.2568 34.2901 43.0228 33.2867 42.573 32.3745C42.1232 31.4624 41.4696 30.6659 40.6627 30.0468C39.8558 29.4277 38.9174 29.0025 37.9199 28.8041C36.9224 28.6056 35.8926 28.6394 34.9103 28.9026C33.9279 29.1658 33.0192 29.6515 32.2546 30.3221C31.49 30.9926 30.8898 31.8301 30.5006 32.7697C30.1114 33.7093 29.9436 34.7259 30.0101 35.7407C30.05 36.3487 30.1733 36.9464 30.3751 37.5172H24.8389V36.6491H27.7937C27.9944 36.6491 28.1864 36.5673 28.3253 36.4225C28.4643 36.2777 28.5381 36.0824 28.5298 35.8819C28.4562 34.1037 28.9393 32.3494 29.9063 30.8755C30.8732 29.4018 32.2721 28.2869 33.8963 27.6899C35.5203 27.0929 37.2871 27.0439 38.9399 27.5497C40.5928 28.0555 42.0481 29.0909 43.091 30.5081C44.1341 31.9257 44.7092 33.6502 44.7297 35.43C44.7378 36.1375 44.6581 36.8386 44.4955 37.5172Z" fill="#F9451D"/>
		<path d="M32.3327 39.7171C32.3327 39.2853 32.6828 38.9353 33.1145 38.9353C33.5463 38.9353 33.8963 39.2853 33.8963 39.7171V39.7274C33.8963 40.1592 33.5463 40.5092 33.1145 40.5092C32.6828 40.5092 32.3327 40.1592 32.3327 39.7274V39.7171Z" fill="#F9451D"/>
	</g>
	<g class="g-container" id="additional-active">
		<path d="M26.312 33.0434L24.1018 32.3066V35.9902H27.0487L27.7854 35.2535L26.312 33.0434Z" fill="#FCC500"/>
		<path d="M25.5752 33.0438L24.1018 32.3071V21.9931L25.5752 21.2563H29.2588L32.9424 21.9931L36.626 23.4665L39.5728 25.6766L40.3095 27.1501L35.8892 26.4134L32.9424 27.1501L30.7322 28.6235L28.5221 31.5704L27.7854 34.5172L25.5752 33.0438Z" fill="#C66500"/>
		<path d="M31.469 38.2015H24.1018V35.9914H27.0487L27.7854 33.7812L28.5221 31.5711L29.9955 29.3609L32.2057 27.8875L34.4158 26.4141H37.3627L39.5728 27.1508L42.5197 28.6242L43.9931 30.8344L45.4665 33.7812V36.7281L44.7298 38.2015H42.5197V35.9914L41.783 33.0445L40.3095 30.8344L38.8361 29.3609H35.8892L32.9424 30.0976L31.469 32.3078L30.7322 35.9914L31.469 38.2015Z" fill="#E8AF75"/>
		<path d="M30.7322 35.9923L31.4689 38.2024L32.9423 39.6758L35.1525 40.4125V41.1493V43.3594L35.8892 44.8328H37.3626L38.836 43.3594V40.4125H41.0462L42.5196 39.6758V37.4657V33.7821L40.3095 30.8352L38.0993 29.3618H35.1525L32.9423 30.8352L31.4689 33.0454L30.7322 35.9923Z" fill="#FFE174"/>
		<path d="M15.7934 6.5918H6.09888V9.95103H15.7934V6.5918Z" fill="#F9451D"/>
		<path d="M15.7937 6.589H6.09912L10.9464 3.22363L15.7937 6.589Z" fill="#F9451D"/>
		<path d="M15.8536 9.94531H6.20237L0.782227 13.5859V38.152H21.1095V13.5859L15.8536 9.94531Z" fill="#F9451D"/>
		<path d="M16.7311 15.6396H5.16016V33.9342H16.7311V15.6396Z" fill="#FCC500"/>
		<path d="M12.5504 21.109C11.8306 20.8695 10.6844 20.8372 10.0503 22.8844C9.41621 24.9317 9.41621 28.3556 8.51041 29.3701C7.60461 30.3847 8.42354 31.2552 9.94588 30.1256C11.5617 28.9269 12.5344 27.0857 13.0938 25.8548C14.1796 23.4658 13.8811 21.5516 12.5504 21.109Z" fill="#F9451D"/>
		<path d="M16.7313 28.1357C16.2996 28.1357 15.9495 28.4858 15.9495 28.9176V28.9278C15.9495 29.3596 16.2996 29.7096 16.7313 29.7096C17.163 29.7096 17.5131 29.3596 17.5131 28.9278V28.9176C17.5131 28.4858 17.163 28.1357 16.7313 28.1357Z" fill="black"/>
		<path d="M4.3772 15.6392V33.9338C4.3772 34.3656 4.72729 34.7156 5.15902 34.7156H16.7297C17.1614 34.7156 17.5115 34.3656 17.5115 33.9338V31.3856C17.5115 30.9538 17.1614 30.6038 16.7297 30.6038C16.298 30.6038 15.9479 30.9538 15.9479 31.3856V33.152H5.94084V16.4211H15.948V26.3821C15.948 26.8139 16.2981 27.1639 16.7298 27.1639C17.1615 27.1639 17.5116 26.8139 17.5116 26.3821V15.6392C17.5116 15.2074 17.1615 14.8574 16.7298 14.8574H5.15902C4.72729 14.8574 4.3772 15.2074 4.3772 15.6392Z" fill="black"/>
		<path d="M21.5547 12.9488L16.575 9.49953V6.5917C16.575 6.33873 16.4471 6.09368 16.2391 5.9495L11.7277 2.81728V1.41212C11.7278 0.980391 11.3777 0.630371 10.946 0.630371C10.5142 0.630371 10.1641 0.980391 10.1641 1.41219V2.81736L5.6528 5.94958C5.44487 6.09376 5.31685 6.33865 5.31685 6.59178V9.60406L0.346393 12.9426C0.130231 13.0878 0.000488281 13.3312 0.000488281 13.5916V38.1577C0.000488281 38.5895 0.350583 38.9396 0.782309 38.9396H21.1096C21.5413 38.9396 21.8914 38.5895 21.8914 38.1577V13.5916C21.8914 13.3351 21.7656 13.0949 21.5547 12.9488ZM6.88049 7.37352H15.0114V9.16911H6.88049V7.37352ZM10.946 4.17808L13.2964 5.80988H8.59572L10.946 4.17808ZM20.3278 37.3758H1.56413V14.0083L6.44061 10.7328H15.6094L20.3277 14.0011V37.3758H20.3278Z" fill="black"/>
		<path d="M12.4119 20.2661C11.8614 20.1599 11.3362 20.2262 10.8748 20.4632C10.1715 20.8246 9.64341 21.5616 9.30514 22.6538C9.0342 23.5285 8.87678 24.6016 8.72451 25.6391C8.54299 26.8759 8.31703 28.4153 7.92892 28.8501C7.16528 29.7052 7.25095 30.556 7.67453 31.0198C7.90154 31.2684 8.24752 31.4427 8.69496 31.4427C9.16342 31.4427 9.74315 31.2514 10.4135 30.7541C11.7479 29.7639 12.8582 28.2673 13.8072 26.1789C14.5945 24.4468 14.7548 22.8668 14.2586 21.7299C14.1437 21.4667 13.9958 21.2349 13.819 21.0364C14.3926 20.2573 14.4173 19.2884 14.3099 18.7635C14.2234 18.3404 13.8098 18.0675 13.3872 18.1543C12.9641 18.2409 12.6914 18.6539 12.778 19.077C12.7797 19.0853 12.9221 19.8218 12.4119 20.2661ZM12.3838 25.5319C11.5472 27.3728 10.5978 28.6703 9.48179 29.4983C9.4161 29.5471 9.35459 29.5895 9.29721 29.6265C9.84177 28.7946 10.0427 27.4257 10.2716 25.8662C10.4152 24.8875 10.5638 23.8755 10.7989 23.1165C11.0052 22.4504 11.2787 22.0138 11.5896 21.8541C11.6335 21.8314 11.7341 21.7797 11.9094 21.7797C12.0136 21.7797 12.1444 21.7981 12.3053 21.8516C12.5417 21.9302 12.712 22.095 12.8255 22.3553C13.1329 23.0596 12.9677 24.2471 12.3838 25.5319Z" fill="black"/>
		<path fill-rule="evenodd" clip-rule="evenodd" d="M23.99 20.8705C23.6364 20.9246 23.3655 21.23 23.3655 21.5987V38.254C23.3655 38.6608 23.6953 38.9907 24.1022 38.9907H31.5222C31.7854 38.9907 32.0287 38.8502 32.1603 38.6223C32.2919 38.3944 32.2919 38.1135 32.1603 37.8856C31.7647 37.2005 31.5321 36.4337 31.4804 35.6444C31.4287 34.855 31.5592 34.0644 31.8619 33.3336C32.1646 32.6028 32.6314 31.9514 33.2261 31.4298C33.8208 30.9083 34.5276 30.5305 35.2916 30.3258C36.0557 30.1211 36.8566 30.0949 37.6324 30.2492C38.4083 30.4035 39.1382 30.7342 39.7657 31.2158C40.3933 31.6973 40.9017 32.3168 41.2515 33.0262C41.6014 33.7357 41.7834 34.5161 41.7834 35.3071V38.9907C41.7834 39.1424 41.7272 39.3978 41.5698 39.5982C41.4384 39.7654 41.1931 39.9541 40.6654 39.9541C40.1377 39.9541 39.8924 39.7654 39.761 39.5982C39.6852 39.5016 39.6329 39.3923 39.599 39.2879V37.0072C39.599 36.6003 39.2691 36.2705 38.8623 36.2705L38.8487 36.2706L38.8365 36.2709C38.8279 36.2706 38.8194 36.2705 38.8107 36.2705C38.4039 36.2705 38.074 36.6003 38.074 37.0072V38.9907C38.074 39.1333 38.0893 39.2972 38.1255 39.4714V43.1843C38.1255 43.336 38.0694 43.5914 37.912 43.7918C37.7806 43.959 37.5352 44.1477 37.0076 44.1477C36.4799 44.1477 36.2346 43.959 36.1032 43.7918C35.9458 43.5914 35.8896 43.336 35.8896 43.1843V35.3071C35.8896 34.9002 35.5598 34.5704 35.1529 34.5704C34.746 34.5704 34.4162 34.9002 34.4162 35.3071V43.1843C34.4162 43.5993 34.5455 44.1939 34.9445 44.7019C35.3695 45.2431 36.0515 45.6211 37.0076 45.6211C37.9637 45.6211 38.6456 45.2431 39.0707 44.7019C39.4697 44.1939 39.599 43.5993 39.599 43.1843V41.2412C39.9064 41.36 40.2614 41.4275 40.6654 41.4275C41.6215 41.4275 42.3034 41.0495 42.7285 40.5083C43.1275 40.0003 43.2568 39.4057 43.2568 38.9907H45.0575C45.3809 38.9907 45.6665 38.7797 45.7616 38.4706C46.0641 37.4877 46.215 36.4561 46.203 35.4131C46.179 33.3278 45.5054 31.3032 44.2778 29.6349C44.1193 29.4195 43.9527 29.2116 43.7784 29.0114L43.8405 28.9636C40.0532 24.0401 35.9159 21.8695 32.2828 21.013C28.6676 20.1607 25.6012 20.6226 23.99 20.8705ZM31.9447 22.4471C29.023 21.7583 26.4841 21.9998 24.8389 22.2335V31.8085C25.9039 32.167 26.7127 32.7211 27.3002 33.2991C27.5619 32.1531 28.0249 31.0571 28.6744 30.0672C29.8119 28.3334 31.4626 27.0146 33.388 26.3069C35.204 25.6394 37.1723 25.5495 39.035 26.0447C36.5905 24.0206 34.1477 22.9665 31.9447 22.4471ZM26.9166 35.1757C26.6187 34.6577 25.9708 34.2848 24.8389 33.7819V35.1757H26.9166ZM44.4955 37.5172H43.2568V35.3071C43.2568 34.2901 43.0228 33.2867 42.573 32.3745C42.1232 31.4624 41.4696 30.6659 40.6627 30.0468C39.8558 29.4277 38.9174 29.0025 37.9199 28.8041C36.9224 28.6056 35.8926 28.6394 34.9103 28.9026C33.9279 29.1658 33.0192 29.6515 32.2546 30.3221C31.49 30.9926 30.8898 31.8301 30.5006 32.7697C30.1114 33.7093 29.9436 34.7259 30.0101 35.7407C30.05 36.3487 30.1733 36.9464 30.3751 37.5172H24.8389V36.6491H27.7937C27.9944 36.6491 28.1864 36.5673 28.3253 36.4225C28.4643 36.2777 28.5381 36.0824 28.5298 35.8819C28.4562 34.1037 28.9393 32.3494 29.9063 30.8755C30.8732 29.4018 32.2721 28.2869 33.8963 27.6899C35.5203 27.0929 37.2871 27.0439 38.9399 27.5497C40.5928 28.0555 42.0481 29.0909 43.091 30.5081C44.1341 31.9257 44.7092 33.6502 44.7297 35.43C44.7378 36.1375 44.6581 36.8386 44.4955 37.5172Z" fill="black"/>
		<path d="M32.3327 39.7171C32.3327 39.2853 32.6828 38.9353 33.1145 38.9353C33.5463 38.9353 33.8963 39.2853 33.8963 39.7171V39.7274C33.8963 40.1592 33.5463 40.5092 33.1145 40.5092C32.6828 40.5092 32.3327 40.1592 32.3327 39.7274V39.7171Z" fill="black"/>
	</g>
</svg>