<svg width="40" height="42" viewBox="0 0 40 42" fill="none" xmlns="http://www.w3.org/2000/svg">
<path d="M0.765137 21.3251V11.3926L36.6751 21.3251L38.2032 22.8532L38.9672 25.1453L38.2032 25.9094L36.6751 26.6734L35.9111 28.2015L37.4391 31.2577L38.9672 32.0217V36.606L38.2032 39.6621L35.9111 40.4262L25.9785 37.37L3.05726 30.4936L0.765137 28.9655V27.4375H3.05726L4.58535 25.9094V23.6172L3.05726 22.0892L0.765137 21.3251Z" fill="#FFE174"/>
<path d="M0.765137 10.6305L16.81 15.9788L22.9223 17.5069L34.383 21.3271H37.4391L24.4504 9.10245H22.9223L20.6302 8.33841L19.8662 7.57437V5.28224L18.3381 3.75416L16.046 2.22607H14.5179L10.6977 3.75416L3.8213 6.81033L1.52918 9.10245L0.765137 10.6305Z" fill="#FCC500"/>
<path d="M18.3376 15.2109V17.5031L19.1017 19.0311L20.6298 19.7952L22.1579 18.2671V16.739L19.8657 15.2109H18.3376Z" fill="#FCC500"/>
<path d="M7.64088 16.739L6.1128 15.975L5.34876 15.2109L4.58472 15.975V16.739L5.34876 18.2671H6.87684L7.64088 16.739Z" fill="#FCC500"/>
<path d="M10.697 26.6752L9.16895 25.9111H8.40491L7.64087 26.6752V28.2033L8.40491 29.7313H10.697L11.4611 28.9673L10.697 26.6752Z" fill="#FCC500"/>
<path d="M23.6868 24.3837L24.4508 25.9118H25.2149H25.9789V24.3837L25.2149 23.6196H23.6868V24.3837Z" fill="#FCC500"/>
<path d="M28.271 28.9679L29.7991 30.496L30.5631 31.26L32.0912 30.496L32.8552 28.9679L31.3272 27.4398L29.7991 26.6758L28.271 27.4398V28.9679Z" fill="#FCC500"/>
<path d="M26.7429 33.552L25.2149 32.0239L23.6868 32.788L24.4508 34.3161L25.9789 35.0801L26.7429 33.552Z" fill="#FCC500"/>
<path d="M16.0462 25.1434L14.5181 24.3794V26.6715L16.0462 27.4356L18.3383 28.1996L19.8664 26.6715V25.1434L17.5742 25.9075L16.0462 25.1434Z" fill="#FCC500"/>
<path d="M15.2821 22.0903L14.5181 22.8544V23.6184L16.8102 25.1465H19.1023L19.8664 23.6184L18.3383 22.8544L16.8102 22.0903H15.2821Z" fill="#E1C45E"/>
<path d="M20.5713 24.1481C20.4985 23.9582 20.4122 23.7728 20.3169 23.5927C20.2553 23.4763 20.184 23.366 20.1135 23.2534C20.0632 23.1731 20.0129 23.0935 19.9588 23.0155C19.8778 22.8991 19.793 22.7873 19.7029 22.6769C19.6511 22.6139 19.5955 22.5538 19.5415 22.493C19.3719 22.3039 19.191 22.1282 18.9966 21.9639C18.9268 21.9046 18.86 21.8415 18.7871 21.786C18.6956 21.7162 18.601 21.6554 18.5057 21.5916C18.3938 21.5165 18.2797 21.446 18.1634 21.3807C18.0838 21.3364 18.005 21.2928 17.9232 21.253C17.7153 21.1517 17.5044 21.0609 17.2874 20.9941C17.1103 20.9393 16.9347 20.9018 16.7598 20.8725C16.7237 20.8665 16.6877 20.8612 16.6517 20.8567C16.2944 20.8079 15.9454 20.8117 15.6144 20.868C15.6068 20.8695 15.5986 20.871 15.5911 20.8725C15.155 20.9506 14.7504 21.1134 14.4044 21.3686C14.3699 21.3942 14.3458 21.4294 14.3121 21.4557C14.219 21.5308 14.1342 21.6156 14.0516 21.7034C13.9938 21.765 13.9308 21.8205 13.8797 21.8873C13.7709 22.0269 13.6741 22.1778 13.5907 22.3422C13.5892 22.3452 13.59 22.3482 13.5885 22.3512C13.3716 22.7828 13.2515 23.2789 13.2515 23.8254C13.2515 25.8527 14.8292 27.9304 16.8431 28.5541C17.2236 28.672 17.6027 28.7298 17.9675 28.7298C18.622 28.7298 19.2323 28.5429 19.7261 28.1788C20.4692 27.6309 20.8791 26.758 20.8791 25.7221C20.8791 25.1915 20.7665 24.6593 20.5706 24.1489C20.5713 24.1489 20.5713 24.1489 20.5713 24.1481ZM15.146 22.725C15.2173 22.6499 15.2991 22.5876 15.3869 22.5336C15.4372 22.502 15.492 22.478 15.5476 22.454C15.6241 22.4202 15.7029 22.3895 15.7877 22.3692C15.85 22.3549 15.9153 22.3489 15.9814 22.3422C16.079 22.3317 16.1766 22.3219 16.2809 22.3279C16.3087 22.3294 16.3372 22.3317 16.3657 22.3354C16.5196 22.3504 16.6787 22.3782 16.8438 22.4292C16.9992 22.4773 17.1501 22.5433 17.2987 22.6169C17.3295 22.6319 17.3595 22.6477 17.3895 22.6634C17.6913 22.8256 17.975 23.035 18.2272 23.2804C18.24 23.2932 18.2535 23.3052 18.2662 23.3187C18.5102 23.5619 18.7218 23.8381 18.8952 24.1309C18.9208 24.1751 18.9463 24.2187 18.9703 24.2637C18.9861 24.293 18.9973 24.3238 19.0131 24.353C18.6393 24.7704 18.0095 24.8935 17.2874 24.672C16.3935 24.3943 15.5723 23.6625 15.1137 22.7565C15.1242 22.7445 15.1355 22.7355 15.146 22.725ZM18.8352 26.9719C18.4486 27.2571 17.8992 27.3089 17.2874 27.1212C16.3297 26.824 15.486 25.9991 15.0559 25.0669C15.5896 25.5382 16.1998 25.9053 16.8431 26.1049C17.2229 26.222 17.5982 26.2791 17.9577 26.2791C18.4659 26.2791 18.941 26.1605 19.3576 25.9451C19.3118 26.3879 19.1354 26.7512 18.8352 26.9719Z" fill="black"/>
<path d="M30.8892 26.3507C30.074 26.0985 29.2672 26.2074 28.6712 26.6472C28.1 27.0683 27.7727 27.7611 27.7727 28.5485C27.7727 30.0609 28.9466 31.6087 30.4456 32.0726C30.7346 32.1619 31.0221 32.2062 31.3005 32.2062C31.8064 32.2062 32.2793 32.0605 32.6636 31.7768C33.2348 31.3557 33.5621 30.6637 33.5621 29.8763C33.5613 28.3631 32.3874 26.8138 30.8892 26.3507ZM31.7719 30.5684C31.5602 30.7245 31.2457 30.75 30.8884 30.6389C30.0125 30.3679 29.2732 29.4102 29.2732 28.5485C29.2732 28.3293 29.3227 28.0313 29.5614 27.8549C29.6867 27.7634 29.8466 27.7161 30.0305 27.7161C30.1589 27.7161 30.2977 27.7386 30.4448 27.7844C31.3208 28.0553 32.0601 29.0131 32.0601 29.8755C32.0601 30.0947 32.0106 30.3927 31.7719 30.5684Z" fill="black"/>
<path d="M9.87187 24.8483C9.05747 24.5961 8.24982 24.7049 7.65384 25.1448C7.08263 25.5659 6.75537 26.2587 6.75537 27.046C6.75537 28.5585 7.92931 30.1062 9.42826 30.5701C9.71724 30.6594 10.0047 30.7037 10.2832 30.7037C10.7891 30.7037 11.262 30.5581 11.6463 30.2744C12.2175 29.8533 12.5448 29.1612 12.5448 28.3739C12.544 26.8606 11.3701 25.3114 9.87187 24.8483ZM10.7546 29.0659C10.5429 29.222 10.2284 29.2468 9.87112 29.1365C8.99517 28.8655 8.25582 27.9077 8.25582 27.046C8.25582 26.8269 8.30536 26.5289 8.54405 26.3525C8.6694 26.2609 8.82928 26.2136 9.01318 26.2136C9.14153 26.2136 9.28039 26.2361 9.42751 26.2819C10.3035 26.5529 11.0428 27.5107 11.0428 28.3731C11.0428 28.5923 10.9933 28.8903 10.7546 29.0659Z" fill="black"/>
<path d="M25.6357 31.5571C25.0277 31.3702 24.4167 31.452 23.9603 31.789C23.5212 32.1133 23.2698 32.6402 23.2698 33.2361C23.2698 34.3283 24.1142 35.4444 25.1921 35.7784C25.4052 35.8445 25.6184 35.8775 25.8256 35.8775C26.2099 35.8775 26.5709 35.7657 26.8674 35.5473C27.3065 35.223 27.5587 34.6953 27.5587 34.0993C27.5572 33.0065 26.7128 31.8903 25.6357 31.5571ZM25.9757 34.3373C25.9096 34.3861 25.7798 34.3883 25.6357 34.344C25.1823 34.2037 24.771 33.6753 24.771 33.2354C24.771 33.1814 24.7792 33.05 24.8513 32.9975C24.8851 32.9719 24.9369 32.9592 24.9999 32.9592C25.057 32.9592 25.1223 32.9697 25.1913 32.9907C25.6447 33.1311 26.056 33.6587 26.056 34.0986C26.056 34.1526 26.0477 34.2832 25.9757 34.3373Z" fill="black"/>
<path d="M24.6562 26.8509C24.8693 26.917 25.0825 26.95 25.2904 26.95C25.674 26.95 26.0358 26.8382 26.3322 26.6197C26.7713 26.2955 27.0228 25.7686 27.0228 25.1726C27.0228 24.0805 26.1784 22.9643 25.1005 22.6303C24.4903 22.4419 23.8808 22.526 23.4259 22.8622C22.9868 23.1865 22.7346 23.7142 22.7346 24.3101C22.7339 25.4008 23.5783 26.5177 24.6562 26.8509ZM24.3161 24.0707C24.3507 24.0452 24.4025 24.0324 24.4648 24.0324C24.5218 24.0324 24.5871 24.0429 24.6562 24.0639C25.1095 24.2043 25.5209 24.7327 25.5209 25.1726C25.5209 25.2266 25.5126 25.358 25.4405 25.4105C25.376 25.4593 25.2446 25.4608 25.1005 25.4173C24.6472 25.2769 24.2358 24.7492 24.2358 24.3094C24.2351 24.2553 24.2433 24.124 24.3161 24.0707Z" fill="black"/>
<path d="M8.25752 17.2922C8.25752 16.1235 7.35305 14.9278 6.19787 14.569C5.5501 14.3671 4.90308 14.4579 4.4227 14.813C3.95958 15.1545 3.69312 15.7122 3.69312 16.3435C3.69312 17.5129 4.59834 18.7086 5.75352 19.0659C5.98095 19.1364 6.20763 19.171 6.42756 19.171C6.83363 19.171 7.21644 19.0531 7.52869 18.8227C7.99256 18.4812 8.25752 17.9235 8.25752 17.2922ZM6.63772 17.6135C6.5454 17.6818 6.37877 17.6893 6.19787 17.6322C5.66344 17.4663 5.19432 16.8651 5.19432 16.3435C5.19432 16.2556 5.21008 16.0973 5.31291 16.0207C5.36395 15.9832 5.43676 15.9644 5.52233 15.9644C5.59214 15.9644 5.6702 15.9772 5.75352 16.0027C6.28794 16.1686 6.75632 16.7705 6.75632 17.2922C6.75632 17.38 6.74131 17.5384 6.63772 17.6135Z" fill="black"/>
<path d="M36.801 27.5054C36.813 27.4536 36.8355 27.4093 36.8535 27.3613C36.8708 27.3147 36.8828 27.2652 36.9045 27.2232C36.906 27.2202 36.909 27.2179 36.9105 27.2149C36.9518 27.1376 37.0029 27.0685 37.0607 27.0062C37.1365 26.9244 37.2273 26.8599 37.3294 26.8096C37.3496 26.7991 37.3722 26.7916 37.3932 26.7826C37.4908 26.742 37.5966 26.7143 37.7114 26.7015C37.7272 26.7 37.7415 26.6955 37.758 26.694C37.854 26.6857 37.9554 26.691 38.059 26.703C38.071 26.7045 38.0822 26.703 38.0942 26.7045H38.095C38.1033 26.7052 38.1138 26.7097 38.1228 26.7112C38.2158 26.7263 38.3082 26.7488 38.4102 26.7818C38.4703 26.8013 38.5363 26.8298 38.6017 26.8569C38.6414 26.8734 38.682 26.8869 38.7217 26.9042C38.7645 26.9237 38.8088 26.9342 38.8539 26.9447C38.8696 26.9484 38.8846 26.9559 38.9004 26.9589C38.9552 26.9687 39.01 26.9702 39.0648 26.968C39.0715 26.968 39.0783 26.9695 39.085 26.9687C39.1436 26.965 39.2014 26.9529 39.2577 26.9349C39.2607 26.9342 39.2637 26.9342 39.2674 26.9334C39.3042 26.9214 39.338 26.9012 39.3725 26.8831C39.3943 26.8719 39.4176 26.8651 39.4378 26.8516C39.5909 26.7533 39.6975 26.6032 39.7486 26.4343C39.7688 26.3652 39.7823 26.2947 39.7823 26.2211V24.5443C39.7823 22.929 39.0235 21.3752 37.7512 20.3807L24.7095 8.0438C24.4341 7.78334 24.0085 7.76833 23.7172 8.00927C23.4823 8.20293 23.1348 8.24271 22.7362 8.11886C21.8039 7.82988 21.0166 6.80981 21.0166 5.89107C21.0166 5.70117 21.0533 5.53229 21.1254 5.38967C21.2748 5.09319 21.2117 4.7344 20.9715 4.50622L18.7347 2.39102C18.7152 2.37301 18.695 2.35574 18.6739 2.33998C16.9273 1.00841 14.7843 0.591831 13.1848 1.29289L2.08341 6.64843C0.820895 7.19412 0.0042413 8.47314 0.0012389 9.91655L0.000488281 9.91955V9.92631V21.7453C0.000488281 21.9682 0.0995676 22.1791 0.270705 22.3225C0.441842 22.4643 0.665521 22.5229 0.886198 22.4839C1.13615 22.4366 1.40261 22.4568 1.67508 22.5417C2.80173 22.8907 3.75349 24.1247 3.75349 25.2378C3.75349 25.6672 3.60563 26.0132 3.33691 26.2113C3.03667 26.4328 2.60507 26.4718 2.11868 26.3209C1.8207 26.2286 1.5182 26.0605 1.22172 25.8218C0.995785 25.6416 0.687288 25.6041 0.426079 25.7302C0.165621 25.8548 0.000488281 26.1183 0.000488281 26.4065V28.0301C0.000488281 29.6446 1.09411 31.046 2.63059 31.428L35.4199 41.0868C35.7051 41.1588 35.9933 41.1933 36.2793 41.1933C37.0517 41.1933 37.806 40.9374 38.4328 40.448C39.2915 39.7777 39.7831 38.7697 39.7831 37.6805V31.4205C39.7831 31.2359 39.7163 31.0655 39.6037 30.9341C39.4911 30.802 39.3335 30.7082 39.1511 30.6789C39.1353 30.6767 39.1196 30.6699 39.1038 30.6669C38.4388 30.5423 37.7812 30.0732 37.3324 29.4615C37.1177 29.168 36.9593 28.8422 36.8625 28.5074C36.8355 28.4129 36.8055 28.319 36.7897 28.2237C36.7679 28.0894 36.7589 27.9587 36.7612 27.8364C36.7627 27.7718 36.7747 27.7141 36.7822 27.654C36.7882 27.6045 36.7897 27.5519 36.801 27.5054ZM2.70716 8.01302L13.8115 2.65598C14.8857 2.18686 16.4214 2.52238 17.7327 3.50942L19.5867 5.26282C19.5394 5.46398 19.5161 5.6734 19.5161 5.89107C19.5161 7.46208 20.7358 9.06987 22.2933 9.55251C22.9246 9.74841 23.5498 9.7319 24.0828 9.51648L36.0293 20.8183L23.116 16.9722C22.7865 15.6939 21.7432 14.5275 20.4581 14.1304C19.6167 13.87 18.782 13.9818 18.1635 14.4359C17.8595 14.6596 17.6269 14.9516 17.47 15.2916L2.34612 10.7902C1.88149 10.7009 1.61128 10.3812 1.54447 9.83849C1.53997 9.80471 1.52346 9.77393 1.5137 9.74091C1.5745 8.97454 2.0166 8.31176 2.70716 8.01302ZM21.7334 17.7919C21.7334 18.0298 21.6786 18.3548 21.4159 18.5477C21.1847 18.7188 20.8454 18.7466 20.4581 18.6273C20.3418 18.5912 20.2269 18.544 20.1166 18.4862C19.4523 18.1424 18.9149 17.4466 18.7745 16.7493C18.7513 16.6344 18.7392 16.5196 18.7392 16.4062C18.7422 16.3897 18.752 16.3079 18.7535 16.2922C18.755 16.2741 18.7483 16.2576 18.749 16.2404C18.7723 16.0309 18.8481 15.7968 19.056 15.6436C19.1934 15.5423 19.369 15.4913 19.5702 15.4913C19.7083 15.4913 19.8584 15.5153 20.0153 15.5641C20.8875 15.8343 21.6231 16.7425 21.7161 17.611C21.7169 17.6177 21.7154 17.6237 21.7154 17.6305L21.7334 17.7919ZM38.2804 37.6813C38.2804 38.3043 37.9989 38.8822 37.5073 39.2651C37.0156 39.6501 36.3889 39.7815 35.8124 39.6396L3.02391 29.9809C2.12769 29.7564 1.50169 28.9548 1.50169 28.0301V27.696C1.55949 27.7171 1.61728 27.7373 1.67508 27.7546C2.61333 28.0458 3.54257 27.9227 4.22712 27.4191C4.88915 26.9312 5.25395 26.1558 5.25395 25.2378C5.25395 23.4664 3.87659 21.6522 2.11868 21.108C1.91302 21.0442 1.70585 20.9999 1.50094 20.9774V12.0985C1.65481 12.1646 1.81844 12.2141 1.98958 12.2464L17.2613 16.7958C17.2658 16.8318 17.2778 16.8671 17.2838 16.9031C17.2966 16.982 17.3154 17.06 17.3334 17.1388C17.3581 17.2469 17.3867 17.3528 17.4219 17.4593C17.4482 17.5397 17.4782 17.6177 17.5105 17.6958C17.5518 17.7971 17.5968 17.8969 17.6471 17.9953C17.6861 18.0733 17.7274 18.1491 17.7717 18.2242C17.828 18.3195 17.8881 18.4104 17.9519 18.5012C18.0022 18.5732 18.0524 18.6445 18.1072 18.7143C18.177 18.8022 18.2521 18.884 18.3287 18.9658C18.388 19.0296 18.4458 19.0941 18.5088 19.1534C18.5929 19.2338 18.6829 19.3058 18.7738 19.3786C18.8376 19.4304 18.8991 19.4845 18.9659 19.5325C19.0703 19.6068 19.1806 19.6699 19.2917 19.7329C19.3517 19.7674 19.4088 19.8072 19.4711 19.8387C19.6467 19.9273 19.8276 20.0031 20.0145 20.0609C20.2029 20.1195 20.3906 20.1525 20.576 20.1735C20.6263 20.1795 20.675 20.1818 20.7246 20.1855C20.7824 20.1893 20.8417 20.199 20.8995 20.199C21.0023 20.199 21.1021 20.1885 21.202 20.1773C21.2207 20.175 21.2402 20.1758 21.259 20.1728C21.4309 20.1487 21.5953 20.1037 21.7537 20.0459C21.7904 20.0324 21.8265 20.0174 21.8625 20.0016C22.0194 19.9348 22.171 19.8575 22.3084 19.7562C22.4412 19.6579 22.5561 19.543 22.6611 19.4207C22.6889 19.3891 22.7144 19.3561 22.7407 19.3231C22.8315 19.2052 22.9133 19.0799 22.9794 18.944C22.9854 18.932 22.9929 18.9223 22.9989 18.9103C23.0537 18.7932 23.1002 18.6716 23.1363 18.5432L36.6929 22.5784C37.6139 22.7758 38.2819 23.6015 38.2819 24.5435V25.2153C38.05 25.1845 37.8255 25.1808 37.6086 25.1995C37.4225 25.2161 37.2446 25.2528 37.0742 25.3031C37.0149 25.3204 36.9586 25.3452 36.9015 25.3669C36.7829 25.4112 36.6681 25.4622 36.5585 25.5238C36.5052 25.5538 36.4534 25.5846 36.4024 25.6184C36.2875 25.6949 36.1817 25.7813 36.0804 25.8766C36.0549 25.9006 36.0241 25.9164 35.9993 25.9419C35.9911 25.9501 35.9866 25.9614 35.9783 25.9704C35.9648 25.9847 35.949 25.9944 35.9355 26.0094C35.9348 26.0102 35.9348 26.0102 35.934 26.0109C35.8627 26.0898 35.8117 26.1873 35.7501 26.2759C35.7006 26.348 35.6428 26.414 35.6007 26.4913C35.5932 26.5048 35.5827 26.5146 35.576 26.5274C35.5152 26.6437 35.4792 26.772 35.4356 26.8974C35.4138 26.9612 35.3816 27.0197 35.3643 27.0858C35.32 27.2509 35.2998 27.4273 35.2847 27.6052C35.2802 27.6555 35.2667 27.702 35.2645 27.7531C35.2645 27.7613 35.2615 27.7688 35.2615 27.7771C35.2562 27.97 35.275 28.1719 35.3035 28.3753C35.308 28.4061 35.3043 28.4346 35.3088 28.4654C35.344 28.6793 35.4003 28.8895 35.4701 29.0967C35.4754 29.1117 35.4762 29.1267 35.4814 29.1409C35.5062 29.213 35.5392 29.2873 35.5955 29.4089C35.6338 29.499 35.6706 29.5891 35.7148 29.6769C35.7306 29.7107 35.7434 29.7452 35.7614 29.779C35.8042 29.8593 35.8552 29.9343 35.904 30.0101C35.9468 30.0799 35.9896 30.149 36.0353 30.2166L36.0346 30.2173C36.0646 30.2676 36.0961 30.3179 36.1269 30.3584C36.2493 30.5258 36.3851 30.6827 36.5 30.8028C36.5157 30.8215 36.5488 30.8613 36.5668 30.8793C36.6186 30.9326 36.6749 30.9777 36.7281 31.028C36.7529 31.0512 36.7784 31.0745 36.804 31.0978C36.9293 31.2111 37.0584 31.3154 37.192 31.413C37.216 31.4303 37.2393 31.4483 37.2633 31.4656C37.4037 31.5639 37.5478 31.6525 37.6949 31.732C37.7174 31.744 37.7385 31.7583 37.761 31.7695C37.9321 31.8581 38.1063 31.9377 38.2834 32V37.6813H38.2804Z" fill="black"/>
</svg>
