<svg width="38" height="45" viewBox="0 0 38 45" fill="none" xmlns="http://www.w3.org/2000/svg">
	<style>
	.g-container { display: none }
 	.g-container:target { display: inline }

	<!-- .g-container { 
		height: 0;
		overflow: hidden;
		opacity: 0;
	}
 	.g-container:target { 
		height: auto;
		opacity: 1;
		transition: opacity 0.15s ease-in-out;
	} -->
</style>
	<g class="g-container" id="green-default">	
		<path d="M16.1538 4.63206C16.4432 4.73617 16.7667 4.7163 17.0413 4.57749C17.1723 4.51135 17.3036 4.47279 17.4198 4.46217C17.5367 4.45148 17.634 4.46936 17.7013 4.51077L17.7013 4.51079C17.7768 4.55723 17.8246 4.64529 17.8529 4.75015C17.881 4.85392 17.8877 4.96575 17.8877 5.04776C17.8877 5.60953 17.5948 6.36259 17.2393 7.06045C16.885 7.75579 16.4735 8.38728 16.2449 8.70319C16.2448 8.70329 16.2448 8.7034 16.2447 8.70351L16.2266 8.72755C15.6109 8.55439 15.0107 8.3968 14.2284 8.3968C13.3853 8.3968 12.4959 8.57402 11.6804 8.97306C11.2683 8.91179 10.8431 8.83548 10.3834 8.73922C7.7139 8.1801 5.37419 8.51118 3.62193 9.70506C2.07323 10.7602 1.06911 12.4209 0.715608 14.5035C0.507426 15.7298 0.593175 17.9386 0.911031 20.6292C1.22912 23.3217 1.78038 26.5023 2.5062 29.6754C3.26759 33.004 4.14549 35.9719 5.04525 38.2581C5.5947 39.6541 6.14079 40.7797 6.69154 41.6462C7.24207 42.5124 7.79899 43.1223 8.37123 43.4835C8.96703 43.8596 9.76838 44.2018 11.2095 44.2018C11.8706 44.2018 12.6686 44.1284 13.6399 43.9549C14.9911 44.7651 16.5769 44.6021 17.8759 44.4687L17.8821 44.468C18.3142 44.4237 18.7187 44.3821 19.0604 44.3821C19.402 44.3821 19.8065 44.4237 20.2386 44.468L20.2399 44.4682C20.7562 44.5213 21.3171 44.579 21.8894 44.579C22.7604 44.579 23.6613 44.444 24.4781 43.9551C25.2519 44.0952 26.0662 44.2063 26.865 44.2062C27.891 44.2062 28.8938 44.0236 29.7496 43.4835C30.4441 43.0451 31.0934 42.2349 31.6922 41.204C32.2915 40.1721 32.843 38.9139 33.3399 37.5736C34.3337 34.8928 35.1108 31.8781 35.6146 29.6754C36.3405 26.5024 36.8918 23.3218 37.2099 20.6293C37.5278 17.9387 37.6135 15.7299 37.4053 14.5036C37.0518 12.421 36.0476 10.7603 34.499 9.70514C32.7467 8.51127 30.407 8.18018 27.7375 8.73931C27.2779 8.83565 26.8526 8.91196 26.4406 8.97315C25.625 8.57402 24.7356 8.39688 23.8926 8.39688C23.4231 8.39688 23.0198 8.45412 22.6388 8.53709C22.8482 5.32342 22.3121 2.90023 21.0579 1.51203C20.3279 0.704165 19.3816 0.276172 18.3227 0.276172C16.9216 0.276172 15.8102 1.01246 15.2742 1.44911C14.8842 1.76664 14.7541 2.31187 14.9569 2.77522L15.0027 2.75517L14.9569 2.77522L15.5037 4.02437C15.6272 4.30648 15.864 4.52795 16.1538 4.63206ZM16.1538 4.63206L16.1707 4.58501M16.1538 4.63206C16.1538 4.63206 16.1538 4.63206 16.1538 4.63207L16.1707 4.58501M16.1707 4.58501C16.4472 4.68447 16.7564 4.66547 17.0188 4.53286C17.2902 4.39577 17.5684 4.37021 17.7275 4.4682L16.1707 4.58501ZM19.9565 2.50715L19.9936 2.47363L19.9565 2.50716C20.4644 3.06921 20.8235 3.92068 21.021 5.01653C21.2168 6.10326 21.2529 7.42643 21.1199 8.93713C20.5622 9.07348 19.9282 9.18097 19.0604 9.18097C18.5663 9.18097 18.1482 9.14604 17.7769 9.09095C18.0487 8.67447 18.4334 8.04014 18.7568 7.33671C19.0971 6.59662 19.372 5.77479 19.372 5.04776C19.372 3.96176 18.8148 3.4533 18.4789 3.24664L18.4527 3.28923L18.4789 3.24664C17.9791 2.93928 17.3421 2.89443 16.7217 3.10559L16.4283 2.43538C16.8274 2.15287 17.5258 1.76045 18.3227 1.76045C18.9591 1.76045 19.508 2.01064 19.9565 2.50715ZM15.93 10.186L15.9436 10.1379L15.93 10.186L15.9303 10.1861C16.7241 10.4101 17.6277 10.6652 19.0604 10.6652C20.4932 10.6652 21.397 10.4101 22.1908 10.186C22.7745 10.0212 23.2721 9.88107 23.8925 9.88107C25.403 9.88107 26.4227 10.4931 27.0665 11.389C27.712 12.2872 27.9825 13.4751 27.9825 14.6278C27.9825 17.4274 27.5702 23.881 26.8801 29.8326C26.2812 34.9979 25.6863 38.0443 25.2001 39.8391C24.7131 41.6363 24.3367 42.1719 24.1802 42.3243C23.6913 42.8003 23.0938 43.0034 22.4426 43.0694C21.79 43.1354 21.0875 43.0634 20.3905 42.9917L20.3896 42.9916C19.9229 42.9436 19.4789 42.898 19.0604 42.898C18.6419 42.898 18.1978 42.9436 17.7311 42.9916L17.7303 42.9917C17.0332 43.0634 16.3308 43.1354 15.6782 43.0693C15.027 43.0034 14.4295 42.8002 13.9406 42.3243C13.7841 42.1719 13.4077 41.6363 12.9208 39.8391C12.4345 38.0443 11.8397 34.9979 11.2407 29.8326C10.5506 23.881 10.1383 17.4274 10.1383 14.6278C10.1383 13.475 10.4088 12.2872 11.0543 11.389C11.6981 10.4931 12.7178 9.88107 14.2283 9.88107C14.8487 9.88107 15.3462 10.0212 15.93 10.186ZM4.45766 10.9317L4.42951 10.8904L4.45766 10.9317C5.86253 9.97459 7.80441 9.7154 10.0791 10.1919C10.0814 10.1924 10.0837 10.1929 10.0861 10.1934C9.22543 11.1838 8.65414 12.6257 8.65414 14.6277C8.65414 17.4719 9.07022 24.0001 9.76645 30.0035C10.1587 33.3851 10.5899 36.2027 11.0484 38.3778C11.5429 40.7234 11.9948 41.9566 12.3708 42.6497C11.1816 42.7924 10.0102 42.7629 9.16345 42.2286C8.76256 41.9755 8.33416 41.4797 7.89174 40.7637C7.45002 40.0489 6.9971 39.1193 6.54539 38.0044C5.64204 35.7746 4.74524 32.8077 3.95308 29.3445C3.25716 26.3023 2.7186 23.2117 2.4016 20.6018C2.08433 17.9897 1.98983 15.8653 2.17879 14.752C2.46398 13.0717 3.25319 11.7522 4.45766 10.9317ZM28.9575 42.2286C28.1108 42.7632 26.9394 42.7926 25.7501 42.65C26.1261 41.9568 26.578 40.7235 27.0725 38.3779C27.5311 36.2028 27.9624 33.3851 28.3545 30.0036C29.0505 24.0002 29.4668 17.4721 29.4668 14.6278C29.4668 12.6257 28.8955 11.1838 28.0348 10.1933L28.0417 10.1919L28.0417 10.1919C30.3165 9.71523 32.2584 9.97459 33.6632 10.9317C34.8677 11.7523 35.6568 13.0717 35.9421 14.752C36.1311 15.8654 36.0366 17.9898 35.7194 20.6019C35.4024 23.2118 34.8638 26.3024 34.1679 29.3446C33.3757 32.8078 32.4789 35.7747 31.5755 38.0044C31.1238 39.1194 30.6709 40.049 30.2292 40.7638C29.7867 41.4797 29.3583 41.9756 28.9575 42.2286Z" fill="#DEDEDE" stroke="#DEDEDE" stroke-width="0.1"/>
		<path d="M16.14 40.8496C16.5285 40.7192 16.7377 40.2984 16.6073 39.9099L16.5599 39.9258L16.6073 39.9099C16.289 38.962 15.6507 36.5657 14.9657 31.194C14.9139 30.7874 14.5424 30.4999 14.1356 30.5517L14.1356 30.5517C13.7291 30.6036 13.4416 30.9753 13.4934 31.3818L13.4934 31.3818C14.1589 36.5994 14.7884 39.1553 15.2003 40.3823L15.2003 40.3823C15.3046 40.6926 15.5937 40.8884 15.9038 40.8884C15.9822 40.8884 16.0619 40.8759 16.14 40.8496ZM16.14 40.8496L16.1241 40.8022L16.14 40.8496C16.14 40.8496 16.14 40.8496 16.14 40.8496Z" fill="#DEDEDE" stroke="#DEDEDE" stroke-width="0.1"/>
	</g>
	<g class="g-container" id="green-press">
		<path d="M16.1538 4.63206C16.4432 4.73617 16.7667 4.7163 17.0413 4.57749C17.1723 4.51135 17.3036 4.47279 17.4198 4.46217C17.5367 4.45148 17.634 4.46936 17.7013 4.51077L17.7013 4.51079C17.7768 4.55723 17.8246 4.64529 17.8529 4.75015C17.881 4.85392 17.8877 4.96575 17.8877 5.04776C17.8877 5.60953 17.5948 6.36259 17.2393 7.06045C16.885 7.75579 16.4735 8.38728 16.2449 8.70319C16.2448 8.70329 16.2448 8.7034 16.2447 8.70351L16.2266 8.72755C15.6109 8.55439 15.0107 8.3968 14.2284 8.3968C13.3853 8.3968 12.4959 8.57402 11.6804 8.97306C11.2683 8.91179 10.8431 8.83548 10.3834 8.73922C7.7139 8.1801 5.37419 8.51118 3.62193 9.70506C2.07323 10.7602 1.06911 12.4209 0.715608 14.5035C0.507426 15.7298 0.593175 17.9386 0.911031 20.6292C1.22912 23.3217 1.78038 26.5023 2.5062 29.6754C3.26759 33.004 4.14549 35.9719 5.04525 38.2581C5.5947 39.6541 6.14079 40.7797 6.69154 41.6462C7.24207 42.5124 7.79899 43.1223 8.37123 43.4835C8.96703 43.8596 9.76838 44.2018 11.2095 44.2018C11.8706 44.2018 12.6686 44.1284 13.6399 43.9549C14.9911 44.7651 16.5769 44.6021 17.8759 44.4687L17.8821 44.468C18.3142 44.4237 18.7187 44.3821 19.0604 44.3821C19.402 44.3821 19.8065 44.4237 20.2386 44.468L20.2399 44.4682C20.7562 44.5213 21.3171 44.579 21.8894 44.579C22.7604 44.579 23.6613 44.444 24.4781 43.9551C25.2519 44.0952 26.0662 44.2063 26.865 44.2062C27.891 44.2062 28.8938 44.0236 29.7496 43.4835C30.4441 43.0451 31.0934 42.2349 31.6922 41.204C32.2915 40.1721 32.843 38.9139 33.3399 37.5736C34.3337 34.8928 35.1108 31.8781 35.6146 29.6754C36.3405 26.5024 36.8918 23.3218 37.2099 20.6293C37.5278 17.9387 37.6135 15.7299 37.4053 14.5036C37.0518 12.421 36.0476 10.7603 34.499 9.70514C32.7467 8.51127 30.407 8.18018 27.7375 8.73931C27.2779 8.83565 26.8526 8.91196 26.4406 8.97315C25.625 8.57402 24.7356 8.39688 23.8926 8.39688C23.4231 8.39688 23.0198 8.45412 22.6388 8.53709C22.8482 5.32342 22.3121 2.90023 21.0579 1.51203C20.3279 0.704165 19.3816 0.276172 18.3227 0.276172C16.9216 0.276172 15.8102 1.01246 15.2742 1.44911C14.8842 1.76664 14.7541 2.31187 14.9569 2.77522L15.0027 2.75517L14.9569 2.77522L15.5037 4.02437C15.6272 4.30648 15.864 4.52795 16.1538 4.63206ZM16.1538 4.63206L16.1707 4.58501M16.1538 4.63206C16.1538 4.63206 16.1538 4.63206 16.1538 4.63207L16.1707 4.58501M16.1707 4.58501C16.4472 4.68447 16.7564 4.66547 17.0188 4.53286C17.2902 4.39577 17.5684 4.37021 17.7275 4.4682L16.1707 4.58501ZM19.9565 2.50715L19.9936 2.47363L19.9565 2.50716C20.4644 3.06921 20.8235 3.92068 21.021 5.01653C21.2168 6.10326 21.2529 7.42643 21.1199 8.93713C20.5622 9.07348 19.9282 9.18097 19.0604 9.18097C18.5663 9.18097 18.1482 9.14604 17.7769 9.09095C18.0487 8.67447 18.4334 8.04014 18.7568 7.33671C19.0971 6.59662 19.372 5.77479 19.372 5.04776C19.372 3.96176 18.8148 3.4533 18.4789 3.24664L18.4527 3.28923L18.4789 3.24664C17.9791 2.93928 17.3421 2.89443 16.7217 3.10559L16.4283 2.43538C16.8274 2.15287 17.5258 1.76045 18.3227 1.76045C18.9591 1.76045 19.508 2.01064 19.9565 2.50715ZM15.93 10.186L15.9436 10.1379L15.93 10.186L15.9303 10.1861C16.7241 10.4101 17.6277 10.6652 19.0604 10.6652C20.4932 10.6652 21.397 10.4101 22.1908 10.186C22.7745 10.0212 23.2721 9.88107 23.8925 9.88107C25.403 9.88107 26.4227 10.4931 27.0665 11.389C27.712 12.2872 27.9825 13.4751 27.9825 14.6278C27.9825 17.4274 27.5702 23.881 26.8801 29.8326C26.2812 34.9979 25.6863 38.0443 25.2001 39.8391C24.7131 41.6363 24.3367 42.1719 24.1802 42.3243C23.6913 42.8003 23.0938 43.0034 22.4426 43.0694C21.79 43.1354 21.0875 43.0634 20.3905 42.9917L20.3896 42.9916C19.9229 42.9436 19.4789 42.898 19.0604 42.898C18.6419 42.898 18.1978 42.9436 17.7311 42.9916L17.7303 42.9917C17.0332 43.0634 16.3308 43.1354 15.6782 43.0693C15.027 43.0034 14.4295 42.8002 13.9406 42.3243C13.7841 42.1719 13.4077 41.6363 12.9208 39.8391C12.4345 38.0443 11.8397 34.9979 11.2407 29.8326C10.5506 23.881 10.1383 17.4274 10.1383 14.6278C10.1383 13.475 10.4088 12.2872 11.0543 11.389C11.6981 10.4931 12.7178 9.88107 14.2283 9.88107C14.8487 9.88107 15.3462 10.0212 15.93 10.186ZM4.45766 10.9317L4.42951 10.8904L4.45766 10.9317C5.86253 9.97459 7.80441 9.7154 10.0791 10.1919C10.0814 10.1924 10.0837 10.1929 10.0861 10.1934C9.22543 11.1838 8.65414 12.6257 8.65414 14.6277C8.65414 17.4719 9.07022 24.0001 9.76645 30.0035C10.1587 33.3851 10.5899 36.2027 11.0484 38.3778C11.5429 40.7234 11.9948 41.9566 12.3708 42.6497C11.1816 42.7924 10.0102 42.7629 9.16345 42.2286C8.76256 41.9755 8.33416 41.4797 7.89174 40.7637C7.45002 40.0489 6.9971 39.1193 6.54539 38.0044C5.64204 35.7746 4.74524 32.8077 3.95308 29.3445C3.25716 26.3023 2.7186 23.2117 2.4016 20.6018C2.08433 17.9897 1.98983 15.8653 2.17879 14.752C2.46398 13.0717 3.25319 11.7522 4.45766 10.9317ZM28.9575 42.2286C28.1108 42.7632 26.9394 42.7926 25.7501 42.65C26.1261 41.9568 26.578 40.7235 27.0725 38.3779C27.5311 36.2028 27.9624 33.3851 28.3545 30.0036C29.0505 24.0002 29.4668 17.4721 29.4668 14.6278C29.4668 12.6257 28.8955 11.1838 28.0348 10.1933L28.0417 10.1919L28.0417 10.1919C30.3165 9.71523 32.2584 9.97459 33.6632 10.9317C34.8677 11.7523 35.6568 13.0717 35.9421 14.752C36.1311 15.8654 36.0366 17.9898 35.7194 20.6019C35.4024 23.2118 34.8638 26.3024 34.1679 29.3446C33.3757 32.8078 32.4789 35.7747 31.5755 38.0044C31.1238 39.1194 30.6709 40.049 30.2292 40.7638C29.7867 41.4797 29.3583 41.9756 28.9575 42.2286Z" fill="#F9451D" stroke="#F9451D" stroke-width="0.1"/>
		<path d="M16.14 40.8496C16.5285 40.7192 16.7377 40.2984 16.6073 39.9099L16.5599 39.9258L16.6073 39.9099C16.289 38.962 15.6507 36.5657 14.9657 31.194C14.9139 30.7874 14.5424 30.4999 14.1356 30.5517L14.1356 30.5517C13.7291 30.6036 13.4416 30.9753 13.4934 31.3818L13.4934 31.3818C14.1589 36.5994 14.7884 39.1553 15.2003 40.3823L15.2003 40.3823C15.3046 40.6926 15.5937 40.8884 15.9038 40.8884C15.9822 40.8884 16.0619 40.8759 16.14 40.8496ZM16.14 40.8496L16.1241 40.8022L16.14 40.8496C16.14 40.8496 16.14 40.8496 16.14 40.8496Z" fill="#F9451D" stroke="#F9451D" stroke-width="0.1"/>
	</g>
	<g class="g-container" id="green-active">
		<path d="M18.3223 1.01758C17.1293 1.01758 16.1589 1.68451 15.7423 2.0238C15.6075 2.13353 15.5665 2.31768 15.6363 2.47688L16.1831 3.72612C16.2713 3.92737 16.51 4.0137 16.706 3.91459C17.6161 3.4546 18.6292 3.78043 18.6292 5.04703C18.6292 6.67735 16.1069 9.87627 16.1069 9.87627L22.0128 10.6145C22.7512 3.97053 20.5673 1.01758 18.3223 1.01758Z" fill="#3B6421"/>
		<path d="M12.4158 9.7217C11.9561 9.65626 10.7542 9.57139 10.2308 9.46184C5.23988 8.41634 2.10321 10.7568 1.44673 14.624C0.648139 19.3286 4.55836 40.1958 8.76695 42.8522C10.089 43.6866 12.7953 43.5294 14.6306 43.1819L12.4158 9.7217Z" fill="#FCC500"/>
		<path d="M25.7042 9.7217C26.1639 9.65626 27.3659 9.57139 27.8892 9.46184C32.8802 8.41634 36.0168 10.7568 36.6733 14.624C37.4719 19.3286 33.5617 40.1958 29.3531 42.8522C28.0311 43.6866 25.3248 43.5294 23.4895 43.1819L25.7042 9.7217Z" fill="#FFE174"/>
		<path d="M19.0603 43.6385C20.671 43.6385 23.087 44.4225 24.6978 42.8544C27.1138 40.5019 28.7245 20.115 28.7245 14.6261C28.7245 10.7055 26.3084 9.13729 23.8923 9.13729C22.2815 9.13729 21.4762 9.92138 19.0601 9.92138C16.644 9.92138 15.8388 9.13721 14.2282 9.13721C11.8121 9.13721 9.396 10.7054 9.396 14.626C9.396 20.1149 11.0067 40.502 13.4227 42.8543C15.0335 44.4225 17.4495 43.6385 19.0603 43.6385Z" fill="#FFE174"/>
		<path d="M17.0851 41.4814C15.1355 35.3351 13.8925 18.5336 13.8925 13.5003C13.8925 12.4683 14.0497 11.5946 14.3211 10.8594C14.4604 10.4817 14.4017 10.0626 14.1602 9.74057C13.8821 9.36977 13.4099 9.17966 12.96 9.29086C11.0333 9.76725 9.396 11.3991 9.396 14.6265C9.396 20.1153 11.0066 40.5024 13.4227 42.8547C13.8267 43.248 14.281 43.4928 14.7604 43.639C15.5221 43.8713 16.3755 43.6885 16.8403 43.042C17.192 42.5529 17.2479 41.9946 17.0851 41.4814Z" fill="#FCC500"/>
		<path d="M16.1538 4.63206C16.4432 4.73617 16.7667 4.7163 17.0413 4.57749C17.1723 4.51135 17.3036 4.47279 17.4198 4.46217C17.5367 4.45148 17.634 4.46936 17.7013 4.51077L17.7013 4.51079C17.7768 4.55723 17.8246 4.64529 17.8529 4.75015C17.881 4.85392 17.8877 4.96575 17.8877 5.04776C17.8877 5.60953 17.5948 6.36259 17.2393 7.06045C16.885 7.75579 16.4735 8.38728 16.2449 8.70319C16.2448 8.70329 16.2448 8.7034 16.2447 8.70351L16.2266 8.72755C15.6109 8.55439 15.0107 8.3968 14.2284 8.3968C13.3853 8.3968 12.4959 8.57402 11.6804 8.97306C11.2683 8.91179 10.8431 8.83548 10.3834 8.73922C7.7139 8.1801 5.37419 8.51118 3.62193 9.70506C2.07323 10.7602 1.06911 12.4209 0.715608 14.5035C0.507426 15.7298 0.593175 17.9386 0.911031 20.6292C1.22912 23.3217 1.78038 26.5023 2.5062 29.6754C3.26759 33.004 4.14549 35.9719 5.04525 38.2581C5.5947 39.6541 6.14079 40.7797 6.69154 41.6462C7.24207 42.5124 7.79899 43.1223 8.37123 43.4835C8.96703 43.8596 9.76838 44.2018 11.2095 44.2018C11.8706 44.2018 12.6686 44.1284 13.6399 43.9549C14.9911 44.7651 16.5769 44.6021 17.8759 44.4687L17.8821 44.468C18.3142 44.4237 18.7187 44.3821 19.0604 44.3821C19.402 44.3821 19.8065 44.4237 20.2386 44.468L20.2399 44.4682C20.7562 44.5213 21.3171 44.579 21.8894 44.579C22.7604 44.579 23.6613 44.444 24.4781 43.9551C25.2519 44.0952 26.0662 44.2063 26.865 44.2062C27.891 44.2062 28.8938 44.0236 29.7496 43.4835C30.4441 43.0451 31.0934 42.2349 31.6922 41.204C32.2915 40.1721 32.843 38.9139 33.3399 37.5736C34.3337 34.8928 35.1108 31.8781 35.6146 29.6754C36.3405 26.5024 36.8918 23.3218 37.2099 20.6293C37.5278 17.9387 37.6135 15.7299 37.4053 14.5036C37.0518 12.421 36.0476 10.7603 34.499 9.70514C32.7467 8.51127 30.407 8.18018 27.7375 8.73931C27.2779 8.83565 26.8526 8.91196 26.4406 8.97315C25.625 8.57402 24.7356 8.39688 23.8926 8.39688C23.4231 8.39688 23.0198 8.45412 22.6388 8.53709C22.8482 5.32342 22.3121 2.90023 21.0579 1.51203C20.3279 0.704165 19.3816 0.276172 18.3227 0.276172C16.9216 0.276172 15.8102 1.01246 15.2742 1.44911C14.8842 1.76664 14.7541 2.31187 14.9569 2.77522L15.0027 2.75517L14.9569 2.77522L15.5037 4.02437C15.6272 4.30648 15.864 4.52795 16.1538 4.63206ZM16.1538 4.63206L16.1707 4.58501M16.1538 4.63206C16.1538 4.63206 16.1538 4.63206 16.1538 4.63207L16.1707 4.58501M16.1707 4.58501C16.4472 4.68447 16.7564 4.66547 17.0188 4.53286C17.2902 4.39577 17.5684 4.37021 17.7275 4.4682L16.1707 4.58501ZM19.9565 2.50715L19.9936 2.47363L19.9565 2.50716C20.4644 3.06921 20.8235 3.92068 21.021 5.01653C21.2168 6.10326 21.2529 7.42643 21.1199 8.93713C20.5622 9.07348 19.9282 9.18097 19.0604 9.18097C18.5663 9.18097 18.1482 9.14604 17.7769 9.09095C18.0487 8.67447 18.4334 8.04014 18.7568 7.33671C19.0971 6.59662 19.372 5.77479 19.372 5.04776C19.372 3.96176 18.8148 3.4533 18.4789 3.24664L18.4527 3.28923L18.4789 3.24664C17.9791 2.93928 17.3421 2.89443 16.7217 3.10559L16.4283 2.43538C16.8274 2.15287 17.5258 1.76045 18.3227 1.76045C18.9591 1.76045 19.508 2.01064 19.9565 2.50715ZM15.93 10.186L15.9436 10.1379L15.93 10.186L15.9303 10.1861C16.7241 10.4101 17.6277 10.6652 19.0604 10.6652C20.4932 10.6652 21.397 10.4101 22.1908 10.186C22.7745 10.0212 23.2721 9.88107 23.8925 9.88107C25.403 9.88107 26.4227 10.4931 27.0665 11.389C27.712 12.2872 27.9825 13.4751 27.9825 14.6278C27.9825 17.4274 27.5702 23.881 26.8801 29.8326C26.2812 34.9979 25.6863 38.0443 25.2001 39.8391C24.7131 41.6363 24.3367 42.1719 24.1802 42.3243C23.6913 42.8003 23.0938 43.0034 22.4426 43.0694C21.79 43.1354 21.0875 43.0634 20.3905 42.9917L20.3896 42.9916C19.9229 42.9436 19.4789 42.898 19.0604 42.898C18.6419 42.898 18.1978 42.9436 17.7311 42.9916L17.7303 42.9917C17.0332 43.0634 16.3308 43.1354 15.6782 43.0693C15.027 43.0034 14.4295 42.8002 13.9406 42.3243C13.7841 42.1719 13.4077 41.6363 12.9208 39.8391C12.4345 38.0443 11.8397 34.9979 11.2407 29.8326C10.5506 23.881 10.1383 17.4274 10.1383 14.6278C10.1383 13.475 10.4088 12.2872 11.0543 11.389C11.6981 10.4931 12.7178 9.88107 14.2283 9.88107C14.8487 9.88107 15.3462 10.0212 15.93 10.186ZM4.45766 10.9317L4.42951 10.8904L4.45766 10.9317C5.86253 9.97459 7.80441 9.7154 10.0791 10.1919C10.0814 10.1924 10.0837 10.1929 10.0861 10.1934C9.22543 11.1838 8.65414 12.6257 8.65414 14.6277C8.65414 17.4719 9.07022 24.0001 9.76645 30.0035C10.1587 33.3851 10.5899 36.2027 11.0484 38.3778C11.5429 40.7234 11.9948 41.9566 12.3708 42.6497C11.1816 42.7924 10.0102 42.7629 9.16345 42.2286C8.76256 41.9755 8.33416 41.4797 7.89174 40.7637C7.45002 40.0489 6.9971 39.1193 6.54539 38.0044C5.64204 35.7746 4.74524 32.8077 3.95308 29.3445C3.25716 26.3023 2.7186 23.2117 2.4016 20.6018C2.08433 17.9897 1.98983 15.8653 2.17879 14.752C2.46398 13.0717 3.25319 11.7522 4.45766 10.9317ZM28.9575 42.2286C28.1108 42.7632 26.9394 42.7926 25.7501 42.65C26.1261 41.9568 26.578 40.7235 27.0725 38.3779C27.5311 36.2028 27.9624 33.3851 28.3545 30.0036C29.0505 24.0002 29.4668 17.4721 29.4668 14.6278C29.4668 12.6257 28.8955 11.1838 28.0348 10.1933L28.0417 10.1919L28.0417 10.1919C30.3165 9.71523 32.2584 9.97459 33.6632 10.9317C34.8677 11.7523 35.6568 13.0717 35.9421 14.752C36.1311 15.8654 36.0366 17.9898 35.7194 20.6019C35.4024 23.2118 34.8638 26.3024 34.1679 29.3446C33.3757 32.8078 32.4789 35.7747 31.5755 38.0044C31.1238 39.1194 30.6709 40.049 30.2292 40.7638C29.7867 41.4797 29.3583 41.9756 28.9575 42.2286Z" fill="black" stroke="black" stroke-width="0.1"/>
		<path d="M16.14 40.8496C16.5285 40.7192 16.7377 40.2984 16.6073 39.9099L16.5599 39.9258L16.6073 39.9099C16.289 38.962 15.6507 36.5657 14.9657 31.194C14.9139 30.7874 14.5424 30.4999 14.1356 30.5517L14.1356 30.5517C13.7291 30.6036 13.4416 30.9753 13.4934 31.3818L13.4934 31.3818C14.1589 36.5994 14.7884 39.1553 15.2003 40.3823L15.2003 40.3823C15.3046 40.6926 15.5937 40.8884 15.9038 40.8884C15.9822 40.8884 16.0619 40.8759 16.14 40.8496ZM16.14 40.8496L16.1241 40.8022L16.14 40.8496C16.14 40.8496 16.14 40.8496 16.14 40.8496Z" fill="black" stroke="black" stroke-width="0.1"/>
		<path d="M33.8399 16.5194C33.4299 16.498 33.0819 16.8139 33.0613 17.2231L33.0613 17.2231C32.9466 19.496 32.5107 22.6866 31.8647 25.9769C31.7857 26.3791 32.0477 26.7691 32.4499 26.848C32.4982 26.8576 32.5462 26.8621 32.5936 26.8621C32.9412 26.8621 33.2516 26.6168 33.321 26.2628C33.9797 22.9077 34.4254 19.6401 34.5436 17.2978C34.5642 16.8886 34.2492 16.54 33.8399 16.5194L33.8373 16.5693L33.8399 16.5194Z" fill="black" stroke="black" stroke-width="0.1"/>
		<path d="M33.8023 15.0096L33.8023 15.0096C33.7215 15.0378 33.6391 15.0511 33.5581 15.0511C33.2512 15.0511 32.964 14.8592 32.8573 14.5529C32.6628 13.9942 32.3658 13.5971 31.9514 13.3339C31.6054 13.1141 31.503 12.6556 31.7227 12.3096L33.8023 15.0096ZM33.8023 15.0096C34.1893 14.8748 34.3938 14.4517 34.2589 14.0647M33.8023 15.0096L34.2589 14.0647M34.2589 14.0647C33.9557 13.1941 33.4474 12.5256 32.747 12.081M34.2589 14.0647C34.2589 14.0647 34.2589 14.0647 34.2589 14.0647L32.747 12.081M32.747 12.081C32.401 11.8611 31.9424 11.9635 31.7227 12.3096L32.747 12.081Z" fill="black" stroke="black" stroke-width="0.1"/>
	</g>
</svg>
