<svg width="51" height="45" viewBox="0 0 51 45" fill="none" xmlns="http://www.w3.org/2000/svg">
	<style>
	.g-container { display: none }
 	.g-container:target { display: inline }

	<!-- .g-container { 
		height: 0;
		overflow: hidden;
		opacity: 0;
	}
 	.g-container:target { 
		height: auto;
		opacity: 1;
		transition: opacity 0.15s ease-in-out;
	} -->
</style>
	<g class="g-container" id="meat-default">	
		<path xmlns="http://www.w3.org/2000/svg" d="M26.9549 26.929C26.9549 27.3502 26.6134 27.6917 26.1922 27.6917H25.9897C25.5685 27.6917 25.227 27.3502 25.227 26.929C25.227 26.5078 25.5685 26.1663 25.9897 26.1663H26.1922C26.6133 26.1663 26.9549 26.5078 26.9549 26.929ZM22.8451 22.7783C22.8451 24.697 21.2842 26.258 19.3655 26.258H12.5544C10.6358 26.258 9.07477 24.697 9.07477 22.7783C9.07477 20.8596 10.6357 19.2987 12.5544 19.2987H19.3655C21.2842 19.2987 22.8451 20.8596 22.8451 22.7783ZM21.3197 22.7783C21.3197 21.7007 20.4431 20.8241 19.3655 20.8241H12.5544C11.4768 20.8241 10.6002 21.7007 10.6002 22.7783C10.6002 23.8559 11.4768 24.7326 12.5544 24.7326H19.3655C20.4431 24.7326 21.3197 23.8559 21.3197 22.7783ZM26.1922 17.8649H25.9897C25.5685 17.8649 25.227 18.2064 25.227 18.6276C25.227 19.0488 25.5685 19.3903 25.9897 19.3903H26.1922C26.6134 19.3903 26.9549 19.0488 26.9549 18.6276C26.9549 18.2064 26.6133 17.8649 26.1922 17.8649ZM18.3717 22.0156H13.5484C13.1272 22.0156 12.7857 22.3571 12.7857 22.7783C12.7857 23.1995 13.1272 23.541 13.5484 23.541H18.3717C18.7929 23.541 19.1344 23.1995 19.1344 22.7783C19.1344 22.3571 18.7929 22.0156 18.3717 22.0156ZM31.8354 26.1663H31.6329C31.2117 26.1663 30.8702 26.5078 30.8702 26.929C30.8702 27.3502 31.2117 27.6917 31.6329 27.6917H31.8354C32.2566 27.6917 32.598 27.3502 32.598 26.929C32.598 26.5078 32.2566 26.1663 31.8354 26.1663ZM28.216 22.0156H28.0137C27.5925 22.0156 27.251 22.3571 27.251 22.7783C27.251 23.1995 27.5925 23.541 28.0137 23.541H28.216C28.6373 23.541 28.9787 23.1995 28.9787 22.7783C28.9787 22.3571 28.6373 22.0156 28.216 22.0156ZM40.2055 22.7783C40.2055 25.9644 38.8136 28.9544 36.2861 31.1975C33.7845 33.4178 30.464 34.6407 26.9364 34.6407C25.0527 34.6407 23.2412 34.3009 21.5525 33.6308C19.8949 32.9728 18.4281 32.0347 17.193 30.8424C17.1749 30.825 17.1578 30.8068 17.1416 30.7877C16.9083 30.5134 16.5287 30.3496 16.126 30.3496H12.4313C10.206 30.3496 8.10255 29.5706 6.50884 28.156C4.88931 26.7185 3.9974 24.8087 3.9974 22.7784C3.9974 20.748 4.88931 18.8382 6.50884 17.4008C8.10277 15.9862 10.2061 15.2072 12.4313 15.2072H16.0204C16.0549 15.2024 16.09 15.1997 16.1258 15.1997C16.492 15.1997 16.8369 15.0658 17.0723 14.8324C18.3313 13.584 19.8386 12.6062 21.5524 11.926C23.241 11.256 25.0524 10.9161 26.9363 10.9161C30.4639 10.9161 33.7844 12.1389 36.286 14.3594C38.8136 16.6022 40.2055 19.5922 40.2055 22.7783ZM38.6801 22.7783C38.6801 20.0344 37.4703 17.4496 35.2736 15.5C33.0513 13.5276 30.0905 12.4414 26.9364 12.4414C25.246 12.4414 23.624 12.7451 22.1151 13.3438C20.6151 13.9391 19.2428 14.8284 18.1465 15.9155C17.6555 16.4024 16.9693 16.6929 16.2481 16.7226C16.2084 16.7292 16.1676 16.7325 16.1261 16.7325H12.4314C10.5797 16.7325 8.83594 17.375 7.52149 18.5417C6.23275 19.6855 5.5229 21.1902 5.5229 22.7783C5.5229 24.3665 6.23275 25.8712 7.52149 27.0151C8.83594 28.1817 10.5797 28.8242 12.4314 28.8242H16.1261C16.9685 28.8242 17.7498 29.1678 18.2767 29.7683C19.3631 30.8108 20.6543 31.6332 22.1152 32.2131C23.6241 32.8118 25.2462 33.1155 26.9364 33.1155C30.0904 33.1155 33.0512 32.0292 35.2736 30.0568C37.4704 28.1071 38.6801 25.5223 38.6801 22.7783ZM44.2029 29.5708C44.2029 33.7044 42.3951 37.5852 39.1126 40.4985C35.8557 43.3891 31.5315 44.981 26.9366 44.981C24.5085 44.981 22.1508 44.5339 19.9288 43.6522C18.1005 42.9265 16.4414 41.9307 14.9929 40.6899H12.4315C9.13862 40.6899 6.03151 39.5417 3.68262 37.4569C1.30781 35.3491 0 32.5483 0 29.5708V24.1056C0 23.8854 0 23.0016 0 22.7783C0 19.8006 1.30781 17 3.68251 14.8922C6.03151 12.8074 9.13851 11.6592 12.4314 11.6592H14.9927C16.4414 10.4184 18.1005 9.42265 19.9287 8.697C22.1505 7.81521 24.5084 7.36816 26.9366 7.36816C31.5315 7.36816 35.8556 8.96002 39.1126 11.8506C42.3951 14.7639 44.2029 18.6448 44.2029 22.7783C44.2029 23.0017 44.2029 29.5708 44.2029 29.5708ZM42.6775 29.1339C41.8238 30.8166 40.6247 32.364 39.1126 33.706C35.8556 36.5966 31.5315 38.1886 26.9366 38.1886C24.5084 38.1886 22.1505 37.7414 19.9288 36.8598C18.1005 36.134 16.4414 35.1382 14.9929 33.8974H12.4315C9.13851 33.8974 6.0314 32.7493 3.68262 30.6645C2.81827 29.8973 2.09545 29.0386 1.52539 28.1128V29.5708C1.52539 32.1063 2.65113 34.5018 4.69515 36.3161C6.76467 38.1529 9.51212 39.1645 12.4314 39.1645H14.1165V36.2102C14.1165 35.7889 14.458 35.4475 14.8792 35.4475C15.3004 35.4475 15.6419 35.7889 15.6419 36.2102V39.2567C15.6928 39.2843 15.7406 39.3177 15.7845 39.3566C17.1514 40.569 18.7351 41.5373 20.4915 42.2344C22.5335 43.0448 24.702 43.4557 26.9366 43.4557C31.158 43.4557 35.1226 42.0003 38.1 39.3576C41.0519 36.7378 42.6775 33.2621 42.6775 29.5708V29.1339ZM42.6775 22.7783C42.6775 19.087 41.0519 15.6113 38.1 12.9914C35.1225 10.3488 31.158 8.89345 26.9366 8.89345C24.7019 8.89345 22.5334 9.30432 20.4915 10.1147C18.7352 10.8118 17.1515 11.78 15.7846 12.9924C15.6451 13.1162 15.4651 13.1845 15.2785 13.1845H12.4315C9.51223 13.1845 6.76467 14.196 4.69515 16.0329C2.65113 17.8473 1.52539 20.2429 1.52539 22.7783C1.52539 22.9749 1.54805 23.3935 1.5486 23.4079C1.71901 25.7084 2.8211 27.8604 4.69515 29.5236C6.76456 31.3604 9.51201 32.3721 12.4314 32.3721H15.2784C15.465 32.3721 15.645 32.4404 15.7845 32.5641C17.1514 33.7765 18.7351 34.7448 20.4915 35.4419C22.5334 36.2523 24.7019 36.6632 26.9366 36.6632C31.158 36.6632 35.1226 35.2079 38.1 32.5652C40.8787 30.099 42.4823 26.8744 42.6608 23.4254C42.6612 23.4104 42.6619 23.3955 42.6631 23.3805C42.6727 23.1805 42.6775 22.9798 42.6775 22.7783ZM31.8354 17.8649H31.6329C31.2117 17.8649 30.8702 18.2064 30.8702 18.6276C30.8702 19.0488 31.2117 19.3903 31.6329 19.3903H31.8354C32.2566 19.3903 32.598 19.0488 32.598 18.6276C32.598 18.2064 32.2566 17.8649 31.8354 17.8649ZM33.8592 22.0156H33.6568C33.2355 22.0156 32.8941 22.3571 32.8941 22.7783C32.8941 23.1995 33.2355 23.541 33.6568 23.541H33.8592C34.2804 23.541 34.6219 23.1995 34.6219 22.7783C34.6219 22.3571 34.2804 22.0156 33.8592 22.0156Z" fill="#DEDEDE"/>
	</g>
	<g class="g-container" id="meat-press">
		<path xmlns="http://www.w3.org/2000/svg" d="M26.9549 26.929C26.9549 27.3502 26.6134 27.6917 26.1922 27.6917H25.9897C25.5685 27.6917 25.227 27.3502 25.227 26.929C25.227 26.5078 25.5685 26.1663 25.9897 26.1663H26.1922C26.6133 26.1663 26.9549 26.5078 26.9549 26.929ZM22.8451 22.7783C22.8451 24.697 21.2842 26.258 19.3655 26.258H12.5544C10.6358 26.258 9.07477 24.697 9.07477 22.7783C9.07477 20.8596 10.6357 19.2987 12.5544 19.2987H19.3655C21.2842 19.2987 22.8451 20.8596 22.8451 22.7783ZM21.3197 22.7783C21.3197 21.7007 20.4431 20.8241 19.3655 20.8241H12.5544C11.4768 20.8241 10.6002 21.7007 10.6002 22.7783C10.6002 23.8559 11.4768 24.7326 12.5544 24.7326H19.3655C20.4431 24.7326 21.3197 23.8559 21.3197 22.7783ZM26.1922 17.8649H25.9897C25.5685 17.8649 25.227 18.2064 25.227 18.6276C25.227 19.0488 25.5685 19.3903 25.9897 19.3903H26.1922C26.6134 19.3903 26.9549 19.0488 26.9549 18.6276C26.9549 18.2064 26.6133 17.8649 26.1922 17.8649ZM18.3717 22.0156H13.5484C13.1272 22.0156 12.7857 22.3571 12.7857 22.7783C12.7857 23.1995 13.1272 23.541 13.5484 23.541H18.3717C18.7929 23.541 19.1344 23.1995 19.1344 22.7783C19.1344 22.3571 18.7929 22.0156 18.3717 22.0156ZM31.8354 26.1663H31.6329C31.2117 26.1663 30.8702 26.5078 30.8702 26.929C30.8702 27.3502 31.2117 27.6917 31.6329 27.6917H31.8354C32.2566 27.6917 32.598 27.3502 32.598 26.929C32.598 26.5078 32.2566 26.1663 31.8354 26.1663ZM28.216 22.0156H28.0137C27.5925 22.0156 27.251 22.3571 27.251 22.7783C27.251 23.1995 27.5925 23.541 28.0137 23.541H28.216C28.6373 23.541 28.9787 23.1995 28.9787 22.7783C28.9787 22.3571 28.6373 22.0156 28.216 22.0156ZM40.2055 22.7783C40.2055 25.9644 38.8136 28.9544 36.2861 31.1975C33.7845 33.4178 30.464 34.6407 26.9364 34.6407C25.0527 34.6407 23.2412 34.3009 21.5525 33.6308C19.8949 32.9728 18.4281 32.0347 17.193 30.8424C17.1749 30.825 17.1578 30.8068 17.1416 30.7877C16.9083 30.5134 16.5287 30.3496 16.126 30.3496H12.4313C10.206 30.3496 8.10255 29.5706 6.50884 28.156C4.88931 26.7185 3.9974 24.8087 3.9974 22.7784C3.9974 20.748 4.88931 18.8382 6.50884 17.4008C8.10277 15.9862 10.2061 15.2072 12.4313 15.2072H16.0204C16.0549 15.2024 16.09 15.1997 16.1258 15.1997C16.492 15.1997 16.8369 15.0658 17.0723 14.8324C18.3313 13.584 19.8386 12.6062 21.5524 11.926C23.241 11.256 25.0524 10.9161 26.9363 10.9161C30.4639 10.9161 33.7844 12.1389 36.286 14.3594C38.8136 16.6022 40.2055 19.5922 40.2055 22.7783ZM38.6801 22.7783C38.6801 20.0344 37.4703 17.4496 35.2736 15.5C33.0513 13.5276 30.0905 12.4414 26.9364 12.4414C25.246 12.4414 23.624 12.7451 22.1151 13.3438C20.6151 13.9391 19.2428 14.8284 18.1465 15.9155C17.6555 16.4024 16.9693 16.6929 16.2481 16.7226C16.2084 16.7292 16.1676 16.7325 16.1261 16.7325H12.4314C10.5797 16.7325 8.83594 17.375 7.52149 18.5417C6.23275 19.6855 5.5229 21.1902 5.5229 22.7783C5.5229 24.3665 6.23275 25.8712 7.52149 27.0151C8.83594 28.1817 10.5797 28.8242 12.4314 28.8242H16.1261C16.9685 28.8242 17.7498 29.1678 18.2767 29.7683C19.3631 30.8108 20.6543 31.6332 22.1152 32.2131C23.6241 32.8118 25.2462 33.1155 26.9364 33.1155C30.0904 33.1155 33.0512 32.0292 35.2736 30.0568C37.4704 28.1071 38.6801 25.5223 38.6801 22.7783ZM44.2029 29.5708C44.2029 33.7044 42.3951 37.5852 39.1126 40.4985C35.8557 43.3891 31.5315 44.981 26.9366 44.981C24.5085 44.981 22.1508 44.5339 19.9288 43.6522C18.1005 42.9265 16.4414 41.9307 14.9929 40.6899H12.4315C9.13862 40.6899 6.03151 39.5417 3.68262 37.4569C1.30781 35.3491 0 32.5483 0 29.5708V24.1056C0 23.8854 0 23.0016 0 22.7783C0 19.8006 1.30781 17 3.68251 14.8922C6.03151 12.8074 9.13851 11.6592 12.4314 11.6592H14.9927C16.4414 10.4184 18.1005 9.42265 19.9287 8.697C22.1505 7.81521 24.5084 7.36816 26.9366 7.36816C31.5315 7.36816 35.8556 8.96002 39.1126 11.8506C42.3951 14.7639 44.2029 18.6448 44.2029 22.7783C44.2029 23.0017 44.2029 29.5708 44.2029 29.5708ZM42.6775 29.1339C41.8238 30.8166 40.6247 32.364 39.1126 33.706C35.8556 36.5966 31.5315 38.1886 26.9366 38.1886C24.5084 38.1886 22.1505 37.7414 19.9288 36.8598C18.1005 36.134 16.4414 35.1382 14.9929 33.8974H12.4315C9.13851 33.8974 6.0314 32.7493 3.68262 30.6645C2.81827 29.8973 2.09545 29.0386 1.52539 28.1128V29.5708C1.52539 32.1063 2.65113 34.5018 4.69515 36.3161C6.76467 38.1529 9.51212 39.1645 12.4314 39.1645H14.1165V36.2102C14.1165 35.7889 14.458 35.4475 14.8792 35.4475C15.3004 35.4475 15.6419 35.7889 15.6419 36.2102V39.2567C15.6928 39.2843 15.7406 39.3177 15.7845 39.3566C17.1514 40.569 18.7351 41.5373 20.4915 42.2344C22.5335 43.0448 24.702 43.4557 26.9366 43.4557C31.158 43.4557 35.1226 42.0003 38.1 39.3576C41.0519 36.7378 42.6775 33.2621 42.6775 29.5708V29.1339ZM42.6775 22.7783C42.6775 19.087 41.0519 15.6113 38.1 12.9914C35.1225 10.3488 31.158 8.89345 26.9366 8.89345C24.7019 8.89345 22.5334 9.30432 20.4915 10.1147C18.7352 10.8118 17.1515 11.78 15.7846 12.9924C15.6451 13.1162 15.4651 13.1845 15.2785 13.1845H12.4315C9.51223 13.1845 6.76467 14.196 4.69515 16.0329C2.65113 17.8473 1.52539 20.2429 1.52539 22.7783C1.52539 22.9749 1.54805 23.3935 1.5486 23.4079C1.71901 25.7084 2.8211 27.8604 4.69515 29.5236C6.76456 31.3604 9.51201 32.3721 12.4314 32.3721H15.2784C15.465 32.3721 15.645 32.4404 15.7845 32.5641C17.1514 33.7765 18.7351 34.7448 20.4915 35.4419C22.5334 36.2523 24.7019 36.6632 26.9366 36.6632C31.158 36.6632 35.1226 35.2079 38.1 32.5652C40.8787 30.099 42.4823 26.8744 42.6608 23.4254C42.6612 23.4104 42.6619 23.3955 42.6631 23.3805C42.6727 23.1805 42.6775 22.9798 42.6775 22.7783ZM31.8354 17.8649H31.6329C31.2117 17.8649 30.8702 18.2064 30.8702 18.6276C30.8702 19.0488 31.2117 19.3903 31.6329 19.3903H31.8354C32.2566 19.3903 32.598 19.0488 32.598 18.6276C32.598 18.2064 32.2566 17.8649 31.8354 17.8649ZM33.8592 22.0156H33.6568C33.2355 22.0156 32.8941 22.3571 32.8941 22.7783C32.8941 23.1995 33.2355 23.541 33.6568 23.541H33.8592C34.2804 23.541 34.6219 23.1995 34.6219 22.7783C34.6219 22.3571 34.2804 22.0156 33.8592 22.0156Z" fill="#F9451D"/>
	</g>
	<g class="g-container" id="meat-active">
		<path d="M20.2552 9.59689L20.2552 9.5969L15.4011 12.5652C15.4011 12.5652 15.4011 12.5652 15.4011 12.5652C15.353 12.6079 15.291 12.6314 15.2268 12.6314H12.3797C9.3455 12.6314 6.47785 13.683 4.31148 15.6059L4.31148 15.6059C2.16994 17.5068 0.973633 20.0348 0.973633 22.7252C0.973633 22.9338 0.997451 23.3803 0.997199 23.3737L0.99754 23.3827L0.998207 23.3917C1.17902 25.8327 2.3485 28.1023 4.3115 29.8444C6.47775 31.7672 9.34528 32.8189 12.3796 32.8189H15.2267C15.2909 32.8189 15.3529 32.8425 15.401 32.8851C16.8128 34.1373 18.4467 35.1357 20.2552 35.8535L20.4397 35.3888L20.2552 35.8535C22.3569 36.6877 24.5881 37.1101 26.8848 37.1101C31.2205 37.1101 35.3054 35.6151 38.3802 32.8861C41.2513 30.3378 42.9224 26.991 43.1084 23.3982L43.1088 23.3907L43.109 23.3832C43.1091 23.3779 43.1093 23.3727 43.1098 23.3674L43.1104 23.3594L43.1108 23.3513C43.1208 23.1433 43.1257 22.9346 43.1257 22.7252C43.1257 18.8801 41.4306 15.2717 38.3802 12.5643L38.0534 12.9325L38.3802 12.5643C35.3053 9.83532 31.2205 8.34033 26.8848 8.34033C24.5881 8.34033 22.3569 8.76276 20.2552 9.59689Z" fill="#F9451D" stroke="#F9451D"/>
		<path d="M22.3941 13.0548L22.394 13.0548C20.8641 13.662 19.463 14.5694 18.3416 15.6813L18.3416 15.6813C17.8973 16.1219 17.2713 16.3889 16.609 16.4162L16.5938 16.4168L16.5787 16.4193C16.5524 16.4236 16.5252 16.4259 16.4973 16.4259H12.8025C10.8933 16.4259 9.08949 17.0884 7.72668 18.2981C6.3896 19.4848 5.64404 21.0555 5.64404 22.7217C5.64404 24.3879 6.3896 25.9586 7.72667 27.1454L7.72668 27.1454C9.08949 28.355 10.8932 29.0176 12.8025 29.0176H16.4973C17.2719 29.0176 17.9832 29.3332 18.4599 29.8766L18.467 29.8846L18.4747 29.8921C19.5855 30.9579 20.9045 31.7976 22.3941 32.3888L22.3942 32.3888C23.9335 32.9997 25.5871 33.3088 27.3076 33.3088C30.5186 33.3088 33.5396 32.2027 35.8107 30.1872L35.6447 30.0002L35.8107 30.1872C38.0567 28.1937 39.3013 25.5426 39.3013 22.7217C39.3013 19.9008 38.0566 17.2496 35.8107 15.2564C33.5397 13.2407 30.5187 12.1348 27.3076 12.1348C25.5869 12.1348 23.9334 12.4439 22.3941 13.0548Z" fill="#FE9F88" stroke="#FE9F88" stroke-width="0.5"/>
		<path d="M42.1798 28.789L43.1257 29.0152V29.4521C43.1257 33.2972 41.4306 36.9056 38.3802 39.6128C35.3054 42.342 31.2205 43.837 26.8848 43.837C24.5882 43.837 22.357 43.4145 20.2553 42.5804L20.2552 42.5804C18.4467 41.8626 16.8128 40.8642 15.401 39.612M42.1798 28.789L15.7328 39.2379M42.1798 28.789C41.3559 30.4131 40.1963 31.911 38.7289 33.2134L39.0608 33.5873M42.1798 28.789L42.6098 30.0839M15.401 39.612L15.7328 39.2379M15.401 39.612C15.4011 39.612 15.4011 39.6121 15.4012 39.6122L15.7328 39.2379M15.401 39.612C15.3856 39.5984 15.3692 39.5869 15.352 39.5776L15.0901 39.4358V39.138V36.0915C15.0901 35.9464 14.9725 35.8288 14.8275 35.8288C14.6824 35.8288 14.5648 35.9464 14.5648 36.0915V39.0458V39.5458H14.0648H12.3796C9.34537 39.5458 6.47784 38.494 4.3115 36.5713L4.31149 36.5713C2.16994 34.6705 0.973633 32.1427 0.973633 29.4521V27.9941V26.2285L1.89939 27.732C2.44279 28.6145 3.13353 29.4358 3.96277 30.1718L3.96278 30.1718C6.21532 32.1712 9.20259 33.2787 12.3797 33.2787H14.9411H15.126L15.2664 33.399C16.6717 34.6028 18.2829 35.5703 20.0615 36.2763M15.7328 39.2379C15.6889 39.199 15.641 39.1656 15.5901 39.138V36.0915C15.5901 35.6702 15.2487 35.3288 14.8275 35.3288C14.4062 35.3288 14.0648 35.6702 14.0648 36.0915V38.5458V39.0458H13.5648H12.3796C9.46036 39.0458 6.71292 38.0342 4.6434 36.1974C2.59937 34.3831 1.47363 31.9876 1.47363 29.4521L1.47363 28.8978C1.32384 28.6878 1.18187 28.4739 1.04787 28.2563L1.47363 27.9941H1.97363V28.7358C2.44827 29.3813 3.00212 29.9877 3.63086 30.5458C5.97964 32.6306 9.08675 33.7787 12.3797 33.7787H14.9411C16.3897 35.0195 18.0488 36.0153 19.877 36.7411M20.0615 36.2763L19.877 36.7411M20.0615 36.2763C20.0615 36.2763 20.0615 36.2763 20.0615 36.2763L19.877 36.7411M20.0615 36.2763C22.2236 37.1343 24.5187 37.5699 26.8848 37.5699C31.3648 37.5699 35.5688 36.018 38.7289 33.2134L39.0608 33.5873M19.877 36.7411C22.0988 37.6227 24.4566 38.0699 26.8848 38.0699C31.4797 38.0699 35.8039 36.4779 39.0608 33.5873M42.6098 30.0839C42.7327 29.8756 42.8504 29.665 42.9627 29.4521C42.9996 29.3821 43.0359 29.3119 43.0716 29.2414L42.6257 29.0152H42.1257V29.4521C42.1257 29.6138 42.1225 29.775 42.116 29.9359C41.3171 31.2641 40.2928 32.4939 39.0608 33.5873M42.6098 30.0839C42.4352 33.5387 40.8311 36.7691 38.0483 39.2389C35.0708 41.8816 31.1062 43.337 26.8848 43.337C24.6502 43.337 22.4818 42.9261 20.4397 42.1157L42.6098 30.0839Z" fill="#531414" stroke="#531414"/>
		<path d="M19.9527 20.6284C21.1377 20.6284 22.1016 21.6199 22.1016 22.8386C22.1016 24.0572 21.1377 25.0487 19.9527 25.0487H12.4631C11.2782 25.0487 10.3142 24.0572 10.3142 22.8386C10.3142 21.6199 11.2782 20.6284 12.4631 20.6284H19.9527Z" fill="#FFE174"/>
		<path d="M26.9549 26.929C26.9549 27.3502 26.6134 27.6917 26.1922 27.6917H25.9897C25.5685 27.6917 25.227 27.3502 25.227 26.929C25.227 26.5078 25.5685 26.1663 25.9897 26.1663H26.1922C26.6133 26.1663 26.9549 26.5078 26.9549 26.929ZM22.8451 22.7783C22.8451 24.697 21.2842 26.258 19.3655 26.258H12.5544C10.6358 26.258 9.07477 24.697 9.07477 22.7783C9.07477 20.8596 10.6357 19.2987 12.5544 19.2987H19.3655C21.2842 19.2987 22.8451 20.8596 22.8451 22.7783ZM21.3197 22.7783C21.3197 21.7007 20.4431 20.8241 19.3655 20.8241H12.5544C11.4768 20.8241 10.6002 21.7007 10.6002 22.7783C10.6002 23.8559 11.4768 24.7326 12.5544 24.7326H19.3655C20.4431 24.7326 21.3197 23.8559 21.3197 22.7783ZM26.1922 17.8649H25.9897C25.5685 17.8649 25.227 18.2064 25.227 18.6276C25.227 19.0488 25.5685 19.3903 25.9897 19.3903H26.1922C26.6134 19.3903 26.9549 19.0488 26.9549 18.6276C26.9549 18.2064 26.6133 17.8649 26.1922 17.8649ZM18.3717 22.0156H13.5484C13.1272 22.0156 12.7857 22.3571 12.7857 22.7783C12.7857 23.1995 13.1272 23.541 13.5484 23.541H18.3717C18.7929 23.541 19.1344 23.1995 19.1344 22.7783C19.1344 22.3571 18.7929 22.0156 18.3717 22.0156ZM31.8354 26.1663H31.6329C31.2117 26.1663 30.8702 26.5078 30.8702 26.929C30.8702 27.3502 31.2117 27.6917 31.6329 27.6917H31.8354C32.2566 27.6917 32.598 27.3502 32.598 26.929C32.598 26.5078 32.2566 26.1663 31.8354 26.1663ZM28.216 22.0156H28.0137C27.5925 22.0156 27.251 22.3571 27.251 22.7783C27.251 23.1995 27.5925 23.541 28.0137 23.541H28.216C28.6373 23.541 28.9787 23.1995 28.9787 22.7783C28.9787 22.3571 28.6373 22.0156 28.216 22.0156ZM40.2055 22.7783C40.2055 25.9644 38.8136 28.9544 36.2861 31.1975C33.7845 33.4178 30.464 34.6407 26.9364 34.6407C25.0527 34.6407 23.2412 34.3009 21.5525 33.6308C19.8949 32.9728 18.4281 32.0347 17.193 30.8424C17.1749 30.825 17.1578 30.8068 17.1416 30.7877C16.9083 30.5134 16.5287 30.3496 16.126 30.3496H12.4313C10.206 30.3496 8.10255 29.5706 6.50884 28.156C4.88931 26.7185 3.9974 24.8087 3.9974 22.7784C3.9974 20.748 4.88931 18.8382 6.50884 17.4008C8.10277 15.9862 10.2061 15.2072 12.4313 15.2072H16.0204C16.0549 15.2024 16.09 15.1997 16.1258 15.1997C16.492 15.1997 16.8369 15.0658 17.0723 14.8324C18.3313 13.584 19.8386 12.6062 21.5524 11.926C23.241 11.256 25.0524 10.9161 26.9363 10.9161C30.4639 10.9161 33.7844 12.1389 36.286 14.3594C38.8136 16.6022 40.2055 19.5922 40.2055 22.7783ZM38.6801 22.7783C38.6801 20.0344 37.4703 17.4496 35.2736 15.5C33.0513 13.5276 30.0905 12.4414 26.9364 12.4414C25.246 12.4414 23.624 12.7451 22.1151 13.3438C20.6151 13.9391 19.2428 14.8284 18.1465 15.9155C17.6555 16.4024 16.9693 16.6929 16.2481 16.7226C16.2084 16.7292 16.1676 16.7325 16.1261 16.7325H12.4314C10.5797 16.7325 8.83594 17.375 7.52149 18.5417C6.23275 19.6855 5.5229 21.1902 5.5229 22.7783C5.5229 24.3665 6.23275 25.8712 7.52149 27.0151C8.83594 28.1817 10.5797 28.8242 12.4314 28.8242H16.1261C16.9685 28.8242 17.7498 29.1678 18.2767 29.7683C19.3631 30.8108 20.6543 31.6332 22.1152 32.2131C23.6241 32.8118 25.2462 33.1155 26.9364 33.1155C30.0904 33.1155 33.0512 32.0292 35.2736 30.0568C37.4704 28.1071 38.6801 25.5223 38.6801 22.7783ZM44.2029 29.5708C44.2029 33.7044 42.3951 37.5852 39.1126 40.4985C35.8557 43.3891 31.5315 44.981 26.9366 44.981C24.5085 44.981 22.1508 44.5339 19.9288 43.6522C18.1005 42.9265 16.4414 41.9307 14.9929 40.6899H12.4315C9.13862 40.6899 6.03151 39.5417 3.68262 37.4569C1.30781 35.3491 0 32.5483 0 29.5708V24.1056C0 23.8854 0 23.0016 0 22.7783C0 19.8006 1.30781 17 3.68251 14.8922C6.03151 12.8074 9.13851 11.6592 12.4314 11.6592H14.9927C16.4414 10.4184 18.1005 9.42265 19.9287 8.697C22.1505 7.81521 24.5084 7.36816 26.9366 7.36816C31.5315 7.36816 35.8556 8.96002 39.1126 11.8506C42.3951 14.7639 44.2029 18.6448 44.2029 22.7783C44.2029 23.0017 44.2029 29.5708 44.2029 29.5708ZM42.6775 29.1339C41.8238 30.8166 40.6247 32.364 39.1126 33.706C35.8556 36.5966 31.5315 38.1886 26.9366 38.1886C24.5084 38.1886 22.1505 37.7414 19.9288 36.8598C18.1005 36.134 16.4414 35.1382 14.9929 33.8974H12.4315C9.13851 33.8974 6.0314 32.7493 3.68262 30.6645C2.81827 29.8973 2.09545 29.0386 1.52539 28.1128V29.5708C1.52539 32.1063 2.65113 34.5018 4.69515 36.3161C6.76467 38.1529 9.51212 39.1645 12.4314 39.1645H14.1165V36.2102C14.1165 35.7889 14.458 35.4475 14.8792 35.4475C15.3004 35.4475 15.6419 35.7889 15.6419 36.2102V39.2567C15.6928 39.2843 15.7406 39.3177 15.7845 39.3566C17.1514 40.569 18.7351 41.5373 20.4915 42.2344C22.5335 43.0448 24.702 43.4557 26.9366 43.4557C31.158 43.4557 35.1226 42.0003 38.1 39.3576C41.0519 36.7378 42.6775 33.2621 42.6775 29.5708V29.1339ZM42.6775 22.7783C42.6775 19.087 41.0519 15.6113 38.1 12.9914C35.1225 10.3488 31.158 8.89345 26.9366 8.89345C24.7019 8.89345 22.5334 9.30432 20.4915 10.1147C18.7352 10.8118 17.1515 11.78 15.7846 12.9924C15.6451 13.1162 15.4651 13.1845 15.2785 13.1845H12.4315C9.51223 13.1845 6.76467 14.196 4.69515 16.0329C2.65113 17.8473 1.52539 20.2429 1.52539 22.7783C1.52539 22.9749 1.54805 23.3935 1.5486 23.4079C1.71901 25.7084 2.8211 27.8604 4.69515 29.5236C6.76456 31.3604 9.51201 32.3721 12.4314 32.3721H15.2784C15.465 32.3721 15.645 32.4404 15.7845 32.5641C17.1514 33.7765 18.7351 34.7448 20.4915 35.4419C22.5334 36.2523 24.7019 36.6632 26.9366 36.6632C31.158 36.6632 35.1226 35.2079 38.1 32.5652C40.8787 30.099 42.4823 26.8744 42.6608 23.4254C42.6612 23.4104 42.6619 23.3955 42.6631 23.3805C42.6727 23.1805 42.6775 22.9798 42.6775 22.7783ZM31.8354 17.8649H31.6329C31.2117 17.8649 30.8702 18.2064 30.8702 18.6276C30.8702 19.0488 31.2117 19.3903 31.6329 19.3903H31.8354C32.2566 19.3903 32.598 19.0488 32.598 18.6276C32.598 18.2064 32.2566 17.8649 31.8354 17.8649ZM33.8592 22.0156H33.6568C33.2355 22.0156 32.8941 22.3571 32.8941 22.7783C32.8941 23.1995 33.2355 23.541 33.6568 23.541H33.8592C34.2804 23.541 34.6219 23.1995 34.6219 22.7783C34.6219 22.3571 34.2804 22.0156 33.8592 22.0156Z" fill="black"/>

	</g>
</svg>
