<svg width="41" height="45" viewBox="0 0 41 45" fill="none" xmlns="http://www.w3.org/2000/svg">
	<style>
	.g-container { display: none }
 	.g-container:target { display: inline }

	<!-- .g-container { 
		height: 0;
		overflow: hidden;
		opacity: 0;
	}
 	.g-container:target { 
		height: auto;
		opacity: 1;
		transition: opacity 0.15s ease-in-out;
	} -->
</style>
	<g class="g-container" id="sauces-default">
		<path d="M15.9413 12.699H15.7061V8.70192C15.7061 8.31227 15.3903 7.99655 15.0008 7.99655H13.1409L11.8381 1.04805C11.7756 0.714361 11.4842 0.472656 11.1448 0.472656H8.32331C7.98389 0.472656 7.69253 0.714361 7.62998 1.04805L6.32722 7.99655H4.46731C4.07776 7.99655 3.76195 8.31227 3.76195 8.70192V12.699H3.52683C1.58209 12.699 0 14.2811 0 16.2258V41.1487C0 43.0935 1.58209 44.6756 3.52683 44.6756H15.9413C17.886 44.6756 19.4681 43.0935 19.4681 41.1487V16.2258C19.4681 14.2811 17.886 12.699 15.9413 12.699ZM8.90876 1.88339H10.5594L11.7057 7.99655H7.76259L8.90876 1.88339ZM5.17268 9.40728H6.91898C6.92208 9.40728 6.92518 9.40728 6.92829 9.40728H12.5527C12.5567 9.40728 14.2954 9.40728 14.2954 9.40728V12.699H5.17268V9.40728ZM18.0574 41.1487C18.0574 42.3155 17.1081 43.2648 15.9413 43.2648H3.52683C2.35996 43.2648 1.41073 42.3155 1.41073 41.1487V16.2258C1.41073 15.059 2.35996 14.1097 3.52683 14.1097H15.9413C17.1081 14.1097 18.0574 15.059 18.0574 16.2258V41.1487Z" fill="#DEDEDE"/>
		<path d="M15.9428 15.521H3.52836C3.13881 15.521 2.823 15.8367 2.823 16.2264V20.9288C2.823 21.3185 3.13881 21.6342 3.52836 21.6342C3.91791 21.6342 4.23373 21.3185 4.23373 20.9288V16.9317H15.2374V20.9288C15.2374 21.3185 15.5532 21.6342 15.9428 21.6342C16.3323 21.6342 16.6482 21.3185 16.6482 20.9288V16.2264C16.6482 15.8367 16.3323 15.521 15.9428 15.521Z" fill="#DEDEDE"/>
		<path d="M15.9303 23.0449C14.2489 23.0747 13.3455 23.61 12.5483 24.0822C11.786 24.5339 11.1277 24.9239 9.73455 24.9239C8.3414 24.9239 7.68306 24.5339 6.9207 24.0822C6.12392 23.6101 5.22096 23.0752 3.54115 23.0449C3.35193 23.0419 3.16919 23.1143 3.03414 23.2469C2.89908 23.3795 2.823 23.5608 2.823 23.7501V41.1492C2.823 41.5388 3.13881 41.8545 3.52836 41.8545H15.9428C16.3323 41.8545 16.6482 41.5388 16.6482 41.1492V23.7501C16.6482 23.5609 16.5721 23.3796 16.4371 23.2469C16.3022 23.1143 16.1175 23.0379 15.9303 23.0449ZM15.2374 40.4438H4.23373V24.5109C5.08553 24.6347 5.61145 24.9463 6.20151 25.296C7.02331 25.7829 7.95477 26.3347 9.73445 26.3347C11.514 26.3347 12.4455 25.7829 13.2673 25.296C13.8579 24.9461 14.3842 24.6343 15.2374 24.5106V40.4438Z" fill="#DEDEDE"/>
		<path d="M38.9412 18.8365C38.1577 17.8649 37.1001 17.1408 35.9243 16.7625L34.7797 5.64436H34.9385C35.328 5.64436 35.6438 5.32864 35.6438 4.93899C35.6438 4.54935 35.328 4.23363 34.9385 4.23363H34.7033V2.58778C34.7033 1.42101 33.7541 0.47168 32.5872 0.47168H28.6372C27.4703 0.47168 26.5211 1.42101 26.5211 2.58778V4.23363H26.286C25.8964 4.23363 25.5806 4.54935 25.5806 4.93899C25.5806 5.32864 25.8964 5.64436 26.286 5.64436H26.4447L25.3002 16.7625C24.1244 17.1407 23.0667 17.8649 22.2833 18.8365C21.3772 19.9603 20.8782 21.3708 20.8782 22.8083V41.1478C20.8782 43.0925 22.4603 44.6746 24.405 44.6746H36.8194C38.7642 44.6746 40.3463 43.0925 40.3463 41.1478V22.8083C40.3463 21.3708 39.8472 19.9603 38.9412 18.8365ZM27.9318 2.58778C27.9318 2.19879 28.2482 1.88241 28.6372 1.88241H32.5872C32.9762 1.88241 33.2926 2.19879 33.2926 2.58778V4.23363H27.9318V2.58778ZM38.9355 41.1478C38.9355 42.3145 37.9863 43.2638 36.8194 43.2638H24.405C23.2381 43.2638 22.2889 42.3145 22.2889 41.1478V22.8083C22.2889 20.5388 23.897 18.5166 26.1127 18C26.4059 17.9316 26.6234 17.6848 26.6542 17.3854L27.8629 5.64436H33.3615L34.5702 17.3854C34.601 17.6849 34.8185 17.9317 35.1116 18C37.3273 18.5166 38.9354 20.5388 38.9354 22.8083V41.1478H38.9355Z" fill="#DEDEDE"/>
		<path d="M33.9995 19.2827H27.228C25.2833 19.2827 23.7012 20.8648 23.7012 22.8096V24.6902C23.7012 25.0798 24.017 25.3955 24.4065 25.3955C24.7961 25.3955 25.1119 25.0798 25.1119 24.6902V22.8096C25.1119 21.6428 26.0611 20.6935 27.228 20.6935H33.9995C35.1664 20.6935 36.1156 21.6428 36.1156 22.8096V24.6902C36.1156 25.0798 36.4314 25.3955 36.821 25.3955C37.2105 25.3955 37.5263 25.0798 37.5263 24.6902V22.8096C37.5263 20.8648 35.9442 19.2827 33.9995 19.2827Z" fill="#DEDEDE"/>
		<path d="M36.8059 26.8043C35.1246 26.8341 34.2211 27.3694 33.424 27.8416C32.6618 28.2932 32.0033 28.6833 30.6102 28.6833C29.2169 28.6833 28.5586 28.2932 27.7962 27.8415C26.9996 27.3694 26.0966 26.8345 24.4169 26.8039C24.2281 26.7996 24.0449 26.8732 23.9099 27.0058C23.7748 27.1384 23.6987 27.3198 23.6987 27.5092V41.1467C23.6987 41.5363 24.0145 41.8521 24.4041 41.8521H36.8185C37.2081 41.8521 37.5239 41.5363 37.5239 41.1467V27.5095C37.5239 27.3202 37.4478 27.139 37.3128 27.0063C37.1779 26.8736 36.9959 26.8004 36.8059 26.8043ZM36.1131 40.4413H25.1094V28.2701C25.9611 28.394 26.4869 28.7056 27.0771 29.0552C27.8989 29.5422 28.8303 30.0941 30.6101 30.0941C32.3898 30.0941 33.3212 29.5423 34.1429 29.0554C34.7336 28.7055 35.2599 28.3937 36.113 28.27V40.4413H36.1131Z" fill="#DEDEDE"/>
	</g>
	<g class="g-container" id="sauces-press">
		<path d="M15.9413 12.699H15.7061V8.70192C15.7061 8.31227 15.3903 7.99655 15.0008 7.99655H13.1409L11.8381 1.04805C11.7756 0.714361 11.4842 0.472656 11.1448 0.472656H8.32331C7.98389 0.472656 7.69253 0.714361 7.62998 1.04805L6.32722 7.99655H4.46731C4.07776 7.99655 3.76195 8.31227 3.76195 8.70192V12.699H3.52683C1.58209 12.699 0 14.2811 0 16.2258V41.1487C0 43.0935 1.58209 44.6756 3.52683 44.6756H15.9413C17.886 44.6756 19.4681 43.0935 19.4681 41.1487V16.2258C19.4681 14.2811 17.886 12.699 15.9413 12.699ZM8.90876 1.88339H10.5594L11.7057 7.99655H7.76259L8.90876 1.88339ZM5.17268 9.40728H6.91898C6.92208 9.40728 6.92518 9.40728 6.92829 9.40728H12.5527C12.5567 9.40728 14.2954 9.40728 14.2954 9.40728V12.699H5.17268V9.40728ZM18.0574 41.1487C18.0574 42.3155 17.1081 43.2648 15.9413 43.2648H3.52683C2.35996 43.2648 1.41073 42.3155 1.41073 41.1487V16.2258C1.41073 15.059 2.35996 14.1097 3.52683 14.1097H15.9413C17.1081 14.1097 18.0574 15.059 18.0574 16.2258V41.1487Z" fill="#F9451D"/>
		<path d="M15.9428 15.521H3.52836C3.13881 15.521 2.823 15.8367 2.823 16.2264V20.9288C2.823 21.3185 3.13881 21.6342 3.52836 21.6342C3.91791 21.6342 4.23373 21.3185 4.23373 20.9288V16.9317H15.2374V20.9288C15.2374 21.3185 15.5532 21.6342 15.9428 21.6342C16.3323 21.6342 16.6482 21.3185 16.6482 20.9288V16.2264C16.6482 15.8367 16.3323 15.521 15.9428 15.521Z" fill="#F9451D"/>
		<path d="M15.9303 23.0449C14.2489 23.0747 13.3455 23.61 12.5483 24.0822C11.786 24.5339 11.1277 24.9239 9.73455 24.9239C8.3414 24.9239 7.68306 24.5339 6.9207 24.0822C6.12392 23.6101 5.22096 23.0752 3.54115 23.0449C3.35193 23.0419 3.16919 23.1143 3.03414 23.2469C2.89908 23.3795 2.823 23.5608 2.823 23.7501V41.1492C2.823 41.5388 3.13881 41.8545 3.52836 41.8545H15.9428C16.3323 41.8545 16.6482 41.5388 16.6482 41.1492V23.7501C16.6482 23.5609 16.5721 23.3796 16.4371 23.2469C16.3022 23.1143 16.1175 23.0379 15.9303 23.0449ZM15.2374 40.4438H4.23373V24.5109C5.08553 24.6347 5.61145 24.9463 6.20151 25.296C7.02331 25.7829 7.95477 26.3347 9.73445 26.3347C11.514 26.3347 12.4455 25.7829 13.2673 25.296C13.8579 24.9461 14.3842 24.6343 15.2374 24.5106V40.4438Z" fill="#F9451D"/>
		<path d="M38.9412 18.8365C38.1577 17.8649 37.1001 17.1408 35.9243 16.7625L34.7797 5.64436H34.9385C35.328 5.64436 35.6438 5.32864 35.6438 4.93899C35.6438 4.54935 35.328 4.23363 34.9385 4.23363H34.7033V2.58778C34.7033 1.42101 33.7541 0.47168 32.5872 0.47168H28.6372C27.4703 0.47168 26.5211 1.42101 26.5211 2.58778V4.23363H26.286C25.8964 4.23363 25.5806 4.54935 25.5806 4.93899C25.5806 5.32864 25.8964 5.64436 26.286 5.64436H26.4447L25.3002 16.7625C24.1244 17.1407 23.0667 17.8649 22.2833 18.8365C21.3772 19.9603 20.8782 21.3708 20.8782 22.8083V41.1478C20.8782 43.0925 22.4603 44.6746 24.405 44.6746H36.8194C38.7642 44.6746 40.3463 43.0925 40.3463 41.1478V22.8083C40.3463 21.3708 39.8472 19.9603 38.9412 18.8365ZM27.9318 2.58778C27.9318 2.19879 28.2482 1.88241 28.6372 1.88241H32.5872C32.9762 1.88241 33.2926 2.19879 33.2926 2.58778V4.23363H27.9318V2.58778ZM38.9355 41.1478C38.9355 42.3145 37.9863 43.2638 36.8194 43.2638H24.405C23.2381 43.2638 22.2889 42.3145 22.2889 41.1478V22.8083C22.2889 20.5388 23.897 18.5166 26.1127 18C26.4059 17.9316 26.6234 17.6848 26.6542 17.3854L27.8629 5.64436H33.3615L34.5702 17.3854C34.601 17.6849 34.8185 17.9317 35.1116 18C37.3273 18.5166 38.9354 20.5388 38.9354 22.8083V41.1478H38.9355Z" fill="#F9451D"/>
		<path d="M33.9995 19.2827H27.228C25.2833 19.2827 23.7012 20.8648 23.7012 22.8096V24.6902C23.7012 25.0798 24.017 25.3955 24.4065 25.3955C24.7961 25.3955 25.1119 25.0798 25.1119 24.6902V22.8096C25.1119 21.6428 26.0611 20.6935 27.228 20.6935H33.9995C35.1664 20.6935 36.1156 21.6428 36.1156 22.8096V24.6902C36.1156 25.0798 36.4314 25.3955 36.821 25.3955C37.2105 25.3955 37.5263 25.0798 37.5263 24.6902V22.8096C37.5263 20.8648 35.9442 19.2827 33.9995 19.2827Z" fill="#F9451D"/>
		<path d="M36.8059 26.8043C35.1246 26.8341 34.2211 27.3694 33.424 27.8416C32.6618 28.2932 32.0033 28.6833 30.6102 28.6833C29.2169 28.6833 28.5586 28.2932 27.7962 27.8415C26.9996 27.3694 26.0966 26.8345 24.4169 26.8039C24.2281 26.7996 24.0449 26.8732 23.9099 27.0058C23.7748 27.1384 23.6987 27.3198 23.6987 27.5092V41.1467C23.6987 41.5363 24.0145 41.8521 24.4041 41.8521H36.8185C37.2081 41.8521 37.5239 41.5363 37.5239 41.1467V27.5095C37.5239 27.3202 37.4478 27.139 37.3128 27.0063C37.1779 26.8736 36.9959 26.8004 36.8059 26.8043ZM36.1131 40.4413H25.1094V28.2701C25.9611 28.394 26.4869 28.7056 27.0771 29.0552C27.8989 29.5422 28.8303 30.0941 30.6101 30.0941C32.3898 30.0941 33.3212 29.5423 34.1429 29.0554C34.7336 28.7055 35.2599 28.3937 36.113 28.27V40.4413H36.1131Z" fill="#F9451D"/>
	</g>
	<g class="g-container" id="sauces-active">
		<path d="M11.145 1.17969H8.32358L6.91284 8.70359L9.73431 11.525L12.5558 8.70359L11.145 1.17969Z" fill="#F9451D"/>
		<path d="M14.7342 9.31201H4.42017V15.2057H14.7342V9.31201Z" fill="#F9451D"/>
		<path d="M19.1546 16.5886C19.1546 15.0177 17.5584 13.7324 15.6074 13.7324H3.54715C1.59622 13.7324 0 15.0177 0 16.5886V41.8183C0 43.3892 1.59622 44.6745 3.54715 44.6745H15.6074C17.5584 44.6745 19.1546 43.3892 19.1546 41.8183V29.2034V16.5886Z" fill="#FEC8BB"/>
		<path d="M16.2074 24.0483H2.94653V41.7295H16.2074V24.0483Z" fill="#F9451D"/>
		<path d="M3.52856 16.2266V23.7504C6.56163 23.805 6.6096 25.6295 9.73483 25.6295C11.4634 25.6295 12.2506 25.0718 13.1215 24.564V16.2266H3.52856Z" fill="#FEC8BB"/>
		<path d="M35.2739 17.313L33.9995 4.93896H31.1781L28.9651 19.9868L33.9995 43.9692H36.821C38.3728 43.9692 39.6424 42.6995 39.6424 41.1477V22.8082C39.6424 20.1429 37.769 17.8951 35.2739 17.313Z" fill="#C1D560"/>
		<path d="M31.1765 19.9868V4.93896H27.2264L25.9521 17.313C23.4569 17.8951 21.5835 20.1429 21.5835 22.8082V41.1477C21.5835 42.6995 22.8532 43.9692 24.405 43.9692H33.9979C35.5497 43.9692 36.8194 42.6995 36.8194 41.1477L31.1765 19.9868Z" fill="#C1D560"/>
		<path d="M36.8355 26.9937H25.0481V41.728H36.8355V26.9937Z" fill="#3B6421"/>
		<path d="M33.9992 19.9907H31.1777L33.9992 28.3282C34.7036 27.9172 35.4626 27.5381 36.8207 27.5146V22.8122C36.8207 21.2566 35.5548 19.9907 33.9992 19.9907Z" fill="#C1D560"/>
		<path d="M33.8889 2.12929V4.89197H26.5217V2.12929C26.5217 1.2176 27.7057 0.47168 29.1529 0.47168H31.2578C32.7049 0.47168 33.8889 1.2176 33.8889 2.12929Z" fill="#3B6421"/>
		<path d="M33.9997 22.8122V28.3281C33.1288 28.836 32.3416 29.3937 30.613 29.3937C27.4878 29.3937 27.4398 27.5692 24.4067 27.5146V22.8122C24.4067 21.2566 25.6726 19.9907 27.2282 19.9907H31.1782C32.7338 19.9907 33.9997 21.2566 33.9997 22.8122Z" fill="#C1D560"/>
		<path d="M15.9413 12.699H15.7061V8.70192C15.7061 8.31227 15.3903 7.99655 15.0008 7.99655H13.1409L11.8381 1.04805C11.7756 0.714361 11.4842 0.472656 11.1448 0.472656H8.32331C7.98389 0.472656 7.69253 0.714361 7.62998 1.04805L6.32722 7.99655H4.46731C4.07776 7.99655 3.76195 8.31227 3.76195 8.70192V12.699H3.52683C1.58209 12.699 0 14.2811 0 16.2258V41.1487C0 43.0935 1.58209 44.6756 3.52683 44.6756H15.9413C17.886 44.6756 19.4681 43.0935 19.4681 41.1487V16.2258C19.4681 14.2811 17.886 12.699 15.9413 12.699ZM8.90876 1.88339H10.5594L11.7057 7.99655H7.76259L8.90876 1.88339ZM5.17268 9.40728H6.91898C6.92208 9.40728 6.92518 9.40728 6.92829 9.40728H12.5527C12.5567 9.40728 14.2954 9.40728 14.2954 9.40728V12.699H5.17268V9.40728ZM18.0574 41.1487C18.0574 42.3155 17.1081 43.2648 15.9413 43.2648H3.52683C2.35996 43.2648 1.41073 42.3155 1.41073 41.1487V16.2258C1.41073 15.059 2.35996 14.1097 3.52683 14.1097H15.9413C17.1081 14.1097 18.0574 15.059 18.0574 16.2258V41.1487Z" fill="black"/>
		<path d="M15.9428 15.5186H3.52836C3.13881 15.5186 2.823 15.8343 2.823 16.2239V20.9264C2.823 21.316 3.13881 21.6317 3.52836 21.6317C3.91791 21.6317 4.23373 21.316 4.23373 20.9264V16.9293H15.2374V20.9264C15.2374 21.316 15.5532 21.6317 15.9428 21.6317C16.3323 21.6317 16.6482 21.316 16.6482 20.9264V16.2239C16.6482 15.8343 16.3323 15.5186 15.9428 15.5186Z" fill="black"/>
		<path d="M15.9303 23.0473C14.2489 23.0771 13.3455 23.6125 12.5483 24.0847C11.786 24.5363 11.1277 24.9263 9.73455 24.9263C8.3414 24.9263 7.68306 24.5363 6.9207 24.0847C6.12392 23.6125 5.22096 23.0776 3.54115 23.0473C3.35193 23.0443 3.16919 23.1167 3.03414 23.2493C2.89908 23.3819 2.823 23.5633 2.823 23.7526V41.1516C2.823 41.5412 3.13881 41.857 3.52836 41.857H15.9428C16.3323 41.857 16.6482 41.5412 16.6482 41.1516V23.7526C16.6482 23.5634 16.5721 23.382 16.4371 23.2493C16.3022 23.1167 16.1175 23.0404 15.9303 23.0473ZM15.2374 40.4462H4.23373V24.5133C5.08553 24.6371 5.61145 24.9488 6.20151 25.2985C7.02331 25.7854 7.95477 26.3371 9.73445 26.3371C11.514 26.3371 12.4455 25.7854 13.2673 25.2985C13.8579 24.9485 14.3842 24.6367 15.2374 24.5131V40.4462Z" fill="black"/>
		<path d="M38.9412 18.8365C38.1577 17.8649 37.1001 17.1408 35.9243 16.7625L34.7797 5.64436H34.9385C35.328 5.64436 35.6438 5.32864 35.6438 4.93899C35.6438 4.54935 35.328 4.23363 34.9385 4.23363H34.7033V2.58778C34.7033 1.42101 33.7541 0.47168 32.5872 0.47168H28.6372C27.4703 0.47168 26.5211 1.42101 26.5211 2.58778V4.23363H26.286C25.8964 4.23363 25.5806 4.54935 25.5806 4.93899C25.5806 5.32864 25.8964 5.64436 26.286 5.64436H26.4447L25.3002 16.7625C24.1244 17.1407 23.0667 17.8649 22.2833 18.8365C21.3772 19.9603 20.8782 21.3708 20.8782 22.8083V41.1478C20.8782 43.0925 22.4603 44.6746 24.405 44.6746H36.8194C38.7642 44.6746 40.3463 43.0925 40.3463 41.1478V22.8083C40.3463 21.3708 39.8472 19.9603 38.9412 18.8365ZM27.9318 2.58778C27.9318 2.19879 28.2482 1.88241 28.6372 1.88241H32.5872C32.9762 1.88241 33.2926 2.19879 33.2926 2.58778V4.23363H27.9318V2.58778ZM38.9355 41.1478C38.9355 42.3145 37.9863 43.2638 36.8194 43.2638H24.405C23.2381 43.2638 22.2889 42.3145 22.2889 41.1478V22.8083C22.2889 20.5388 23.897 18.5166 26.1127 18C26.4059 17.9316 26.6234 17.6848 26.6542 17.3854L27.8629 5.64436H33.3615L34.5702 17.3854C34.601 17.6849 34.8185 17.9317 35.1116 18C37.3273 18.5166 38.9354 20.5388 38.9354 22.8083V41.1478H38.9355Z" fill="black"/>
		<path d="M33.9995 19.2827H27.228C25.2833 19.2827 23.7012 20.8648 23.7012 22.8096V24.6902C23.7012 25.0798 24.017 25.3955 24.4065 25.3955C24.7961 25.3955 25.1119 25.0798 25.1119 24.6902V22.8096C25.1119 21.6428 26.0611 20.6935 27.228 20.6935H33.9995C35.1664 20.6935 36.1156 21.6428 36.1156 22.8096V24.6902C36.1156 25.0798 36.4314 25.3955 36.821 25.3955C37.2105 25.3955 37.5263 25.0798 37.5263 24.6902V22.8096C37.5263 20.8648 35.9442 19.2827 33.9995 19.2827Z" fill="black"/>
		<path d="M36.8059 26.8043C35.1246 26.8341 34.2211 27.3694 33.424 27.8416C32.6618 28.2932 32.0033 28.6833 30.6102 28.6833C29.2169 28.6833 28.5586 28.2932 27.7962 27.8415C26.9996 27.3694 26.0966 26.8345 24.4169 26.8039C24.2281 26.7996 24.0449 26.8732 23.9099 27.0058C23.7748 27.1384 23.6987 27.3198 23.6987 27.5092V41.1467C23.6987 41.5363 24.0145 41.8521 24.4041 41.8521H36.8185C37.2081 41.8521 37.5239 41.5363 37.5239 41.1467V27.5095C37.5239 27.3202 37.4478 27.139 37.3128 27.0063C37.1779 26.8736 36.9959 26.8004 36.8059 26.8043ZM36.1131 40.4413H25.1094V28.2701C25.9611 28.394 26.4869 28.7056 27.0771 29.0552C27.8989 29.5422 28.8303 30.0941 30.6101 30.0941C32.3898 30.0941 33.3212 29.5423 34.1429 29.0554C34.7336 28.7055 35.2599 28.3937 36.113 28.27V40.4413H36.1131Z" fill="black"/>
	</g>
</svg>
