<svg width="39" height="39" viewBox="0 0 39 39" fill="none" xmlns="http://www.w3.org/2000/svg">
	<g id="help-toggle-default">
		<circle cx="19.5" cy="19.5" r="19.5" fill="#1E1E1E"/>
		<g filter="url(#filter0_d)">
		<circle cx="19.5" cy="19.5" r="15.5" fill="#404040"/>
		</g>
		<g filter="url(#filter1_i)">
		<ellipse cx="20" cy="19.5" rx="14" ry="14.5" fill="#2C2C2C"/>
		</g>
		<path d="M9.23081 17.2329C9.23081 17.2329 4.94904 15.2674 2.50586 18.7822C2.50586 18.7822 2.76422 20.8236 4.14466 21.76L4.61482 21.637C4.61482 21.637 6.72529 18.5376 9.18274 18.6295C9.18349 18.6288 9.41557 17.4015 9.23081 17.2329Z" fill="black"/>
		<path d="M9.30246 17.5537C9.30246 17.5537 5.35943 15.5138 2.74951 18.8896C2.74951 18.8896 3.03792 20.6098 4.14572 21.4452L4.50848 21.3571C4.50848 21.3571 6.40114 18.3724 9.23187 18.3724L9.25966 18.1225C9.25966 18.1225 7.34747 17.1702 4.78337 18.7817C4.78337 18.7817 6.40114 17.095 9.28594 17.9076L9.30246 17.5537Z" fill="url(#paint0_linear)"/>
		<path d="M9.23114 18.3738L9.24466 18.2538C5.98283 18.0457 4.14575 21.4473 4.14575 21.4473L4.50851 21.3592C4.50776 21.3592 6.40042 18.3738 9.23114 18.3738Z" fill="#212121"/>
		<path d="M4.78296 18.7829C4.78296 18.7829 7.45521 17.3855 9.24498 18.2536L9.25925 18.1245C9.25925 18.1245 7.43869 17.1402 4.78296 18.7829Z" fill="#808285"/>
		<path d="M9.29646 17.6775L9.30246 17.5537C9.30246 17.5537 5.35943 15.5138 2.74951 18.8896C2.74951 18.8896 3.03792 20.6098 4.14572 21.4452C4.14572 21.4452 3.12879 20.3014 2.91625 18.9048C2.91625 18.9048 5.056 15.7902 9.29646 17.6775Z" fill="#808285"/>
		<path d="M10.4231 16.9411C10.4231 16.9411 9.61645 11.1617 3.53891 11.6455C3.53891 11.6455 2.00976 13.5927 2 15.6918L2.50696 16.0549C2.50696 16.0549 7.19955 13.8843 9.38662 17.5525L10.4231 16.9411Z" fill="black"/>
		<path d="M3.67008 11.9655C3.67008 11.9655 2.49167 13.8467 2.35498 15.3914L2.56753 15.6701C2.56753 15.6701 7.29542 13.5277 9.67176 17.3812L10.187 17.0774C10.187 17.0774 9.21887 11.5972 3.67008 11.9655ZM6.67805 13.5277C8.81631 14.2614 10.0052 16.8162 10.0052 16.8162L9.84375 16.8215C8.84334 14.7041 6.67805 13.5277 6.67805 13.5277Z" fill="url(#paint1_linear)"/>
		<path d="M10.0389 17.1683L10.0705 17.1501C10.0397 17.0802 9.98712 16.967 9.91502 16.8227L9.84442 16.825C8.88683 14.719 6.67798 13.5312 6.67798 13.5312C7.6919 14.3796 8.53834 14.757 9.7235 16.6837L10.0389 17.1683Z" fill="#808285"/>
		<path d="M9.67175 17.3844L9.93538 17.2287C7.43436 13.0935 2.35498 15.3939 2.35498 15.3939L2.56753 15.6726C2.56753 15.6726 7.29467 13.5302 9.67175 17.3844Z" fill="#212121"/>
		<path d="M9.93538 16.1889C9.39011 14.6533 7.79787 11.6914 3.67008 11.9655C3.67008 11.9655 2.49167 13.8467 2.35498 15.3915C2.35498 15.3915 2.93479 13.3842 3.81203 12.1493C3.81128 12.1493 7.61537 11.4134 9.93538 16.1889Z" fill="#808285"/>
		<path d="M11.3381 17.1699C11.3381 17.1699 10.1394 15.7589 9.00153 16.8487C7.86368 17.9377 8.45702 18.7815 8.45702 18.7815C8.45702 18.7815 7.72023 19.7316 8.96022 20.6611C10.2002 21.5907 11.6415 19.7536 11.6415 19.7536L11.3381 17.1699Z" fill="black"/>
		<path d="M11.3832 17.5556C11.3832 17.5556 10.1462 16.0678 9.10373 17.3263C9.10373 17.3263 8.17468 18.2163 9.10373 19.2135C9.10373 19.2135 8.8649 19.1976 8.69816 19.029C8.69816 19.029 8.228 19.7125 9.00159 20.3178C9.77517 20.923 11.0655 20.2107 11.589 19.3054C11.589 19.3054 11.3997 17.6908 11.3832 17.5556Z" fill="url(#paint2_radial)"/>
		<path d="M8.69816 19.0244C8.69816 19.0244 8.51791 19.875 9.1841 20.2016C9.7947 20.5 10.3663 20.3968 10.6524 20.2365C10.0989 20.5684 9.45973 20.6724 9.00159 20.314C8.228 19.7087 8.69816 19.0244 8.69816 19.0244ZM9.10373 17.3217C9.10373 17.3217 8.62681 17.7789 8.69816 18.4047C8.69891 18.4001 8.79129 17.9179 9.30502 17.4288C9.82099 16.9374 10.569 16.9754 10.9648 17.1668C10.5135 16.8341 9.76917 16.519 9.10373 17.3217Z" fill="#808285"/>
		<path d="M29.5515 24.4046C27.9946 28.1259 24.3505 30.7377 20.1033 30.7377C14.4403 30.7377 9.84912 26.0951 9.84912 20.3688C9.84912 14.6426 14.4396 10 20.1033 10C24.1244 10 27.6048 12.3399 29.2849 15.7468C29.9714 17.1389 30.0705 23.1644 29.5515 24.4046Z" fill="black"/>
		<path d="M9.84867 18.446C10.1453 18.6009 10.3203 18.9609 10.4105 19.2062C10.9813 14.3107 15.097 10.5127 20.0916 10.5127C23.0988 10.5127 25.7876 11.8896 27.5766 14.054C27.5766 14.0533 27.5758 14.0533 27.5758 14.0525C27.5758 14.0525 29.7336 15.9086 29.4482 16.624C29.4482 16.624 29.2462 16.4311 28.918 16.2185C28.7189 16.0894 28.4741 15.9534 28.1992 15.8494C28.1992 15.8494 28.6581 16.1851 29.0329 16.6316C29.4384 17.1162 29.7456 17.7313 29.2649 18.1953C29.4076 19.6862 29.4272 21.5354 29.319 22.8311L29.7479 22.4498L30.0137 22.5956L29.8808 22.9769C29.8808 22.9769 29.6442 23.532 29.1681 23.9087C29.1395 24.0287 29.1087 24.1313 29.0757 24.2118C27.5953 27.7508 24.13 30.2342 20.0908 30.2342C14.705 30.2342 10.3391 25.8195 10.3391 20.3742C10.3391 20.3682 10.3399 20.3621 10.3399 20.356C10.0845 19.9049 9.71724 19.2601 9.6534 19.1705C9.65415 19.169 9.37776 18.1991 9.84867 18.446Z" fill="url(#paint3_radial)"/>
		<path d="M29.7752 18.352C29.7752 18.352 30.1898 17.2599 29.8803 17.0016C29.8803 17.0016 30.5683 16.2695 28.5284 14.459C28.5284 14.459 29.9952 17.0411 29.2953 16.4799C28.9445 16.1981 28.1995 15.8458 28.1995 15.8458C29.634 16.9029 29.2615 18.2806 29.2615 18.2806C29.3275 18.5244 29.7752 18.352 29.7752 18.352Z" fill="black"/>
		<path d="M26.7922 15.2364C26.7922 15.2364 24.9273 13.5739 21.9734 13.5337C21.9726 13.5337 25.6956 14.3828 26.7922 15.2364Z" fill="black"/>
		<path d="M27.1454 16.612C27.1454 16.612 25.4795 14.888 21.6604 14.9458C21.6604 14.9465 25.9564 15.8715 27.1454 16.612Z" fill="#3F3E3E"/>
		<path d="M28.9124 22.9512C28.9124 22.9512 26.8395 25.0351 21.6617 24.8931C17.2696 24.7723 16.0694 23.6347 15.9492 23.5542C15.9492 23.5534 22.9325 26.3133 28.9124 22.9512Z" fill="#3F3E3E"/>
		<path d="M29.8575 22.1187C29.8575 22.1187 31.3836 17.1427 24.0586 15.3572C17.2022 13.6864 12.2828 16.7296 12.5299 21.4473C12.5299 21.4473 16.2011 24.7699 22.2891 24.5421C28.0745 24.3256 29.8575 22.1187 29.8575 22.1187Z" fill="black"/>
		<path d="M29.6215 22.2031C29.6215 22.2031 31.1093 17.4026 23.9668 15.6802C17.2809 14.0678 12.5688 17.1193 12.8099 21.6715C12.8099 21.6715 17.0458 24.884 22.2416 24.5415C27.8738 24.1701 29.6215 22.2031 29.6215 22.2031Z" fill="url(#paint4_radial)"/>
		<path d="M29.8581 22.1181C29.8581 22.1181 30.2367 20.6865 30.5078 20.1078C30.7789 19.5291 31.539 18.1826 30.5078 17.2773C29.6568 16.53 28.0721 17.9419 27.8243 18.0641C27.2993 18.3239 25.9827 19.6013 23.8857 19.1342C22.5091 18.8274 21.8909 17.5431 21.4673 16.0295C20.9904 14.3253 19.791 12.5391 17.7346 12.6203C15.5453 12.7069 13.9898 16.7533 13.9861 18.3239C13.9861 18.3239 16.8221 16.5467 17.7346 16.6986C18.6471 16.8505 19.2848 17.3897 20.6217 19.6005C21.9585 21.812 23.5635 23.0294 26.7916 21.446C26.7916 21.446 28.3297 20.4929 28.881 20.7063C28.881 20.7063 29.6741 21.0101 29.388 22.4925C29.3895 22.494 29.6606 22.2411 29.8581 22.1181Z" fill="#A14F21"/>
		<path d="M29.3896 22.4946C29.3896 22.4946 29.9379 20.296 30.3577 19.3284C30.7783 18.3609 30.6611 17.7305 30.2405 17.5559C29.8207 17.3812 29.5488 17.2711 28.0813 18.3252C26.9254 19.1553 26.2787 18.9161 26.0414 18.8918C26.0414 18.8918 23.9707 19.7241 22.3905 18.1991C21.7153 17.5483 21.7348 17.4184 21.2384 16.2982C20.1832 13.9196 19.4299 12.9072 17.7355 13.0265C15.6393 13.1738 14.2836 17.0387 13.987 18.3244C13.987 18.3244 13.9975 17.9515 14.0546 17.6592C14.0546 17.6592 12.8709 18.4239 12.8101 21.6744C12.8101 21.6744 16.2897 24.7996 22.7007 24.5345C27.4774 24.3371 28.8826 22.8052 29.3896 22.4946Z" fill="url(#paint5_radial)"/>
		<path d="M17.9759 13.0171C17.9759 13.0171 19.3639 13.0406 20.0871 14.3849C20.8104 15.7291 21.394 16.9488 21.394 16.9488L21.7282 17.5556C21.9114 17.9634 22.1052 18.0887 22.5851 18.3667L22.5889 18.3728C22.5889 18.3728 21.9092 20.9944 21.1934 19.9676C21.1934 19.9676 18.7668 16.0116 17.514 16.5258C17.514 16.5258 17.4029 16.6078 17.2264 16.7445C16.0532 17.0285 13.9871 18.3234 13.9871 18.3234C13.9871 18.3234 14.7629 13.0634 17.9759 13.0171Z" fill="url(#paint6_linear)"/>
		<path d="M29.0745 20.6323C29.0745 20.6323 28.9115 20.8814 28.913 21.1222C28.916 21.4571 29.0775 22.2128 29.0249 22.8036C29.0249 22.8036 22.9729 27.1485 14.0834 22.6928C14.0834 22.6928 13.9227 15.9488 17.8665 15.9473C20.3502 15.9465 21.4257 20.9566 23.2816 21.2612C26.385 21.7715 29.616 18.9129 29.0745 20.6323Z" fill="#CC7B52"/>
		<path d="M26.3085 18.933C26.3085 18.933 28.09 17.8386 27.4479 17.4733C26.8057 17.108 25.04 15.8906 21.3471 15.6468L21.1931 15.2397C21.1931 15.2397 25.9473 15.5337 28.2523 17.7718C28.2515 17.771 26.8756 18.9603 26.3085 18.933Z" fill="#CC7B52"/>
		<path d="M13.9868 18.3238L13.802 18.1977C13.802 18.1977 12.7783 20.0804 13.0698 21.8795L12.8099 21.6737C12.8099 21.6737 12.6034 18.9389 14.0596 17.6304C14.0589 17.6304 14.0131 17.8529 13.9868 18.3238Z" fill="#CC7B52"/>
		<path d="M29.5899 17.4673C29.8716 17.3997 30.0398 17.4688 30.2411 17.5523C30.6609 17.727 30.7781 18.3573 30.3582 19.3249C29.9384 20.2924 29.3901 22.491 29.3901 22.491C29.3901 22.491 29.5974 20.2681 30.1975 19.1115C30.6181 18.2989 30.3252 17.5462 29.5899 17.4673Z" fill="#FFECB8"/>
		<path d="M20.103 14.5894C19.2941 13.2141 17.4743 13.0941 17.3894 13.0872C17.5021 13.0569 17.617 13.0348 17.7349 13.0265C19.4293 12.9072 20.1833 13.9196 21.2378 16.2982C21.735 17.4184 21.7155 17.5475 22.3899 18.1991C22.4545 18.2622 22.5206 18.3191 22.5875 18.3738L22.5882 18.3746C21.4023 17.9394 20.9855 16.0916 20.103 14.5894Z" fill="#FFECB8"/>
		<path d="M14.5498 22.7987C13.9903 19.8968 15.9738 16.2096 17.835 16.3152C20.0115 16.439 21.407 21.1446 23.193 21.6117C24.6125 21.9823 26.6185 21.2334 27.5671 20.6988C28.6111 20.1102 29.0122 20.4353 29.0122 20.4353C28.6209 20.3851 28.0891 20.9623 28.0891 20.9623C28.5503 21.8349 28.4353 23.1511 28.4353 23.1518C27.5033 23.7077 25.8217 24.4064 22.6995 24.5356C18.9788 24.689 16.4943 23.8741 14.5498 22.7987Z" fill="#A14F21"/>
		<path d="M17.7754 16.7139C19.8649 16.8202 21.231 21.9222 23.5187 22.0992C25.7066 22.2685 28.1723 20.7374 28.1723 20.7374C28.1933 20.7648 28.2136 20.7921 28.2331 20.8202C28.9421 21.8311 28.5681 23.069 28.5681 23.069L28.4359 23.1495C27.5038 23.7054 25.8222 24.4041 22.7001 24.5332C19.1649 24.6798 16.7465 23.9507 14.8463 22.9558C14.461 20.7063 16.0164 16.6242 17.7754 16.7139Z" fill="#547180"/>
		<path d="M23.5194 22.099L23.6073 22.1036C25.3558 22.2031 27.2567 21.2515 27.9244 20.8809C27.9244 20.8809 28.698 21.7352 28.1985 23.2701L28.1865 23.2914C27.2747 23.785 25.7681 24.3394 23.228 24.505C23.2295 24.5012 23.5247 23.9324 23.5194 22.099Z" fill="url(#paint7_radial)"/>
		<path d="M17.7754 16.7139C19.7905 16.8164 21.1334 21.5645 23.2784 22.0612C23.2784 22.0612 23.328 23.5452 22.975 24.5051C22.9727 24.5104 22.9712 24.515 22.969 24.5203C22.8803 24.5249 22.791 24.5294 22.7001 24.5332C19.1649 24.6798 16.7465 23.9507 14.8463 22.9558C14.461 20.7063 16.0164 16.6242 17.7754 16.7139Z" fill="url(#paint8_radial)"/>
		<path d="M15.013 19.0174L15.1114 18.7873C15.1196 18.7691 15.1279 18.7501 15.1369 18.7311C15.4223 18.1866 16.6901 17.1704 16.6901 17.1704C16.6901 17.1704 16.6893 17.1712 16.6893 17.1719C15.4388 18.2891 14.5436 21.1857 14.8455 22.9537C14.7456 22.9013 14.6457 22.8496 14.5496 22.7957C14.3115 21.5608 14.5353 20.1839 15.013 19.0174Z" fill="#547180"/>
		<path d="M23.9404 22.067C23.9404 22.6821 24.4331 23.1803 25.0415 23.1803C25.6498 23.1803 26.1425 22.6821 26.1425 22.067C26.1425 21.4518 25.6498 20.9536 25.0415 20.9536C24.4339 20.9536 23.9404 21.4518 23.9404 22.067Z" fill="black"/>
		<path d="M24.064 22.0657C24.064 22.6125 24.5026 23.0553 25.0426 23.0553C25.5826 23.0553 26.0212 22.6125 26.0212 22.0657C26.0212 21.5189 25.5833 21.0762 25.0426 21.0762C24.5018 21.0762 24.064 21.5189 24.064 22.0657Z" fill="url(#paint9_linear)"/>
		<path d="M24.4236 22.1504C24.4236 22.496 24.7007 22.7755 25.0417 22.7755C25.3827 22.7755 25.6598 22.496 25.6598 22.1504C25.6598 21.8049 25.3827 21.5254 25.0417 21.5254C24.7007 21.5254 24.4236 21.8049 24.4236 22.1504Z" fill="#00D0FF"/>
		<path d="M24.4236 22.0684C24.4236 22.4139 24.7007 22.6934 25.0417 22.6934C25.3827 22.6934 25.6598 22.4139 25.6598 22.0684C25.6598 21.7228 25.3827 21.4434 25.0417 21.4434C24.7007 21.4434 24.4236 21.7228 24.4236 22.0684Z" fill="black"/>
		<path d="M23.9927 21.385C23.9927 21.6235 24.1834 21.8164 24.4193 21.8164C24.6551 21.8164 24.8459 21.6235 24.8459 21.385C24.8459 21.1465 24.6551 20.9536 24.4193 20.9536C24.1842 20.9536 23.9927 21.1465 23.9927 21.385Z" fill="white"/>
		<path d="M25.2322 22.4767C25.2322 22.5959 25.3283 22.6931 25.4462 22.6931C25.5641 22.6931 25.6603 22.5967 25.6603 22.4767C25.6603 22.3575 25.5649 22.2603 25.4462 22.2603C25.3283 22.2603 25.2322 22.3567 25.2322 22.4767Z" fill="white"/>
		<path d="M17.3838 21.269C17.3838 21.954 17.9328 22.5092 18.6103 22.5092C19.2877 22.5092 19.8367 21.954 19.8367 21.269C19.8367 20.584 19.2877 20.0288 18.6103 20.0288C17.9328 20.0296 17.3838 20.5847 17.3838 21.269Z" fill="black"/>
		<path d="M17.521 21.267C17.521 21.8761 18.0092 22.369 18.6108 22.369C19.2131 22.369 19.7006 21.8753 19.7006 21.267C19.7006 20.6587 19.2124 20.165 18.6108 20.165C18.0084 20.165 17.521 20.6587 17.521 21.267Z" fill="url(#paint10_linear)"/>
		<path d="M17.9224 21.3649C17.9224 21.7492 18.2303 22.0613 18.6111 22.0613C18.9911 22.0613 19.2998 21.7499 19.2998 21.3649C19.2998 20.9806 18.9919 20.6685 18.6111 20.6685C18.231 20.6685 17.9224 20.9798 17.9224 21.3649Z" fill="#00D0FF"/>
		<path d="M17.9224 21.2697C17.9224 21.6539 18.2303 21.9661 18.6111 21.9661C18.9911 21.9661 19.2998 21.6547 19.2998 21.2697C19.2998 20.8854 18.9919 20.5732 18.6111 20.5732C18.231 20.574 17.9224 20.8854 17.9224 21.2697Z" fill="black"/>
		<path d="M17.4417 20.5095C17.4417 20.7754 17.6542 20.9903 17.9171 20.9903C18.1792 20.9903 18.3925 20.7754 18.3925 20.5095C18.3925 20.2445 18.1799 20.0288 17.9171 20.0288C17.6549 20.0296 17.4417 20.2445 17.4417 20.5095Z" fill="white"/>
		<path d="M18.823 21.7256C18.823 21.8585 18.9296 21.9664 19.0611 21.9664C19.1925 21.9664 19.2992 21.8585 19.2992 21.7256C19.2992 21.5927 19.1925 21.4849 19.0611 21.4849C18.9289 21.4849 18.823 21.5927 18.823 21.7256Z" fill="white"/>
		<path d="M29.8579 22.1195C29.8579 22.1195 31.0792 22.9207 28.8823 24.0948C28.8823 24.0948 30.099 23.0855 29.8362 22.6056C29.8362 22.6056 25.7024 25.4664 19.1802 24.4966C12.5311 23.5078 10.4477 19.5411 9.96775 18.79C9.96775 18.79 9.84909 18.405 9.68836 18.5873C9.68836 18.5873 9.59373 18.7521 9.91217 19.2176C10.2306 19.6832 10.5318 20.4943 10.5919 20.7988C10.5919 20.7988 9.92344 19.6422 9.67559 19.3984C9.67559 19.3984 9.17839 18.9997 9.48858 18.4247C9.66883 18.0906 10.0691 18.2258 10.0691 18.2258C10.0691 18.2258 11.7951 23.1524 19.2606 24.309C26.3295 25.4057 29.6401 22.3033 29.8579 22.1195Z" fill="black"/>
		<path d="M26.5013 24.8904C26.5013 24.8904 22.6116 23.1232 17.9558 25.0507C17.9558 25.0507 22.7002 30.7428 26.5013 24.8988V24.8904Z" fill="url(#paint11_linear)"/>
		<path d="M26.5017 24.9018C26.5017 24.9018 23.7416 23.7816 20.3499 24.5198C20.3499 24.5198 24.4972 24.3816 26.5017 24.9018Z" fill="#808285"/>
		<path d="M26.5026 24.8992C26.5026 24.8992 23.6358 23.2352 18.9004 24.6964C18.9004 24.6957 23.6703 23.9043 26.5026 24.8992Z" fill="black"/>
		<path d="M24.0113 27.1426C24.0113 27.1426 23.8363 27.5572 23.4646 27.7069C23.3376 27.7577 23.2009 28.3319 23.5314 28.7944C23.5314 28.7944 23.0785 28.8483 23.0184 28.6615C22.9584 28.4747 22.8525 27.5542 22.9734 27.5003C23.0943 27.4471 23.9107 27.2451 24.0113 27.1426Z" fill="#212121"/>
		<path d="M24.0124 27.1435C24.0124 27.1435 20.1685 28.0784 18.4546 26.1221C18.4546 26.1221 18.1204 26.179 17.9326 26.2747C17.9326 26.2747 18.3119 27.7329 18.3592 28.1726C18.3592 28.1726 20.4269 29.9831 23.5325 28.7954C23.5325 28.7954 23.2381 28.7635 23.1029 28.6366C23.1029 28.6366 22.9707 27.8924 23.033 27.6106C23.0323 27.6106 23.7661 27.5043 24.0124 27.1435Z" fill="black"/>
		<path d="M22.7262 27.5478C22.7262 27.5478 22.8231 28.6346 22.878 28.75C22.878 28.75 20.742 29.53 18.6315 28.0741C18.6315 28.0741 18.3063 26.581 18.1831 26.4018L18.3543 26.3213C18.3543 26.3213 19.3382 27.8949 22.7262 27.5478Z" fill="url(#paint12_linear)"/>
		<path d="M19.1712 28.3992C20.2895 28.302 20.0402 27.3716 20.0402 27.3716C20.0387 27.3716 20.0372 27.3709 20.0357 27.3701C20.0259 27.3671 20.0169 27.364 20.0071 27.361C19.6827 27.2691 19.4115 27.1476 19.1885 27.02C19.169 27.0094 19.1494 26.998 19.1307 26.9873C19.1269 26.9851 19.1239 26.9835 19.1209 26.9813C18.5651 26.6555 18.3556 26.3213 18.3556 26.3213L18.1843 26.4018C18.3075 26.581 18.6327 28.0741 18.6327 28.0741L19.1607 28.3931C19.1645 28.3954 19.1675 28.3969 19.1712 28.3992Z" fill="black"/>
		<path d="M21.9341 28.9369C20.818 27.44 20.2059 27.825 20.2059 27.825C19.8064 27.4013 18.8202 27.6564 18.5574 27.7347C18.6032 27.9344 18.634 28.0741 18.634 28.0741C19.8702 28.927 21.1147 29.0121 21.9341 28.9369Z" fill="#9F4055"/>
		<path d="M18.5847 27.8576C18.614 27.9882 18.6328 28.0733 18.6328 28.0733C19.7826 28.8669 20.9393 28.9952 21.7542 28.9489C20.9475 27.7285 20.2648 27.9312 20.2648 27.9312C20.4383 28.0847 20.4931 28.3588 20.4931 28.3588C20.0087 27.3761 18.7935 27.7794 18.5847 27.8576Z" fill="#FF88A1"/>
		<path d="M18.5847 27.8595C20.0906 27.3332 20.4931 28.3607 20.4931 28.3607C19.8638 27.4684 18.5937 27.9119 18.5937 27.9119L18.5847 27.8595ZM20.2648 27.9332C20.2648 27.9332 21.0144 27.9575 21.6761 28.9425L21.7542 28.9508C21.7542 28.9508 21.0609 27.7873 20.2648 27.9332Z" fill="#FFB8C7"/>
		<path d="M18.6328 28.0741C18.6328 28.0741 18.614 27.9891 18.5847 27.8584C18.6005 27.8524 18.6223 27.8448 18.6486 27.8364V27.8372L18.7101 28.0354C18.7101 28.0354 20.0778 28.9126 21.6926 28.8602C21.7129 28.889 21.7331 28.9194 21.7542 28.9505C20.9393 28.9961 19.7826 28.867 18.6328 28.0741ZM20.4203 28.1493C20.4841 28.2716 20.4931 28.3589 20.4931 28.3589C20.6073 28.0027 20.2648 27.9314 20.2648 27.9314C20.3347 27.9936 20.385 28.0749 20.4203 28.1493Z" fill="#C8516B"/>
		<path d="M23.5312 28.7995C23.5312 28.7995 20.8033 30.0298 18.3579 28.1768C18.3579 28.1768 20.6712 30.3146 23.5312 28.7995Z" fill="#808285"/>
		<path d="M18.4283 26.6983L18.4425 26.415C18.6183 26.5988 19.0464 27.0446 19.9334 27.3294C20.354 27.4737 20.8669 27.5778 21.4745 27.5869C21.7397 27.5983 22.0258 27.596 22.333 27.577L22.2676 28.1595L22.5598 28.8377C22.3916 28.8757 22.1655 28.9152 21.8951 28.9372C21.1531 28.9911 19.8921 28.9159 18.6461 28.0699C18.6461 28.0699 18.4673 27.3104 18.3284 26.81L18.4283 26.6983Z" fill="#495E69"/>
		<path d="M18.4648 26.8947C18.4648 26.8947 18.5939 27.2053 18.8793 27.4362C18.8793 27.4362 18.5804 26.9342 18.5271 26.7527L18.5496 26.5332C18.7967 26.7831 19.3187 27.1901 20.253 27.421C20.5707 27.5045 20.9327 27.5638 21.3398 27.5813C21.5929 27.5964 21.8655 27.5995 22.1584 27.5873L22.0758 28.1045C22.0758 28.1045 21.4254 28.2055 20.7239 28.1167C20.7239 28.1167 21.4141 28.324 22.1111 28.2731L22.3958 28.8716C21.6425 29.0121 20.1381 29.1009 18.645 28.0711C18.645 28.0711 18.5158 27.4787 18.3896 26.9957L18.4648 26.8947Z" fill="url(#paint13_linear)"/>
		<path d="M18.5381 26.6426L18.5463 26.559L18.5494 26.5332C18.7964 26.7831 19.3184 27.1901 20.2527 27.421C20.5704 27.5045 20.9324 27.5638 21.3395 27.5813C21.5926 27.5964 21.8653 27.5995 22.1582 27.5873L22.1431 27.683V27.6838C22.1431 27.6838 19.6887 27.9709 18.5381 26.6426Z" fill="#7999AA"/>
		<path d="M22.3341 28.7404C22.3341 28.7404 20.452 29.2485 18.7464 27.9855C18.7464 27.9855 18.4737 27.0293 18.4181 26.9595L18.3716 27.0081C18.3716 27.0081 18.639 27.9893 18.6457 28.0721C18.6457 28.0721 20.1749 29.31 22.3965 28.8725L22.3341 28.7404Z" fill="#7999AA"/>
		<path d="M19.6168 24.8448C19.6168 24.8448 17.7639 23.0403 15.8945 24.2463C15.8945 24.2463 16.7996 25.3217 17.7316 26.2528C17.7316 26.2528 18.0305 26.1632 18.9926 26.2338C18.9926 26.2338 18.4158 25.0271 19.6168 24.8448Z" fill="black"/>
		<path d="M19.6165 24.8433C19.6165 24.8433 17.9078 23.8924 15.8942 24.2448C15.8942 24.2448 14.5446 24.4818 15.1342 25.9323C15.1342 25.9323 15.5232 26.9105 16.6423 27.0844C16.6423 27.0844 17.9138 25.8169 18.9923 26.2323C18.9923 26.2323 19.8951 26.6402 20.01 25.5473C20.0108 25.5473 19.9912 25.0704 19.6165 24.8433Z" fill="url(#paint14_linear)"/>
		<path d="M19.6168 24.8443C19.6168 24.8443 17.9952 23.8904 15.8945 24.2458C15.8945 24.2458 18.4819 24.2815 19.6168 24.8443Z" fill="#808285"/>
		<path d="M18.9924 26.2379C18.9924 26.2379 17.9739 26.0199 17.5481 26.7429C17.5481 26.7429 17.7749 25.3136 18.9924 26.2379Z" fill="black"/>
		<defs>
		<filter id="filter0_d" x="4" y="3" width="34" height="33" filterUnits="userSpaceOnUse" color-interpolation-filters="sRGB">
		<feFlood flood-opacity="0" result="BackgroundImageFix"/>
		<feColorMatrix in="SourceAlpha" type="matrix" values="0 0 0 0 0 0 0 0 0 0 0 0 0 0 0 0 0 0 127 0"/>
		<feOffset dx="2"/>
		<feGaussianBlur stdDeviation="0.5"/>
		<feColorMatrix type="matrix" values="0 0 0 0 0.783138 0 0 0 0 0.783333 0 0 0 0 0.773542 0 0 0 0.5 0"/>
		<feBlend mode="normal" in2="BackgroundImageFix" result="effect1_dropShadow"/>
		<feBlend mode="normal" in="SourceGraphic" in2="effect1_dropShadow" result="shape"/>
		</filter>
		<filter id="filter1_i" x="6" y="5" width="28" height="33" filterUnits="userSpaceOnUse" color-interpolation-filters="sRGB">
		<feFlood flood-opacity="0" result="BackgroundImageFix"/>
		<feBlend mode="normal" in="SourceGraphic" in2="BackgroundImageFix" result="shape"/>
		<feColorMatrix in="SourceAlpha" type="matrix" values="0 0 0 0 0 0 0 0 0 0 0 0 0 0 0 0 0 0 127 0" result="hardAlpha"/>
		<feOffset dy="4"/>
		<feGaussianBlur stdDeviation="2"/>
		<feComposite in2="hardAlpha" operator="arithmetic" k2="-1" k3="1"/>
		<feColorMatrix type="matrix" values="0 0 0 0 0 0 0 0 0 0 0 0 0 0 0 0 0 0 0.25 0"/>
		<feBlend mode="normal" in2="shape" result="effect1_innerShadow"/>
		</filter>
		<linearGradient id="paint0_linear" x1="6.59221" y1="20.9192" x2="5.75233" y2="17.0116" gradientUnits="userSpaceOnUse">
		<stop stop-color="#535455"/>
		<stop offset="0.2835" stop-color="#505152"/>
		<stop offset="0.484" stop-color="#474849"/>
		<stop offset="0.6588" stop-color="#383939"/>
		<stop offset="0.819" stop-color="#232323"/>
		<stop offset="0.9679" stop-color="#070707"/>
		<stop offset="1"/>
		</linearGradient>
		<linearGradient id="paint1_linear" x1="2.35465" y1="14.6647" x2="10.1872" y2="14.6647" gradientUnits="userSpaceOnUse">
		<stop stop-color="#535455"/>
		<stop offset="0.2835" stop-color="#505152"/>
		<stop offset="0.484" stop-color="#474849"/>
		<stop offset="0.6588" stop-color="#383939"/>
		<stop offset="0.819" stop-color="#232323"/>
		<stop offset="0.9679" stop-color="#070707"/>
		<stop offset="1"/>
		</linearGradient>
		<radialGradient id="paint2_radial" cx="0" cy="0" r="1" gradientUnits="userSpaceOnUse" gradientTransform="translate(10.801 18.9428) scale(2.20923 2.23395)">
		<stop stop-color="#58595B"/>
		<stop offset="0.2605" stop-color="#363738"/>
		<stop offset="0.598" stop-color="#0F0F0F"/>
		<stop offset="0.7729"/>
		<stop offset="0.9946" stop-color="#58595B"/>
		</radialGradient>
		<radialGradient id="paint3_radial" cx="0" cy="0" r="1" gradientUnits="userSpaceOnUse" gradientTransform="translate(20.9747 20.3051) rotate(180) scale(11.3822 11.5095)">
		<stop stop-color="#58595B"/>
		<stop offset="0.3562" stop-color="#565759"/>
		<stop offset="0.4845" stop-color="#505152"/>
		<stop offset="0.576" stop-color="#444547"/>
		<stop offset="0.6499" stop-color="#343436"/>
		<stop offset="0.7133" stop-color="#1F1F20"/>
		<stop offset="0.7683" stop-color="#050505"/>
		<stop offset="0.7772"/>
		<stop offset="0.9946" stop-color="#58595B"/>
		</radialGradient>
		<radialGradient id="paint4_radial" cx="0" cy="0" r="1" gradientUnits="userSpaceOnUse" gradientTransform="translate(21.276 19.9058) rotate(180) scale(6.82156 6.89786)">
		<stop stop-color="#FAD395"/>
		<stop offset="0.4017" stop-color="#FAD194"/>
		<stop offset="0.5464" stop-color="#FBCA8F"/>
		<stop offset="0.6496" stop-color="#FCBF87"/>
		<stop offset="0.7324" stop-color="#FEAE7C"/>
		<stop offset="0.7772" stop-color="#FFA173"/>
		<stop offset="0.9946" stop-color="#FAD395"/>
		</radialGradient>
		<radialGradient id="paint5_radial" cx="0" cy="0" r="1" gradientUnits="userSpaceOnUse" gradientTransform="translate(21.7153 18.7842) scale(7.47762 7.56126)">
		<stop stop-color="#FAD395"/>
		<stop offset="0.4017" stop-color="#FAD194"/>
		<stop offset="0.5464" stop-color="#FBCA8F"/>
		<stop offset="0.6496" stop-color="#FCBF87"/>
		<stop offset="0.7324" stop-color="#FEAE7C"/>
		<stop offset="0.7772" stop-color="#FFA173"/>
		<stop offset="0.9946" stop-color="#FAD395"/>
		</radialGradient>
		<linearGradient id="paint6_linear" x1="22.6954" y1="16.8194" x2="14.1312" y2="16.2272" gradientUnits="userSpaceOnUse">
		<stop stop-color="#FAD294"/>
		<stop offset="0.5333" stop-color="#FFA173"/>
		<stop offset="0.6093" stop-color="#FDB17E"/>
		<stop offset="0.7275" stop-color="#FBC38A"/>
		<stop offset="0.8512" stop-color="#FACE92"/>
		<stop offset="0.9879" stop-color="#FAD294"/>
		</linearGradient>
		<radialGradient id="paint7_radial" cx="0" cy="0" r="1" gradientUnits="userSpaceOnUse" gradientTransform="translate(24.5013 22.7852) rotate(180) scale(3.93378 3.97779)">
		<stop stop-color="white"/>
		<stop offset="0.3085" stop-color="#FDFDFE"/>
		<stop offset="0.4757" stop-color="#F5F8FA"/>
		<stop offset="0.6089" stop-color="#E7EFF3"/>
		<stop offset="0.7235" stop-color="#D4E3E9"/>
		<stop offset="0.8121" stop-color="#BFD5DE"/>
		<stop offset="0.8174" stop-color="#C3D7E0"/>
		<stop offset="0.8608" stop-color="#DDE9EE"/>
		<stop offset="0.9053" stop-color="#F0F5F7"/>
		<stop offset="0.951" stop-color="#FBFDFD"/>
		<stop offset="1" stop-color="white"/>
		</radialGradient>
		<radialGradient id="paint8_radial" cx="0" cy="0" r="1" gradientUnits="userSpaceOnUse" gradientTransform="translate(20.8967 21.7615) rotate(180) scale(6.70726 6.78228)">
		<stop stop-color="white"/>
		<stop offset="0.3085" stop-color="#FDFDFE"/>
		<stop offset="0.4757" stop-color="#F5F8FA"/>
		<stop offset="0.6089" stop-color="#E7EFF3"/>
		<stop offset="0.7235" stop-color="#D4E3E9"/>
		<stop offset="0.8121" stop-color="#BFD5DE"/>
		<stop offset="0.8174" stop-color="#C3D7E0"/>
		<stop offset="0.8608" stop-color="#DDE9EE"/>
		<stop offset="0.9053" stop-color="#F0F5F7"/>
		<stop offset="0.951" stop-color="#FBFDFD"/>
		<stop offset="1" stop-color="white"/>
		</radialGradient>
		<linearGradient id="paint9_linear" x1="25.0428" y1="23.0555" x2="25.0428" y2="21.0761" gradientUnits="userSpaceOnUse">
		<stop stop-color="#007BC2"/>
		<stop offset="0.0661" stop-color="#006FB0"/>
		<stop offset="0.1992" stop-color="#005180"/>
		<stop offset="0.3853" stop-color="#002134"/>
		<stop offset="0.5046"/>
		</linearGradient>
		<linearGradient id="paint10_linear" x1="18.6108" y1="22.3697" x2="18.6108" y2="20.1652" gradientUnits="userSpaceOnUse">
		<stop stop-color="#007BC2"/>
		<stop offset="0.0661" stop-color="#006FB0"/>
		<stop offset="0.1992" stop-color="#005180"/>
		<stop offset="0.3853" stop-color="#002134"/>
		<stop offset="0.5046"/>
		</linearGradient>
		<linearGradient id="paint11_linear" x1="18.1143" y1="26.3569" x2="26.555" y2="25.3319" gradientUnits="userSpaceOnUse">
		<stop stop-color="#535455"/>
		<stop offset="0.1849" stop-color="#4C4D4E"/>
		<stop offset="0.456" stop-color="#393A3A"/>
		<stop offset="0.7784" stop-color="#1A1A1A"/>
		<stop offset="1"/>
		</linearGradient>
		<linearGradient id="paint12_linear" x1="22.828" y1="27.5207" x2="18.2365" y2="27.7074" gradientUnits="userSpaceOnUse">
		<stop stop-color="#520B14"/>
		<stop offset="0.3762" stop-color="#36070D"/>
		<stop offset="1"/>
		</linearGradient>
		<linearGradient id="paint13_linear" x1="22.3766" y1="27.703" x2="18.4041" y2="27.7715" gradientUnits="userSpaceOnUse">
		<stop stop-color="white"/>
		<stop offset="0.207" stop-color="#FCFDFD"/>
		<stop offset="0.3435" stop-color="#F3F7F8"/>
		<stop offset="0.4598" stop-color="#E4ECF0"/>
		<stop offset="0.5646" stop-color="#CFDEE4"/>
		<stop offset="0.6618" stop-color="#B4CAD4"/>
		<stop offset="0.7521" stop-color="#93B3C2"/>
		<stop offset="0.7948" stop-color="#80A6B7"/>
		<stop offset="0.8102" stop-color="#95B5C3"/>
		<stop offset="0.8471" stop-color="#C3D5DD"/>
		<stop offset="0.88" stop-color="#E4ECEF"/>
		<stop offset="0.9073" stop-color="#F8FAFB"/>
		<stop offset="0.9258" stop-color="white"/>
		</linearGradient>
		<linearGradient id="paint14_linear" x1="16.4758" y1="23.8016" x2="18.4132" y2="26.9902" gradientUnits="userSpaceOnUse">
		<stop stop-color="#535455"/>
		<stop offset="0.2153" stop-color="#474848"/>
		<stop offset="0.6092" stop-color="#262727"/>
		<stop offset="1"/>
		</linearGradient>
		</defs>
	</g>
	<g id="help-toggle-hover">
		<circle cx="19.5" cy="19.5" r="19.5" fill="#DC3F0D"/>
		<g filter="url(#filter0_d)">
		<circle cx="19.5" cy="19.5" r="15.5" fill="#972E0D"/>
		</g>
		<g filter="url(#filter1_i)">
		<ellipse cx="20" cy="19.5" rx="14" ry="14.5" fill="#5D5D5D"/>
		</g>
		<path d="M9.23081 17.2329C9.23081 17.2329 4.94904 15.2674 2.50586 18.7822C2.50586 18.7822 2.76422 20.8236 4.14466 21.76L4.61482 21.637C4.61482 21.637 6.72529 18.5376 9.18274 18.6295C9.18349 18.6288 9.41557 17.4015 9.23081 17.2329Z" fill="black"/>
		<path d="M9.30246 17.5537C9.30246 17.5537 5.35943 15.5138 2.74951 18.8896C2.74951 18.8896 3.03792 20.6098 4.14572 21.4452L4.50848 21.3571C4.50848 21.3571 6.40114 18.3724 9.23187 18.3724L9.25966 18.1225C9.25966 18.1225 7.34747 17.1702 4.78337 18.7817C4.78337 18.7817 6.40114 17.095 9.28594 17.9076L9.30246 17.5537Z" fill="url(#paint0_linear)"/>
		<path d="M9.23114 18.3738L9.24466 18.2538C5.98283 18.0457 4.14575 21.4473 4.14575 21.4473L4.50851 21.3592C4.50776 21.3592 6.40042 18.3738 9.23114 18.3738Z" fill="#212121"/>
		<path d="M4.78296 18.7829C4.78296 18.7829 7.45521 17.3855 9.24498 18.2536L9.25925 18.1245C9.25925 18.1245 7.43869 17.1402 4.78296 18.7829Z" fill="#808285"/>
		<path d="M9.29646 17.6775L9.30246 17.5537C9.30246 17.5537 5.35943 15.5138 2.74951 18.8896C2.74951 18.8896 3.03792 20.6098 4.14572 21.4452C4.14572 21.4452 3.12879 20.3014 2.91625 18.9048C2.91625 18.9048 5.056 15.7902 9.29646 17.6775Z" fill="#808285"/>
		<path d="M10.4231 16.9411C10.4231 16.9411 9.61645 11.1617 3.53891 11.6455C3.53891 11.6455 2.00976 13.5927 2 15.6918L2.50696 16.0549C2.50696 16.0549 7.19955 13.8843 9.38662 17.5525L10.4231 16.9411Z" fill="black"/>
		<path d="M3.67008 11.9655C3.67008 11.9655 2.49167 13.8467 2.35498 15.3914L2.56753 15.6701C2.56753 15.6701 7.29542 13.5277 9.67176 17.3812L10.187 17.0774C10.187 17.0774 9.21887 11.5972 3.67008 11.9655ZM6.67805 13.5277C8.81631 14.2614 10.0052 16.8162 10.0052 16.8162L9.84375 16.8215C8.84334 14.7041 6.67805 13.5277 6.67805 13.5277Z" fill="url(#paint1_linear)"/>
		<path d="M10.0389 17.1683L10.0705 17.1501C10.0397 17.0802 9.98712 16.967 9.91502 16.8227L9.84442 16.825C8.88683 14.719 6.67798 13.5312 6.67798 13.5312C7.6919 14.3796 8.53834 14.757 9.7235 16.6837L10.0389 17.1683Z" fill="#808285"/>
		<path d="M9.67175 17.3844L9.93538 17.2287C7.43436 13.0935 2.35498 15.3939 2.35498 15.3939L2.56753 15.6726C2.56753 15.6726 7.29467 13.5302 9.67175 17.3844Z" fill="#212121"/>
		<path d="M9.93538 16.1889C9.39011 14.6533 7.79787 11.6914 3.67008 11.9655C3.67008 11.9655 2.49167 13.8467 2.35498 15.3915C2.35498 15.3915 2.93479 13.3842 3.81203 12.1493C3.81128 12.1493 7.61537 11.4134 9.93538 16.1889Z" fill="#808285"/>
		<path d="M11.3381 17.1699C11.3381 17.1699 10.1394 15.7589 9.00153 16.8487C7.86368 17.9377 8.45702 18.7815 8.45702 18.7815C8.45702 18.7815 7.72023 19.7316 8.96022 20.6611C10.2002 21.5907 11.6415 19.7536 11.6415 19.7536L11.3381 17.1699Z" fill="black"/>
		<path d="M11.3832 17.5556C11.3832 17.5556 10.1462 16.0678 9.10373 17.3263C9.10373 17.3263 8.17468 18.2163 9.10373 19.2135C9.10373 19.2135 8.8649 19.1976 8.69816 19.029C8.69816 19.029 8.228 19.7125 9.00159 20.3178C9.77517 20.923 11.0655 20.2107 11.589 19.3054C11.589 19.3054 11.3997 17.6908 11.3832 17.5556Z" fill="url(#paint2_radial)"/>
		<path d="M8.69816 19.0244C8.69816 19.0244 8.51791 19.875 9.1841 20.2016C9.7947 20.5 10.3663 20.3968 10.6524 20.2365C10.0989 20.5684 9.45973 20.6724 9.00159 20.314C8.228 19.7087 8.69816 19.0244 8.69816 19.0244ZM9.10373 17.3217C9.10373 17.3217 8.62681 17.7789 8.69816 18.4047C8.69891 18.4001 8.79129 17.9179 9.30502 17.4288C9.82099 16.9374 10.569 16.9754 10.9648 17.1668C10.5135 16.8341 9.76917 16.519 9.10373 17.3217Z" fill="#808285"/>
		<path d="M29.5515 24.4046C27.9946 28.1259 24.3505 30.7377 20.1033 30.7377C14.4403 30.7377 9.84912 26.0951 9.84912 20.3688C9.84912 14.6426 14.4396 10 20.1033 10C24.1244 10 27.6048 12.3399 29.2849 15.7468C29.9714 17.1389 30.0705 23.1644 29.5515 24.4046Z" fill="black"/>
		<path d="M9.84867 18.446C10.1453 18.6009 10.3203 18.9609 10.4105 19.2062C10.9813 14.3107 15.097 10.5127 20.0916 10.5127C23.0988 10.5127 25.7876 11.8896 27.5766 14.054C27.5766 14.0533 27.5758 14.0533 27.5758 14.0525C27.5758 14.0525 29.7336 15.9086 29.4482 16.624C29.4482 16.624 29.2462 16.4311 28.918 16.2185C28.7189 16.0894 28.4741 15.9534 28.1992 15.8494C28.1992 15.8494 28.6581 16.1851 29.0329 16.6316C29.4384 17.1162 29.7456 17.7313 29.2649 18.1953C29.4076 19.6862 29.4272 21.5354 29.319 22.8311L29.7479 22.4498L30.0137 22.5956L29.8808 22.9769C29.8808 22.9769 29.6442 23.532 29.1681 23.9087C29.1395 24.0287 29.1087 24.1313 29.0757 24.2118C27.5953 27.7508 24.13 30.2342 20.0908 30.2342C14.705 30.2342 10.3391 25.8195 10.3391 20.3742C10.3391 20.3682 10.3399 20.3621 10.3399 20.356C10.0845 19.9049 9.71724 19.2601 9.6534 19.1705C9.65415 19.169 9.37776 18.1991 9.84867 18.446Z" fill="url(#paint3_radial)"/>
		<path d="M29.7752 18.352C29.7752 18.352 30.1898 17.2599 29.8803 17.0016C29.8803 17.0016 30.5683 16.2695 28.5284 14.459C28.5284 14.459 29.9952 17.0411 29.2953 16.4799C28.9445 16.1981 28.1995 15.8458 28.1995 15.8458C29.634 16.9029 29.2615 18.2806 29.2615 18.2806C29.3275 18.5244 29.7752 18.352 29.7752 18.352Z" fill="black"/>
		<path d="M26.7922 15.2364C26.7922 15.2364 24.9273 13.5739 21.9734 13.5337C21.9726 13.5337 25.6956 14.3828 26.7922 15.2364Z" fill="black"/>
		<path d="M27.1454 16.612C27.1454 16.612 25.4795 14.888 21.6604 14.9458C21.6604 14.9465 25.9564 15.8715 27.1454 16.612Z" fill="#3F3E3E"/>
		<path d="M28.9124 22.9512C28.9124 22.9512 26.8395 25.0351 21.6617 24.8931C17.2696 24.7723 16.0694 23.6347 15.9492 23.5542C15.9492 23.5534 22.9325 26.3133 28.9124 22.9512Z" fill="#3F3E3E"/>
		<path d="M29.8575 22.1187C29.8575 22.1187 31.3836 17.1427 24.0586 15.3572C17.2022 13.6864 12.2828 16.7296 12.5299 21.4473C12.5299 21.4473 16.2011 24.7699 22.2891 24.5421C28.0745 24.3256 29.8575 22.1187 29.8575 22.1187Z" fill="black"/>
		<path d="M29.6215 22.2031C29.6215 22.2031 31.1093 17.4026 23.9668 15.6802C17.2809 14.0678 12.5688 17.1193 12.8099 21.6715C12.8099 21.6715 17.0458 24.884 22.2416 24.5415C27.8738 24.1701 29.6215 22.2031 29.6215 22.2031Z" fill="url(#paint4_radial)"/>
		<path d="M29.8581 22.1181C29.8581 22.1181 30.2367 20.6865 30.5078 20.1078C30.7789 19.5291 31.539 18.1826 30.5078 17.2773C29.6568 16.53 28.0721 17.9419 27.8243 18.0641C27.2993 18.3239 25.9827 19.6013 23.8857 19.1342C22.5091 18.8274 21.8909 17.5431 21.4673 16.0295C20.9904 14.3253 19.791 12.5391 17.7346 12.6203C15.5453 12.7069 13.9898 16.7533 13.9861 18.3239C13.9861 18.3239 16.8221 16.5467 17.7346 16.6986C18.6471 16.8505 19.2848 17.3897 20.6217 19.6005C21.9585 21.812 23.5635 23.0294 26.7916 21.446C26.7916 21.446 28.3297 20.4929 28.881 20.7063C28.881 20.7063 29.6741 21.0101 29.388 22.4925C29.3895 22.494 29.6606 22.2411 29.8581 22.1181Z" fill="#A14F21"/>
		<path d="M29.3896 22.4946C29.3896 22.4946 29.9379 20.296 30.3577 19.3284C30.7783 18.3609 30.6611 17.7305 30.2405 17.5559C29.8207 17.3812 29.5488 17.2711 28.0813 18.3252C26.9254 19.1553 26.2787 18.9161 26.0414 18.8918C26.0414 18.8918 23.9707 19.7241 22.3905 18.1991C21.7153 17.5483 21.7348 17.4184 21.2384 16.2982C20.1832 13.9196 19.4299 12.9072 17.7355 13.0265C15.6393 13.1738 14.2836 17.0387 13.987 18.3244C13.987 18.3244 13.9975 17.9515 14.0546 17.6592C14.0546 17.6592 12.8709 18.4239 12.8101 21.6744C12.8101 21.6744 16.2897 24.7996 22.7007 24.5345C27.4774 24.3371 28.8826 22.8052 29.3896 22.4946Z" fill="url(#paint5_radial)"/>
		<path d="M17.9759 13.0171C17.9759 13.0171 19.3639 13.0406 20.0871 14.3849C20.8104 15.7291 21.394 16.9488 21.394 16.9488L21.7282 17.5556C21.9114 17.9634 22.1052 18.0887 22.5851 18.3667L22.5889 18.3728C22.5889 18.3728 21.9092 20.9944 21.1934 19.9676C21.1934 19.9676 18.7668 16.0116 17.514 16.5258C17.514 16.5258 17.4029 16.6078 17.2264 16.7445C16.0532 17.0285 13.9871 18.3234 13.9871 18.3234C13.9871 18.3234 14.7629 13.0634 17.9759 13.0171Z" fill="url(#paint6_linear)"/>
		<path d="M29.0745 20.6323C29.0745 20.6323 28.9115 20.8814 28.913 21.1222C28.916 21.4571 29.0775 22.2128 29.0249 22.8036C29.0249 22.8036 22.9729 27.1485 14.0834 22.6928C14.0834 22.6928 13.9227 15.9488 17.8665 15.9473C20.3502 15.9465 21.4257 20.9566 23.2816 21.2612C26.385 21.7715 29.616 18.9129 29.0745 20.6323Z" fill="#CC7B52"/>
		<path d="M26.3085 18.933C26.3085 18.933 28.09 17.8386 27.4479 17.4733C26.8057 17.108 25.04 15.8906 21.3471 15.6468L21.1931 15.2397C21.1931 15.2397 25.9473 15.5337 28.2523 17.7718C28.2515 17.771 26.8756 18.9603 26.3085 18.933Z" fill="#CC7B52"/>
		<path d="M13.9868 18.3238L13.802 18.1977C13.802 18.1977 12.7783 20.0804 13.0698 21.8795L12.8099 21.6737C12.8099 21.6737 12.6034 18.9389 14.0596 17.6304C14.0589 17.6304 14.0131 17.8529 13.9868 18.3238Z" fill="#CC7B52"/>
		<path d="M29.5899 17.4673C29.8716 17.3997 30.0398 17.4688 30.2411 17.5523C30.6609 17.727 30.7781 18.3573 30.3582 19.3249C29.9384 20.2924 29.3901 22.491 29.3901 22.491C29.3901 22.491 29.5974 20.2681 30.1975 19.1115C30.6181 18.2989 30.3252 17.5462 29.5899 17.4673Z" fill="#FFECB8"/>
		<path d="M20.103 14.5894C19.2941 13.2141 17.4743 13.0941 17.3894 13.0872C17.5021 13.0569 17.617 13.0348 17.7349 13.0265C19.4293 12.9072 20.1833 13.9196 21.2378 16.2982C21.735 17.4184 21.7155 17.5475 22.3899 18.1991C22.4545 18.2622 22.5206 18.3191 22.5875 18.3738L22.5882 18.3746C21.4023 17.9394 20.9855 16.0916 20.103 14.5894Z" fill="#FFECB8"/>
		<path d="M14.5498 22.7987C13.9903 19.8968 15.9738 16.2096 17.835 16.3152C20.0115 16.439 21.407 21.1446 23.193 21.6117C24.6125 21.9823 26.6185 21.2334 27.5671 20.6988C28.6111 20.1102 29.0122 20.4353 29.0122 20.4353C28.6209 20.3851 28.0891 20.9623 28.0891 20.9623C28.5503 21.8349 28.4353 23.1511 28.4353 23.1518C27.5033 23.7077 25.8217 24.4064 22.6995 24.5356C18.9788 24.689 16.4943 23.8741 14.5498 22.7987Z" fill="#A14F21"/>
		<path d="M17.7754 16.7139C19.8649 16.8202 21.231 21.9222 23.5187 22.0992C25.7066 22.2685 28.1723 20.7374 28.1723 20.7374C28.1933 20.7648 28.2136 20.7921 28.2331 20.8202C28.9421 21.8311 28.5681 23.069 28.5681 23.069L28.4359 23.1495C27.5038 23.7054 25.8222 24.4041 22.7001 24.5332C19.1649 24.6798 16.7465 23.9507 14.8463 22.9558C14.461 20.7063 16.0164 16.6242 17.7754 16.7139Z" fill="#547180"/>
		<path d="M23.5194 22.099L23.6073 22.1036C25.3558 22.2031 27.2567 21.2515 27.9244 20.8809C27.9244 20.8809 28.698 21.7352 28.1985 23.2701L28.1865 23.2914C27.2747 23.785 25.7681 24.3394 23.228 24.505C23.2295 24.5012 23.5247 23.9324 23.5194 22.099Z" fill="url(#paint7_radial)"/>
		<path d="M17.7754 16.7139C19.7905 16.8164 21.1334 21.5645 23.2784 22.0612C23.2784 22.0612 23.328 23.5452 22.975 24.5051C22.9727 24.5104 22.9712 24.515 22.969 24.5203C22.8803 24.5249 22.791 24.5294 22.7001 24.5332C19.1649 24.6798 16.7465 23.9507 14.8463 22.9558C14.461 20.7063 16.0164 16.6242 17.7754 16.7139Z" fill="url(#paint8_radial)"/>
		<path d="M15.013 19.0174L15.1114 18.7873C15.1196 18.7691 15.1279 18.7501 15.1369 18.7311C15.4223 18.1866 16.6901 17.1704 16.6901 17.1704C16.6901 17.1704 16.6893 17.1712 16.6893 17.1719C15.4388 18.2891 14.5436 21.1857 14.8455 22.9537C14.7456 22.9013 14.6457 22.8496 14.5496 22.7957C14.3115 21.5608 14.5353 20.1839 15.013 19.0174Z" fill="#547180"/>
		<path d="M23.9404 22.067C23.9404 22.6821 24.4331 23.1803 25.0415 23.1803C25.6498 23.1803 26.1425 22.6821 26.1425 22.067C26.1425 21.4518 25.6498 20.9536 25.0415 20.9536C24.4339 20.9536 23.9404 21.4518 23.9404 22.067Z" fill="black"/>
		<path d="M24.064 22.0657C24.064 22.6125 24.5026 23.0553 25.0426 23.0553C25.5826 23.0553 26.0212 22.6125 26.0212 22.0657C26.0212 21.5189 25.5833 21.0762 25.0426 21.0762C24.5018 21.0762 24.064 21.5189 24.064 22.0657Z" fill="url(#paint9_linear)"/>
		<path d="M24.4236 22.1504C24.4236 22.496 24.7007 22.7755 25.0417 22.7755C25.3827 22.7755 25.6598 22.496 25.6598 22.1504C25.6598 21.8049 25.3827 21.5254 25.0417 21.5254C24.7007 21.5254 24.4236 21.8049 24.4236 22.1504Z" fill="#00D0FF"/>
		<path d="M24.4236 22.0684C24.4236 22.4139 24.7007 22.6934 25.0417 22.6934C25.3827 22.6934 25.6598 22.4139 25.6598 22.0684C25.6598 21.7228 25.3827 21.4434 25.0417 21.4434C24.7007 21.4434 24.4236 21.7228 24.4236 22.0684Z" fill="black"/>
		<path d="M23.9927 21.385C23.9927 21.6235 24.1834 21.8164 24.4193 21.8164C24.6551 21.8164 24.8459 21.6235 24.8459 21.385C24.8459 21.1465 24.6551 20.9536 24.4193 20.9536C24.1842 20.9536 23.9927 21.1465 23.9927 21.385Z" fill="white"/>
		<path d="M25.2322 22.4767C25.2322 22.5959 25.3283 22.6931 25.4462 22.6931C25.5641 22.6931 25.6603 22.5967 25.6603 22.4767C25.6603 22.3575 25.5649 22.2603 25.4462 22.2603C25.3283 22.2603 25.2322 22.3567 25.2322 22.4767Z" fill="white"/>
		<path d="M17.3838 21.269C17.3838 21.954 17.9328 22.5092 18.6103 22.5092C19.2877 22.5092 19.8367 21.954 19.8367 21.269C19.8367 20.584 19.2877 20.0288 18.6103 20.0288C17.9328 20.0296 17.3838 20.5847 17.3838 21.269Z" fill="black"/>
		<path d="M17.521 21.267C17.521 21.8761 18.0092 22.369 18.6108 22.369C19.2131 22.369 19.7006 21.8753 19.7006 21.267C19.7006 20.6587 19.2124 20.165 18.6108 20.165C18.0084 20.165 17.521 20.6587 17.521 21.267Z" fill="url(#paint10_linear)"/>
		<path d="M17.9224 21.3649C17.9224 21.7492 18.2303 22.0613 18.6111 22.0613C18.9911 22.0613 19.2998 21.7499 19.2998 21.3649C19.2998 20.9806 18.9919 20.6685 18.6111 20.6685C18.231 20.6685 17.9224 20.9798 17.9224 21.3649Z" fill="#00D0FF"/>
		<path d="M17.9224 21.2697C17.9224 21.6539 18.2303 21.9661 18.6111 21.9661C18.9911 21.9661 19.2998 21.6547 19.2998 21.2697C19.2998 20.8854 18.9919 20.5732 18.6111 20.5732C18.231 20.574 17.9224 20.8854 17.9224 21.2697Z" fill="black"/>
		<path d="M17.4417 20.5095C17.4417 20.7754 17.6542 20.9903 17.9171 20.9903C18.1792 20.9903 18.3925 20.7754 18.3925 20.5095C18.3925 20.2445 18.1799 20.0288 17.9171 20.0288C17.6549 20.0296 17.4417 20.2445 17.4417 20.5095Z" fill="white"/>
		<path d="M18.823 21.7256C18.823 21.8585 18.9296 21.9664 19.0611 21.9664C19.1925 21.9664 19.2992 21.8585 19.2992 21.7256C19.2992 21.5927 19.1925 21.4849 19.0611 21.4849C18.9289 21.4849 18.823 21.5927 18.823 21.7256Z" fill="white"/>
		<path d="M29.8579 22.1195C29.8579 22.1195 31.0792 22.9207 28.8823 24.0948C28.8823 24.0948 30.099 23.0855 29.8362 22.6056C29.8362 22.6056 25.7024 25.4664 19.1802 24.4966C12.5311 23.5078 10.4477 19.5411 9.96775 18.79C9.96775 18.79 9.84909 18.405 9.68836 18.5873C9.68836 18.5873 9.59373 18.7521 9.91217 19.2176C10.2306 19.6832 10.5318 20.4943 10.5919 20.7988C10.5919 20.7988 9.92344 19.6422 9.67559 19.3984C9.67559 19.3984 9.17839 18.9997 9.48858 18.4247C9.66883 18.0906 10.0691 18.2258 10.0691 18.2258C10.0691 18.2258 11.7951 23.1524 19.2606 24.309C26.3295 25.4057 29.6401 22.3033 29.8579 22.1195Z" fill="black"/>
		<path d="M26.5013 24.8904C26.5013 24.8904 22.6116 23.1232 17.9558 25.0507C17.9558 25.0507 22.7002 30.7428 26.5013 24.8988V24.8904Z" fill="url(#paint11_linear)"/>
		<path d="M26.5017 24.9018C26.5017 24.9018 23.7416 23.7816 20.3499 24.5198C20.3499 24.5198 24.4972 24.3816 26.5017 24.9018Z" fill="#808285"/>
		<path d="M26.5026 24.8992C26.5026 24.8992 23.6358 23.2352 18.9004 24.6964C18.9004 24.6957 23.6703 23.9043 26.5026 24.8992Z" fill="black"/>
		<path d="M24.0113 27.1426C24.0113 27.1426 23.8363 27.5572 23.4646 27.7069C23.3376 27.7577 23.2009 28.3319 23.5314 28.7944C23.5314 28.7944 23.0785 28.8483 23.0184 28.6615C22.9584 28.4747 22.8525 27.5542 22.9734 27.5003C23.0943 27.4471 23.9107 27.2451 24.0113 27.1426Z" fill="#212121"/>
		<path d="M24.0124 27.1435C24.0124 27.1435 20.1685 28.0784 18.4546 26.1221C18.4546 26.1221 18.1204 26.179 17.9326 26.2747C17.9326 26.2747 18.3119 27.7329 18.3592 28.1726C18.3592 28.1726 20.4269 29.9831 23.5325 28.7954C23.5325 28.7954 23.2381 28.7635 23.1029 28.6366C23.1029 28.6366 22.9707 27.8924 23.033 27.6106C23.0323 27.6106 23.7661 27.5043 24.0124 27.1435Z" fill="black"/>
		<path d="M22.7262 27.5478C22.7262 27.5478 22.8231 28.6346 22.878 28.75C22.878 28.75 20.742 29.53 18.6315 28.0741C18.6315 28.0741 18.3063 26.581 18.1831 26.4018L18.3543 26.3213C18.3543 26.3213 19.3382 27.8949 22.7262 27.5478Z" fill="url(#paint12_linear)"/>
		<path d="M19.1712 28.3992C20.2895 28.302 20.0402 27.3716 20.0402 27.3716C20.0387 27.3716 20.0372 27.3709 20.0357 27.3701C20.0259 27.3671 20.0169 27.364 20.0071 27.361C19.6827 27.2691 19.4115 27.1476 19.1885 27.02C19.169 27.0094 19.1494 26.998 19.1307 26.9873C19.1269 26.9851 19.1239 26.9835 19.1209 26.9813C18.5651 26.6555 18.3556 26.3213 18.3556 26.3213L18.1843 26.4018C18.3075 26.581 18.6327 28.0741 18.6327 28.0741L19.1607 28.3931C19.1645 28.3954 19.1675 28.3969 19.1712 28.3992Z" fill="black"/>
		<path d="M21.9341 28.9369C20.818 27.44 20.2059 27.825 20.2059 27.825C19.8064 27.4013 18.8202 27.6564 18.5574 27.7347C18.6032 27.9344 18.634 28.0741 18.634 28.0741C19.8702 28.927 21.1147 29.0121 21.9341 28.9369Z" fill="#9F4055"/>
		<path d="M18.5847 27.8576C18.614 27.9882 18.6328 28.0733 18.6328 28.0733C19.7826 28.8669 20.9393 28.9952 21.7542 28.9489C20.9475 27.7285 20.2648 27.9312 20.2648 27.9312C20.4383 28.0847 20.4931 28.3588 20.4931 28.3588C20.0087 27.3761 18.7935 27.7794 18.5847 27.8576Z" fill="#FF88A1"/>
		<path d="M18.5847 27.8595C20.0906 27.3332 20.4931 28.3607 20.4931 28.3607C19.8638 27.4684 18.5937 27.9119 18.5937 27.9119L18.5847 27.8595ZM20.2648 27.9332C20.2648 27.9332 21.0144 27.9575 21.6761 28.9425L21.7542 28.9508C21.7542 28.9508 21.0609 27.7873 20.2648 27.9332Z" fill="#FFB8C7"/>
		<path d="M18.6328 28.0741C18.6328 28.0741 18.614 27.9891 18.5847 27.8584C18.6005 27.8524 18.6223 27.8448 18.6486 27.8364V27.8372L18.7101 28.0354C18.7101 28.0354 20.0778 28.9126 21.6926 28.8602C21.7129 28.889 21.7331 28.9194 21.7542 28.9505C20.9393 28.9961 19.7826 28.867 18.6328 28.0741ZM20.4203 28.1493C20.4841 28.2716 20.4931 28.3589 20.4931 28.3589C20.6073 28.0027 20.2648 27.9314 20.2648 27.9314C20.3347 27.9936 20.385 28.0749 20.4203 28.1493Z" fill="#C8516B"/>
		<path d="M23.5312 28.7995C23.5312 28.7995 20.8033 30.0298 18.3579 28.1768C18.3579 28.1768 20.6712 30.3146 23.5312 28.7995Z" fill="#808285"/>
		<path d="M18.4283 26.6983L18.4425 26.415C18.6183 26.5988 19.0464 27.0446 19.9334 27.3294C20.354 27.4737 20.8669 27.5778 21.4745 27.5869C21.7397 27.5983 22.0258 27.596 22.333 27.577L22.2676 28.1595L22.5598 28.8377C22.3916 28.8757 22.1655 28.9152 21.8951 28.9372C21.1531 28.9911 19.8921 28.9159 18.6461 28.0699C18.6461 28.0699 18.4673 27.3104 18.3284 26.81L18.4283 26.6983Z" fill="#495E69"/>
		<path d="M18.4648 26.8947C18.4648 26.8947 18.5939 27.2053 18.8793 27.4362C18.8793 27.4362 18.5804 26.9342 18.5271 26.7527L18.5496 26.5332C18.7967 26.7831 19.3187 27.1901 20.253 27.421C20.5707 27.5045 20.9327 27.5638 21.3398 27.5813C21.5929 27.5964 21.8655 27.5995 22.1584 27.5873L22.0758 28.1045C22.0758 28.1045 21.4254 28.2055 20.7239 28.1167C20.7239 28.1167 21.4141 28.324 22.1111 28.2731L22.3958 28.8716C21.6425 29.0121 20.1381 29.1009 18.645 28.0711C18.645 28.0711 18.5158 27.4787 18.3896 26.9957L18.4648 26.8947Z" fill="url(#paint13_linear)"/>
		<path d="M18.5381 26.6426L18.5463 26.559L18.5494 26.5332C18.7964 26.7831 19.3184 27.1901 20.2527 27.421C20.5704 27.5045 20.9324 27.5638 21.3395 27.5813C21.5926 27.5964 21.8653 27.5995 22.1582 27.5873L22.1431 27.683V27.6838C22.1431 27.6838 19.6887 27.9709 18.5381 26.6426Z" fill="#7999AA"/>
		<path d="M22.3341 28.7404C22.3341 28.7404 20.452 29.2485 18.7464 27.9855C18.7464 27.9855 18.4737 27.0293 18.4181 26.9595L18.3716 27.0081C18.3716 27.0081 18.639 27.9893 18.6457 28.0721C18.6457 28.0721 20.1749 29.31 22.3965 28.8725L22.3341 28.7404Z" fill="#7999AA"/>
		<path d="M19.6168 24.8448C19.6168 24.8448 17.7639 23.0403 15.8945 24.2463C15.8945 24.2463 16.7996 25.3217 17.7316 26.2528C17.7316 26.2528 18.0305 26.1632 18.9926 26.2338C18.9926 26.2338 18.4158 25.0271 19.6168 24.8448Z" fill="black"/>
		<path d="M19.6165 24.8433C19.6165 24.8433 17.9078 23.8924 15.8942 24.2448C15.8942 24.2448 14.5446 24.4818 15.1342 25.9323C15.1342 25.9323 15.5232 26.9105 16.6423 27.0844C16.6423 27.0844 17.9138 25.8169 18.9923 26.2323C18.9923 26.2323 19.8951 26.6402 20.01 25.5473C20.0108 25.5473 19.9912 25.0704 19.6165 24.8433Z" fill="url(#paint14_linear)"/>
		<path d="M19.6168 24.8443C19.6168 24.8443 17.9952 23.8904 15.8945 24.2458C15.8945 24.2458 18.4819 24.2815 19.6168 24.8443Z" fill="#808285"/>
		<path d="M18.9924 26.2379C18.9924 26.2379 17.9739 26.0199 17.5481 26.7429C17.5481 26.7429 17.7749 25.3136 18.9924 26.2379Z" fill="black"/>
		<g filter="url(#filter2_d)">
		<path d="M7 34L29 3L34.5 7.5L13 37.5L7 34Z" fill="#DC3F0D"/>
		</g>
		<defs>
		<filter id="filter0_d" x="4" y="3" width="34" height="33" filterUnits="userSpaceOnUse" color-interpolation-filters="sRGB">
		<feFlood flood-opacity="0" result="BackgroundImageFix"/>
		<feColorMatrix in="SourceAlpha" type="matrix" values="0 0 0 0 0 0 0 0 0 0 0 0 0 0 0 0 0 0 127 0"/>
		<feOffset dx="2"/>
		<feGaussianBlur stdDeviation="0.5"/>
		<feColorMatrix type="matrix" values="0 0 0 0 0.783138 0 0 0 0 0.783333 0 0 0 0 0.773542 0 0 0 0.5 0"/>
		<feBlend mode="normal" in2="BackgroundImageFix" result="effect1_dropShadow"/>
		<feBlend mode="normal" in="SourceGraphic" in2="effect1_dropShadow" result="shape"/>
		</filter>
		<filter id="filter1_i" x="6" y="5" width="28" height="33" filterUnits="userSpaceOnUse" color-interpolation-filters="sRGB">
		<feFlood flood-opacity="0" result="BackgroundImageFix"/>
		<feBlend mode="normal" in="SourceGraphic" in2="BackgroundImageFix" result="shape"/>
		<feColorMatrix in="SourceAlpha" type="matrix" values="0 0 0 0 0 0 0 0 0 0 0 0 0 0 0 0 0 0 127 0" result="hardAlpha"/>
		<feOffset dy="4"/>
		<feGaussianBlur stdDeviation="2"/>
		<feComposite in2="hardAlpha" operator="arithmetic" k2="-1" k3="1"/>
		<feColorMatrix type="matrix" values="0 0 0 0 0 0 0 0 0 0 0 0 0 0 0 0 0 0 0.25 0"/>
		<feBlend mode="normal" in2="shape" result="effect1_innerShadow"/>
		</filter>
		<filter id="filter2_d" x="6" y="2" width="31.5" height="38.5" filterUnits="userSpaceOnUse" color-interpolation-filters="sRGB">
		<feFlood flood-opacity="0" result="BackgroundImageFix"/>
		<feColorMatrix in="SourceAlpha" type="matrix" values="0 0 0 0 0 0 0 0 0 0 0 0 0 0 0 0 0 0 127 0"/>
		<feOffset dx="1" dy="1"/>
		<feGaussianBlur stdDeviation="1"/>
		<feColorMatrix type="matrix" values="0 0 0 0 0 0 0 0 0 0 0 0 0 0 0 0 0 0 0.25 0"/>
		<feBlend mode="normal" in2="BackgroundImageFix" result="effect1_dropShadow"/>
		<feBlend mode="normal" in="SourceGraphic" in2="effect1_dropShadow" result="shape"/>
		</filter>
		<linearGradient id="paint0_linear" x1="6.59221" y1="20.9192" x2="5.75233" y2="17.0116" gradientUnits="userSpaceOnUse">
		<stop stop-color="#535455"/>
		<stop offset="0.2835" stop-color="#505152"/>
		<stop offset="0.484" stop-color="#474849"/>
		<stop offset="0.6588" stop-color="#383939"/>
		<stop offset="0.819" stop-color="#232323"/>
		<stop offset="0.9679" stop-color="#070707"/>
		<stop offset="1"/>
		</linearGradient>
		<linearGradient id="paint1_linear" x1="2.35465" y1="14.6647" x2="10.1872" y2="14.6647" gradientUnits="userSpaceOnUse">
		<stop stop-color="#535455"/>
		<stop offset="0.2835" stop-color="#505152"/>
		<stop offset="0.484" stop-color="#474849"/>
		<stop offset="0.6588" stop-color="#383939"/>
		<stop offset="0.819" stop-color="#232323"/>
		<stop offset="0.9679" stop-color="#070707"/>
		<stop offset="1"/>
		</linearGradient>
		<radialGradient id="paint2_radial" cx="0" cy="0" r="1" gradientUnits="userSpaceOnUse" gradientTransform="translate(10.801 18.9428) scale(2.20923 2.23395)">
		<stop stop-color="#58595B"/>
		<stop offset="0.2605" stop-color="#363738"/>
		<stop offset="0.598" stop-color="#0F0F0F"/>
		<stop offset="0.7729"/>
		<stop offset="0.9946" stop-color="#58595B"/>
		</radialGradient>
		<radialGradient id="paint3_radial" cx="0" cy="0" r="1" gradientUnits="userSpaceOnUse" gradientTransform="translate(20.9747 20.3051) rotate(180) scale(11.3822 11.5095)">
		<stop stop-color="#58595B"/>
		<stop offset="0.3562" stop-color="#565759"/>
		<stop offset="0.4845" stop-color="#505152"/>
		<stop offset="0.576" stop-color="#444547"/>
		<stop offset="0.6499" stop-color="#343436"/>
		<stop offset="0.7133" stop-color="#1F1F20"/>
		<stop offset="0.7683" stop-color="#050505"/>
		<stop offset="0.7772"/>
		<stop offset="0.9946" stop-color="#58595B"/>
		</radialGradient>
		<radialGradient id="paint4_radial" cx="0" cy="0" r="1" gradientUnits="userSpaceOnUse" gradientTransform="translate(21.276 19.9058) rotate(180) scale(6.82156 6.89786)">
		<stop stop-color="#FAD395"/>
		<stop offset="0.4017" stop-color="#FAD194"/>
		<stop offset="0.5464" stop-color="#FBCA8F"/>
		<stop offset="0.6496" stop-color="#FCBF87"/>
		<stop offset="0.7324" stop-color="#FEAE7C"/>
		<stop offset="0.7772" stop-color="#FFA173"/>
		<stop offset="0.9946" stop-color="#FAD395"/>
		</radialGradient>
		<radialGradient id="paint5_radial" cx="0" cy="0" r="1" gradientUnits="userSpaceOnUse" gradientTransform="translate(21.7153 18.7842) scale(7.47762 7.56126)">
		<stop stop-color="#FAD395"/>
		<stop offset="0.4017" stop-color="#FAD194"/>
		<stop offset="0.5464" stop-color="#FBCA8F"/>
		<stop offset="0.6496" stop-color="#FCBF87"/>
		<stop offset="0.7324" stop-color="#FEAE7C"/>
		<stop offset="0.7772" stop-color="#FFA173"/>
		<stop offset="0.9946" stop-color="#FAD395"/>
		</radialGradient>
		<linearGradient id="paint6_linear" x1="22.6954" y1="16.8194" x2="14.1312" y2="16.2272" gradientUnits="userSpaceOnUse">
		<stop stop-color="#FAD294"/>
		<stop offset="0.5333" stop-color="#FFA173"/>
		<stop offset="0.6093" stop-color="#FDB17E"/>
		<stop offset="0.7275" stop-color="#FBC38A"/>
		<stop offset="0.8512" stop-color="#FACE92"/>
		<stop offset="0.9879" stop-color="#FAD294"/>
		</linearGradient>
		<radialGradient id="paint7_radial" cx="0" cy="0" r="1" gradientUnits="userSpaceOnUse" gradientTransform="translate(24.5013 22.7852) rotate(180) scale(3.93378 3.97779)">
		<stop stop-color="white"/>
		<stop offset="0.3085" stop-color="#FDFDFE"/>
		<stop offset="0.4757" stop-color="#F5F8FA"/>
		<stop offset="0.6089" stop-color="#E7EFF3"/>
		<stop offset="0.7235" stop-color="#D4E3E9"/>
		<stop offset="0.8121" stop-color="#BFD5DE"/>
		<stop offset="0.8174" stop-color="#C3D7E0"/>
		<stop offset="0.8608" stop-color="#DDE9EE"/>
		<stop offset="0.9053" stop-color="#F0F5F7"/>
		<stop offset="0.951" stop-color="#FBFDFD"/>
		<stop offset="1" stop-color="white"/>
		</radialGradient>
		<radialGradient id="paint8_radial" cx="0" cy="0" r="1" gradientUnits="userSpaceOnUse" gradientTransform="translate(20.8967 21.7615) rotate(180) scale(6.70726 6.78228)">
		<stop stop-color="white"/>
		<stop offset="0.3085" stop-color="#FDFDFE"/>
		<stop offset="0.4757" stop-color="#F5F8FA"/>
		<stop offset="0.6089" stop-color="#E7EFF3"/>
		<stop offset="0.7235" stop-color="#D4E3E9"/>
		<stop offset="0.8121" stop-color="#BFD5DE"/>
		<stop offset="0.8174" stop-color="#C3D7E0"/>
		<stop offset="0.8608" stop-color="#DDE9EE"/>
		<stop offset="0.9053" stop-color="#F0F5F7"/>
		<stop offset="0.951" stop-color="#FBFDFD"/>
		<stop offset="1" stop-color="white"/>
		</radialGradient>
		<linearGradient id="paint9_linear" x1="25.0428" y1="23.0555" x2="25.0428" y2="21.0761" gradientUnits="userSpaceOnUse">
		<stop stop-color="#007BC2"/>
		<stop offset="0.0661" stop-color="#006FB0"/>
		<stop offset="0.1992" stop-color="#005180"/>
		<stop offset="0.3853" stop-color="#002134"/>
		<stop offset="0.5046"/>
		</linearGradient>
		<linearGradient id="paint10_linear" x1="18.6108" y1="22.3697" x2="18.6108" y2="20.1652" gradientUnits="userSpaceOnUse">
		<stop stop-color="#007BC2"/>
		<stop offset="0.0661" stop-color="#006FB0"/>
		<stop offset="0.1992" stop-color="#005180"/>
		<stop offset="0.3853" stop-color="#002134"/>
		<stop offset="0.5046"/>
		</linearGradient>
		<linearGradient id="paint11_linear" x1="18.1143" y1="26.3569" x2="26.555" y2="25.3319" gradientUnits="userSpaceOnUse">
		<stop stop-color="#535455"/>
		<stop offset="0.1849" stop-color="#4C4D4E"/>
		<stop offset="0.456" stop-color="#393A3A"/>
		<stop offset="0.7784" stop-color="#1A1A1A"/>
		<stop offset="1"/>
		</linearGradient>
		<linearGradient id="paint12_linear" x1="22.828" y1="27.5207" x2="18.2365" y2="27.7074" gradientUnits="userSpaceOnUse">
		<stop stop-color="#520B14"/>
		<stop offset="0.3762" stop-color="#36070D"/>
		<stop offset="1"/>
		</linearGradient>
		<linearGradient id="paint13_linear" x1="22.3766" y1="27.703" x2="18.4041" y2="27.7715" gradientUnits="userSpaceOnUse">
		<stop stop-color="white"/>
		<stop offset="0.207" stop-color="#FCFDFD"/>
		<stop offset="0.3435" stop-color="#F3F7F8"/>
		<stop offset="0.4598" stop-color="#E4ECF0"/>
		<stop offset="0.5646" stop-color="#CFDEE4"/>
		<stop offset="0.6618" stop-color="#B4CAD4"/>
		<stop offset="0.7521" stop-color="#93B3C2"/>
		<stop offset="0.7948" stop-color="#80A6B7"/>
		<stop offset="0.8102" stop-color="#95B5C3"/>
		<stop offset="0.8471" stop-color="#C3D5DD"/>
		<stop offset="0.88" stop-color="#E4ECEF"/>
		<stop offset="0.9073" stop-color="#F8FAFB"/>
		<stop offset="0.9258" stop-color="white"/>
		</linearGradient>
		<linearGradient id="paint14_linear" x1="16.4758" y1="23.8016" x2="18.4132" y2="26.9902" gradientUnits="userSpaceOnUse">
		<stop stop-color="#535455"/>
		<stop offset="0.2153" stop-color="#474848"/>
		<stop offset="0.6092" stop-color="#262727"/>
		<stop offset="1"/>
		</linearGradient>
		</defs>
	</g>
    <g id="help-toggle-active">
        <circle cx="19.5" cy="19.5" r="19.5" fill="#DC3F0D"/>
        <g filter="url(#filter0_d)">
        <circle cx="19.5" cy="19.5" r="15.5" fill="#972E0D"/>
        </g>
        <g filter="url(#filter1_i)">
        <ellipse cx="20" cy="19.5" rx="14" ry="14.5" fill="#3B6421"/>
        </g>
        <defs>
        <filter id="filter0_d" x="4" y="3" width="34" height="33" filterUnits="userSpaceOnUse" color-interpolation-filters="sRGB">
        <feFlood flood-opacity="0" result="BackgroundImageFix"/>
        <feColorMatrix in="SourceAlpha" type="matrix" values="0 0 0 0 0 0 0 0 0 0 0 0 0 0 0 0 0 0 127 0"/>
        <feOffset dx="2"/>
        <feGaussianBlur stdDeviation="0.5"/>
        <feColorMatrix type="matrix" values="0 0 0 0 0.783138 0 0 0 0 0.783333 0 0 0 0 0.773542 0 0 0 0.5 0"/>
        <feBlend mode="normal" in2="BackgroundImageFix" result="effect1_dropShadow"/>
        <feBlend mode="normal" in="SourceGraphic" in2="effect1_dropShadow" result="shape"/>
        </filter>
        <filter id="filter1_i" x="6" y="5" width="28" height="33" filterUnits="userSpaceOnUse" color-interpolation-filters="sRGB">
        <feFlood flood-opacity="0" result="BackgroundImageFix"/>
        <feBlend mode="normal" in="SourceGraphic" in2="BackgroundImageFix" result="shape"/>
        <feColorMatrix in="SourceAlpha" type="matrix" values="0 0 0 0 0 0 0 0 0 0 0 0 0 0 0 0 0 0 127 0" result="hardAlpha"/>
        <feOffset dy="4"/>
        <feGaussianBlur stdDeviation="2"/>
        <feComposite in2="hardAlpha" operator="arithmetic" k2="-1" k3="1"/>
        <feColorMatrix type="matrix" values="0 0 0 0 0 0 0 0 0 0 0 0 0 0 0 0 0 0 0.25 0"/>
        <feBlend mode="normal" in2="shape" result="effect1_innerShadow"/>
        </filter>
        </defs>
    </g>
</svg>
