<svg width="115" height="31" viewBox="0 0 115 31" fill="none" xmlns="http://www.w3.org/2000/svg">
<path d="M18.5089 14.2107C18.4783 10.8344 21.2737 9.19218 21.4014 9.11553C19.8189 6.8073 17.3659 6.49215 16.5039 6.4683C14.4427 6.25196 12.4445 7.70163 11.3951 7.70163C10.3253 7.70163 8.70873 6.49045 6.96606 6.52452C4.72427 6.55859 2.62727 7.85665 1.47741 9.87188C-0.895552 13.9807 0.874375 20.0196 3.14854 23.3414C4.28647 24.9699 5.61519 26.7841 7.35446 26.7211C9.05624 26.6513 9.69165 25.6377 11.7461 25.6377C13.7817 25.6377 14.378 26.7211 16.153 26.6802C17.9791 26.6513 19.1307 25.0466 20.2277 23.4044C21.5428 21.5408 22.0709 19.7044 22.0914 19.609C22.0488 19.5954 18.5447 18.2565 18.5089 14.2107Z" fill="#DEDEDE"/>
<path d="M15.1565 4.28258C16.0712 3.13783 16.6981 1.58084 16.5244 0C15.1991 0.0579187 13.5416 0.916478 12.5876 2.03567C11.7427 3.02199 10.9897 4.64031 11.1839 6.16153C12.6728 6.27226 14.2008 5.41029 15.1565 4.28258Z" fill="#DEDEDE"/>
<path d="M43.1635 26.4875H40.7854L39.4823 22.3923H34.9527L33.7108 26.4875H31.3941L35.8828 12.5479H38.6544L43.1635 26.4875ZM39.0887 20.6752L37.9099 17.0348C37.7856 16.6635 37.5505 15.7879 37.2064 14.4081H37.1638C37.0258 15.0009 36.8044 15.8765 36.5011 17.0348L35.3428 20.6752H39.0887Z" fill="#DEDEDE"/>
<path d="M54.6844 21.338C54.6844 23.0483 54.221 24.3992 53.2909 25.3906C52.4596 26.273 51.4256 26.7142 50.1923 26.7142C48.8601 26.7142 47.9028 26.239 47.3219 25.2884V30.5624H45.0886V19.7384C45.0886 18.6652 45.0596 17.5631 45.0051 16.4354H46.9693L47.0936 18.0281H47.1362C47.8806 16.8272 49.0117 16.2275 50.5278 16.2275C51.7135 16.2275 52.7032 16.696 53.4953 17.6329C54.2875 18.5732 54.6844 19.8083 54.6844 21.338ZM52.4085 21.4198C52.4085 20.442 52.1888 19.6345 51.7458 18.9991C51.2638 18.3382 50.6147 18.0077 49.8022 18.0077C49.2519 18.0077 48.7511 18.1917 48.3031 18.5562C47.8551 18.9225 47.5621 19.4011 47.4241 19.994C47.3542 20.2699 47.3202 20.4965 47.3202 20.6736V22.3499C47.3202 23.0807 47.545 23.6973 47.9931 24.2016C48.4411 24.7041 49.0237 24.9562 49.7408 24.9562C50.5824 24.9562 51.2365 24.6309 51.705 23.9835C52.1734 23.3362 52.4085 22.4828 52.4085 21.4198Z" fill="#DEDEDE"/>
<path d="M66.2443 21.338C66.2443 23.0483 65.7809 24.3992 64.8508 25.3906C64.0178 26.273 62.9855 26.7142 61.7505 26.7142C60.4183 26.7142 59.461 26.239 58.8801 25.2884V30.5624H56.6468V19.7384C56.6468 18.6652 56.6178 17.5631 56.5633 16.4354H58.5274L58.6518 18.0281H58.6944C59.4388 16.8272 60.5682 16.2275 62.086 16.2275C63.27 16.2275 64.2614 16.696 65.0552 17.6329C65.8474 18.5732 66.2443 19.8083 66.2443 21.338ZM63.9684 21.4198C63.9684 20.442 63.7469 19.6345 63.3057 18.9991C62.8237 18.3382 62.1763 18.0077 61.3638 18.0077C60.8135 18.0077 60.3127 18.1917 59.863 18.5562C59.415 18.9225 59.122 19.4011 58.9857 19.994C58.9175 20.2699 58.8818 20.4965 58.8818 20.6736V22.3499C58.8818 23.0807 59.1066 23.6973 59.553 24.2016C60.001 24.7041 60.5836 24.9562 61.3024 24.9562C62.144 24.9562 62.7998 24.6309 63.2666 23.9835C63.735 23.3362 63.9684 22.4828 63.9684 21.4198Z" fill="#DEDEDE"/>
<path d="M79.1705 22.5776C79.1705 23.7649 78.7548 24.7291 77.932 25.4735C77.0241 26.2861 75.7584 26.6932 74.1349 26.6932C72.6342 26.6932 71.4332 26.4036 70.5252 25.8244L71.0414 23.9625C72.0209 24.5434 73.0958 24.8313 74.2678 24.8313C75.1093 24.8313 75.7652 24.6405 76.2319 24.2623C76.7004 23.8825 76.9372 23.3765 76.9372 22.7428C76.9372 22.1756 76.7413 21.702 76.3563 21.3153C75.9696 20.9303 75.3308 20.5709 74.433 20.2404C71.9919 19.3307 70.7705 17.9986 70.7705 16.2474C70.7705 15.1044 71.2015 14.1674 72.0635 13.4349C72.9238 12.7041 74.0668 12.3379 75.4875 12.3379C76.7566 12.3379 77.8128 12.5593 78.6526 13.0005L78.0922 14.8216C77.3017 14.394 76.4108 14.1811 75.4143 14.1811C74.6272 14.1811 74.0089 14.3753 73.566 14.7603C73.1946 15.1044 73.0055 15.5251 73.0055 16.0242C73.0055 16.5745 73.2202 17.031 73.6477 17.3887C74.0191 17.7192 74.6954 18.0787 75.6732 18.4636C76.8742 18.9474 77.7549 19.5113 78.3204 20.1586C78.8877 20.8059 79.1705 21.6134 79.1705 22.5776Z" fill="#DEDEDE"/>
<path d="M86.5736 18.1118H84.112V22.9923C84.112 24.2341 84.5464 24.8525 85.4152 24.8525C85.8138 24.8525 86.146 24.8184 86.4066 24.7486L86.468 26.4452C86.0285 26.6105 85.4493 26.6922 84.7304 26.6922C83.848 26.6922 83.1598 26.4231 82.6624 25.8848C82.1666 25.3465 81.9179 24.4436 81.9179 23.1745V18.1084H80.4512V16.4321H81.9179V14.5923L84.112 13.9297V16.4321H86.5736V18.1118Z" fill="#DEDEDE"/>
<path d="M97.6584 21.3784C97.6584 22.9235 97.2172 24.1926 96.3348 25.184C95.4115 26.2061 94.185 26.7138 92.6536 26.7138C91.1767 26.7138 90.003 26.2249 89.1274 25.2471C88.2518 24.2675 87.814 23.0342 87.814 21.5454C87.814 19.9884 88.2671 18.7125 89.1682 17.7193C90.0728 16.7262 91.2891 16.2305 92.8205 16.2305C94.2958 16.2305 95.4797 16.7211 96.3774 17.6989C97.2326 18.6494 97.6584 19.8742 97.6584 21.3784ZM95.3434 21.4295C95.3434 20.5079 95.1441 19.7192 94.7455 19.0583C94.277 18.2593 93.6075 17.8607 92.7388 17.8607C91.8444 17.8607 91.1579 18.2593 90.6912 19.0583C90.2908 19.7192 90.0915 20.5233 90.0915 21.4721C90.0915 22.3937 90.2908 23.1858 90.6912 23.8451C91.1733 24.644 91.8478 25.0426 92.72 25.0426C93.5735 25.0426 94.2429 24.6355 94.7267 23.8246C95.1373 23.1483 95.3434 22.3528 95.3434 21.4295Z" fill="#DEDEDE"/>
<path d="M104.92 18.3997C104.699 18.3589 104.462 18.3384 104.217 18.3384C103.431 18.3384 102.823 18.6331 102.396 19.2293C102.024 19.7523 101.839 20.415 101.839 21.2139V26.4879H99.6054V19.6024C99.6054 18.4457 99.5833 17.3896 99.5407 16.4373H101.486L101.568 18.3606H101.629C101.866 17.6996 102.237 17.1664 102.745 16.7678C103.242 16.4084 103.781 16.2295 104.36 16.2295C104.566 16.2295 104.753 16.2448 104.919 16.2704L104.92 18.3997Z" fill="#DEDEDE"/>
<path d="M114.908 20.987C114.908 21.3874 114.882 21.7247 114.826 22.0006H108.126C108.152 22.9938 108.475 23.7535 109.099 24.2782C109.663 24.745 110.394 24.98 111.29 24.98C112.281 24.98 113.187 24.8233 114 24.5048L114.349 26.0532C113.399 26.4689 112.274 26.675 110.98 26.675C109.421 26.675 108.198 26.2168 107.307 25.3003C106.419 24.3838 105.973 23.1522 105.973 21.6088C105.973 20.0944 106.387 18.8321 107.215 17.8254C108.082 16.7505 109.254 16.2139 110.729 16.2139C112.177 16.2139 113.274 16.7505 114.019 17.8254C114.611 18.6771 114.908 19.7316 114.908 20.987ZM112.778 20.4062C112.794 19.7435 112.647 19.1728 112.344 18.689C111.957 18.0673 111.363 17.7572 110.566 17.7572C109.835 17.7572 109.24 18.0605 108.789 18.6669C108.418 19.149 108.196 19.7299 108.128 20.4045L112.778 20.4062Z" fill="#DEDEDE"/>
<path d="M37.0357 2.31874C37.0357 1.94566 36.899 1.64977 36.6256 1.43106C36.3554 1.20914 35.9743 1.09818 35.4822 1.09818C35.0705 1.09818 34.7248 1.21236 34.445 1.44071C34.1684 1.66585 34.0301 1.94566 34.0301 2.28015H33.1038C33.1038 1.90706 33.2051 1.57258 33.4077 1.27668C33.6136 0.980791 33.8998 0.750831 34.2665 0.586803C34.6331 0.419559 35.0384 0.335938 35.4822 0.335938C36.267 0.335938 36.8764 0.51283 37.3106 0.866615C37.7448 1.21718 37.9619 1.70605 37.9619 2.33321C37.9619 2.65805 37.8622 2.95395 37.6628 3.22089C37.4634 3.48784 37.1852 3.6985 36.8282 3.85288C37.6548 4.12948 38.0681 4.67784 38.0681 5.49798C38.0681 6.12836 37.8333 6.62849 37.3637 6.99835C36.8941 7.36822 36.267 7.55315 35.4822 7.55315C35.0159 7.55315 34.5913 7.47114 34.2086 7.30711C33.8291 7.13987 33.5332 6.90347 33.3209 6.59793C33.1086 6.29239 33.0025 5.92896 33.0025 5.50763H33.9288C33.9288 5.8775 34.0751 6.18625 34.3678 6.4339C34.6605 6.67834 35.0319 6.80055 35.4822 6.80055C35.9872 6.80055 36.3892 6.68316 36.6883 6.44838C36.9906 6.21359 37.1418 5.90323 37.1418 5.51728C37.1418 4.69393 36.632 4.27421 35.6125 4.25813H34.7441V3.49588H35.6076C36.0772 3.48623 36.4326 3.3801 36.6738 3.17747C36.915 2.97485 37.0357 2.68861 37.0357 2.31874Z" fill="#DEDEDE"/>
<path d="M42.381 7.45666C42.3296 7.35374 42.2877 7.17042 42.2556 6.90669C41.8407 7.33766 41.3454 7.55315 40.7697 7.55315C40.2551 7.55315 39.8322 7.40842 39.5009 7.11896C39.1728 6.82628 39.0088 6.45642 39.0088 6.00936C39.0088 5.46582 39.2146 5.04449 39.6263 4.74539C40.0412 4.44306 40.6234 4.2919 41.3727 4.2919H42.2411V3.88183C42.2411 3.56985 42.1478 3.3222 41.9613 3.13888C41.7748 2.95234 41.4998 2.85907 41.1363 2.85907C40.8179 2.85907 40.551 2.93947 40.3355 3.10028C40.12 3.2611 40.0123 3.45568 40.0123 3.68403H39.1149C39.1149 3.42352 39.2066 3.17265 39.3899 2.93143C39.5765 2.687 39.8273 2.49403 40.1425 2.35251C40.4609 2.211 40.8099 2.14024 41.1894 2.14024C41.7908 2.14024 42.262 2.2914 42.6029 2.59373C42.9439 2.89284 43.1208 3.30612 43.1336 3.83358V6.23611C43.1336 6.71532 43.1947 7.09645 43.3169 7.37948V7.45666H42.381ZM40.8999 6.77643C41.1798 6.77643 41.4451 6.70407 41.696 6.55934C41.9468 6.41461 42.1285 6.22646 42.2411 5.99489V4.92389H41.5416C40.4481 4.92389 39.9013 5.2439 39.9013 5.88393C39.9013 6.16374 39.9946 6.38244 40.1811 6.54004C40.3677 6.69763 40.6073 6.77643 40.8999 6.77643Z" fill="#DEDEDE"/>
<path d="M47.9049 2.97485H45.4975V7.45666H44.6002V2.23673H47.9049V2.97485Z" fill="#DEDEDE"/>
<path d="M53.0911 4.90459C53.0911 5.699 52.9093 6.33903 52.5459 6.82468C52.1825 7.31033 51.6904 7.55315 51.0697 7.55315C50.4361 7.55315 49.9375 7.35214 49.5741 6.95011V9.46359H48.6816V2.23673H49.4969L49.5403 2.81565C49.9038 2.36538 50.4087 2.14024 51.0552 2.14024C51.6823 2.14024 52.1776 2.37663 52.5411 2.84942C52.9077 3.3222 53.0911 3.97992 53.0911 4.82257V4.90459ZM52.1986 4.80328C52.1986 4.21471 52.0731 3.74996 51.8223 3.40904C51.5714 3.06812 51.2273 2.89766 50.7898 2.89766C50.2495 2.89766 49.8443 3.13727 49.5741 3.61649V6.11067C49.8411 6.58668 50.2495 6.82468 50.7995 6.82468C51.2273 6.82468 51.5666 6.65582 51.8174 6.31812C52.0715 5.9772 52.1986 5.47225 52.1986 4.80328Z" fill="#DEDEDE"/>
<path d="M55.8795 6.14927L57.0953 2.23673H58.0505L55.9519 8.26233C55.6271 9.13071 55.1108 9.5649 54.4033 9.5649L54.2344 9.55043L53.9015 9.48771V8.76406L54.1428 8.78336C54.4451 8.78336 54.6799 8.72225 54.8471 8.60003C55.0176 8.47782 55.1575 8.25429 55.2668 7.92945L55.4646 7.39877L53.6024 2.23673H54.577L55.8795 6.14927Z" fill="#DEDEDE"/>
<path d="M61.7218 3.66473C61.7218 3.4203 61.6285 3.22733 61.442 3.08581C61.2554 2.94108 60.9998 2.86872 60.6749 2.86872C60.3597 2.86872 60.096 2.95073 59.8837 3.11476C59.6747 3.27879 59.5701 3.47176 59.5701 3.69368H58.6825C58.6825 3.24019 58.8722 2.86872 59.2517 2.57926C59.6313 2.2898 60.1056 2.14507 60.6749 2.14507C61.286 2.14507 61.762 2.27693 62.1029 2.54066C62.4438 2.80118 62.6143 3.17426 62.6143 3.65991C62.6143 3.89469 62.5435 4.11018 62.402 4.30637C62.2605 4.50256 62.0595 4.65855 61.799 4.77433C62.4069 4.98017 62.7108 5.38541 62.7108 5.99007C62.7108 6.46928 62.5259 6.8488 62.156 7.12861C61.7861 7.40842 61.2924 7.54833 60.6749 7.54833C60.0735 7.54833 59.5766 7.40199 59.1842 7.10931C58.795 6.81342 58.6005 6.41461 58.6005 5.91288H59.4881C59.4881 6.16696 59.6007 6.38566 59.8258 6.56899C60.0542 6.74909 60.3372 6.83915 60.6749 6.83915C61.0158 6.83915 61.2908 6.76035 61.4999 6.60276C61.7089 6.44516 61.8135 6.24093 61.8135 5.99007C61.8135 5.69739 61.725 5.48833 61.5481 5.3629C61.3744 5.23425 61.1027 5.16993 60.7328 5.16993H59.8403V4.41733H60.81C61.4179 4.40125 61.7218 4.15038 61.7218 3.66473Z" fill="#DEDEDE"/>
<path d="M67.2457 2.23673H68.1382V7.45666H67.2457V3.65026L64.8383 7.45666H63.9458V2.23673H64.8383V6.04796L67.2457 2.23673Z" fill="#DEDEDE"/>
<path d="M73.4498 2.96038H71.6985V7.45666H70.806V2.96038H69.0886V2.23673H73.4498V2.96038Z" fill="#DEDEDE"/>
<path d="M76.0983 7.55315C75.3908 7.55315 74.8151 7.32158 74.3712 6.85845C73.9274 6.39209 73.7055 5.76975 73.7055 4.99143V4.8274C73.7055 4.30959 73.8036 3.84806 73.9997 3.44281C74.1992 3.03435 74.4757 2.71595 74.8295 2.48759C75.1865 2.25603 75.5725 2.14024 75.9874 2.14024C76.666 2.14024 77.1935 2.36377 77.5698 2.81082C77.9461 3.25788 78.1342 3.89791 78.1342 4.73091V5.10239H74.598C74.6108 5.61698 74.7604 6.03348 75.0466 6.35189C75.3361 6.66708 75.7027 6.82468 76.1466 6.82468C76.4618 6.82468 76.7287 6.76035 76.9474 6.6317C77.1661 6.50305 77.3575 6.33259 77.5215 6.12032L78.0667 6.54486C77.6293 7.21706 76.9731 7.55315 76.0983 7.55315ZM75.9874 2.87354C75.6272 2.87354 75.3248 3.00541 75.0804 3.26914C74.836 3.52965 74.6848 3.8963 74.6269 4.36909H77.2417V4.30155C77.216 3.84806 77.0938 3.49749 76.8751 3.24984C76.6563 2.99897 76.3605 2.87354 75.9874 2.87354Z" fill="#DEDEDE"/>
<path d="M81.7042 7.45666V2.23673H83.7401C84.4348 2.23673 84.9671 2.35894 85.3369 2.60338C85.71 2.84459 85.8966 3.19999 85.8966 3.66956C85.8966 3.91077 85.8242 4.12948 85.6795 4.32567C85.5347 4.51864 85.3209 4.66659 85.0378 4.76951C85.353 4.84348 85.6055 4.98821 85.7953 5.2037C85.9882 5.41918 86.0847 5.67648 86.0847 5.97559C86.0847 6.45481 85.9078 6.82146 85.554 7.07554C85.2035 7.32962 84.7066 7.45666 84.0633 7.45666H81.7042ZM82.5967 5.1651V6.73784H84.073C84.4461 6.73784 84.7243 6.66869 84.9076 6.53039C85.0941 6.39209 85.1874 6.19751 85.1874 5.94665C85.1874 5.42562 84.8047 5.1651 84.0392 5.1651H82.5967ZM82.5967 4.4511H83.7497C84.586 4.4511 85.0041 4.20667 85.0041 3.7178C85.0041 3.22893 84.6085 2.97646 83.8173 2.96038H82.5967V4.4511Z" fill="#DEDEDE"/>
</svg>
