<svg width="30" height="56" viewBox="0 0 30 56" fill="none" xmlns="http://www.w3.org/2000/svg">
<path fill-rule="evenodd" clip-rule="evenodd" d="M4 0H25.1339C27.3431 0 29.1339 1.79086 29.1339 4V36.9449C29.1339 39.154 27.3431 40.9449 25.1339 40.9449H4C1.79086 40.9449 0 39.154 0 36.9449V4C0 1.79086 1.79086 0 4 0ZM6.29883 19.9731C6.02269 19.9731 5.79883 20.197 5.79883 20.4731C5.79883 20.7493 6.02269 20.9731 6.29883 20.9731H23.6218C23.898 20.9731 24.1218 20.7493 24.1218 20.4731C24.1218 20.197 23.898 19.9731 23.6218 19.9731H6.29883Z" fill="#494949"/>
<path d="M13.6607 51.3529V41.7319H15.4717V51.3529C15.4717 51.5949 15.3767 51.8259 15.2067 51.9969C15.0367 52.1679 14.8067 52.2639 14.5667 52.2639C14.3267 52.2639 14.0957 52.1679 13.9257 51.9969C13.7567 51.8259 13.6607 51.5949 13.6607 51.3529Z" fill="#494949"/>
<path d="M11.8377 49.6669C11.8767 49.9049 11.8197 50.1489 11.6807 50.3449C11.5407 50.5419 11.3297 50.6739 11.0927 50.7139C9.80371 50.9289 8.77472 51.2509 8.09572 51.6119C7.84672 51.7319 7.61971 51.8959 7.4257 52.0939C7.3817 52.1419 7.34671 52.1979 7.32271 52.2579V52.2639L7.32571 52.2779C7.33271 52.2989 7.34271 52.3189 7.35471 52.3379C7.42671 52.4439 7.51571 52.5359 7.61771 52.6109C7.91671 52.8479 8.40571 53.1029 9.08971 53.3309C10.4497 53.7859 12.3857 54.0839 14.5667 54.0839C16.7467 54.0839 18.6827 53.7879 20.0427 53.3309C20.7277 53.1009 21.2167 52.8479 21.5157 52.6109C21.6187 52.5359 21.7077 52.4439 21.7797 52.3379C21.7917 52.3189 21.8007 52.2989 21.8067 52.2779L21.8107 52.2639V52.2559C21.7857 52.1959 21.7507 52.1399 21.7077 52.0919C21.5137 51.8939 21.2867 51.7319 21.0377 51.6119C20.3567 51.2509 19.3297 50.9289 18.0397 50.7139C17.9197 50.6979 17.8047 50.6569 17.6997 50.5949C17.5957 50.5329 17.5047 50.4499 17.4327 50.3519C17.3607 50.2539 17.3097 50.1429 17.2807 50.0239C17.2527 49.9059 17.2487 49.7829 17.2687 49.6619C17.2887 49.5419 17.3317 49.4269 17.3967 49.3239C17.4617 49.2209 17.5467 49.1319 17.6467 49.0629C17.7457 48.9939 17.8587 48.9449 17.9767 48.9199C18.0957 48.8959 18.2177 48.8949 18.3367 48.9189C19.7317 49.1499 20.9667 49.5159 21.8807 49.9999C22.7157 50.4429 23.6217 51.1709 23.6217 52.2639C23.6217 53.0389 23.1507 53.6329 22.6367 54.0429C22.1107 54.4579 21.4047 54.7949 20.6157 55.0589C19.0257 55.5919 16.8867 55.9049 14.5667 55.9049C12.2467 55.9049 10.1077 55.5919 8.51772 55.0589C7.72772 54.7949 7.0217 54.4579 6.4967 54.0429C5.9827 53.6329 5.51172 53.0389 5.51172 52.2639C5.51172 51.1729 6.41671 50.4429 7.25171 49.9999C8.16671 49.5159 9.40172 49.1499 10.7957 48.9189C11.0327 48.8789 11.2757 48.9359 11.4707 49.0759C11.6657 49.2159 11.7977 49.4289 11.8377 49.6669Z" fill="#494949"/>
</svg>
