<svg width="33" height="31" viewBox="0 0 33 31" fill="none" xmlns="http://www.w3.org/2000/svg">
<g opacity="0.45">
<circle cx="17.5" cy="15.5" r="15.5" fill="#1E1E1E"/>
<g filter="url(#filter0_d)">
<circle cx="17.5002" cy="15.5002" r="12.3205" fill="#404040"/>
</g>
<g filter="url(#filter1_i)">
<ellipse cx="17.8977" cy="15.4998" rx="11.1282" ry="11.5256" fill="#2C2C2C"/>
</g>
</g>
<path d="M7.23081 12.2329C7.23081 12.2329 2.94904 10.2674 0.505859 13.7822C0.505859 13.7822 0.764222 15.8236 2.14466 16.76L2.61482 16.637C2.61482 16.637 4.72529 13.5376 7.18274 13.6295C7.18349 13.6288 7.41557 12.4015 7.23081 12.2329Z" fill="black"/>
<path d="M7.30295 12.5537C7.30295 12.5537 3.35992 10.5138 0.75 13.8896C0.75 13.8896 1.03841 15.6098 2.14621 16.4452L2.50897 16.3571C2.50897 16.3571 4.40163 13.3724 7.23235 13.3724L7.26014 13.1225C7.26014 13.1225 5.34796 12.1702 2.78386 13.7817C2.78386 13.7817 4.40163 12.095 7.28643 12.9076L7.30295 12.5537Z" fill="url(#paint0_linear)"/>
<path d="M7.23188 13.3738L7.2454 13.2538C3.98356 13.0457 2.14648 16.4473 2.14648 16.4473L2.50924 16.3592C2.50849 16.3592 4.40115 13.3738 7.23188 13.3738Z" fill="#212121"/>
<path d="M2.7832 13.7829C2.7832 13.7829 5.45546 12.3855 7.24522 13.2536L7.25949 13.1245C7.25949 13.1245 5.43893 12.1402 2.7832 13.7829Z" fill="#808285"/>
<path d="M7.29694 12.6775L7.30295 12.5537C7.30295 12.5537 3.35992 10.5138 0.75 13.8896C0.75 13.8896 1.03841 15.6098 2.14621 16.4452C2.14621 16.4452 1.12928 15.3014 0.916734 13.9048C0.916734 13.9048 3.05649 10.7902 7.29694 12.6775Z" fill="#808285"/>
<path d="M8.42308 11.9411C8.42308 11.9411 7.61645 6.16169 1.53891 6.64546C1.53891 6.64546 0.00976371 8.5927 0 10.6918L0.506962 11.0549C0.506962 11.0549 5.19955 8.88434 7.38662 12.5525L8.42308 11.9411Z" fill="black"/>
<path d="M1.67057 6.96552C1.67057 6.96552 0.492161 8.84669 0.355469 10.3914L0.568017 10.6701C0.568017 10.6701 5.29591 8.52772 7.67225 12.3812L8.18747 12.0774C8.18747 12.0774 7.21936 6.59719 1.67057 6.96552ZM4.67854 8.52772C6.8168 9.26136 8.00571 11.8162 8.00571 11.8162L7.84424 11.8215C6.84383 9.70412 4.67854 8.52772 4.67854 8.52772Z" fill="url(#paint1_linear)"/>
<path d="M8.0387 12.1683L8.07025 12.1501C8.03945 12.0802 7.98688 11.967 7.91478 11.8227L7.84418 11.825C6.88659 9.71904 4.67773 8.53125 4.67773 8.53125C5.69166 9.37956 6.5381 9.75701 7.72326 11.6837L8.0387 12.1683Z" fill="#808285"/>
<path d="M7.67224 12.3844L7.93586 12.2287C5.43485 8.09349 0.355469 10.3939 0.355469 10.3939L0.568017 10.6726C0.568017 10.6726 5.29516 8.53018 7.67224 12.3844Z" fill="#212121"/>
<path d="M7.93586 11.1889C7.3906 9.65326 5.79836 6.69138 1.67057 6.96555C1.67057 6.96555 0.492161 8.84672 0.355469 10.3915C0.355469 10.3915 0.935283 8.38421 1.81251 7.14933C1.81176 7.14933 5.61586 6.41342 7.93586 11.1889Z" fill="#808285"/>
<path d="M9.33855 12.1699C9.33855 12.1699 8.13987 10.7589 7.00202 11.8487C5.86417 12.9377 6.45751 13.7815 6.45751 13.7815C6.45751 13.7815 5.72072 14.7316 6.96071 15.6611C8.2007 16.5907 9.64198 14.7536 9.64198 14.7536L9.33855 12.1699Z" fill="black"/>
<path d="M9.38318 12.5556C9.38318 12.5556 8.1462 11.0678 7.10373 12.3263C7.10373 12.3263 6.17468 13.2163 7.10373 14.2135C7.10373 14.2135 6.8649 14.1976 6.69816 14.029C6.69816 14.029 6.228 14.7125 7.00159 15.3178C7.77517 15.923 9.06549 15.2107 9.58897 14.3054C9.58897 14.3054 9.3997 12.6908 9.38318 12.5556Z" fill="url(#paint2_radial)"/>
<path d="M6.69816 14.0244C6.69816 14.0244 6.51791 14.875 7.1841 15.2016C7.7947 15.5 8.36626 15.3968 8.65241 15.2365C8.09888 15.5684 7.45973 15.6724 7.00159 15.314C6.228 14.7087 6.69816 14.0244 6.69816 14.0244ZM7.10373 12.3217C7.10373 12.3217 6.62681 12.7789 6.69816 13.4047C6.69891 13.4001 6.79129 12.9179 7.30502 12.4288C7.82099 11.9374 8.56904 11.9754 8.96485 12.1668C8.51346 11.8341 7.76917 11.519 7.10373 12.3217Z" fill="#808285"/>
<path d="M27.552 19.4046C25.9951 23.1259 22.351 25.7377 18.1038 25.7377C12.4408 25.7377 7.84961 21.0951 7.84961 15.3688C7.84961 9.64255 12.4401 5 18.1038 5C22.1249 5 25.6053 7.33988 27.2854 10.7468C27.9719 12.1389 28.071 18.1644 27.552 19.4046Z" fill="black"/>
<path d="M7.84941 13.446C8.14607 13.6009 8.32107 13.9609 8.41119 14.2062C8.982 9.31073 13.0978 5.5127 18.0923 5.5127C21.0995 5.5127 23.7883 6.88959 25.5773 9.05404C25.5773 9.05328 25.5766 9.05328 25.5766 9.05252C25.5766 9.05252 27.7343 10.9086 27.4489 11.624C27.4489 11.624 27.2469 11.4311 26.9187 11.2185C26.7197 11.0894 26.4748 10.9534 26.1999 10.8494C26.1999 10.8494 26.6588 11.1851 27.0336 11.6316C27.4392 12.1162 27.7464 12.7313 27.2657 13.1953C27.4084 14.6862 27.4279 16.5354 27.3198 17.8311L27.7486 17.4498L28.0145 17.5956L27.8815 17.9769C27.8815 17.9769 27.645 18.532 27.1688 18.9087C27.1402 19.0287 27.1095 19.1313 27.0764 19.2118C25.5961 22.7508 22.1307 25.2342 18.0915 25.2342C12.7057 25.2342 8.33984 20.8195 8.33984 15.3742C8.33984 15.3682 8.3406 15.3621 8.3406 15.356C8.08524 14.9049 7.71797 14.2601 7.65413 14.1705C7.65488 14.169 7.37849 13.1991 7.84941 13.446Z" fill="url(#paint3_radial)"/>
<path d="M27.7769 13.352C27.7769 13.352 28.1915 12.2599 27.882 12.0016C27.882 12.0016 28.57 11.2695 26.5301 9.45898C26.5301 9.45898 27.9969 12.0411 27.297 11.4799C26.9462 11.1981 26.2012 10.8458 26.2012 10.8458C27.6357 11.9029 27.2632 13.2806 27.2632 13.2806C27.3293 13.5244 27.7769 13.352 27.7769 13.352Z" fill="black"/>
<path d="M24.7934 10.2364C24.7934 10.2364 22.9285 8.57394 19.9746 8.53369C19.9739 8.53369 23.6968 9.38276 24.7934 10.2364Z" fill="black"/>
<path d="M25.1471 11.612C25.1471 11.612 23.4812 9.88803 19.6621 9.94575C19.6621 9.94651 23.9581 10.8715 25.1471 11.612Z" fill="#3F3E3E"/>
<path d="M26.9124 17.9512C26.9124 17.9512 24.8395 20.0351 19.6617 19.8931C15.2696 19.7723 14.0694 18.6347 13.9492 18.5542C13.9492 18.5534 20.9325 21.3133 26.9124 17.9512Z" fill="#3F3E3E"/>
<path d="M27.858 17.1187C27.858 17.1187 29.3841 12.1427 22.0591 10.3572C15.2027 8.68643 10.2833 11.7296 10.5304 16.4473C10.5304 16.4473 14.2015 19.7699 20.2896 19.5421C26.075 19.3256 27.858 17.1187 27.858 17.1187Z" fill="black"/>
<path d="M27.6212 17.2031C27.6212 17.2031 29.1091 12.4026 21.9665 10.6802C15.2807 9.06783 10.5685 12.1193 10.8096 16.6715C10.8096 16.6715 15.0456 19.884 20.2414 19.5415C25.8735 19.1701 27.6212 17.2031 27.6212 17.2031Z" fill="url(#paint4_radial)"/>
<path d="M27.8564 17.1181C27.8564 17.1181 28.235 15.6865 28.5061 15.1078C28.7772 14.5291 29.5373 13.1826 28.5061 12.2773C27.6551 11.53 26.0704 12.9419 25.8226 13.0641C25.2976 13.3239 23.981 14.6013 21.884 14.1342C20.5073 13.8274 19.8892 12.5431 19.4656 11.0295C18.9887 9.32533 17.7893 7.53909 15.7329 7.62035C13.5436 7.70693 11.9881 11.7533 11.9844 13.3239C11.9844 13.3239 14.8204 11.5467 15.7329 11.6986C16.6454 11.8505 17.2831 12.3897 18.6199 14.6005C19.9568 16.812 21.5618 18.0294 24.7899 16.446C24.7899 16.446 26.328 15.4929 26.8793 15.7063C26.8793 15.7063 27.6724 16.0101 27.3863 17.4925C27.3878 17.494 27.6589 17.2411 27.8564 17.1181Z" fill="#A14F21"/>
<path d="M27.3881 17.4946C27.3881 17.4946 27.9364 15.296 28.3562 14.3284C28.7768 13.3609 28.6597 12.7305 28.2391 12.5559C27.8192 12.3812 27.5474 12.2711 26.0798 13.3252C24.9239 14.1553 24.2773 13.9161 24.0399 13.8918C24.0399 13.8918 21.9693 14.7241 20.389 13.1991C19.7139 12.5483 19.7334 12.4184 19.2369 11.2982C18.1817 8.9196 17.4284 7.90724 15.734 8.02648C13.6378 8.17381 12.2822 12.0387 11.9855 13.3244C11.9855 13.3244 11.996 12.9515 12.0531 12.6592C12.0531 12.6592 10.8694 13.4239 10.8086 16.6744C10.8086 16.6744 14.2882 19.7996 20.6992 19.5345C25.4759 19.3371 26.8812 17.8052 27.3881 17.4946Z" fill="url(#paint5_radial)"/>
<path d="M15.9752 8.01709C15.9752 8.01709 17.3631 8.04063 18.0864 9.38487C18.8097 10.7291 19.3932 11.9488 19.3932 11.9488L19.7275 12.5556C19.9107 12.9634 20.1045 13.0887 20.5844 13.3667L20.5882 13.3728C20.5882 13.3728 19.9085 15.9944 19.1927 14.9676C19.1927 14.9676 16.766 11.0116 15.5133 11.5258C15.5133 11.5258 15.4021 11.6078 15.2256 11.7445C14.0525 12.0285 11.9863 13.3234 11.9863 13.3234C11.9863 13.3234 12.7622 8.06342 15.9752 8.01709Z" fill="url(#paint6_linear)"/>
<path d="M27.074 15.6323C27.074 15.6323 26.911 15.8814 26.9125 16.1222C26.9155 16.4571 27.077 17.2128 27.0244 17.8036C27.0244 17.8036 20.9724 22.1485 12.0829 17.6928C12.0829 17.6928 11.9222 10.9488 15.866 10.9473C18.3497 10.9465 19.4253 15.9566 21.2811 16.2612C24.3845 16.7715 27.6155 13.9129 27.074 15.6323Z" fill="#CC7B52"/>
<path d="M24.3068 13.933C24.3068 13.933 26.0883 12.8386 25.4462 12.4733C24.804 12.108 23.0383 10.8906 19.3454 10.6468L19.1914 10.2397C19.1914 10.2397 23.9456 10.5337 26.2506 12.7718C26.2498 12.771 24.8739 13.9603 24.3068 13.933Z" fill="#CC7B52"/>
<path d="M11.9858 13.3238L11.8011 13.1977C11.8011 13.1977 10.7774 15.0804 11.0688 16.8795L10.8089 16.6737C10.8089 16.6737 10.6024 13.9389 12.0587 12.6304C12.0579 12.6304 12.0121 12.8529 11.9858 13.3238Z" fill="#CC7B52"/>
<path d="M27.5885 12.4673C27.8701 12.3997 28.0383 12.4688 28.2396 12.5523C28.6595 12.727 28.7766 13.3573 28.3568 14.3249C27.9369 15.2924 27.3887 17.491 27.3887 17.491C27.3887 17.491 27.596 15.2681 28.1961 14.1115C28.6166 13.2989 28.3237 12.5462 27.5885 12.4673Z" fill="#FFECB8"/>
<path d="M18.1022 9.58944C17.2933 8.21406 15.4735 8.09407 15.3887 8.08723C15.5013 8.05686 15.6162 8.03483 15.7342 8.02648C17.4285 7.90724 18.1826 8.9196 19.2371 11.2982C19.7343 12.4184 19.7147 12.5475 20.3892 13.1991C20.4538 13.2622 20.5199 13.3191 20.5867 13.3738L20.5875 13.3746C19.4016 12.9394 18.9847 11.0916 18.1022 9.58944Z" fill="#FFECB8"/>
<path d="M12.5494 17.7987C11.9898 14.8968 13.9734 11.2096 15.8345 11.3152C18.011 11.439 19.4065 16.1446 21.1925 16.6117C22.612 16.9823 24.6181 16.2334 25.5666 15.6988C26.6106 15.1102 27.0117 15.4353 27.0117 15.4353C26.6204 15.3851 26.0886 15.9623 26.0886 15.9623C26.5498 16.8349 26.4349 18.1511 26.4349 18.1518C25.5028 18.7077 23.8212 19.4064 20.6991 19.5356C16.9783 19.689 14.4938 18.8741 12.5494 17.7987Z" fill="#A14F21"/>
<path d="M15.7754 11.7139C17.8649 11.8202 19.231 16.9222 21.5187 17.0992C23.7066 17.2685 26.1723 15.7374 26.1723 15.7374C26.1933 15.7648 26.2136 15.7921 26.2331 15.8202C26.9421 16.8311 26.5681 18.069 26.5681 18.069L26.4359 18.1495C25.5038 18.7054 23.8222 19.4041 20.7001 19.5332C17.1649 19.6798 14.7465 18.9507 12.8463 17.9558C12.461 15.7063 14.0164 11.6242 15.7754 11.7139Z" fill="#547180"/>
<path d="M21.518 17.099L21.6058 17.1036C23.3543 17.2031 25.2552 16.2515 25.9229 15.8809C25.9229 15.8809 26.6965 16.7352 26.197 18.2701L26.185 18.2914C25.2732 18.785 23.7666 19.3394 21.2266 19.505C21.2281 19.5012 21.5232 18.9324 21.518 17.099Z" fill="url(#paint7_radial)"/>
<path d="M15.7754 11.7139C17.7905 11.8164 19.1334 16.5645 21.2784 17.0612C21.2784 17.0612 21.328 18.5452 20.975 19.5051C20.9727 19.5104 20.9712 19.515 20.969 19.5203C20.8803 19.5249 20.791 19.5294 20.7001 19.5332C17.1649 19.6798 14.7465 18.9507 12.8463 17.9558C12.461 15.7063 14.0164 11.6242 15.7754 11.7139Z" fill="url(#paint8_radial)"/>
<path d="M13.0125 14.0174L13.1109 13.7873C13.1191 13.7691 13.1274 13.7501 13.1364 13.7311C13.4218 13.1866 14.6896 12.1704 14.6896 12.1704C14.6896 12.1704 14.6888 12.1712 14.6888 12.1719C13.4383 13.2891 12.5431 16.1857 12.845 17.9537C12.7451 17.9013 12.6452 17.8496 12.5491 17.7957C12.311 16.5608 12.5348 15.1839 13.0125 14.0174Z" fill="#547180"/>
<path d="M21.9395 17.067C21.9395 17.6821 22.4321 18.1803 23.0405 18.1803C23.6489 18.1803 24.1415 17.6821 24.1415 17.067C24.1415 16.4518 23.6489 15.9536 23.0405 15.9536C22.4329 15.9536 21.9395 16.4518 21.9395 17.067Z" fill="black"/>
<path d="M22.0625 17.0657C22.0625 17.6125 22.5011 18.0553 23.0411 18.0553C23.5811 18.0553 24.0197 17.6125 24.0197 17.0657C24.0197 16.5189 23.5819 16.0762 23.0411 16.0762C22.5004 16.0762 22.0625 16.5189 22.0625 17.0657Z" fill="url(#paint9_linear)"/>
<path d="M22.4219 17.1504C22.4219 17.496 22.699 17.7755 23.04 17.7755C23.381 17.7755 23.6581 17.496 23.6581 17.1504C23.6581 16.8049 23.381 16.5254 23.04 16.5254C22.699 16.5254 22.4219 16.8049 22.4219 17.1504Z" fill="#00D0FF"/>
<path d="M22.4219 17.0684C22.4219 17.4139 22.699 17.6934 23.04 17.6934C23.381 17.6934 23.6581 17.4139 23.6581 17.0684C23.6581 16.7228 23.381 16.4434 23.04 16.4434C22.699 16.4434 22.4219 16.7228 22.4219 17.0684Z" fill="black"/>
<path d="M21.9922 16.385C21.9922 16.6235 22.183 16.8164 22.4188 16.8164C22.6546 16.8164 22.8454 16.6235 22.8454 16.385C22.8454 16.1465 22.6546 15.9536 22.4188 15.9536C22.1837 15.9536 21.9922 16.1465 21.9922 16.385Z" fill="white"/>
<path d="M23.2305 17.4767C23.2305 17.5959 23.3266 17.6931 23.4445 17.6931C23.5624 17.6931 23.6586 17.5967 23.6586 17.4767C23.6586 17.3575 23.5632 17.2603 23.4445 17.2603C23.3266 17.2603 23.2305 17.3567 23.2305 17.4767Z" fill="white"/>
<path d="M15.3828 16.269C15.3828 16.954 15.9318 17.5092 16.6093 17.5092C17.2867 17.5092 17.8358 16.954 17.8358 16.269C17.8358 15.584 17.2867 15.0288 16.6093 15.0288C15.9318 15.0296 15.3828 15.5847 15.3828 16.269Z" fill="black"/>
<path d="M15.5195 16.267C15.5195 16.8761 16.0077 17.369 16.6093 17.369C17.2117 17.369 17.6991 16.8753 17.6991 16.267C17.6991 15.6587 17.2109 15.165 16.6093 15.165C16.007 15.165 15.5195 15.6587 15.5195 16.267Z" fill="url(#paint10_linear)"/>
<path d="M15.9219 16.3649C15.9219 16.7492 16.2298 17.0613 16.6106 17.0613C16.9906 17.0613 17.2993 16.7499 17.2993 16.3649C17.2993 15.9806 16.9914 15.6685 16.6106 15.6685C16.2306 15.6685 15.9219 15.9798 15.9219 16.3649Z" fill="#00D0FF"/>
<path d="M15.9219 16.2697C15.9219 16.6539 16.2298 16.9661 16.6106 16.9661C16.9906 16.9661 17.2993 16.6547 17.2993 16.2697C17.2993 15.8854 16.9914 15.5732 16.6106 15.5732C16.2306 15.574 15.9219 15.8854 15.9219 16.2697Z" fill="black"/>
<path d="M15.4414 15.5095C15.4414 15.7754 15.654 15.9903 15.9168 15.9903C16.1789 15.9903 16.3922 15.7754 16.3922 15.5095C16.3922 15.2445 16.1797 15.0288 15.9168 15.0288C15.6547 15.0296 15.4414 15.2445 15.4414 15.5095Z" fill="white"/>
<path d="M16.8223 16.7256C16.8223 16.8585 16.9289 16.9664 17.0603 16.9664C17.1918 16.9664 17.2984 16.8585 17.2984 16.7256C17.2984 16.5927 17.1918 16.4849 17.0603 16.4849C16.9282 16.4849 16.8223 16.5927 16.8223 16.7256Z" fill="white"/>
<path d="M27.8579 17.1195C27.8579 17.1195 29.0792 17.9207 26.8823 19.0948C26.8823 19.0948 28.099 18.0855 27.8362 17.6056C27.8362 17.6056 23.7024 20.4664 17.1802 19.4966C10.5311 18.5078 8.44768 14.5411 7.96775 13.79C7.96775 13.79 7.84909 13.405 7.68836 13.5873C7.68836 13.5873 7.59373 13.7521 7.91217 14.2176C8.23062 14.6832 8.53179 15.4943 8.59188 15.7988C8.59188 15.7988 7.92344 14.6422 7.67559 14.3984C7.67559 14.3984 7.17839 13.9997 7.48858 13.4247C7.66883 13.0906 8.06914 13.2258 8.06914 13.2258C8.06914 13.2258 9.79507 18.1524 17.2606 19.309C24.3295 20.4057 27.6401 17.3033 27.8579 17.1195Z" fill="black"/>
<path d="M24.5006 19.8904C24.5006 19.8904 20.6109 18.1232 15.9551 20.0507C15.9551 20.0507 20.6995 25.7428 24.5006 19.8988V19.8904Z" fill="url(#paint11_linear)"/>
<path d="M24.5015 19.9018C24.5015 19.9018 21.7414 18.7816 18.3496 19.5198C18.3496 19.5198 22.4969 19.3816 24.5015 19.9018Z" fill="#808285"/>
<path d="M24.5026 19.8992C24.5026 19.8992 21.6358 18.2352 16.9004 19.6964C16.9004 19.6957 21.6703 18.9043 24.5026 19.8992Z" fill="black"/>
<path d="M22.0113 22.1426C22.0113 22.1426 21.8363 22.5572 21.4646 22.7069C21.3376 22.7577 21.2009 23.3319 21.5314 23.7944C21.5314 23.7944 21.0785 23.8483 21.0184 23.6615C20.9584 23.4747 20.8525 22.5542 20.9734 22.5003C21.0943 22.4471 21.9107 22.2451 22.0113 22.1426Z" fill="#212121"/>
<path d="M22.0114 22.1435C22.0114 22.1435 18.1675 23.0784 16.4536 21.1221C16.4536 21.1221 16.1194 21.179 15.9316 21.2747C15.9316 21.2747 16.3109 22.7329 16.3582 23.1726C16.3582 23.1726 18.4259 24.9831 21.5315 23.7954C21.5315 23.7954 21.2371 23.7635 21.1019 23.6366C21.1019 23.6366 20.9697 22.8924 21.0321 22.6106C21.0313 22.6106 21.7651 22.5043 22.0114 22.1435Z" fill="black"/>
<path d="M20.7248 22.5478C20.7248 22.5478 20.8217 23.6346 20.8765 23.75C20.8765 23.75 18.7405 24.53 16.63 23.0741C16.63 23.0741 16.3048 21.581 16.1816 21.4018L16.3529 21.3213C16.3529 21.3213 17.3368 22.8949 20.7248 22.5478Z" fill="url(#paint12_linear)"/>
<path d="M17.1705 23.3992C18.2888 23.302 18.0394 22.3716 18.0394 22.3716C18.0379 22.3716 18.0364 22.3709 18.0349 22.3701C18.0252 22.3671 18.0162 22.364 18.0064 22.361C17.6819 22.2691 17.4108 22.1476 17.1878 22.02C17.1682 22.0094 17.1487 21.998 17.1299 21.9873C17.1262 21.9851 17.1232 21.9835 17.1202 21.9813C16.5644 21.6555 16.3548 21.3213 16.3548 21.3213L16.1836 21.4018C16.3068 21.581 16.632 23.0741 16.632 23.0741L17.16 23.3931C17.1637 23.3954 17.1667 23.3969 17.1705 23.3992Z" fill="black"/>
<path d="M19.9334 23.9369C18.8173 22.44 18.2052 22.825 18.2052 22.825C17.8056 22.4013 16.8195 22.6564 16.5566 22.7347C16.6025 22.9344 16.6332 23.0741 16.6332 23.0741C17.8695 23.927 19.114 24.0121 19.9334 23.9369Z" fill="#9F4055"/>
<path d="M16.584 22.8576C16.6133 22.9882 16.6321 23.0733 16.6321 23.0733C17.7819 23.8669 18.9385 23.9952 19.7534 23.9489C18.9468 22.7285 18.2641 22.9312 18.2641 22.9312C18.4376 23.0847 18.4924 23.3588 18.4924 23.3588C18.008 22.3761 16.7928 22.7794 16.584 22.8576Z" fill="#FF88A1"/>
<path d="M16.584 22.8595C18.0898 22.3332 18.4924 23.3607 18.4924 23.3607C17.863 22.4684 16.593 22.9119 16.593 22.9119L16.584 22.8595ZM18.2641 22.9332C18.2641 22.9332 19.0136 22.9575 19.6753 23.9425L19.7534 23.9508C19.7534 23.9508 19.0602 22.7873 18.2641 22.9332Z" fill="#FFB8C7"/>
<path d="M16.6321 23.0741C16.6321 23.0741 16.6133 22.9891 16.584 22.8584C16.5998 22.8524 16.6215 22.8448 16.6478 22.8364V22.8372L16.7094 23.0354C16.7094 23.0354 18.0771 23.9126 19.6918 23.8602C19.7121 23.889 19.7324 23.9194 19.7534 23.9505C18.9385 23.9961 17.7819 23.867 16.6321 23.0741ZM18.4196 23.1493C18.4834 23.2716 18.4924 23.3589 18.4924 23.3589C18.6066 23.0027 18.2641 22.9314 18.2641 22.9314C18.3339 22.9936 18.3843 23.0749 18.4196 23.1493Z" fill="#C8516B"/>
<path d="M21.5307 23.7995C21.5307 23.7995 18.8029 25.0298 16.3574 23.1768C16.3574 23.1768 18.6707 25.3146 21.5307 23.7995Z" fill="#808285"/>
<path d="M16.428 21.6983L16.4423 21.415C16.618 21.5988 17.0461 22.0446 17.9331 22.3294C18.3537 22.4737 18.8667 22.5778 19.4743 22.5869C19.7394 22.5983 20.0256 22.596 20.3327 22.577L20.2674 23.1595L20.5596 23.8377C20.3913 23.8757 20.1653 23.9152 19.8949 23.9372C19.1528 23.9911 17.8918 23.9159 16.6458 23.0699C16.6458 23.0699 16.4671 22.3104 16.3281 21.81L16.428 21.6983Z" fill="#495E69"/>
<path d="M16.4638 21.8947C16.4638 21.8947 16.593 22.2053 16.8784 22.4362C16.8784 22.4362 16.5794 21.9342 16.5261 21.7527L16.5486 21.5332C16.7957 21.7831 17.3177 22.1901 18.252 22.421C18.5697 22.5045 18.9317 22.5638 19.3388 22.5813C19.5919 22.5964 19.8646 22.5995 20.1575 22.5873L20.0748 23.1045C20.0748 23.1045 19.4244 23.2055 18.7229 23.1167C18.7229 23.1167 19.4132 23.324 20.1101 23.2731L20.3948 23.8716C19.6415 24.0121 18.1371 24.1009 16.644 23.0711C16.644 23.0711 16.5148 22.4787 16.3887 21.9957L16.4638 21.8947Z" fill="url(#paint13_linear)"/>
<path d="M16.5371 21.6426L16.5454 21.559L16.5484 21.5332C16.7955 21.7831 17.3175 22.1901 18.2518 22.421C18.5695 22.5045 18.9315 22.5638 19.3385 22.5813C19.5916 22.5964 19.8643 22.5995 20.1572 22.5873L20.1422 22.683V22.6838C20.1422 22.6838 17.6877 22.9709 16.5371 21.6426Z" fill="#7999AA"/>
<path d="M20.3337 23.7404C20.3337 23.7404 18.4515 24.2485 16.7459 22.9855C16.7459 22.9855 16.4732 22.0293 16.4177 21.9595L16.3711 22.0081C16.3711 22.0081 16.6385 22.9893 16.6452 23.0721C16.6452 23.0721 18.1744 24.31 20.396 23.8725L20.3337 23.7404Z" fill="#7999AA"/>
<path d="M17.6168 19.8448C17.6168 19.8448 15.7639 18.0403 13.8945 19.2463C13.8945 19.2463 14.7996 20.3217 15.7316 21.2528C15.7316 21.2528 16.0305 21.1632 16.9926 21.2338C16.9926 21.2338 16.4158 20.0271 17.6168 19.8448Z" fill="black"/>
<path d="M17.6157 19.8433C17.6157 19.8433 15.9071 18.8924 13.8935 19.2448C13.8935 19.2448 12.5439 19.4818 13.1334 20.9323C13.1334 20.9323 13.5225 21.9105 14.6416 22.0844C14.6416 22.0844 15.9131 20.8169 16.9916 21.2323C16.9916 21.2323 17.8944 21.6402 18.0093 20.5473C18.01 20.5473 17.9905 20.0704 17.6157 19.8433Z" fill="url(#paint14_linear)"/>
<path d="M17.6168 19.8443C17.6168 19.8443 15.9952 18.8904 13.8945 19.2458C13.8945 19.2458 16.4819 19.2815 17.6168 19.8443Z" fill="#808285"/>
<path d="M16.9911 21.2379C16.9911 21.2379 15.9727 21.0199 15.5469 21.7429C15.5469 21.7429 15.7737 20.3136 16.9911 21.2379Z" fill="black"/>
<defs>
<filter id="filter0_d" x="5.17969" y="2.17969" width="27.641" height="26.641" filterUnits="userSpaceOnUse" color-interpolation-filters="sRGB">
<feFlood flood-opacity="0" result="BackgroundImageFix"/>
<feColorMatrix in="SourceAlpha" type="matrix" values="0 0 0 0 0 0 0 0 0 0 0 0 0 0 0 0 0 0 127 0"/>
<feOffset dx="2"/>
<feGaussianBlur stdDeviation="0.5"/>
<feColorMatrix type="matrix" values="0 0 0 0 0.783138 0 0 0 0 0.783333 0 0 0 0 0.773542 0 0 0 0.5 0"/>
<feBlend mode="normal" in2="BackgroundImageFix" result="effect1_dropShadow"/>
<feBlend mode="normal" in="SourceGraphic" in2="effect1_dropShadow" result="shape"/>
</filter>
<filter id="filter1_i" x="6.76953" y="3.97412" width="22.2564" height="27.0513" filterUnits="userSpaceOnUse" color-interpolation-filters="sRGB">
<feFlood flood-opacity="0" result="BackgroundImageFix"/>
<feBlend mode="normal" in="SourceGraphic" in2="BackgroundImageFix" result="shape"/>
<feColorMatrix in="SourceAlpha" type="matrix" values="0 0 0 0 0 0 0 0 0 0 0 0 0 0 0 0 0 0 127 0" result="hardAlpha"/>
<feOffset dy="4"/>
<feGaussianBlur stdDeviation="2"/>
<feComposite in2="hardAlpha" operator="arithmetic" k2="-1" k3="1"/>
<feColorMatrix type="matrix" values="0 0 0 0 0 0 0 0 0 0 0 0 0 0 0 0 0 0 0.25 0"/>
<feBlend mode="normal" in2="shape" result="effect1_innerShadow"/>
</filter>
<linearGradient id="paint0_linear" x1="4.5927" y1="15.9192" x2="3.75282" y2="12.0116" gradientUnits="userSpaceOnUse">
<stop stop-color="#535455"/>
<stop offset="0.2835" stop-color="#505152"/>
<stop offset="0.484" stop-color="#474849"/>
<stop offset="0.6588" stop-color="#383939"/>
<stop offset="0.819" stop-color="#232323"/>
<stop offset="0.9679" stop-color="#070707"/>
<stop offset="1"/>
</linearGradient>
<linearGradient id="paint1_linear" x1="0.355138" y1="9.66466" x2="8.18767" y2="9.66466" gradientUnits="userSpaceOnUse">
<stop stop-color="#535455"/>
<stop offset="0.2835" stop-color="#505152"/>
<stop offset="0.484" stop-color="#474849"/>
<stop offset="0.6588" stop-color="#383939"/>
<stop offset="0.819" stop-color="#232323"/>
<stop offset="0.9679" stop-color="#070707"/>
<stop offset="1"/>
</linearGradient>
<radialGradient id="paint2_radial" cx="0" cy="0" r="1" gradientUnits="userSpaceOnUse" gradientTransform="translate(8.80101 13.9428) scale(2.20923 2.23395)">
<stop stop-color="#58595B"/>
<stop offset="0.2605" stop-color="#363738"/>
<stop offset="0.598" stop-color="#0F0F0F"/>
<stop offset="0.7729"/>
<stop offset="0.9946" stop-color="#58595B"/>
</radialGradient>
<radialGradient id="paint3_radial" cx="0" cy="0" r="1" gradientUnits="userSpaceOnUse" gradientTransform="translate(18.9754 15.3051) rotate(180) scale(11.3822 11.5095)">
<stop stop-color="#58595B"/>
<stop offset="0.3562" stop-color="#565759"/>
<stop offset="0.4845" stop-color="#505152"/>
<stop offset="0.576" stop-color="#444547"/>
<stop offset="0.6499" stop-color="#343436"/>
<stop offset="0.7133" stop-color="#1F1F20"/>
<stop offset="0.7683" stop-color="#050505"/>
<stop offset="0.7772"/>
<stop offset="0.9946" stop-color="#58595B"/>
</radialGradient>
<radialGradient id="paint4_radial" cx="0" cy="0" r="1" gradientUnits="userSpaceOnUse" gradientTransform="translate(19.2758 14.9058) rotate(180) scale(6.82156 6.89786)">
<stop stop-color="#FAD395"/>
<stop offset="0.4017" stop-color="#FAD194"/>
<stop offset="0.5464" stop-color="#FBCA8F"/>
<stop offset="0.6496" stop-color="#FCBF87"/>
<stop offset="0.7324" stop-color="#FEAE7C"/>
<stop offset="0.7772" stop-color="#FFA173"/>
<stop offset="0.9946" stop-color="#FAD395"/>
</radialGradient>
<radialGradient id="paint5_radial" cx="0" cy="0" r="1" gradientUnits="userSpaceOnUse" gradientTransform="translate(19.7138 13.7842) scale(7.47762 7.56126)">
<stop stop-color="#FAD395"/>
<stop offset="0.4017" stop-color="#FAD194"/>
<stop offset="0.5464" stop-color="#FBCA8F"/>
<stop offset="0.6496" stop-color="#FCBF87"/>
<stop offset="0.7324" stop-color="#FEAE7C"/>
<stop offset="0.7772" stop-color="#FFA173"/>
<stop offset="0.9946" stop-color="#FAD395"/>
</radialGradient>
<linearGradient id="paint6_linear" x1="20.6946" y1="11.8194" x2="12.1304" y2="11.2272" gradientUnits="userSpaceOnUse">
<stop stop-color="#FAD294"/>
<stop offset="0.5333" stop-color="#FFA173"/>
<stop offset="0.6093" stop-color="#FDB17E"/>
<stop offset="0.7275" stop-color="#FBC38A"/>
<stop offset="0.8512" stop-color="#FACE92"/>
<stop offset="0.9879" stop-color="#FAD294"/>
</linearGradient>
<radialGradient id="paint7_radial" cx="0" cy="0" r="1" gradientUnits="userSpaceOnUse" gradientTransform="translate(22.4998 17.7852) rotate(180) scale(3.93378 3.97779)">
<stop stop-color="white"/>
<stop offset="0.3085" stop-color="#FDFDFE"/>
<stop offset="0.4757" stop-color="#F5F8FA"/>
<stop offset="0.6089" stop-color="#E7EFF3"/>
<stop offset="0.7235" stop-color="#D4E3E9"/>
<stop offset="0.8121" stop-color="#BFD5DE"/>
<stop offset="0.8174" stop-color="#C3D7E0"/>
<stop offset="0.8608" stop-color="#DDE9EE"/>
<stop offset="0.9053" stop-color="#F0F5F7"/>
<stop offset="0.951" stop-color="#FBFDFD"/>
<stop offset="1" stop-color="white"/>
</radialGradient>
<radialGradient id="paint8_radial" cx="0" cy="0" r="1" gradientUnits="userSpaceOnUse" gradientTransform="translate(18.8967 16.7615) rotate(180) scale(6.70726 6.78228)">
<stop stop-color="white"/>
<stop offset="0.3085" stop-color="#FDFDFE"/>
<stop offset="0.4757" stop-color="#F5F8FA"/>
<stop offset="0.6089" stop-color="#E7EFF3"/>
<stop offset="0.7235" stop-color="#D4E3E9"/>
<stop offset="0.8121" stop-color="#BFD5DE"/>
<stop offset="0.8174" stop-color="#C3D7E0"/>
<stop offset="0.8608" stop-color="#DDE9EE"/>
<stop offset="0.9053" stop-color="#F0F5F7"/>
<stop offset="0.951" stop-color="#FBFDFD"/>
<stop offset="1" stop-color="white"/>
</radialGradient>
<linearGradient id="paint9_linear" x1="23.0414" y1="18.0555" x2="23.0414" y2="16.0761" gradientUnits="userSpaceOnUse">
<stop stop-color="#007BC2"/>
<stop offset="0.0661" stop-color="#006FB0"/>
<stop offset="0.1992" stop-color="#005180"/>
<stop offset="0.3853" stop-color="#002134"/>
<stop offset="0.5046"/>
</linearGradient>
<linearGradient id="paint10_linear" x1="16.6093" y1="17.3697" x2="16.6093" y2="15.1652" gradientUnits="userSpaceOnUse">
<stop stop-color="#007BC2"/>
<stop offset="0.0661" stop-color="#006FB0"/>
<stop offset="0.1992" stop-color="#005180"/>
<stop offset="0.3853" stop-color="#002134"/>
<stop offset="0.5046"/>
</linearGradient>
<linearGradient id="paint11_linear" x1="16.1136" y1="21.3569" x2="24.5543" y2="20.3319" gradientUnits="userSpaceOnUse">
<stop stop-color="#535455"/>
<stop offset="0.1849" stop-color="#4C4D4E"/>
<stop offset="0.456" stop-color="#393A3A"/>
<stop offset="0.7784" stop-color="#1A1A1A"/>
<stop offset="1"/>
</linearGradient>
<linearGradient id="paint12_linear" x1="20.8265" y1="22.5207" x2="16.235" y2="22.7074" gradientUnits="userSpaceOnUse">
<stop stop-color="#520B14"/>
<stop offset="0.3762" stop-color="#36070D"/>
<stop offset="1"/>
</linearGradient>
<linearGradient id="paint13_linear" x1="20.3756" y1="22.703" x2="16.4031" y2="22.7715" gradientUnits="userSpaceOnUse">
<stop stop-color="white"/>
<stop offset="0.207" stop-color="#FCFDFD"/>
<stop offset="0.3435" stop-color="#F3F7F8"/>
<stop offset="0.4598" stop-color="#E4ECF0"/>
<stop offset="0.5646" stop-color="#CFDEE4"/>
<stop offset="0.6618" stop-color="#B4CAD4"/>
<stop offset="0.7521" stop-color="#93B3C2"/>
<stop offset="0.7948" stop-color="#80A6B7"/>
<stop offset="0.8102" stop-color="#95B5C3"/>
<stop offset="0.8471" stop-color="#C3D5DD"/>
<stop offset="0.88" stop-color="#E4ECEF"/>
<stop offset="0.9073" stop-color="#F8FAFB"/>
<stop offset="0.9258" stop-color="white"/>
</linearGradient>
<linearGradient id="paint14_linear" x1="14.4751" y1="18.8016" x2="16.4125" y2="21.9902" gradientUnits="userSpaceOnUse">
<stop stop-color="#535455"/>
<stop offset="0.2153" stop-color="#474848"/>
<stop offset="0.6092" stop-color="#262727"/>
<stop offset="1"/>
</linearGradient>
</defs>
</svg>
