<svg width="118" height="28" viewBox="0 0 118 28" fill="none" xmlns="http://www.w3.org/2000/svg">
<path d="M58.9569 15.3319C56.5795 15.3319 54.6375 17.1207 54.6375 19.5868C54.6375 22.0345 56.5795 23.8417 58.9569 23.8417C61.3385 23.8417 63.2825 22.0345 63.2825 19.5868C63.2825 17.1207 61.3405 15.3319 58.9569 15.3319ZM58.9569 22.1671C57.6526 22.1671 56.5299 21.1023 56.5299 19.5888C56.5299 18.0549 57.6526 17.0086 58.9569 17.0086C60.2612 17.0086 61.388 18.0549 61.388 19.5888C61.388 21.1023 60.2612 22.1671 58.9569 22.1671ZM49.5318 15.3319C47.1502 15.3319 45.2123 17.1207 45.2123 19.5868C45.2123 22.0345 47.1502 23.8417 49.5318 23.8417C51.9133 23.8417 53.8512 22.0345 53.8512 19.5868C53.8512 17.1207 51.9133 15.3319 49.5318 15.3319ZM49.5318 22.1671C48.2254 22.1671 47.1007 21.1023 47.1007 19.5888C47.1007 18.0549 48.2275 17.0086 49.5318 17.0086C50.836 17.0086 51.9587 18.0549 51.9587 19.5888C51.9587 21.1023 50.836 22.1671 49.5318 22.1671ZM38.3173 16.6353V18.4445H42.6863C42.5584 19.4542 42.2178 20.1987 41.6936 20.7148C41.0559 21.341 40.0633 22.0345 38.3173 22.0345C35.6283 22.0345 33.5233 19.8907 33.5233 17.2329C33.5233 14.5752 35.6283 12.4314 38.3173 12.4314C39.7702 12.4314 40.8289 12.9923 41.609 13.7205L42.8989 12.4457C41.8071 11.4156 40.3543 10.6242 38.3173 10.6242C34.6294 10.6242 31.5317 13.59 31.5317 17.2329C31.5317 20.8779 34.6294 23.8417 38.3173 23.8417C40.3109 23.8417 41.8071 23.1971 42.9835 21.9855C44.1887 20.7943 44.5643 19.1177 44.5643 17.7653C44.5643 17.3451 44.5292 16.9596 44.4653 16.6353H38.3173ZM84.178 18.0386C83.823 17.0861 82.7251 15.3319 80.4901 15.3319C78.2757 15.3319 76.4327 17.0555 76.4327 19.5868C76.4327 21.9712 78.2571 23.8417 80.7026 23.8417C82.6797 23.8417 83.8209 22.6505 84.2915 21.9549L82.8242 20.9881C82.335 21.6959 81.6684 22.165 80.7026 22.165C79.745 22.165 79.0578 21.7306 78.6182 20.8759L84.3761 18.522L84.178 18.0386ZM78.3066 19.4542C78.2571 17.8143 79.5964 16.9739 80.554 16.9739C81.3052 16.9739 81.9429 17.3451 82.1555 17.8775L78.3066 19.4542ZM73.626 23.5826H75.5185V11.077H73.626V23.5826ZM70.5263 16.2804H70.4623C70.0372 15.7827 69.2261 15.3319 68.1984 15.3319C66.0417 15.3319 64.0709 17.2023 64.0709 19.6011C64.0709 21.9855 66.0417 23.8417 68.1984 23.8417C69.2261 23.8417 70.0372 23.3868 70.4623 22.8748H70.5263V23.4847C70.5263 25.1124 69.6471 25.9854 68.2293 25.9854C67.0736 25.9854 66.3554 25.1593 66.0603 24.4658L64.4134 25.1451C64.8881 26.273 66.1449 27.6621 68.2293 27.6621C70.4478 27.6621 72.3217 26.371 72.3217 23.2318V15.5909H70.5283V16.2804H70.5263ZM68.3614 22.1671C67.0571 22.1671 65.9654 21.088 65.9654 19.6031C65.9654 18.1039 67.0571 17.0086 68.3614 17.0086C69.6471 17.0086 70.6604 18.1019 70.6604 19.6031C70.6604 21.088 69.6471 22.1671 68.3614 22.1671ZM93.0397 11.077H88.5118V23.5826H90.4002V18.8443H93.0397C95.1365 18.8443 97.192 17.3451 97.192 14.9607C97.192 12.5762 95.1323 11.077 93.0397 11.077ZM93.0892 17.1044H90.4002V12.8169H93.0892C94.4988 12.8169 95.3036 13.9734 95.3036 14.9607C95.3036 15.9275 94.4988 17.1044 93.0892 17.1044ZM104.76 15.3074C103.396 15.3074 101.978 15.903 101.394 17.2227L103.07 17.9162C103.431 17.2227 104.093 16.9963 104.795 16.9963C105.775 16.9963 106.768 17.5776 106.782 18.6036V18.7342C106.44 18.5384 105.709 18.2508 104.809 18.2508C103.006 18.2508 101.167 19.2319 101.167 21.0636C101.167 22.7402 102.644 23.8192 104.306 23.8192C105.577 23.8192 106.277 23.2522 106.718 22.5934H106.782V23.5602H108.604V18.7627C108.604 16.5496 106.929 15.3074 104.76 15.3074ZM104.531 22.1609C103.914 22.1609 103.053 21.8591 103.053 21.1023C103.053 20.1334 104.126 19.7622 105.055 19.7622C105.887 19.7622 106.277 19.9437 106.78 20.1824C106.634 21.341 105.624 22.1609 104.531 22.1609ZM115.248 15.5828L113.079 21.0044H113.015L110.771 15.5828H108.737L112.107 23.1584L110.183 27.3745H112.156L117.351 15.5828H115.248ZM98.23 23.5826H100.122V11.077H98.23V23.5826Z" fill="#DEDEDE"/>
<path d="M33.8581 6.71101C33.6687 6.71101 33.482 6.69729 33.2981 6.66984C33.1141 6.64513 32.9385 6.61219 32.771 6.57101C32.6063 6.52709 32.4539 6.47905 32.3139 6.4269C32.1767 6.37199 32.0614 6.31846 31.9681 6.26631L32.0298 5.58689C32.1698 5.66101 32.3098 5.72827 32.4498 5.78866C32.5898 5.84905 32.7326 5.89984 32.8781 5.94101C33.0236 5.98219 33.1704 6.01376 33.3187 6.03572C33.4669 6.05768 33.6165 6.06866 33.7675 6.06866C34.1134 6.06866 34.3865 6.02062 34.5869 5.92454C34.7873 5.82846 34.93 5.69944 35.0151 5.53748C35.103 5.37278 35.1469 5.18748 35.1469 4.9816C35.1469 4.5918 35.0138 4.32278 34.7475 4.17454C34.4839 4.02356 34.101 3.94807 33.5987 3.94807C33.4696 3.94807 33.3516 3.94807 33.2445 3.94807C33.1402 3.94807 33.0345 3.94807 32.9275 3.94807V3.3469C33.0126 3.3469 33.1018 3.3469 33.1951 3.3469C33.2912 3.3469 33.4024 3.3469 33.5287 3.3469C33.8855 3.3469 34.1696 3.29611 34.381 3.19454C34.5951 3.09023 34.7502 2.95572 34.8463 2.79101C34.9451 2.62631 34.9945 2.44925 34.9945 2.25984C34.9945 2.0265 34.9328 1.83846 34.8092 1.69572C34.6885 1.55023 34.5292 1.44592 34.3316 1.38278C34.1367 1.3169 33.9253 1.28395 33.6975 1.28395C33.5685 1.28395 33.4381 1.29493 33.3063 1.3169C33.1773 1.33611 33.0441 1.36905 32.9069 1.41572C32.7696 1.46239 32.6283 1.52415 32.4828 1.60101C32.34 1.67788 32.1918 1.76984 32.0381 1.8769L31.9434 1.18101C32.0477 1.11239 32.1643 1.0465 32.2934 0.983366C32.4251 0.917484 32.5692 0.859837 32.7257 0.810425C32.8822 0.758268 33.0483 0.717091 33.2239 0.686895C33.3996 0.656699 33.5836 0.641602 33.7757 0.641602C34.171 0.641602 34.5169 0.700621 34.8134 0.81866C35.1126 0.936699 35.3445 1.10552 35.5092 1.32513C35.6739 1.54474 35.7563 1.80964 35.7563 2.11984C35.7563 2.48768 35.6547 2.79101 35.4516 3.02984C35.2512 3.26592 35.0028 3.42925 34.7063 3.51984V3.58984C34.9012 3.62827 35.0906 3.69827 35.2745 3.79984C35.4612 3.90141 35.6149 4.05101 35.7357 4.24866C35.8565 4.44356 35.9169 4.70435 35.9169 5.03101C35.9169 5.32474 35.851 5.59925 35.7192 5.85454C35.5902 6.10984 35.3747 6.31709 35.0728 6.47631C34.7736 6.63278 34.3687 6.71101 33.8581 6.71101Z" fill="#DEDEDE"/>
<path d="M36.4795 6.62042C36.5948 6.30474 36.7142 5.97258 36.8377 5.62395C36.964 5.27533 37.0848 4.94454 37.2001 4.6316L37.9289 2.61395C38.0579 2.2516 38.1759 1.92493 38.283 1.63395C38.3901 1.34023 38.4971 1.04513 38.6042 0.74866H39.5842C39.6912 1.05062 39.7969 1.34709 39.9012 1.63807C40.0055 1.92905 40.1222 2.25572 40.2512 2.61807L40.9759 4.63984C41.0912 4.96376 41.2093 5.29729 41.3301 5.64042C41.4536 5.98082 41.5716 6.30748 41.6842 6.62042H40.9101C40.792 6.27729 40.6699 5.92454 40.5436 5.56219C40.4201 5.19709 40.3034 4.85395 40.1936 4.53278L39.123 1.41984H39.053L37.9742 4.50395C37.8561 4.83886 37.734 5.19023 37.6077 5.55807C37.4814 5.92317 37.3565 6.27729 37.233 6.62042H36.4795ZM37.5665 5.14631L37.6324 4.5616H40.6053L40.6589 5.14631H37.5665Z" fill="#DEDEDE"/>
<path d="M42.6842 6.62042C42.6842 6.29376 42.6842 5.97944 42.6842 5.67748C42.6842 5.37552 42.6842 5.04337 42.6842 4.68101V2.71278C42.6842 2.34219 42.6842 2.00454 42.6842 1.69984C42.6842 1.39239 42.6842 1.07533 42.6842 0.74866H46.2583V1.4116C45.9701 1.4116 45.6612 1.4116 45.3318 1.4116C45.0024 1.4116 44.614 1.4116 44.1665 1.4116H43.1083L43.4295 0.855719C43.4295 1.18513 43.4295 1.50356 43.4295 1.81101C43.4295 2.11572 43.4295 2.45199 43.4295 2.81984V4.68101C43.4295 5.04337 43.4295 5.37552 43.4295 5.67748C43.4295 5.97944 43.4295 6.29376 43.4295 6.62042H42.6842Z" fill="#DEDEDE"/>
<path d="M47.3407 6.62042C47.3407 6.29376 47.3407 5.97944 47.3407 5.67748C47.3407 5.37552 47.3407 5.04337 47.3407 4.68101V2.70866C47.3407 2.34356 47.3407 2.00729 47.3407 1.69984C47.3407 1.39239 47.3407 1.07533 47.3407 0.74866C47.563 0.74866 47.8499 0.74866 48.2012 0.74866C48.5554 0.74866 48.9603 0.74866 49.416 0.74866C49.8634 0.74866 50.2326 0.80768 50.5236 0.925719C50.8173 1.04376 51.0369 1.22768 51.1824 1.47748C51.3279 1.72454 51.4007 2.0416 51.4007 2.42866C51.4007 2.78827 51.3334 3.10807 51.1989 3.38807C51.0671 3.66533 50.8448 3.88356 50.5318 4.04278C50.2216 4.20199 49.7975 4.2816 49.2595 4.2816C49.1222 4.2816 48.9754 4.2816 48.8189 4.2816C48.6624 4.2816 48.5101 4.2816 48.3618 4.2816C48.2136 4.2816 48.0846 4.2816 47.9748 4.2816V3.66395H49.1195C49.4709 3.66395 49.7577 3.62278 49.9801 3.54042C50.2052 3.45807 50.3712 3.32631 50.4783 3.14513C50.5854 2.96395 50.6389 2.7265 50.6389 2.43278C50.6389 2.19121 50.5991 1.99905 50.5195 1.85631C50.4426 1.71356 50.3397 1.60788 50.2107 1.53925C50.0844 1.46788 49.9471 1.42121 49.7989 1.39925C49.6507 1.37729 49.5065 1.36631 49.3665 1.36631H47.7112L48.0736 0.855719C48.0736 1.18513 48.0736 1.50356 48.0736 1.81101C48.0736 2.11572 48.0736 2.45062 48.0736 2.81572V4.68101C48.0736 5.04337 48.0736 5.37552 48.0736 5.67748C48.0736 5.97944 48.0736 6.29376 48.0736 6.62042H47.3407Z" fill="#DEDEDE"/>
<path d="M53.2728 6.62042C53.3936 6.37337 53.5171 6.12082 53.6434 5.86278C53.7696 5.60474 53.9014 5.33297 54.0387 5.04748L52.6963 2.44101C52.5508 2.15827 52.4108 1.88788 52.2763 1.62984C52.1445 1.3718 51.9936 1.07807 51.8234 0.74866H52.6634C52.7869 1.00121 52.8967 1.22631 52.9928 1.42395C53.0916 1.6216 53.1822 1.8069 53.2645 1.97984C53.3496 2.15003 53.4334 2.32023 53.5157 2.49042C53.5981 2.65788 53.6873 2.84042 53.7834 3.03807L54.4092 4.30219H54.4792L55.0639 3.06278C55.16 2.8569 55.2492 2.66611 55.3316 2.49042C55.4139 2.31474 55.4949 2.1418 55.5745 1.9716C55.6569 1.79866 55.7447 1.61337 55.8381 1.41572C55.9314 1.21807 56.0357 0.995719 56.151 0.74866H56.9622C56.7892 1.10278 56.6081 1.47199 56.4187 1.85631C56.2292 2.24062 56.0563 2.59199 55.8998 2.91042L54.9857 4.76748C54.8485 5.05023 54.6989 5.35493 54.5369 5.6816C54.3749 6.00827 54.2212 6.32121 54.0757 6.62042H53.2728Z" fill="#DEDEDE"/>
<path d="M59.4727 6.71101C59.2833 6.71101 59.0966 6.69729 58.9127 6.66984C58.7288 6.64513 58.5531 6.61219 58.3857 6.57101C58.221 6.52709 58.0686 6.47905 57.9286 6.4269C57.7914 6.37199 57.6761 6.31846 57.5827 6.26631L57.6445 5.58689C57.7845 5.66101 57.9245 5.72827 58.0645 5.78866C58.2045 5.84905 58.3472 5.89984 58.4927 5.94101C58.6382 5.98219 58.7851 6.01376 58.9333 6.03572C59.0816 6.05768 59.2312 6.06866 59.3821 6.06866C59.728 6.06866 60.0012 6.02062 60.2015 5.92454C60.4019 5.82846 60.5447 5.69944 60.6298 5.53748C60.7176 5.37278 60.7615 5.18748 60.7615 4.9816C60.7615 4.5918 60.6284 4.32278 60.3621 4.17454C60.0986 4.02356 59.7157 3.94807 59.2133 3.94807C59.0843 3.94807 58.9663 3.94807 58.8592 3.94807C58.7549 3.94807 58.6492 3.94807 58.5421 3.94807V3.3469C58.6272 3.3469 58.7165 3.3469 58.8098 3.3469C58.9059 3.3469 59.017 3.3469 59.1433 3.3469C59.5002 3.3469 59.7843 3.29611 59.9957 3.19454C60.2098 3.09023 60.3649 2.95572 60.461 2.79101C60.5598 2.62631 60.6092 2.44925 60.6092 2.25984C60.6092 2.0265 60.5474 1.83846 60.4239 1.69572C60.3031 1.55023 60.1439 1.44592 59.9463 1.38278C59.7514 1.3169 59.54 1.28395 59.3121 1.28395C59.1831 1.28395 59.0527 1.29493 58.921 1.3169C58.7919 1.33611 58.6588 1.36905 58.5216 1.41572C58.3843 1.46239 58.2429 1.52415 58.0974 1.60101C57.9547 1.67788 57.8065 1.76984 57.6527 1.8769L57.558 1.18101C57.6623 1.11239 57.779 1.0465 57.908 0.983366C58.0398 0.917484 58.1839 0.859837 58.3404 0.810425C58.4968 0.758268 58.6629 0.717091 58.8386 0.686895C59.0143 0.656699 59.1982 0.641602 59.3904 0.641602C59.7857 0.641602 60.1315 0.700621 60.428 0.81866C60.7272 0.936699 60.9592 1.10552 61.1239 1.32513C61.2886 1.54474 61.371 1.80964 61.371 2.11984C61.371 2.48768 61.2694 2.79101 61.0663 3.02984C60.8659 3.26592 60.6174 3.42925 60.321 3.51984V3.58984C60.5159 3.62827 60.7053 3.69827 60.8892 3.79984C61.0759 3.90141 61.2296 4.05101 61.3504 4.24866C61.4712 4.44356 61.5315 4.70435 61.5315 5.03101C61.5315 5.32474 61.4657 5.59925 61.3339 5.85454C61.2049 6.10984 60.9894 6.31709 60.6874 6.47631C60.3882 6.63278 59.9833 6.71101 59.4727 6.71101Z" fill="#DEDEDE"/>
<path d="M62.6371 6.62042C62.6371 6.29376 62.6371 5.97944 62.6371 5.67748C62.6371 5.37552 62.6371 5.04337 62.6371 4.68101V2.71278C62.6371 2.34219 62.6371 2.00454 62.6371 1.69984C62.6371 1.39239 62.6371 1.07533 62.6371 0.74866H63.3659C63.3659 1.07807 63.3659 1.3965 63.3659 1.70395C63.3659 2.00866 63.3659 2.34493 63.3659 2.71278V5.34395H63.4277L64.7041 3.54042C65.0198 3.09572 65.341 2.64278 65.6677 2.1816C65.9943 1.71768 66.332 1.24003 66.6806 0.74866H67.323C67.323 1.07533 67.323 1.39239 67.323 1.69984C67.323 2.00454 67.323 2.34219 67.323 2.71278V4.68101C67.323 5.04337 67.323 5.37552 67.323 5.67748C67.323 5.97944 67.323 6.29376 67.323 6.62042H66.5941C66.5941 6.29376 66.5941 5.97944 66.5941 5.67748C66.5941 5.37278 66.5941 5.03925 66.5941 4.6769V2.02101H66.5324L65.2559 3.82042C64.8688 4.3667 64.5147 4.86631 64.1935 5.31925C63.8724 5.77219 63.5649 6.20591 63.2712 6.62042H62.6371Z" fill="#DEDEDE"/>
<path d="M70.3528 6.62042C70.3528 6.29376 70.3528 5.97944 70.3528 5.67748C70.3528 5.37552 70.3528 5.04337 70.3528 4.68101V2.81984C70.3528 2.45199 70.3528 2.11572 70.3528 1.81101C70.3528 1.50356 70.3528 1.18513 70.3528 0.855719L70.6492 1.4116H69.9534C69.6212 1.4116 69.3261 1.4116 69.0681 1.4116C68.8128 1.4116 68.5698 1.4116 68.3392 1.4116V0.74866H73.1075V1.4116C72.8769 1.4116 72.6339 1.4116 72.3787 1.4116C72.1234 1.4116 71.8283 1.4116 71.4934 1.4116H70.7975L71.0981 0.855719C71.0981 1.18513 71.0981 1.50356 71.0981 1.81101C71.0981 2.11572 71.0981 2.45199 71.0981 2.81984V4.68101C71.0981 5.04337 71.0981 5.37552 71.0981 5.67748C71.0981 5.97944 71.0981 6.29376 71.0981 6.62042H70.3528Z" fill="#DEDEDE"/>
<path d="M74.1214 6.62042C74.1214 6.29376 74.1214 5.97944 74.1214 5.67748C74.1214 5.37552 74.1214 5.04337 74.1214 4.68101V2.70866C74.1214 2.34356 74.1214 2.00729 74.1214 1.69984C74.1214 1.39239 74.1214 1.07533 74.1214 0.74866H77.7697V1.3869C77.4952 1.3869 77.2001 1.3869 76.8844 1.3869C76.5714 1.3869 76.2009 1.3869 75.7726 1.3869H74.4385L74.8503 0.855719C74.8503 1.18513 74.8503 1.50356 74.8503 1.81101C74.8503 2.11572 74.8503 2.45062 74.8503 2.81572V4.56984C74.8503 4.92944 74.8503 5.2616 74.8503 5.56631C74.8503 5.86827 74.8503 6.18258 74.8503 6.50925L74.4797 5.98219H75.8385C76.1981 5.98219 76.5371 5.98219 76.8556 5.98219C77.1767 5.98219 77.4842 5.98219 77.7779 5.98219V6.62042H74.1214ZM74.6897 3.95631V3.33454H75.8303C76.2091 3.33454 76.5358 3.33454 76.8103 3.33454C77.0848 3.33454 77.3497 3.33454 77.605 3.33454V3.95631C77.336 3.95631 77.0642 3.95631 76.7897 3.95631C76.5179 3.95631 76.1967 3.95631 75.8262 3.95631H74.6897Z" fill="#DEDEDE"/>
<path d="M82.4157 6.62042C82.1412 6.62042 81.8872 6.62042 81.6539 6.62042C81.4206 6.62042 81.2133 6.62042 81.0321 6.62042C80.851 6.62042 80.7027 6.62042 80.5874 6.62042C80.5874 6.29376 80.5874 5.97944 80.5874 5.67748C80.5874 5.37552 80.5874 5.04337 80.5874 4.68101V2.70866C80.5874 2.34356 80.5874 2.00729 80.5874 1.69984C80.5874 1.39239 80.5874 1.07533 80.5874 0.74866C80.8976 0.74866 81.2367 0.74866 81.6045 0.74866C81.9751 0.74866 82.3553 0.74866 82.7451 0.74866C83.0882 0.74866 83.3792 0.781601 83.618 0.847484C83.8596 0.910621 84.0559 1.00258 84.2069 1.12337C84.3578 1.24141 84.469 1.38552 84.5404 1.55572C84.6118 1.72592 84.6474 1.91807 84.6474 2.13219C84.6474 2.38199 84.6021 2.60023 84.5116 2.7869C84.421 2.97356 84.2974 3.12866 84.141 3.25219C83.9872 3.37572 83.8116 3.46768 83.6139 3.52807V3.60219C83.817 3.64062 84.0092 3.71199 84.1904 3.81631C84.3716 3.92062 84.5184 4.07023 84.631 4.26513C84.7435 4.45729 84.7998 4.70435 84.7998 5.00631C84.7998 5.2369 84.76 5.45101 84.6804 5.64866C84.6035 5.84356 84.4745 6.01376 84.2933 6.15925C84.1149 6.30474 83.872 6.41866 83.5645 6.50101C83.2598 6.58062 82.8769 6.62042 82.4157 6.62042ZM81.3163 6.00278H82.4733C82.8467 6.00278 83.1472 5.96023 83.3751 5.87513C83.6057 5.79003 83.7718 5.66925 83.8733 5.51278C83.9776 5.35631 84.0298 5.16964 84.0298 4.95278C84.0298 4.59317 83.9035 4.3365 83.651 4.18278C83.3984 4.02631 83.0443 3.94807 82.5886 3.94807H81.1516V3.35101H82.5886C82.8906 3.35101 83.1363 3.3016 83.3257 3.20278C83.5178 3.10395 83.6578 2.97493 83.7457 2.81572C83.8335 2.6565 83.8774 2.48219 83.8774 2.29278C83.8774 1.9716 83.7772 1.7369 83.5769 1.58866C83.3792 1.44043 83.0841 1.36631 82.6916 1.36631H81.3163C81.3163 1.60513 81.3163 1.84258 81.3163 2.07866C81.3163 2.31474 81.3163 2.57415 81.3163 2.8569V4.54101C81.3163 4.81827 81.3163 5.07219 81.3163 5.30278C81.3163 5.53337 81.3163 5.7667 81.3163 6.00278Z" fill="#DEDEDE"/>
<path d="M0.0650001 0.576172C0.0325001 0.676922 0 0.776589 0 0.909839V26.0746C0 26.3097 0.0660833 26.4429 0.199333 26.5762L12.5656 13.4754L0.0650001 0.576172ZM13.3997 14.3432L16.5967 17.6419L12.0326 20.2419C12.0326 20.2419 6.23133 23.5396 3.03225 25.3758L13.3997 14.3432ZM14.2675 13.4429L17.6973 17.0093C18.2347 16.7103 22.4326 14.3096 23.0317 13.9759C23.6643 13.6098 23.6004 13.1093 23.0631 12.8428C22.5658 12.5665 18.3679 10.1615 17.7331 9.77151L14.2632 13.4462L14.2675 13.4429ZM13.3976 12.5763L16.6302 9.14317L12.0163 6.50959C12.0163 6.50959 4.49475 2.20659 1.99225 0.770089L13.3997 12.5763H13.3976Z" fill="#DEDEDE"/>
</svg>
