<svg width="96" height="96" viewBox="0 0 96 96" fill="none" xmlns="http://www.w3.org/2000/svg">
<path fill-rule="evenodd" clip-rule="evenodd" d="M70.3398 34.4844C70.793 34.1348 71.1953 33.7236 71.5352 33.2646L91.2148 48.0068L71.4922 62.7764C70.7969 61.8232 69.8203 61.0781 68.6875 60.6533C68.0078 60.3994 67.2734 60.2598 66.5039 60.2598C64.7734 60.2598 63.2109 60.9541 62.082 62.0957C60.9531 63.2246 60.2617 64.7891 60.2617 66.5156C60.2617 68.5557 61.2383 70.3779 62.7617 71.5068L47.9922 91.2129L33.2109 71.4795C34.7188 70.3506 35.7109 68.542 35.7109 66.502C35.7109 64.7617 35.0195 63.2109 33.9023 62.082C33.1484 61.3203 32.2031 60.752 31.1406 60.458C30.6133 60.3115 30.0586 60.2334 29.4844 60.2334C27.418 60.2334 25.5938 61.2256 24.4648 62.749L4.80078 47.9795L24.4922 33.2373C25.0391 33.9639 25.7383 34.5664 26.5391 34.998C27.4219 35.4717 28.4297 35.7402 29.4961 35.7402C31.2266 35.7402 32.7891 35.0332 33.918 33.9043C35.0469 32.7754 35.7383 31.2109 35.7383 29.4844C35.7383 27.4307 34.7617 25.6084 33.2383 24.4795L48.0195 4.78711L62.7773 24.5342C61.2656 25.6621 60.2891 27.4717 60.2891 29.5117C60.2891 31.252 60.9805 32.8027 62.0977 33.9316C63.2266 35.0732 64.7891 35.7803 66.5156 35.7803C67.9648 35.7803 69.2852 35.2959 70.3398 34.4844ZM53.4062 48.5098L53.4219 48.0195C53.4219 46.6738 52.9453 45.4766 52.1445 44.5254L51.8008 44.1982L51.4883 43.8721C51.1094 43.5596 50.6875 43.2871 50.2539 43.0967C49.8711 42.915 49.4648 42.7793 49.0391 42.6953C48.6992 42.6279 48.3516 42.5938 47.9961 42.5938C47.1914 42.5938 46.4297 42.7705 45.75 43.0967C45.3008 43.2871 44.8789 43.5596 44.5117 43.8721C44.3906 43.9805 44.2695 44.0762 44.1719 44.1846C44.0625 44.3076 43.9414 44.416 43.8477 44.5381C43.0586 45.4766 42.582 46.6875 42.582 48.0195L42.5938 48.4961C42.6758 49.3115 42.9102 50.0459 43.3047 50.6992C43.4648 50.9844 43.6445 51.2432 43.8594 51.4883L44.1875 51.8281L44.5117 52.1543C44.6211 52.249 44.7461 52.3311 44.8398 52.4268C45.7383 53.0518 46.8242 53.4326 48.0078 53.4326C49.1641 53.4326 50.2383 53.0654 51.1211 52.4395L51.4883 52.1543C51.6133 52.0596 51.7344 51.9365 51.8281 51.8418C51.9375 51.7324 52.0625 51.6104 52.1445 51.4883C52.3477 51.2432 52.5352 50.9844 52.6875 50.7266C53.082 50.0596 53.3242 49.3115 53.4062 48.5098Z" fill="#1E1E1E"/>
<path d="M63.2122 24.2211C63.0626 24.3027 62.913 24.4115 62.777 24.5203C61.2675 25.6491 60.2883 27.4578 60.2883 29.4978V29.5114C60.2883 31.2385 60.9819 32.7889 62.0971 33.9177L57.3236 38.7047L52.6045 43.4238L51.8157 44.199L51.5029 43.8726C51.1221 43.5598 50.7005 43.2878 50.2654 43.0974C49.5854 42.771 48.8102 42.5942 48.0078 42.5942L48.0214 29.5114V4.80078L59.1459 17.7477L63.2122 24.2211Z" fill="#070707"/>
<path d="M91.2146 48.0205L79.5189 58.3562L71.7943 63.2113C71.7127 63.0617 71.6175 62.9257 71.4951 62.7897C70.3799 61.2666 68.5576 60.2738 66.504 60.2738C64.7769 60.2738 63.2129 60.9674 62.0842 62.1098L57.2971 57.3227L52.578 52.6036L51.8164 51.8556C51.9252 51.7468 52.0476 51.6244 52.1292 51.502C52.3332 51.2572 52.5236 50.9988 52.6732 50.7404C53.0676 50.0741 53.3124 49.3261 53.394 48.5237C53.394 48.3605 53.4076 48.1973 53.4076 48.0341V48.0205L66.4904 48.0341L91.2146 48.0205Z" fill="#070707"/>
<path d="M47.9935 91.2127L39.6161 82.6721L32.7891 71.7788C32.9387 71.6972 33.0747 71.602 33.2107 71.4932C34.7202 70.3644 35.713 68.5556 35.713 66.5157V66.5021C35.713 64.7749 35.0194 63.2246 33.9042 62.0958L38.6777 57.3087L43.3968 52.576L44.172 51.8145L44.4984 52.1408C44.6072 52.236 44.7296 52.3176 44.8248 52.4128C45.7223 53.0384 46.8103 53.4192 47.9935 53.4192L47.9799 66.5021L47.9935 91.2127Z" fill="#070707"/>
<path d="M44.1718 44.1721C44.063 44.2945 43.9406 44.4033 43.8454 44.5257C43.0566 45.4641 42.5806 46.6745 42.5806 47.9936L29.4842 47.98H4.80078L15.9797 37.9843L24.2075 32.8164C24.2891 32.966 24.3979 33.102 24.4931 33.238C25.6355 34.7612 27.4578 35.7403 29.4978 35.7403C31.2249 35.7403 32.7889 35.0332 33.9177 33.9044L38.7047 38.6779L43.4238 43.4105L44.1718 44.1721Z" fill="#070707"/>
<path d="M60.9532 45.6817C60.4772 42.9754 59.1717 40.5682 57.3221 38.7051C57.0637 38.4467 56.8053 38.2019 56.5197 37.9707C54.2214 36.0123 51.2567 34.8428 48.0063 34.8428C44.7696 34.8428 41.8049 36.0123 39.5066 37.9571C39.221 38.1883 38.9626 38.4331 38.7042 38.6915C36.8546 40.541 35.5491 42.9346 35.0731 45.6137C34.9235 46.3753 34.8555 47.1777 34.8555 47.9936C34.8555 50.3736 35.4811 52.6039 36.5962 54.5351C37.181 55.5551 37.8882 56.4934 38.7042 57.3094C40.0505 58.6558 41.6961 59.7166 43.5185 60.3829C44.9192 60.8997 46.4288 61.1717 48.0063 61.1717C49.5567 61.1717 51.0527 60.8997 52.4262 60.4101C54.2894 59.7437 55.9485 58.683 57.3085 57.3094C58.1109 56.4934 58.8045 55.5959 59.3893 54.6031C60.5316 52.6583 61.1708 50.4144 61.1708 48.0072C61.1572 47.2049 61.0892 46.4297 60.9532 45.6817ZM51.8278 51.8287C51.719 51.9375 51.6102 52.0463 51.4743 52.1415C51.3519 52.2503 51.2295 52.3455 51.1207 52.4271C50.2367 53.0527 49.1623 53.4199 47.9927 53.4063C46.8232 53.4063 45.7216 53.0391 44.8376 52.3999C44.7288 52.3047 44.62 52.2231 44.5112 52.1279L44.1848 51.8015L43.8448 51.4616C43.6409 51.2168 43.4505 50.9448 43.2873 50.6728C42.9065 50.02 42.6617 49.2856 42.5937 48.4832V48.4696C42.5801 48.32 42.5665 48.1568 42.5665 47.9936V47.98C42.5665 46.6609 43.0425 45.4505 43.8448 44.5121C43.94 44.3897 44.0488 44.2809 44.1576 44.1585C44.2664 44.0361 44.3752 43.9545 44.5112 43.8457C44.8784 43.533 45.3 43.261 45.7488 43.0706C46.4288 42.7442 47.204 42.5674 48.0063 42.5674C48.8087 42.5674 49.5703 42.7442 50.2639 43.0706C50.6991 43.2746 51.1207 43.533 51.4879 43.8457L51.8142 44.1721L52.1542 44.5121C52.9566 45.4505 53.4326 46.6609 53.4326 47.98V47.9936C53.4326 48.1704 53.419 48.3336 53.4054 48.4968C53.3374 49.2992 53.079 50.0472 52.6846 50.7C52.535 50.972 52.3446 51.2168 52.1542 51.4616C52.059 51.6112 51.9366 51.7199 51.8278 51.8287Z" fill="#1E1E1E"/>
<path d="M52.5878 43.4235C52.1526 43.0019 51.6766 42.6347 51.1598 42.3491C50.235 41.8323 49.1471 41.5195 48.0047 41.5195C46.8487 41.5195 45.7743 41.8187 44.8496 42.3491C44.3328 42.6347 43.8568 43.0155 43.4216 43.4235C42.252 44.5795 41.5312 46.2114 41.5312 47.993V48.0746C41.5448 49.2305 41.8576 50.2913 42.388 51.2161C42.66 51.7193 43.0136 52.1681 43.4216 52.5761C43.7888 52.9433 44.2104 53.2696 44.6592 53.5552C45.6383 54.1536 46.7807 54.48 48.0047 54.48C49.2151 54.48 50.3574 54.1536 51.3094 53.5688C51.7718 53.2968 52.207 52.9705 52.5878 52.5761C52.9822 52.1817 53.3358 51.7329 53.6077 51.2433C54.1517 50.3321 54.4509 49.2441 54.4781 48.1018V47.9794C54.4781 46.2114 53.7573 44.5795 52.5878 43.4235ZM53.4174 48.0066C53.4174 48.1834 53.4038 48.3466 53.3902 48.5098C53.3222 49.3121 53.0638 50.0601 52.6694 50.7129C52.5198 50.9849 52.3294 51.2297 52.139 51.4745C52.0438 51.5969 51.935 51.7193 51.8262 51.8281C51.7174 51.9369 51.6086 52.0457 51.4726 52.1409C51.3502 52.2497 51.2278 52.3449 51.119 52.4265C50.235 53.052 49.1607 53.4192 47.9911 53.4056C46.8215 53.4056 45.7199 53.0384 44.836 52.3993C44.7272 52.3041 44.6184 52.2225 44.5096 52.1273L44.1832 51.8009L43.8432 51.4609C43.6392 51.2161 43.4488 50.9441 43.2856 50.6721C42.9048 50.0193 42.66 49.2849 42.592 48.4826V48.469C42.5784 48.3194 42.5648 48.1562 42.5648 47.993V47.9794C42.5648 46.6602 43.0408 45.4498 43.8432 44.5115C43.9384 44.3891 44.0472 44.2803 44.156 44.1579C44.2648 44.0355 44.3736 43.9539 44.5096 43.8451C44.8768 43.5323 45.2984 43.2603 45.7471 43.0699C46.4271 42.7435 47.2023 42.5667 48.0047 42.5667C48.8071 42.5667 49.5686 42.7435 50.2622 43.0699C50.6974 43.2739 51.119 43.5323 51.4862 43.8451L51.8126 44.1715L52.1526 44.5115C52.9414 45.4634 53.4174 46.6738 53.4174 48.0066Z" fill="url(#paint0_linear)"/>
<path d="M56.0602 58.4157C61.8112 53.9676 62.8674 45.6996 58.4193 39.9486C53.9712 34.1976 45.7032 33.1414 39.9522 37.5895C34.2012 42.0376 33.145 50.3057 37.5931 56.0567C42.0412 61.8076 50.3092 62.8638 56.0602 58.4157Z" stroke="url(#paint1_linear)" stroke-miterlimit="10"/>
<path d="M47.9799 96.0002V91.2131L32.7891 71.7656L47.9799 96.0002Z" fill="#939393"/>
<path d="M96.0004 48.0205H91.2133L71.793 63.2113L96.0004 48.0205Z" fill="#939393"/>
<path d="M0 47.98H4.78708L24.2074 32.8164L0 47.98Z" fill="#939393"/>
<path d="M48.0195 0V4.78708L63.2103 24.221L48.0195 0Z" fill="#939393"/>
<path d="M4.80068 47.9795H0L24.1666 63.1703L4.80068 47.9795Z" fill="white"/>
<path d="M47.9805 91.2133V96.0004L63.1985 71.793L47.9805 91.2133Z" fill="white"/>
<path d="M71.8203 32.8438L91.2134 48.0074L96.0005 48.021L71.8203 32.8438Z" fill="white"/>
<path d="M48.0208 0V4.78708L32.8164 24.1938L48.0208 0Z" fill="white"/>
<defs>
<linearGradient id="paint0_linear" x1="44.223" y1="43.1933" x2="51.7497" y2="52.7768" gradientUnits="userSpaceOnUse">
<stop stop-color="white"/>
<stop offset="1" stop-color="#252525"/>
</linearGradient>
<linearGradient id="paint1_linear" x1="34.6997" y1="44.1794" x2="61.2996" y2="51.8275" gradientUnits="userSpaceOnUse">
<stop stop-color="white"/>
<stop offset="1" stop-color="#252525"/>
</linearGradient>
</defs>
</svg>
