<svg width="84" height="96" viewBox="0 0 84 96" fill="none" xmlns="http://www.w3.org/2000/svg">
<path d="M49.0812 33.1633C47.9142 32.7327 46.5772 32.8233 45.4215 33.4918C43.4614 34.6362 42.7136 37.0608 43.62 39.0662L41.5806 41.2643L39.4959 39.0662C39.7112 38.5451 39.8358 37.9786 39.8358 37.3781C39.8245 34.9534 37.8643 32.9933 35.4397 32.9933C34.9412 32.9933 34.4653 33.0726 34.0234 33.2312L41.456 0L49.0812 33.0953V33.1293V33.1633Z" fill="white"/>
<path d="M49.0812 33.1633C47.9142 32.7327 46.5772 32.8234 45.4215 33.4918C43.4614 34.6362 42.7136 37.0608 43.62 39.0662L41.5806 41.2643L39.4959 39.0662C39.7112 38.5451 39.8358 37.9786 39.8358 37.3781C39.8245 34.9534 37.8643 32.9933 35.4397 32.9933C34.9412 32.9933 34.4653 33.0726 34.0234 33.2312L41.4673 7.77246L49.0698 33.1293L49.0812 33.1633Z" fill="#1E1E1E"/>
<path d="M41.4531 0L49.067 33.0953L41.4758 7.77246L41.4531 0Z" fill="#939393"/>
<path d="M49.0703 33.1297V33.0957L49.0816 33.1637L49.0703 33.1297Z" fill="#939393"/>
<path d="M83.0305 23.8037L58.1269 47.0304H58.1042C57.889 45.8181 57.1412 44.7191 55.9968 44.062C54.048 42.9629 51.6121 43.4955 50.3091 45.2516L47.3633 44.5831L48.247 41.6373C48.7909 41.558 49.3234 41.3881 49.8332 41.0935C51.9293 39.8698 52.6431 37.1846 51.4195 35.0998C51.1815 34.6806 50.8756 34.3181 50.5357 34.0235L83.0305 23.8037Z" fill="white"/>
<path d="M76.3231 27.7236L58.1269 47.0302H58.1042C57.889 45.8178 57.1412 44.7188 55.9968 44.0617C54.048 42.9626 51.6121 43.4952 50.3091 45.2513L47.3633 44.5828L48.247 41.637C48.7909 41.5577 49.3234 41.3878 49.8332 41.0932C51.9293 39.8695 52.6431 37.1843 51.4195 35.0995C51.1815 34.6803 50.8756 34.3178 50.5357 34.0232L76.3231 27.7236Z" fill="#1E1E1E"/>
<path d="M83.0286 23.8145L76.3098 27.7233L58.125 47.0299L83.0286 23.8145Z" fill="#939393"/>
<path d="M50.6459 61.7609C51.5636 60.9678 52.1415 59.7781 52.1301 58.4638C52.1188 56.2205 50.4419 54.3737 48.2779 54.1244L47.3828 51.2352L50.34 50.5327C50.6799 50.9859 51.1104 51.3712 51.6316 51.6771C53.7277 52.8781 56.4129 52.1529 57.6252 50.0455C57.8745 49.615 58.0331 49.1618 58.1124 48.6973H58.1351L83.1973 71.7201L50.6459 61.7609Z" fill="white"/>
<path d="M50.6459 61.7609C51.5636 60.9678 52.1415 59.7781 52.1301 58.4638C52.1188 56.2205 50.4419 54.3737 48.2779 54.1244L47.3828 51.2352L50.34 50.5327C50.6799 50.9859 51.1104 51.3712 51.6316 51.6771C53.7277 52.8781 56.4129 52.1529 57.6252 50.0455C57.8745 49.615 58.0331 49.1618 58.1124 48.6973H58.1351L76.4559 67.8678L50.6459 61.7609Z" fill="#1E1E1E"/>
<path d="M83.2073 71.7203L76.4659 67.8681L50.6445 61.7725L83.2073 71.7203Z" fill="#939393"/>
<path d="M49.2058 62.6102L41.7279 95.9434L34.1367 62.6669C35.3037 63.0747 36.6293 62.9841 37.785 62.3156C39.7338 61.1826 40.4703 58.7806 39.5978 56.7865L41.6373 54.5771L43.7107 56.7639C43.4841 57.2964 43.3594 57.8742 43.3594 58.4747C43.3708 60.8994 45.3422 62.8481 47.7669 62.8481C48.2767 62.8481 48.7526 62.7575 49.2058 62.6102Z" fill="white"/>
<path d="M49.2058 62.6102L41.7052 88.0803L34.1367 62.6669C35.3037 63.0747 36.6293 62.9841 37.785 62.3156C39.7338 61.1826 40.4703 58.7806 39.5978 56.7865L41.6373 54.5771L43.7107 56.7639C43.4841 57.2964 43.3594 57.8742 43.3594 58.4747C43.3708 60.8994 45.3422 62.8481 47.7669 62.8481C48.2767 62.8481 48.7526 62.7575 49.2058 62.6102Z" fill="#1E1E1E"/>
<path d="M41.7166 95.9992L41.6939 88.0795L34.1367 62.666L41.7166 95.9992Z" fill="#939393"/>
<path d="M35.8594 51.268L34.9983 54.1685C34.4431 54.2478 33.888 54.4291 33.3668 54.7237C31.2707 55.9473 30.5682 58.6326 31.7919 60.7173C32.0411 61.1479 32.3471 61.5104 32.6983 61.805V61.8277L0.214844 72.0701L25.0958 48.832H25.1071C25.3224 50.0444 26.0702 51.1547 27.2258 51.8005C29.1746 52.9109 31.6219 52.367 32.9136 50.6109L35.8594 51.268Z" fill="white"/>
<path d="M35.8629 51.2686L35.0018 54.1691C34.4466 54.2484 33.8915 54.4297 33.3703 54.7243C31.2742 55.9479 30.5717 58.6332 31.7954 60.7179C32.0446 61.1485 32.3506 61.511 32.7018 61.8056V61.8283L6.92578 68.1505L25.0993 48.8213H25.1106C25.3259 50.0336 26.0737 51.144 27.2294 51.7898C29.1781 52.9001 31.6254 52.3563 32.9171 50.6001L35.8629 51.2686Z" fill="#1E1E1E"/>
<path d="M0.214844 72.0594L6.92227 68.1505L25.1071 48.8213L0.214844 72.0594Z" fill="#939393"/>
<path d="M35.8372 44.6184L32.9027 45.3209C32.5514 44.8677 32.1096 44.4712 31.5884 44.1766C29.4923 42.9756 26.8071 43.7007 25.6061 45.8194C25.3568 46.25 25.1982 46.6919 25.1075 47.1564H25.0962L0 24.1562L32.5741 34.0928C31.6563 34.8859 31.0785 36.0755 31.0785 37.4012C31.0898 39.6445 32.778 41.5027 34.9534 41.7406L35.8372 44.6184Z" fill="white"/>
<path d="M35.8379 44.6187L32.9034 45.3212C32.5522 44.868 32.1103 44.4715 31.5891 44.1769C29.4931 42.9759 26.8078 43.701 25.6068 45.8197C25.3576 46.2503 25.1989 46.6922 25.1083 47.1567H25.097L6.74219 28.0088L32.5749 34.0817C31.6571 34.8748 31.0793 36.0645 31.0793 37.3901C31.0906 39.6335 32.7788 41.4916 34.9542 41.7296L35.8379 44.6187Z" fill="#1E1E1E"/>
<path d="M0 24.1562L6.74142 28.0085L32.5741 34.0814L0 24.1562Z" fill="#939393"/>
<path d="M49.0826 33.1633C47.9156 32.7327 46.5786 32.8234 45.423 33.4918C43.4629 34.6362 42.7151 37.0608 43.6215 39.0662L41.5821 41.2643L41.4688 7.77246L49.0713 33.0953V33.1293L49.0826 33.1633Z" fill="#070707"/>
<path d="M76.3192 27.7246L58.123 47.0311H58.1003C57.8851 45.8188 57.1373 44.7198 55.9929 44.0626C54.0441 42.9636 51.6082 43.4961 50.3052 45.2523L47.3594 44.5838L76.3192 27.7246Z" fill="#070707"/>
<path d="M50.6459 61.7601C51.5636 60.9669 52.1415 59.7773 52.1301 58.463C52.1188 56.2196 50.4419 54.3728 48.2779 54.1236L47.3828 51.2344L76.4559 67.867L50.6459 61.7601Z" fill="#070707"/>
<path d="M41.6373 54.5771L41.7052 88.0803L34.1367 62.6669C35.3037 63.0747 36.6293 62.9841 37.785 62.3156C39.7338 61.1826 40.4703 58.7806 39.5978 56.7865L41.6373 54.5771Z" fill="#070707"/>
<path d="M35.859 51.2686L6.92188 68.1505L25.0954 48.8213H25.1067C25.322 50.0336 26.0698 51.144 27.2254 51.7898C29.1742 52.9001 31.6215 52.3563 32.9132 50.6001L35.859 51.2686Z" fill="#070707"/>
<path d="M35.8379 44.6178L6.74219 28.0078L32.5749 34.0808C31.6571 34.8739 31.0793 36.0635 31.0793 37.3892C31.0906 39.6325 32.7788 41.4907 34.9542 41.7286L35.8379 44.6178Z" fill="#070707"/>
<path d="M52.3909 45.9209C52.119 44.414 51.5412 43.0091 50.7141 41.7854C50.1476 40.9357 49.4564 40.1652 48.6747 39.5081C47.383 38.4204 45.8308 37.6159 44.1426 37.2307C43.3155 37.0268 42.4544 36.9248 41.582 36.9248C39.3386 36.9361 37.2539 37.6159 35.5091 38.8056C35.1578 39.0322 34.8293 39.2815 34.5007 39.5534C32.7558 41.0376 31.4869 43.0544 30.943 45.3657C30.909 45.547 30.8637 45.7396 30.8297 45.9322C30.7051 46.5667 30.6484 47.2352 30.6484 47.915C30.6598 49.8978 31.181 51.7559 32.1214 53.3535C32.246 53.5801 32.3706 53.784 32.5292 53.988C33.7982 55.9141 35.6903 57.3983 37.8997 58.2028C38.2849 58.3387 38.6702 58.4634 39.078 58.554C39.9051 58.7466 40.7662 58.8486 41.6387 58.8486C42.9303 58.8486 44.1766 58.622 45.3209 58.2028C46.1707 57.8969 46.9751 57.489 47.7116 56.9904C49.1052 56.0614 50.2722 54.8037 51.1106 53.3535C51.6431 52.4471 52.0284 51.4613 52.2663 50.4303C52.4702 49.6032 52.5722 48.7421 52.5722 47.8584C52.5722 47.1899 52.5156 46.5441 52.3909 45.9209ZM45.5249 50.1357C45.4003 50.3623 45.2416 50.5776 45.083 50.7702C44.9244 50.9742 44.7318 51.1554 44.5278 51.3254C44.4259 51.416 44.3239 51.4953 44.2332 51.5633C44.1653 51.6086 44.0973 51.6653 44.0293 51.6993C43.3382 52.1412 42.5111 52.3904 41.6273 52.3904C41.1628 52.3904 40.7322 52.3224 40.313 52.1865H40.3017C39.8258 52.0505 39.3953 51.8352 38.9987 51.552C38.9081 51.4727 38.8175 51.4047 38.7268 51.3254L38.1716 50.7702C38.0357 50.6116 37.9224 50.453 37.8091 50.283C37.7751 50.2377 37.7298 50.181 37.7071 50.1244C37.3899 49.5805 37.1859 48.9687 37.1179 48.3002V48.2889C37.1066 48.1643 37.0953 48.0283 37.0953 47.8924C37.0953 47.4278 37.1633 46.9859 37.2992 46.5667C37.4692 45.9776 37.7751 45.4451 38.1603 44.9918C38.3189 44.7879 38.5115 44.6066 38.7155 44.4367C38.8741 44.3007 39.0441 44.1874 39.214 44.0741C39.3726 43.9608 39.5539 43.8588 39.7352 43.7795C40.3017 43.5076 40.9475 43.3603 41.616 43.3603C42.0805 43.3603 42.5224 43.4283 42.9416 43.5643C43.1342 43.6209 43.3155 43.6889 43.4968 43.7795C43.8594 43.9381 44.2106 44.1647 44.5278 44.4253L45.083 44.9805C45.219 45.1391 45.3436 45.3091 45.4569 45.479C45.8988 46.1702 46.1594 46.9973 46.1594 47.881C46.1594 48.0283 46.148 48.1643 46.1367 48.3002C46.114 48.6175 46.0461 48.9234 45.9554 49.2067C45.8421 49.5352 45.6948 49.8525 45.5249 50.1357Z" fill="#1E1E1E"/>
<path d="M45.5247 50.1361C45.4001 50.3627 45.2414 50.578 45.0828 50.7706C44.9242 50.9745 44.7316 51.1558 44.5276 51.3258C44.4257 51.4164 44.3237 51.4957 44.2331 51.5637C44.1651 51.609 44.0971 51.6657 44.0291 51.6997C43.338 52.1415 42.5109 52.3908 41.6271 52.3908C41.1626 52.3908 40.732 52.3228 40.3128 52.1869H40.3015C39.8256 52.0509 39.3951 51.8356 38.9985 51.5524C38.9079 51.4731 38.8173 51.4051 38.7266 51.3258L38.1714 50.7706C38.0355 50.612 37.9222 50.4534 37.8089 50.2834C37.7749 50.2381 37.7296 50.1814 37.7069 50.1248C37.3897 49.5809 37.1857 48.9691 37.1177 48.3006V48.2893C37.1064 48.1647 37.0951 48.0287 37.0951 47.8927C37.0951 47.4282 37.1631 46.9863 37.299 46.5671C37.469 45.978 37.7749 45.4454 38.1601 44.9922C38.3187 44.7883 38.5113 44.607 38.7153 44.4371C38.8739 44.3011 39.0439 44.1878 39.2138 44.0745C39.3724 43.9612 39.5537 43.8592 39.735 43.7799C40.3015 43.508 40.9473 43.3607 41.6158 43.3607C42.0803 43.3607 42.5222 43.4287 42.9414 43.5646C43.134 43.6213 43.3153 43.6893 43.4966 43.7799C43.8592 43.9385 44.2104 44.1651 44.5276 44.4257L45.0828 44.9809C45.2188 45.1395 45.3434 45.3095 45.4567 45.4794C45.8986 46.1706 46.1592 46.9977 46.1592 47.8814C46.1592 48.0287 46.1478 48.1647 46.1365 48.3006C46.1139 48.6179 46.0459 48.9238 45.9552 49.207C45.8419 49.5356 45.6946 49.8529 45.5247 50.1361ZM46.1592 45.0036C45.6833 44.2445 45.0262 43.61 44.2331 43.1681C43.8931 42.9755 43.5306 42.8169 43.134 42.7149C42.6468 42.5563 42.1256 42.4883 41.5931 42.4883C40.6301 42.4883 39.735 42.7489 38.9645 43.1794C38.8739 43.2247 38.8059 43.2814 38.7153 43.3494C37.6276 44.0178 36.8005 45.0942 36.4379 46.3745C36.2906 46.8617 36.2227 47.3829 36.2227 47.9154V47.9721C36.234 48.9351 36.4946 49.8189 36.9478 50.5893C36.9818 50.6573 37.0271 50.7253 37.0837 50.7933C37.5256 51.5071 38.1374 52.0962 38.8512 52.5268C39.2365 52.7534 39.6557 52.946 40.0976 53.0706C40.5961 53.2179 41.1059 53.2859 41.6385 53.2859C42.6468 53.2859 43.5872 53.014 44.3917 52.5154C44.437 52.4814 44.4823 52.4701 44.5163 52.4248C45.2528 51.9716 45.8646 51.3258 46.2951 50.5667C46.5104 50.2041 46.6804 49.8189 46.7937 49.3997C46.9296 48.9351 47.0089 48.4479 47.0089 47.9494V47.8588C47.0089 46.8164 46.703 45.8307 46.1592 45.0036Z" fill="#939393"/>
<path d="M41.6491 59.3921C41.3772 59.3921 41.0939 59.3808 40.8107 59.3581C34.4771 58.9049 29.6958 53.3871 30.1377 47.0536C30.353 43.9831 31.7579 41.1846 34.0806 39.1678C36.4032 37.1511 39.3831 36.1654 42.4422 36.3806C45.5127 36.5959 48.3112 38.0008 50.328 40.3235C52.3447 42.6462 53.3304 45.6147 53.1152 48.6851C52.8999 51.7556 51.495 54.5541 49.1723 56.5709C47.0649 58.4064 44.4136 59.3921 41.6491 59.3921ZM41.6151 37.491C39.1225 37.491 36.7318 38.3747 34.8284 40.0289C32.7323 41.8417 31.4746 44.3684 31.2707 47.1329C30.8628 52.8433 35.1796 57.8172 40.89 58.2251C43.6545 58.4177 46.3284 57.534 48.4245 55.7098C50.5206 53.897 51.7782 51.3704 51.9822 48.6058C52.1748 45.8413 51.291 43.156 49.4669 41.0713C47.6541 38.9752 45.1274 37.7176 42.3629 37.5136C42.1136 37.5023 41.8644 37.491 41.6151 37.491Z" fill="white"/>
</svg>
