<svg width="137" height="55" viewBox="0 0 137 55" fill="none" xmlns="http://www.w3.org/2000/svg">
<path fill-rule="evenodd" clip-rule="evenodd" d="M12.4031 36.2652C12.4031 36.2652 13.3659 36.0298 14.4892 35.634C15.6124 35.2382 16.0082 35.0777 18.2976 34.8852C20.5869 34.6926 20.1483 34.1363 20.1804 33.4624C20.2232 32.7884 20.1376 31.494 19.7418 31.173C19.3352 30.8521 18.0515 32.2 16.8534 32.7884C15.6445 33.3768 11.9645 33.7298 11.9645 33.7298L12.4031 36.2652ZM2.27234 38.1159C2.27234 38.1159 0.624885 34.2219 0.261162 31.954C-0.113259 29.6754 -0.562564 28.9479 2.64676 27.3967C5.85608 25.8563 10.4882 24.6046 13.3231 23.8023C16.158 23 20.3408 22.5507 21.539 23.3637C22.7371 24.1767 23.7748 24.979 24.9729 25.7921C26.1711 26.6051 29.5302 28.9479 29.9046 31.3014C30.279 33.6549 28.7813 37.6131 27.3692 38.7149C25.9464 39.8168 22.9618 40.4052 21.9134 40.694C20.865 40.9829 19.8166 41.9457 18.1799 42.0099C16.5431 42.0847 14.2966 42.0847 14.8957 43.9889C15.4948 45.9038 16.9069 48.0969 17.1315 49.1987C17.3562 50.3006 17.0566 52.5792 15.7087 52.8681C14.3608 53.1569 13.3873 53.2318 11.6008 53.7453C9.81425 54.2588 8.09191 55.2109 6.74399 53.6704C5.39608 52.1299 3.98398 49.5625 3.60956 45.8931C3.23513 42.2238 3.01048 41.0471 2.63606 39.5815L2.27234 38.1159Z" fill="#0D0A06"/>
<path fill-rule="evenodd" clip-rule="evenodd" d="M11.6435 38.1595C11.6435 38.1595 11.5579 36.9399 11.5579 35.3567C11.5579 33.7841 10.8412 32.4362 10.8412 32.4362C10.8412 32.4362 11.7612 32.8748 13.1305 32.7464C14.4891 32.6287 16.7035 31.8371 17.4631 30.9278C18.2226 30.0185 18.2654 27.9324 18.2654 27.9324C18.2654 27.9324 18.2654 29.3873 18.4259 29.8259C18.5863 30.2645 18.9073 30.1469 19.7524 30.3394C20.5975 30.532 20.5975 30.7352 20.8757 31.5269C21.1538 32.3185 21.357 33.6985 20.9612 34.6399C20.5547 35.5813 17.3561 35.7418 14.6282 36.3729C11.8788 37.0148 11.6435 38.1595 11.6435 38.1595ZM4.9574 35.7739L3.23507 37.7529C3.23507 37.7529 3.68437 40.6199 4.43321 44.2144C5.18206 47.8088 5.55648 50.9647 6.74393 52.2912C7.94207 53.6177 7.19323 53.9814 9.95325 53.4679C12.7133 52.9544 14.0612 52.0772 14.0612 52.0772C14.0612 52.0772 16.8961 52.6656 16.4468 50.387C15.9975 48.1084 15.1737 47.8195 14.4249 46.1293C13.6761 44.439 13.077 42.46 14.0505 42.0962C15.024 41.7325 16.5324 40.9088 18.3082 41.219C20.084 41.5293 20.4691 40.1171 21.7422 39.8283C23.0152 39.5395 25.4329 40.0102 27.5724 37.0362C29.7013 34.0622 29.3697 30.7994 27.4976 28.9594C25.6361 27.1194 21.678 23.8887 19.3566 23.8887C17.0352 23.8887 15.1738 24.4022 12.7882 24.9157C10.3919 25.4291 7.18253 26.4561 4.94671 27.4082C2.71088 28.3603 0.46435 28.8738 0.988539 30.9278C1.51273 32.9818 1.96203 34.7469 2.18669 35.8487C2.41134 36.9506 2.5825 37.1646 3.25646 36.7581C3.95181 36.3408 4.9574 35.7739 4.9574 35.7739Z" fill="#FCC500"/>
<path fill-rule="evenodd" clip-rule="evenodd" d="M35.874 21.2995C35.874 21.2995 37.3717 20.6791 38.0777 20.6042C38.7838 20.5293 39.4898 20.754 40.2815 20.8395C41.0731 20.9144 40.9126 21.3851 42.0145 20.7647C43.1164 20.1442 44.5285 19.7591 44.6141 20.3795C44.6889 21 44.0685 25.8675 44.0685 28.0391C44.0685 30.2108 44.1434 35.6987 44.2289 37.1643C44.3038 38.6406 44.7852 39.9457 44.7852 39.9457C44.7852 39.9457 45.7266 39.8708 46.0476 41.0262C46.3578 42.1815 46.5931 43.0374 47.2243 43.5829C47.8555 44.1285 48.1657 45.1341 45.4913 46.0541C42.8168 46.9848 38.9656 48.3755 37.7782 48.6109C36.6014 48.8462 35.414 48.1509 35.2642 46.8351C35.1038 45.5192 34.3228 40.7267 34.1624 36.8541C34.0019 32.9815 32.9 28.9591 32.6647 26.2526C32.4293 23.5461 32.0335 21.5349 33.2958 21.5349C34.5368 21.5242 35.874 21.2995 35.874 21.2995Z" fill="#0D0A06"/>
<path fill-rule="evenodd" clip-rule="evenodd" d="M38.987 21.524C37.5535 21.524 36.7726 22.1658 35.6386 22.2514C34.5047 22.337 33.2958 21.7807 33.467 23.2784C33.6381 24.7761 34.6009 28.2315 34.6437 31.0557C34.6865 33.8799 34.7721 35.4524 34.7721 36.3083C34.7721 37.1641 34.9433 37.6348 35.2 37.592C35.4674 37.5492 36.2484 37.6348 36.2484 37.6348C36.2484 37.6348 35.3391 37.9343 35.3391 38.5334C35.3391 39.1325 35.8633 43.1441 36.0772 45.1553C36.2912 47.1665 36.2484 48.1828 38.4628 47.6372C40.6772 47.0809 43.3731 45.9255 44.721 45.3692C46.0689 44.813 46.8071 44.813 45.9405 43.1441C45.074 41.4753 44.9884 41.2613 44.5926 40.9618C44.1968 40.6515 43.3731 40.6515 43.3731 40.6515C43.3731 40.6515 43.8973 40.3948 43.8545 39.5818C43.8117 38.7687 43.5442 33.8585 43.5442 30.7454C43.5442 27.6324 43.3303 23.7812 43.5015 22.7542C43.6726 21.7272 44.154 21.0854 43.6726 20.9998C43.1912 20.9142 43.0628 21.6844 42.068 21.8128C41.0731 21.9412 40.4205 21.9412 40.0675 21.8556C39.7251 21.7807 38.987 21.524 38.987 21.524Z" fill="#FCC500"/>
<path fill-rule="evenodd" clip-rule="evenodd" d="M41.5542 23.4062C41.5542 23.4062 41.9393 23.9625 42.2923 24.476C42.6454 24.9895 42.8593 24.9895 42.8593 24.9895C42.8593 24.9895 43.1589 24.1765 42.8593 23.9197C42.5491 23.6523 41.5542 23.4062 41.5542 23.4062Z" fill="#0D0A06"/>
<path fill-rule="evenodd" clip-rule="evenodd" d="M37.992 43.0479C37.992 43.0479 38.2915 44.5883 37.9064 44.8023C37.5213 45.0162 37.1255 44.8879 37.1255 44.8879C37.1255 44.8879 37.4571 44.5455 37.6176 43.9893C37.7674 43.433 37.992 43.0479 37.992 43.0479Z" fill="#0D0A06"/>
<path fill-rule="evenodd" clip-rule="evenodd" d="M48.9359 20.9252C48.9359 20.9252 48.7006 23.5675 48.8824 25.6322C49.075 27.6861 48.7862 28.7345 49.8024 28.6168C50.8294 28.4992 52.6694 28.0071 55.729 27.9536C58.7885 27.9001 60.3076 27.9964 60.3076 27.9964C60.3076 27.9964 53.7499 32.3397 52.0597 34.5434C50.3587 36.7364 50.4871 37.1536 49.9736 39.1327C49.4601 41.1118 49.8452 44.5779 50.1341 45.3374C50.4122 46.097 51.1183 46.2146 53.4718 45.99C55.8146 45.7653 59.5802 44.4816 63.0356 44.6849C66.4909 44.8988 68.0528 45.2411 70.5775 45.8188C73.1021 46.3965 74.4287 46.4928 75.1026 46.1077C75.7766 45.7332 76.3115 44.8988 76.3649 43.2942C76.4184 41.6895 76.6217 38.3946 76.5361 38.095C76.4398 37.7955 76.8249 36.9504 73.99 36.6616C71.1551 36.3727 66.8653 36.6402 65.1858 36.5867C63.5063 36.5332 61.6769 36.5225 61.6769 36.5225C61.6769 36.5225 66.4909 32.3183 68.684 30.6387C70.877 28.9592 71.9147 28.2424 72.15 27.4936C72.3747 26.7554 73.2947 23.4819 73.4124 21.5349C73.53 19.5879 73.7654 18.5396 72.5993 18.3577C71.4333 18.1758 72.2784 18.7 69.6254 19.0103C66.9723 19.3312 62.6825 19.5879 60.8532 19.5879C59.0239 19.5773 57.7509 19.4917 54.8946 19.5559C52.0383 19.62 51.0755 19.6307 50.3587 19.9089C49.6206 20.1977 49.075 20.0266 48.9359 20.9252Z" fill="#0D0A06"/>
<path fill-rule="evenodd" clip-rule="evenodd" d="M49.8988 20.9572C50.4016 20.6363 51.771 20.4865 55.4403 20.5079C59.1096 20.5293 61.3133 20.4544 64.9934 20.326C68.6627 20.1977 70.3315 20.2083 71.1232 19.8446C71.9148 19.4809 72.8883 18.2186 72.4711 20.4651C72.0539 22.7116 71.6474 24.9154 71.3585 26.06C71.0804 27.2047 71.4655 27.0763 69.9678 28.3279C68.4594 29.5796 62.2761 34.5754 61.5166 35.474C60.7571 36.3619 60.1045 38.3196 60.1045 38.3196C60.1045 38.3196 60.2757 37.5601 62.244 37.3354C64.2124 37.1108 66.3092 37.2178 67.7748 37.2712C69.2404 37.314 69.7325 37.1429 69.7218 37.5708C69.7111 37.9987 69.8929 38.2982 69.8929 38.2982C69.8929 38.2982 70.3529 37.635 71.1446 37.4745C71.9362 37.3033 73.4446 37.4959 74.3111 37.7206C75.1883 37.9452 75.6269 37.9559 75.5627 39.8815C75.4985 41.8071 75.4665 44.3959 75.0492 44.9629C74.6427 45.5299 74.3004 45.562 72.2036 45.1127C70.1176 44.6634 66.6194 43.7862 64.1696 43.8504C61.7199 43.9146 59.3664 43.9359 56.4673 44.5671C53.5575 45.1983 51.2896 45.8508 50.9686 45.1127C50.6477 44.3852 50.5193 39.5178 51.0542 37.9452C51.5891 36.3726 54.6272 33.2917 56.7347 31.6335C58.8422 29.9647 63.0785 27.6005 63.4957 26.8409C63.9129 26.0814 64.0306 25.4609 63.7524 24.8298C63.485 24.1986 62.9501 23.8884 62.9501 23.8884C62.9501 23.8884 63.3138 24.8619 62.8431 25.6642C62.3724 26.4665 62.1692 26.7982 60.9496 26.9051C59.7194 27.0121 55.1728 26.9693 53.9426 27.1619C52.7124 27.3651 50.7868 27.7396 50.4016 27.7717C50.0058 27.8037 49.717 27.6968 49.7919 26.9372C49.8668 26.167 49.8774 25.7819 49.9202 24.3912C49.9844 22.9791 49.4281 22.0484 49.8988 20.9572Z" fill="#FCC500"/>
<path fill-rule="evenodd" clip-rule="evenodd" d="M82.4843 20.3258C82.4843 20.3258 81.8531 22.9039 81.7248 24.9686C81.5964 27.0333 81.1578 28.0175 82.1848 28.0495C83.2117 28.0816 85.1159 27.8677 88.1434 28.2635C91.1709 28.6593 92.6685 28.9803 92.6685 28.9803C92.6685 28.9803 85.5224 32.3073 83.5006 34.2328C81.4894 36.1584 81.5536 36.5863 80.7406 38.4692C79.9382 40.352 79.7885 43.8394 79.9489 44.6311C80.1094 45.4227 80.7941 45.6473 83.1476 45.765C85.5011 45.8827 89.4164 45.1659 92.7969 45.8827C96.1774 46.5994 97.6751 47.1664 100.082 48.1078C102.489 49.0492 103.783 49.3381 104.511 49.0599C105.238 48.7818 105.891 48.0329 106.18 46.4604C106.479 44.8878 107.175 41.6571 107.132 41.3468C107.089 41.0366 107.592 40.2664 104.832 39.5603C102.061 38.8543 97.7928 38.4905 96.1346 38.191C94.4872 37.8915 92.6685 37.6133 92.6685 37.6133C92.6685 37.6133 98.0709 34.1687 100.489 32.8207C102.906 31.4835 104.051 30.9165 104.393 30.2212C104.736 29.5151 106.137 26.4128 106.544 24.5086C106.95 22.6044 107.346 21.5988 106.223 21.2458C105.099 20.8928 105.859 21.5346 103.184 21.4597C100.51 21.3849 96.2309 21.0211 94.423 20.743C92.6151 20.4648 91.3741 20.1974 88.5392 19.8337C85.7043 19.4807 84.7522 19.3523 83.9927 19.5234C83.2652 19.7053 82.741 19.4593 82.4843 20.3258Z" fill="#0D0A06"/>
<path fill-rule="evenodd" clip-rule="evenodd" d="M83.4252 20.4972C83.9708 20.2512 85.3508 20.3047 88.9774 20.861C92.6039 21.4172 94.7969 21.6633 98.4449 22.0805C102.103 22.4977 103.74 22.7438 104.585 22.5084C105.43 22.2731 106.575 21.1605 105.826 23.3214C105.077 25.4824 104.329 27.6005 103.879 28.6917C103.43 29.7829 103.837 29.708 102.157 30.7243C100.477 31.7406 93.6095 35.7843 92.7216 36.5546C91.8337 37.3248 90.8923 39.1541 90.8923 39.1541C90.8923 39.1541 91.1811 38.4267 93.1602 38.4908C95.1393 38.555 97.1932 38.9722 98.6374 39.2397C100.082 39.4964 100.595 39.4002 100.52 39.8281C100.445 40.256 100.584 40.5769 100.584 40.5769C100.584 40.5769 101.141 39.9885 101.943 39.9457C102.745 39.8923 104.211 40.3095 105.045 40.6518C105.88 40.9941 106.308 41.069 105.955 42.9625C105.602 44.856 105.174 47.4128 104.682 47.9156C104.19 48.4184 103.847 48.397 101.847 47.6481C99.8463 46.8993 96.53 45.5193 94.0909 45.2197C91.6625 44.9309 89.3304 44.61 86.3564 44.8025C83.3824 44.9951 81.0396 45.3053 80.8364 44.5351C80.6331 43.7648 81.2322 38.9402 82.0131 37.4639C82.7834 35.9876 86.2494 33.388 88.5922 32.0508C90.9243 30.7136 95.4816 28.9913 96.0058 28.3066C96.53 27.6219 96.7439 27.0229 96.5621 26.3596C96.3909 25.6963 95.9095 25.3112 95.9095 25.3112C95.9095 25.3112 96.1127 26.3275 95.5351 27.055C94.9574 27.7824 94.7006 28.0819 93.4704 28.0071C92.2402 27.9322 87.7471 27.2154 86.5062 27.2368C85.2545 27.2582 83.3076 27.3438 82.9117 27.3224C82.5159 27.301 82.2485 27.1512 82.441 26.4024C82.6336 25.6536 82.6978 25.2791 82.9545 23.8991C83.2006 22.5084 82.7941 21.5135 83.4252 20.4972Z" fill="#FCC500"/>
<path fill-rule="evenodd" clip-rule="evenodd" d="M125.061 36.3934C125.061 36.3934 125.264 37.292 125.596 37.8376C125.927 38.3939 126.002 38.9822 126.002 38.9822L124.066 38.7041C124.066 38.7041 124.227 38.5115 124.269 38.4259C124.312 38.3404 124.515 37.8911 124.58 37.5273C124.633 37.1636 125.061 36.3934 125.061 36.3934ZM121.049 44.8232C121.049 44.8232 121.584 45.1655 122.889 45.8609C124.205 46.5562 124.451 46.5669 124.451 46.5669C124.451 46.5669 123.317 48.6851 122.707 50.279C122.098 51.8837 122.622 53.1888 125.949 53.4135C129.276 53.6381 134.742 54.1302 134.999 53.114C135.256 52.0977 134.988 50.5572 134.988 49.7656C134.978 48.9739 134.603 48.2144 134.603 48.2144C134.603 48.2144 134.571 47.8507 135.47 45.5399C136.379 43.2292 136.935 42.2343 136.775 41.0041C136.614 39.7739 135.031 34.9813 134.133 32.0073C133.223 29.0226 132.902 28.338 132.945 27.7924C132.988 27.2468 132.014 26.0273 130.891 26.2519C129.757 26.4766 127.767 27.6212 125.96 27.8031C124.152 27.9849 123.178 27.7924 122.804 27.8352C122.429 27.8673 121.68 28.8515 119.723 30.2957C117.765 31.7399 114.588 34.7459 113.593 35.6552C112.598 36.5645 112.127 37.1957 112.052 38.2227C111.978 39.2497 112.085 40.1804 111.667 40.8436C111.261 41.5069 111.1 41.079 110.79 42.8762C110.48 44.6841 109.999 47.3265 109.72 48.3C109.442 49.2735 110.148 50.1828 111.742 50.2897C113.347 50.3967 117.808 51.0707 118.503 50.8674C119.199 50.6749 120.3 49.0488 120.439 47.8934C120.6 46.8023 121.049 44.8232 121.049 44.8232Z" fill="#0D0A06"/>
<path fill-rule="evenodd" clip-rule="evenodd" d="M125.168 34.7675C124.761 34.7782 124.408 35.7089 123.948 36.6824C123.488 37.6559 123.146 38.4368 123.103 39.1001C123.061 39.7634 123.67 39.2926 124.28 39.4424C124.89 39.5922 126.516 40.0522 126.708 39.8703C126.89 39.6992 126.762 39.3996 126.783 38.8113C126.805 38.2229 126.537 37.8805 126.12 36.9605C125.703 36.0405 125.168 34.7675 125.168 34.7675ZM125.04 28.8837C125.446 28.841 125.949 28.7447 126.537 28.5842C128.976 27.9316 130.528 27.2149 131.18 27.2577C131.833 27.3005 132.239 27.5358 132.25 28.2847C132.261 29.0335 132.539 30.114 133.031 31.4512C133.523 32.7777 134.068 34.8103 134.721 36.9712C135.374 39.1322 136.272 40.202 135.887 41.7638C135.513 43.3257 134.208 46.4601 134.047 47.2518C133.887 48.0327 132.71 47.9043 132.71 47.9043C132.71 47.9043 134.133 48.3215 134.186 49.0597C134.24 49.8085 134.4 52.0872 134.379 52.4081C134.357 52.7183 134.175 53.0286 131.105 53.0286C128.035 53.0286 125.97 52.622 124.847 52.4937C123.724 52.3653 123.21 52.0123 123.253 51.4881C123.296 50.9639 124.547 48.3536 124.975 47.6369C125.403 46.9201 125.574 45.9787 125.574 45.9787C125.574 45.9787 124.462 46.0643 123.221 45.2834C121.98 44.5132 121.509 44.0318 121.124 44.2136C120.739 44.3955 120.611 44.6308 120.14 45.9787C119.669 47.3267 119.284 49.7871 118.3 50.0332C117.316 50.2792 114.01 49.7443 112.791 49.6053C111.571 49.4662 110.277 49.3271 110.801 47.348C111.314 45.369 112.106 42.6196 112.138 42.0955C112.17 41.5713 113.069 41.9243 113.069 41.9243C113.069 41.9243 113.4 41.4536 112.876 40.7689C112.341 40.0843 112.844 38.9717 113.304 37.8378C113.753 36.7038 114.695 35.6554 116.76 33.8903C118.824 32.1252 121.263 30.3814 121.894 29.7396C123.274 28.3489 123.242 29.087 125.04 28.8837Z" fill="#FCC500"/>
<path fill-rule="evenodd" clip-rule="evenodd" d="M69.3794 0H34.355L40.5918 17.3945H69.3794H95.7386L101.975 0H69.3794Z" fill="#0D0A06"/>
<path fill-rule="evenodd" clip-rule="evenodd" d="M35.7988 1.00586L41.3189 16.3892H95.0108L100.531 1.00586H35.7988Z" fill="#E41B15"/>
<path d="M85.3937 10.0236L88.4211 9.99154L87.683 5.37011H87.3727L85.3937 10.0236ZM81.2322 13.1688L86.0462 3.77614H89.523L91.7481 13.2543H89.063L88.6351 11.5748H84.7839L83.9816 13.1474L81.2322 13.1688ZM78.0978 3.72266H80.9755C80.9755 3.72266 80.6011 10.1627 80.5583 10.9008C80.5155 11.639 79.3922 13.2864 77.3062 13.3613C75.2201 13.4469 74.3001 12.3343 74.3001 12.3343L75.9689 10.7725C75.9689 10.7725 76.0866 11.6176 76.889 11.4678C77.6913 11.3288 77.702 10.9543 77.7662 9.74549L78.0978 3.72266ZM65.8382 13.1581L65.5066 7.10314L70.4703 13.2009H73.2196L73.3801 3.79754H70.5452L70.6629 10.1734L65.5279 3.84033H62.7786L63.2279 13.1688H65.8382V13.1581ZM60.7675 13.1367H58.0074L57.3335 3.81894H60.0935L60.7675 13.1367ZM54.6376 3.79754L55.8037 13.265H53.033L47.2455 7.04966L48.2725 13.265H45.7799L43.9292 3.89382H46.7962L52.8297 10.4515L51.9418 3.80824H54.6376V3.79754Z" fill="white"/>
</svg>
