<svg width="70" height="70" viewBox="0 0 70 70" fill="none" xmlns="http://www.w3.org/2000/svg">
<path d="M52.1523 15.5938L47.8735 33.5074L46.8696 32.2484L52.1523 15.5938Z" fill="#333333"/>
<path d="M53.8125 12.3506L48.7601 33.5063L52.1503 61.9196L53.3106 33.2512L53.8125 12.3506Z" fill="#333333"/>
<path d="M52.1538 46.7142L51.7341 35.1036L52.8203 25.1553L52.1538 46.7142Z" fill="black"/>
<path d="M27.5988 23.361C28.4792 23.1388 29.4338 23.3034 30.2155 23.8794C31.5403 24.8503 31.8941 26.6606 31.0877 28.043L32.3961 29.7875L34.0665 28.3557C33.9513 27.9607 33.9101 27.5411 33.9513 27.1132C34.1405 25.3605 35.7122 24.0933 37.4649 24.2826C37.8269 24.3237 38.1643 24.4142 38.4688 24.5623L35.6546 0L27.607 23.3198V23.3445L27.5988 23.361Z" fill="white"/>
<path d="M27.5988 23.3608C28.4792 23.1386 29.4338 23.3032 30.2155 23.8792C31.5403 24.8502 31.8941 26.6605 31.0877 28.0429L32.3961 29.7873L34.0665 28.3556C33.9513 27.9606 33.9101 27.5409 33.9513 27.113C34.1405 25.3604 35.7122 24.0932 37.4649 24.2824C37.8269 24.3236 38.1643 24.4141 38.4688 24.5622L35.0457 5.60352L27.6152 23.3361L27.5988 23.3608Z" fill="#1E1E1E"/>
<path d="M35.6523 0L27.6048 23.3198L35.0434 5.6119L35.6523 0Z" fill="#939393"/>
<path d="M27.6094 23.3437V23.3193L27.6013 23.3599L27.6094 23.3437Z" fill="#939393"/>
<path d="M3.80571 14.0049L20.0078 32.6838H20.0243C20.2793 31.828 20.8965 31.0874 21.7687 30.7007C23.2663 30.0506 24.9779 30.6266 25.7843 32.0008L27.9648 31.7457L27.5534 29.5487C27.1667 29.4499 26.7964 29.2854 26.4508 29.0303C25.0355 27.9935 24.7228 25.9939 25.7596 24.5786C25.9653 24.2988 26.2122 24.0602 26.4837 23.871L3.80571 14.0049Z" fill="white"/>
<path d="M8.34789 17.3457L20.0078 32.6838H20.0243C20.2793 31.828 20.8965 31.0874 21.7687 30.7007C23.2663 30.0506 24.9779 30.6266 25.7843 32.0008L27.9648 31.7457L27.5534 29.5487C27.1667 29.45 26.7964 29.2854 26.4508 29.0303C25.0355 27.9935 24.7228 25.994 25.7596 24.5786C25.9653 24.2989 26.2122 24.0602 26.4837 23.871L8.34789 17.3457Z" fill="#1E1E1E"/>
<path d="M3.80531 14.0049L8.35572 17.3457L20.0156 32.6838L3.80531 14.0049Z" fill="#939393"/>
<path d="M24.2738 43.8911C23.6731 43.2493 23.344 42.3442 23.451 41.3897C23.632 39.7686 24.9815 38.5672 26.5696 38.5508L27.4336 36.5348L25.3518 35.8024C25.072 36.1069 24.7264 36.3455 24.3314 36.5266C22.7186 37.2342 20.8425 36.5019 20.1348 34.8891C19.9867 34.5599 19.9127 34.2226 19.888 33.877H19.8715L-0.000520706 48.5814L24.2738 43.8911Z" fill="white"/>
<path d="M24.2738 43.8911C23.6731 43.2493 23.344 42.3442 23.451 41.3897C23.632 39.7686 24.9815 38.5672 26.5696 38.5508L27.4336 36.5348L25.3518 35.8024C25.072 36.1069 24.7264 36.3455 24.3314 36.5266C22.7186 37.2342 20.8425 36.5019 20.1348 34.8891C19.9867 34.5599 19.9127 34.2226 19.888 33.877H19.8715L5.16703 46.3268L24.2738 43.8911Z" fill="#1E1E1E"/>
<path d="M-0.000898361 48.5897L5.15842 46.3268L24.2734 43.8994L-0.000898361 48.5897Z" fill="#939393"/>
<path d="M25.2507 44.624L28.0978 69.2686L36.1289 45.8172C35.2567 46.0229 34.3022 45.8583 33.5204 45.2823C32.2039 44.3195 31.85 42.5257 32.64 41.1433L31.3316 39.3906L29.6695 40.8142C29.7929 41.2174 29.834 41.6453 29.7847 42.0731C29.5954 43.8258 28.0155 45.0848 26.2628 44.8956C25.909 44.8709 25.5716 44.7639 25.2507 44.624Z" fill="white"/>
<path d="M25.2507 44.624L28.7149 63.5909L36.1289 45.8172C35.2567 46.0229 34.3022 45.8583 33.5204 45.2823C32.2039 44.3195 31.85 42.5257 32.64 41.1433L31.3316 39.3906L29.6695 40.8142C29.7929 41.2174 29.834 41.6453 29.7847 42.0731C29.5954 43.8258 28.0155 45.0848 26.2628 44.8956C25.909 44.8709 25.5716 44.7639 25.2507 44.624Z" fill="#1E1E1E"/>
<path d="M28.0978 69.309L28.7232 63.5902L36.1289 45.8164L28.0978 69.309Z" fill="#939393"/>
<path d="M35.7632 37.4561L36.1664 39.6202C36.5613 39.7189 36.9481 39.8999 37.3019 40.1468C38.7172 41.1836 39.0217 43.1832 37.9849 44.5985C37.7709 44.8865 37.5241 45.1251 37.2443 45.3144V45.3308L59.9141 55.2051L43.7284 36.5098H43.7202C43.4651 37.3655 42.848 38.1143 41.9675 38.4929C40.4699 39.1511 38.7501 38.5669 37.952 37.1927L35.7632 37.4561Z" fill="white"/>
<path d="M35.7624 37.4561L36.1656 39.6202C36.5605 39.7189 36.9473 39.8999 37.3011 40.1468C38.7164 41.1836 39.0209 43.1832 37.9841 44.5985C37.7701 44.8865 37.5233 45.1251 37.2435 45.3144V45.3308L55.3711 51.8643L43.7276 36.5098H43.7194C43.4643 37.3655 42.8472 38.1143 41.9667 38.4929C40.4691 39.1511 38.7493 38.5669 37.9512 37.1927L35.7624 37.4561Z" fill="#1E1E1E"/>
<path d="M59.9062 55.2057L55.3641 51.8649L43.7124 36.5186L59.9062 55.2057Z" fill="#939393"/>
<path d="M36.2834 32.6601L38.357 33.3924C38.645 33.0962 38.9988 32.8411 39.3938 32.6683C41.0066 31.9607 42.8827 32.693 43.5821 34.314C43.7303 34.6432 43.8043 34.9723 43.8372 35.3179H43.8455L63.7422 20.6299L39.4596 25.3037C40.0603 25.9456 40.3895 26.8507 40.2825 27.8134C40.1015 29.4345 38.7437 30.6441 37.1474 30.6523L36.2834 32.6601Z" fill="white"/>
<path d="M36.283 32.6599L38.3566 33.3923C38.6446 33.096 38.9984 32.8409 39.3934 32.6681C41.0062 31.9605 42.8823 32.6928 43.5817 34.3139C43.7298 34.643 43.8039 34.9721 43.8368 35.3177H43.845L58.5742 22.8926L39.451 25.2953C40.0517 25.9372 40.3808 26.8423 40.2738 27.805C40.0928 29.4261 38.7351 30.6357 37.1387 30.6439L36.283 32.6599Z" fill="#1E1E1E"/>
<path d="M63.7422 20.6299L58.5746 22.8927L39.4596 25.2955L63.7422 20.6299Z" fill="#939393"/>
<path d="M27.6 23.3614C28.4805 23.1392 29.435 23.3038 30.2167 23.8798C31.5415 24.8507 31.8953 26.661 31.0889 28.0434L32.3973 29.7879L35.0469 5.6123L27.6165 23.3202V23.3449L27.6 23.3614Z" fill="#070707"/>
<path d="M8.34398 17.3457L20.0039 32.6838H20.0204C20.2754 31.828 20.8926 31.0874 21.7648 30.7007C23.2624 30.0506 24.974 30.6266 25.7804 32.0008L27.9609 31.7457L8.34398 17.3457Z" fill="#070707"/>
<path d="M24.2738 43.8915C23.6731 43.2497 23.344 42.3445 23.451 41.39C23.632 39.769 24.9815 38.5676 26.5696 38.5512L27.4336 36.5352L5.16703 46.3272L24.2738 43.8915Z" fill="#070707"/>
<path d="M31.3355 39.3984L28.7189 63.5905L36.1328 45.8167C35.2606 46.0225 34.3061 45.8579 33.5244 45.2819C32.2078 44.3191 31.8539 42.5253 32.6439 41.1429L31.3355 39.3984Z" fill="#070707"/>
<path d="M35.7632 37.457L55.3555 51.8653L43.712 36.5107H43.7038C43.4487 37.3665 42.8316 38.1153 41.9511 38.4938C40.4535 39.1521 38.7337 38.5679 37.9355 37.1937L35.7632 37.457Z" fill="#070707"/>
<path d="M36.2791 32.6599L58.5703 22.8926L39.4471 25.2953C40.0478 25.9372 40.3769 26.8423 40.2699 27.805C40.0889 29.4261 38.7312 30.6357 37.1348 30.6439L36.2791 32.6599Z" fill="#070707"/>
<path d="M24.2339 32.3214C24.5466 31.2517 25.0732 30.2889 25.7644 29.4661C26.2335 28.8983 26.793 28.3881 27.4102 27.9767C28.4223 27.2855 29.6072 26.8329 30.8579 26.6766C31.4669 26.5943 32.1005 26.5861 32.7341 26.6601C34.3551 26.8412 35.8115 27.4912 36.9718 28.4787C37.2022 28.6679 37.4326 28.8736 37.6383 29.0958C38.7821 30.3054 39.5473 31.8606 39.7613 33.5722C39.7777 33.712 39.786 33.8519 39.8024 33.9918C39.8436 34.4608 39.8353 34.9463 39.7777 35.44C39.6214 36.8718 39.0948 38.1719 38.2966 39.2581C38.1896 39.4062 38.0826 39.5543 37.951 39.686C36.8813 40.9779 35.4001 41.9077 33.7462 42.3109C33.4582 42.3767 33.1702 42.4343 32.8657 42.4755C32.2568 42.5495 31.6232 42.5578 30.9896 42.4919C30.0515 42.3932 29.1793 42.1299 28.3811 41.7349C27.7887 41.4469 27.2456 41.0931 26.7519 40.6734C25.822 39.8917 25.0732 38.8961 24.5795 37.7852C24.2668 37.094 24.0611 36.3534 23.9624 35.5799C23.8801 34.971 23.8719 34.3374 23.9459 33.6956C24.0035 33.2266 24.094 32.7658 24.2339 32.3214ZM28.8748 35.9008C28.9489 36.0736 29.0394 36.2382 29.1464 36.3946C29.2451 36.5509 29.3686 36.699 29.5002 36.8389C29.566 36.913 29.6319 36.9706 29.6977 37.0364C29.7388 37.0775 29.7882 37.1187 29.8376 37.1516C30.3066 37.5219 30.8826 37.7687 31.5162 37.8346C31.8536 37.8675 32.1745 37.8592 32.479 37.7934H32.4872C32.841 37.7358 33.1702 37.6042 33.4829 37.4396C33.5487 37.3902 33.631 37.3491 33.6968 37.2997L34.1411 36.9459C34.2481 36.8471 34.3469 36.7319 34.4374 36.6167C34.4703 36.5838 34.5032 36.5427 34.5279 36.5098C34.7994 36.1477 34.9969 35.7116 35.0957 35.2343V35.2261C35.1121 35.1356 35.1286 35.0368 35.145 34.9381C35.1779 34.6007 35.1697 34.2798 35.1039 33.9671C35.0216 33.531 34.8488 33.1196 34.6102 32.7575C34.5114 32.6012 34.388 32.4531 34.2563 32.3132C34.1576 32.2062 34.0424 32.1075 33.919 32.017C33.812 31.9182 33.6886 31.8359 33.5651 31.7701C33.1784 31.5315 32.7258 31.3751 32.2403 31.3175C31.903 31.2846 31.5821 31.2928 31.2694 31.3587C31.1213 31.3834 30.9896 31.4163 30.8579 31.4656C30.5782 31.5562 30.3066 31.6878 30.068 31.8524L29.6236 32.2062C29.5167 32.305 29.4097 32.4202 29.3192 32.5436C28.9407 33.0126 28.6938 33.5886 28.628 34.2222C28.6198 34.3292 28.6115 34.4279 28.6115 34.5267C28.6033 34.7571 28.628 34.9792 28.6691 35.2014C28.6856 35.44 28.7679 35.6704 28.8748 35.9008Z" fill="#1E1E1E"/>
<path d="M28.8758 35.9009C28.9499 36.0737 29.0404 36.2383 29.1474 36.3946C29.2461 36.551 29.3695 36.6991 29.5012 36.839C29.567 36.913 29.6328 36.9706 29.6987 37.0365C29.7398 37.0776 29.7892 37.1188 29.8386 37.1517C30.3076 37.522 30.8836 37.7688 31.5172 37.8346C31.8546 37.8676 32.1755 37.8593 32.4799 37.7935H32.4882C32.842 37.7359 33.1711 37.6042 33.4838 37.4397C33.5496 37.3903 33.6319 37.3492 33.6978 37.2998L34.1421 36.946C34.2491 36.8472 34.3478 36.732 34.4383 36.6168C34.4713 36.5839 34.5042 36.5428 34.5289 36.5098C34.8004 36.1478 34.9979 35.7117 35.0966 35.2344V35.2262C35.1131 35.1357 35.1295 35.0369 35.146 34.9382C35.1789 34.6008 35.1707 34.2799 35.1049 33.9672C35.0226 33.5311 34.8498 33.1197 34.6111 32.7576C34.5124 32.6013 34.389 32.4532 34.2573 32.3133C34.1586 32.2063 34.0434 32.1076 33.9199 32.017C33.813 31.9183 33.6895 31.836 33.5661 31.7702C33.1794 31.5316 32.7268 31.3752 32.2413 31.3176C31.9039 31.2847 31.583 31.2929 31.2703 31.3587C31.1222 31.3834 30.9906 31.4164 30.8589 31.4657C30.5791 31.5562 30.3076 31.6879 30.069 31.8525L29.6246 32.2063C29.5176 32.305 29.4107 32.4202 29.3202 32.5437C28.9416 33.0127 28.6948 33.5887 28.629 34.2223C28.6207 34.3293 28.6125 34.428 28.6125 34.5268C28.6043 34.7572 28.629 34.9793 28.6701 35.2015C28.6866 35.4401 28.7688 35.6705 28.8758 35.9009ZM28.8018 32.1322C29.205 31.6138 29.7316 31.2189 30.3405 30.9555C30.6038 30.8403 30.8754 30.7581 31.1634 30.7169C31.5254 30.6429 31.9122 30.6264 32.2907 30.6675C32.9819 30.7416 33.6155 30.9967 34.1339 31.3752C34.1915 31.4164 34.2491 31.4575 34.2985 31.5151C35.039 32.0829 35.541 32.9222 35.7138 33.8767C35.7796 34.2388 35.7961 34.6173 35.7549 35.004L35.7467 35.0452C35.6644 35.7364 35.4011 36.3617 35.0226 36.8801C34.9897 36.9295 34.9567 36.9706 34.9074 37.02C34.5371 37.5055 34.0516 37.884 33.5003 38.1391C33.204 38.279 32.8831 38.386 32.554 38.4353C32.1837 38.5012 31.8134 38.5176 31.4267 38.4765C30.7026 38.3942 30.036 38.1226 29.493 37.703C29.46 37.6783 29.4354 37.6618 29.4107 37.6289C28.917 37.2422 28.522 36.732 28.2669 36.156C28.1435 35.8845 28.0447 35.5882 27.9954 35.2756C27.9378 34.93 27.9131 34.5761 27.946 34.2141L27.9542 34.1482C28.053 33.383 28.3492 32.6918 28.8018 32.1322Z" fill="url(#paint0_linear)"/>
<path d="M31.164 42.4772C26.7907 42.0965 23.5539 38.2427 23.9346 33.8694C24.3152 29.4961 28.169 26.2593 32.5423 26.6399C36.9157 27.0206 40.1524 30.8744 39.7718 35.2477C39.3912 39.621 35.5373 42.8578 31.164 42.4772Z" stroke="url(#paint1_linear)" stroke-miterlimit="10"/>
<path d="M53.815 12.3506L52.663 41.1589L52.1528 61.9196H69.6797V12.4L53.815 12.3506Z" fill="#141414"/>
<path d="M53.8142 12.3506C53.8142 12.3506 52.0285 32.8398 52.1767 39.8999C52.3248 46.96 52.1602 61.9196 52.1602 61.9196L56.5625 39.1593L53.8142 12.3506Z" fill="#595959"/>
<path d="M56.837 42.4274L52.8873 60.6537L59.9062 36.1572L56.837 42.4274Z" fill="#595959"/>
<defs>
<linearGradient id="paint0_linear" x1="34.5458" y1="32.0237" x2="29.2095" y2="37.106" gradientUnits="userSpaceOnUse">
<stop stop-color="white"/>
<stop offset="1" stop-color="#252525"/>
</linearGradient>
<linearGradient id="paint1_linear" x1="38.388" y1="29.3414" x2="25.3211" y2="39.7834" gradientUnits="userSpaceOnUse">
<stop stop-color="white"/>
<stop offset="1" stop-color="#252525"/>
</linearGradient>
</defs>
</svg>
